<?xml version="1.0" encoding="utf-8" standalone="no"?>
<!DOCTYPE svg PUBLIC "-//W3C//DTD SVG 1.1//EN"
  "http://www.w3.org/Graphics/SVG/1.1/DTD/svg11.dtd">
<svg xmlns:xlink="http://www.w3.org/1999/xlink" width="108pt" height="108pt" viewBox="0 0 108 108" xmlns="http://www.w3.org/2000/svg" version="1.1">
 <metadata>
  <rdf:RDF xmlns:dc="http://purl.org/dc/elements/1.1/" xmlns:cc="http://creativecommons.org/ns#" xmlns:rdf="http://www.w3.org/1999/02/22-rdf-syntax-ns#">
   <cc:Work>
    <dc:type rdf:resource="http://purl.org/dc/dcmitype/StillImage"/>
    <dc:date>2024-04-24T10:52:10.085231</dc:date>
    <dc:format>image/svg+xml</dc:format>
    <dc:creator>
     <cc:Agent>
      <dc:title>Matplotlib v3.8.0, https://matplotlib.org/</dc:title>
     </cc:Agent>
    </dc:creator>
   </cc:Work>
  </rdf:RDF>
 </metadata>
 <defs>
  <style type="text/css">*{stroke-linejoin: round; stroke-linecap: butt}</style>
 </defs>
 <g id="figure_1">
  <g id="patch_1">
   <path d="M 0 108 
L 108 108 
L 108 0 
L 0 0 
L 0 108 
z
" style="fill: none; opacity: 0"/>
  </g>
  <g id="axes_1">
   <g id="patch_2">
    <path d="M 21.576853 91.066248 
L 91.963384 91.066248 
L 91.963384 16.933752 
L 21.576853 16.933752 
z
" style="fill: #eceff4"/>
   </g>
   <g id="matplotlib.axis_1">
    <g id="xtick_1">
     <g id="line2d_1">
      <defs>
       <path id="maf802cabab" d="M 0 0 
L 0 4.8 
" style="stroke: #2e3440"/>
      </defs>
      <g>
       <use xlink:href="#maf802cabab" x="24.77624" y="91.066248" style="fill: #2e3440; stroke: #2e3440"/>
      </g>
     </g>
     <g id="text_1">
      <text style="fill: #2e3440; font: 6.16px 'Arial'; text-anchor: middle" x="24.77624" y="103.77546" transform="rotate(-0 24.77624 103.77546)">10</text>
     </g>
    </g>
    <g id="xtick_2">
     <g id="line2d_2">
      <g>
       <use xlink:href="#maf802cabab" x="88.763996" y="91.066248" style="fill: #2e3440; stroke: #2e3440"/>
      </g>
     </g>
     <g id="text_2">
      <text style="fill: #2e3440; font: 6.16px 'Arial'; text-anchor: middle" x="88.763996" y="103.77546" transform="rotate(-0 88.763996 103.77546)">50</text>
     </g>
    </g>
    <g id="text_3">
     <!-- NaOH ($mM$) -->
     <g style="fill: #2e3440" transform="translate(38.088518 103.385097)">
      <text>
       <tspan style="font: 6.72px 'Arial'" x="0 4.852066 8.588715 13.814774 18.66684 20.533524 35.112686" y="-0.109375">NaOH ()</tspan>
       <tspan style="font: oblique 6.72px 'DejaVu Sans'" x="22.77092 29.315796" y="-0.109375">mM</tspan>
      </text>
     </g>
    </g>
   </g>
   <g id="matplotlib.axis_2">
    <g id="ytick_1">
     <g id="line2d_3">
      <defs>
       <path id="m2e9d8b2b31" d="M 0 0 
L -4.8 0 
" style="stroke: #2e3440"/>
      </defs>
      <g>
       <use xlink:href="#m2e9d8b2b31" x="21.576853" y="87.696589" style="fill: #2e3440; stroke: #2e3440"/>
      </g>
     </g>
     <g id="text_4">
      <text style="fill: #2e3440; font: 6.16px 'Arial'; text-anchor: end" x="13.276853" y="89.901195" transform="rotate(-0 13.276853 89.901195)">10</text>
     </g>
    </g>
    <g id="ytick_2">
     <g id="line2d_4">
      <g>
       <use xlink:href="#m2e9d8b2b31" x="21.576853" y="20.303411" style="fill: #2e3440; stroke: #2e3440"/>
      </g>
     </g>
     <g id="text_5">
      <text style="fill: #2e3440; font: 6.16px 'Arial'; text-anchor: end" x="13.276853" y="22.508018" transform="rotate(-0 13.276853 22.508018)">150</text>
     </g>
    </g>
    <g id="text_6">
     <!-- Form. ($mM$) -->
     <g style="fill: #2e3440" transform="translate(13.059799 72.144) rotate(-90)">
      <text>
       <tspan style="font: 6.72px 'Arial'" x="0 4.10408 7.840729 10.078125 15.674896 17.54158 19.408264 33.987427" y="-0.109375">Form. ()</tspan>
       <tspan style="font: oblique 6.72px 'DejaVu Sans'" x="21.64566 28.190536" y="-0.109375">mM</tspan>
      </text>
     </g>
    </g>
   </g>
   <g id="PathCollection_1">
    <defs>
     <path id="mffefa787c3" d="M 0 1.414214 
C 0.375054 1.414214 0.734797 1.265203 1 1 
C 1.265203 0.734797 1.414214 0.375054 1.414214 0 
C 1.414214 -0.375054 1.265203 -0.734797 1 -1 
C 0.734797 -1.265203 0.375054 -1.414214 0 -1.414214 
C -0.375054 -1.414214 -0.734797 -1.265203 -1 -1 
C -1.265203 -0.734797 -1.414214 -0.375054 -1.414214 0 
C -1.414214 0.375054 -1.265203 0.734797 -1 1 
C -0.734797 1.265203 -0.375054 1.414214 0 1.414214 
z
"/>
    </defs>
    <g clip-path="url(#p6e6afe9dbd)">
     <use xlink:href="#mffefa787c3" x="52.434308" y="49.057721" style="fill: #b48ead"/>
     <use xlink:href="#mffefa787c3" x="57.780325" y="45.993161" style="fill: #b48ead"/>
     <use xlink:href="#mffefa787c3" x="43.718856" y="44.161366" style="fill: #b48ead"/>
     <use xlink:href="#mffefa787c3" x="28.982156" y="39.587006" style="fill: #b48ead"/>
     <use xlink:href="#mffefa787c3" x="40.773179" y="37.151706" style="fill: #b48ead"/>
     <use xlink:href="#mffefa787c3" x="38.176076" y="32.600741" style="fill: #b48ead"/>
     <use xlink:href="#mffefa787c3" x="40.423646" y="23.603511" style="fill: #b48ead"/>
     <use xlink:href="#mffefa787c3" x="24.77624" y="20.303411" style="fill: #b48ead"/>
     <use xlink:href="#mffefa787c3" x="76.663112" y="22.900504" style="fill: #b48ead"/>
     <use xlink:href="#mffefa787c3" x="88.763996" y="20.303411" style="fill: #b48ead"/>
     <use xlink:href="#mffefa787c3" x="88.669615" y="31.790675" style="fill: #b48ead"/>
     <use xlink:href="#mffefa787c3" x="72.767057" y="37.151706" style="fill: #b48ead"/>
     <use xlink:href="#mffefa787c3" x="80.721855" y="51.308268" style="fill: #b48ead"/>
     <use xlink:href="#mffefa787c3" x="80.721855" y="51.308268" style="fill: #b48ead"/>
     <use xlink:href="#mffefa787c3" x="78.724158" y="54.247044" style="fill: #b48ead"/>
     <use xlink:href="#mffefa787c3" x="60.908846" y="59.716097" style="fill: #b48ead"/>
     <use xlink:href="#mffefa787c3" x="66.290857" y="62.794906" style="fill: #b48ead"/>
     <use xlink:href="#mffefa787c3" x="71.643752" y="66.243992" style="fill: #b48ead"/>
     <use xlink:href="#mffefa787c3" x="72.767057" y="70.848294" style="fill: #b48ead"/>
     <use xlink:href="#mffefa787c3" x="47.736327" y="68.764208" style="fill: #b48ead"/>
     <use xlink:href="#mffefa787c3" x="40.773179" y="70.848294" style="fill: #b48ead"/>
     <use xlink:href="#mffefa787c3" x="31.922393" y="73.142021" style="fill: #b48ead"/>
     <use xlink:href="#mffefa787c3" x="54.629888" y="76.96798" style="fill: #b48ead"/>
     <use xlink:href="#mffefa787c3" x="63.488033" y="82.53533" style="fill: #b48ead"/>
     <use xlink:href="#mffefa787c3" x="49.670997" y="85.285164" style="fill: #b48ead"/>
     <use xlink:href="#mffefa787c3" x="24.77624" y="87.696589" style="fill: #b48ead"/>
     <use xlink:href="#mffefa787c3" x="45.142103" y="53.523001" style="fill: #b48ead"/>
     <use xlink:href="#mffefa787c3" x="41.366506" y="54.806648" style="fill: #b48ead"/>
     <use xlink:href="#mffefa787c3" x="49.277152" y="59.235776" style="fill: #b48ead"/>
     <use xlink:href="#mffefa787c3" x="55.596423" y="65.563369" style="fill: #b48ead"/>
     <use xlink:href="#mffefa787c3" x="39.280185" y="66.889956" style="fill: #b48ead"/>
     <use xlink:href="#mffefa787c3" x="40.773179" y="70.848294" style="fill: #b48ead"/>
     <use xlink:href="#mffefa787c3" x="32.431895" y="76.835986" style="fill: #b48ead"/>
     <use xlink:href="#mffefa787c3" x="44.390727" y="80.472184" style="fill: #b48ead"/>
     <use xlink:href="#mffefa787c3" x="25.892827" y="82.585057" style="fill: #b48ead"/>
     <use xlink:href="#mffefa787c3" x="53.300702" y="86.655605" style="fill: #b48ead"/>
     <use xlink:href="#mffefa787c3" x="63.102027" y="72.085104" style="fill: #b48ead"/>
     <use xlink:href="#mffefa787c3" x="72.767057" y="70.848294" style="fill: #b48ead"/>
     <use xlink:href="#mffefa787c3" x="81.363652" y="72.791865" style="fill: #b48ead"/>
     <use xlink:href="#mffefa787c3" x="81.363652" y="72.791865" style="fill: #b48ead"/>
     <use xlink:href="#mffefa787c3" x="78.441332" y="62.69011" style="fill: #b48ead"/>
     <use xlink:href="#mffefa787c3" x="75.545566" y="44.785427" style="fill: #b48ead"/>
     <use xlink:href="#mffefa787c3" x="86.022921" y="41.247863" style="fill: #b48ead"/>
     <use xlink:href="#mffefa787c3" x="72.767057" y="37.151706" style="fill: #b48ead"/>
     <use xlink:href="#mffefa787c3" x="56.912971" y="37.880755" style="fill: #b48ead"/>
     <use xlink:href="#mffefa787c3" x="40.773179" y="37.151706" style="fill: #b48ead"/>
     <use xlink:href="#mffefa787c3" x="60.280007" y="31.434935" style="fill: #b48ead"/>
     <use xlink:href="#mffefa787c3" x="69.425777" y="28.099695" style="fill: #b48ead"/>
     <use xlink:href="#mffefa787c3" x="67.833281" y="24.695425" style="fill: #b48ead"/>
     <use xlink:href="#mffefa787c3" x="73.284558" y="22.363043" style="fill: #b48ead"/>
     <use xlink:href="#mffefa787c3" x="85.154607" y="32.96139" style="fill: #b48ead"/>
     <use xlink:href="#mffefa787c3" x="36.263482" y="46.977005" style="fill: #b48ead"/>
     <use xlink:href="#mffefa787c3" x="27.718557" y="48.363957" style="fill: #b48ead"/>
     <use xlink:href="#mffefa787c3" x="57.764168" y="56.843222" style="fill: #b48ead"/>
     <use xlink:href="#mffefa787c3" x="61.060337" y="58.388547" style="fill: #b48ead"/>
     <use xlink:href="#mffefa787c3" x="56.442981" y="63.089944" style="fill: #b48ead"/>
     <use xlink:href="#mffefa787c3" x="49.062473" y="67.946825" style="fill: #b48ead"/>
     <use xlink:href="#mffefa787c3" x="40.773179" y="70.848294" style="fill: #b48ead"/>
     <use xlink:href="#mffefa787c3" x="37.359273" y="73.473692" style="fill: #b48ead"/>
     <use xlink:href="#mffefa787c3" x="42.538122" y="78.294855" style="fill: #b48ead"/>
     <use xlink:href="#mffefa787c3" x="45.888681" y="83.950924" style="fill: #b48ead"/>
     <use xlink:href="#mffefa787c3" x="71.947054" y="85.854685" style="fill: #b48ead"/>
     <use xlink:href="#mffefa787c3" x="84.902655" y="79.820974" style="fill: #b48ead"/>
     <use xlink:href="#mffefa787c3" x="72.767057" y="70.848294" style="fill: #b48ead"/>
     <use xlink:href="#mffefa787c3" x="68.749266" y="70.42598" style="fill: #b48ead"/>
     <use xlink:href="#mffefa787c3" x="29.078617" y="63.291016" style="fill: #b48ead"/>
     <use xlink:href="#mffefa787c3" x="29.078617" y="63.291016" style="fill: #b48ead"/>
     <use xlink:href="#mffefa787c3" x="24.818792" y="47.119734" style="fill: #b48ead"/>
     <use xlink:href="#mffefa787c3" x="41.288281" y="42.372366" style="fill: #b48ead"/>
     <use xlink:href="#mffefa787c3" x="40.773179" y="37.151706" style="fill: #b48ead"/>
     <use xlink:href="#mffefa787c3" x="51.515924" y="37.241724" style="fill: #b48ead"/>
     <use xlink:href="#mffefa787c3" x="64.164543" y="34.437831" style="fill: #b48ead"/>
     <use xlink:href="#mffefa787c3" x="72.767057" y="37.151706" style="fill: #b48ead"/>
     <use xlink:href="#mffefa787c3" x="68.284075" y="40.89506" style="fill: #b48ead"/>
     <use xlink:href="#mffefa787c3" x="74.887932" y="50.594141" style="fill: #b48ead"/>
     <use xlink:href="#mffefa787c3" x="86.697192" y="51.027672" style="fill: #b48ead"/>
     <use xlink:href="#mffefa787c3" x="82.059199" y="25.144841" style="fill: #b48ead"/>
     <use xlink:href="#mffefa787c3" x="79.143437" y="22.285108" style="fill: #b48ead"/>
     <use xlink:href="#mffefa787c3" x="35.956341" y="28.313283" style="fill: #b48ead"/>
     <use xlink:href="#mffefa787c3" x="32.393183" y="30.032868" style="fill: #b48ead"/>
     <use xlink:href="#mffefa787c3" x="51.350515" y="52.48736" style="fill: #b48ead"/>
     <use xlink:href="#mffefa787c3" x="61.784199" y="58.144584" style="fill: #b48ead"/>
     <use xlink:href="#mffefa787c3" x="73.784623" y="54.479984" style="fill: #b48ead"/>
     <use xlink:href="#mffefa787c3" x="67.16045" y="45.497147" style="fill: #b48ead"/>
     <use xlink:href="#mffefa787c3" x="50.084678" y="43.055926" style="fill: #b48ead"/>
     <use xlink:href="#mffefa787c3" x="58.699189" y="38.81574" style="fill: #b48ead"/>
     <use xlink:href="#mffefa787c3" x="72.767057" y="37.151706" style="fill: #b48ead"/>
     <use xlink:href="#mffefa787c3" x="75.528449" y="32.981031" style="fill: #b48ead"/>
     <use xlink:href="#mffefa787c3" x="79.369794" y="31.642506" style="fill: #b48ead"/>
     <use xlink:href="#mffefa787c3" x="85.291381" y="27.250011" style="fill: #b48ead"/>
     <use xlink:href="#mffefa787c3" x="87.188138" y="24.970244" style="fill: #b48ead"/>
     <use xlink:href="#mffefa787c3" x="40.773179" y="37.151706" style="fill: #b48ead"/>
     <use xlink:href="#mffefa787c3" x="35.447158" y="38.651252" style="fill: #b48ead"/>
     <use xlink:href="#mffefa787c3" x="28.556157" y="49.845259" style="fill: #b48ead"/>
     <use xlink:href="#mffefa787c3" x="32.439094" y="60.66066" style="fill: #b48ead"/>
     <use xlink:href="#mffefa787c3" x="53.893389" y="68.787555" style="fill: #b48ead"/>
     <use xlink:href="#mffefa787c3" x="44.53294" y="71.663511" style="fill: #b48ead"/>
     <use xlink:href="#mffefa787c3" x="40.773179" y="70.848294" style="fill: #b48ead"/>
     <use xlink:href="#mffefa787c3" x="37.735681" y="79.772836" style="fill: #b48ead"/>
     <use xlink:href="#mffefa787c3" x="27.356067" y="83.075535" style="fill: #b48ead"/>
     <use xlink:href="#mffefa787c3" x="45.668723" y="85.073742" style="fill: #b48ead"/>
     <use xlink:href="#mffefa787c3" x="65.032217" y="76.654024" style="fill: #b48ead"/>
     <use xlink:href="#mffefa787c3" x="81.58825" y="73.614399" style="fill: #b48ead"/>
     <use xlink:href="#mffefa787c3" x="72.767057" y="70.848294" style="fill: #b48ead"/>
     <use xlink:href="#mffefa787c3" x="70.107406" y="63.86511" style="fill: #b48ead"/>
     <use xlink:href="#mffefa787c3" x="74.887932" y="50.594141" style="fill: #b48ead"/>
     <use xlink:href="#mffefa787c3" x="86.697192" y="51.027672" style="fill: #b48ead"/>
     <use xlink:href="#mffefa787c3" x="88.597628" y="58.704044" style="fill: #b48ead"/>
     <use xlink:href="#mffefa787c3" x="88.648818" y="68.078435" style="fill: #b48ead"/>
     <use xlink:href="#mffefa787c3" x="72.767057" y="70.848294" style="fill: #b48ead"/>
     <use xlink:href="#mffefa787c3" x="40.773179" y="70.848294" style="fill: #b48ead"/>
     <use xlink:href="#mffefa787c3" x="24.955406" y="69.695871" style="fill: #b48ead"/>
     <use xlink:href="#mffefa787c3" x="29.078617" y="63.291016" style="fill: #b48ead"/>
     <use xlink:href="#mffefa787c3" x="25.409719" y="55.826355" style="fill: #b48ead"/>
     <use xlink:href="#mffefa787c3" x="24.818792" y="47.119734" style="fill: #b48ead"/>
     <use xlink:href="#mffefa787c3" x="41.288281" y="42.372366" style="fill: #b48ead"/>
     <use xlink:href="#mffefa787c3" x="40.773179" y="37.151706" style="fill: #b48ead"/>
     <use xlink:href="#mffefa787c3" x="51.515924" y="37.241724" style="fill: #b48ead"/>
     <use xlink:href="#mffefa787c3" x="51.515924" y="37.241724" style="fill: #b48ead"/>
     <use xlink:href="#mffefa787c3" x="64.164543" y="34.437831" style="fill: #b48ead"/>
     <use xlink:href="#mffefa787c3" x="72.767057" y="37.151706" style="fill: #b48ead"/>
     <use xlink:href="#mffefa787c3" x="68.284075" y="40.89506" style="fill: #b48ead"/>
     <use xlink:href="#mffefa787c3" x="26.407928" y="34.54359" style="fill: #b48ead"/>
     <use xlink:href="#mffefa787c3" x="32.393183" y="30.032868" style="fill: #b48ead"/>
     <use xlink:href="#mffefa787c3" x="35.956341" y="28.313283" style="fill: #b48ead"/>
     <use xlink:href="#mffefa787c3" x="25.441713" y="25.829652" style="fill: #b48ead"/>
     <use xlink:href="#mffefa787c3" x="54.217007" y="26.159878" style="fill: #b48ead"/>
     <use xlink:href="#mffefa787c3" x="59.400015" y="20.997561" style="fill: #b48ead"/>
     <use xlink:href="#mffefa787c3" x="79.143437" y="22.285108" style="fill: #b48ead"/>
     <use xlink:href="#mffefa787c3" x="82.059199" y="25.144841" style="fill: #b48ead"/>
     <use xlink:href="#mffefa787c3" x="77.425366" y="82.93863" style="fill: #b48ead"/>
     <use xlink:href="#mffefa787c3" x="88.763996" y="87.696589" style="fill: #b48ead"/>
    </g>
   </g>
   <g id="PathCollection_2">
    <defs>
     <path id="mec3131d8e6" d="M 0 1.414214 
C 0.375054 1.414214 0.734797 1.265203 1 1 
C 1.265203 0.734797 1.414214 0.375054 1.414214 0 
C 1.414214 -0.375054 1.265203 -0.734797 1 -1 
C 0.734797 -1.265203 0.375054 -1.414214 0 -1.414214 
C -0.375054 -1.414214 -0.734797 -1.265203 -1 -1 
C -1.265203 -0.734797 -1.414214 -0.375054 -1.414214 0 
C -1.414214 0.375054 -1.265203 0.734797 -1 1 
C -0.734797 1.265203 -0.375054 1.414214 0 1.414214 
z
" style="stroke: #000000; stroke-width: 0.6"/>
    </defs>
    <g clip-path="url(#p6e6afe9dbd)">
     <use xlink:href="#mec3131d8e6" x="72.767057" y="37.151706" style="fill: #b48ead; stroke: #000000; stroke-width: 0.6"/>
    </g>
   </g>
   <g id="patch_3">
    <path d="M 21.576853 91.066248 
L 21.576853 16.933752 
" style="fill: none; stroke: #2e3440; stroke-width: 0.5; stroke-linejoin: miter; stroke-linecap: square"/>
   </g>
   <g id="patch_4">
    <path d="M 91.963384 91.066248 
L 91.963384 16.933752 
" style="fill: none; stroke: #2e3440; stroke-width: 0.5; stroke-linejoin: miter; stroke-linecap: square"/>
   </g>
   <g id="patch_5">
    <path d="M 21.576853 91.066248 
L 91.963384 91.066248 
" style="fill: none; stroke: #2e3440; stroke-width: 0.5; stroke-linejoin: miter; stroke-linecap: square"/>
   </g>
   <g id="patch_6">
    <path d="M 21.576853 16.933752 
L 91.963384 16.933752 
" style="fill: none; stroke: #2e3440; stroke-width: 0.5; stroke-linejoin: miter; stroke-linecap: square"/>
   </g>
  </g>
  <g id="axes_2">
   <g id="matplotlib.axis_3">
    <g id="xtick_3">
     <g id="line2d_5">
      <defs>
       <path id="m54d3a620a7" d="M 0 0 
L 0 -4.8 
" style="stroke: #2e3440"/>
      </defs>
      <g>
       <use xlink:href="#m54d3a620a7" x="24.77624" y="16.933752" style="fill: #2e3440; stroke: #2e3440"/>
      </g>
     </g>
     <g id="text_7">
      <text style="fill: #2e3440; font: 6.16px 'Arial'; text-anchor: middle" x="24.77624" y="7.409452" transform="rotate(-0 24.77624 7.409452)">0</text>
     </g>
    </g>
    <g id="xtick_4">
     <g id="line2d_6">
      <g>
       <use xlink:href="#m54d3a620a7" x="88.763996" y="16.933752" style="fill: #2e3440; stroke: #2e3440"/>
      </g>
     </g>
     <g id="text_8">
      <text style="fill: #2e3440; font: 6.16px 'Arial'; text-anchor: middle" x="88.763996" y="7.409452" transform="rotate(-0 88.763996 7.409452)">1</text>
     </g>
    </g>
    <g id="text_9">
     <!-- $u_0$ -->
     <g style="fill: #2e3440" transform="translate(53.040518 9.520503)">
      <text>
       <tspan style="font: oblique 6.72px 'DejaVu Sans'" x="0" y="-0.328125">u</tspan>
       <tspan style="font: 4.704px 'DejaVu Sans'" x="4.25827" y="0.7734375">0</tspan>
      </text>
     </g>
    </g>
   </g>
   <g id="patch_7">
    <path d="M 21.576853 91.066248 
L 21.576853 16.933752 
" style="fill: none; stroke: #2e3440; stroke-width: 0.5; stroke-linejoin: miter; stroke-linecap: square"/>
   </g>
   <g id="patch_8">
    <path d="M 91.963384 91.066248 
L 91.963384 16.933752 
" style="fill: none; stroke: #2e3440; stroke-width: 0.5; stroke-linejoin: miter; stroke-linecap: square"/>
   </g>
   <g id="patch_9">
    <path d="M 21.576853 91.066248 
L 91.963384 91.066248 
" style="fill: none; stroke: #2e3440; stroke-width: 0.5; stroke-linejoin: miter; stroke-linecap: square"/>
   </g>
   <g id="patch_10">
    <path d="M 21.576853 16.933752 
L 91.963384 16.933752 
" style="fill: none; stroke: #2e3440; stroke-width: 0.5; stroke-linejoin: miter; stroke-linecap: square"/>
   </g>
  </g>
  <g id="axes_3">
   <g id="matplotlib.axis_4">
    <g id="ytick_3">
     <g id="line2d_7">
      <defs>
       <path id="m906e7392a2" d="M 0 0 
L 4.8 0 
" style="stroke: #2e3440"/>
      </defs>
      <g>
       <use xlink:href="#m906e7392a2" x="91.963384" y="87.696589" style="fill: #2e3440; stroke: #2e3440"/>
      </g>
     </g>
     <g id="text_10">
      <text style="fill: #2e3440; font: 6.16px 'Arial'; text-anchor: start" x="100.263384" y="89.901195" transform="rotate(-0 100.263384 89.901195)">0</text>
     </g>
    </g>
    <g id="ytick_4">
     <g id="line2d_8">
      <g>
       <use xlink:href="#m906e7392a2" x="91.963384" y="20.303411" style="fill: #2e3440; stroke: #2e3440"/>
      </g>
     </g>
     <g id="text_11">
      <text style="fill: #2e3440; font: 6.16px 'Arial'; text-anchor: start" x="100.263384" y="22.508018" transform="rotate(-0 100.263384 22.508018)">1</text>
     </g>
    </g>
    <g id="text_12">
     <!-- $u_1$ -->
     <g style="fill: #2e3440" transform="translate(103.812087 57.7296) rotate(-90)">
      <text>
       <tspan style="font: oblique 6.72px 'DejaVu Sans'" x="0" y="-0.328125">u</tspan>
       <tspan style="font: 4.704px 'DejaVu Sans'" x="4.25827" y="0.7734375">1</tspan>
      </text>
     </g>
    </g>
   </g>
   <g id="patch_11">
    <path d="M 21.576853 91.066247 
L 21.576853 16.933752 
" style="fill: none; stroke: #2e3440; stroke-width: 0.5; stroke-linejoin: miter; stroke-linecap: square"/>
   </g>
   <g id="patch_12">
    <path d="M 91.963384 91.066247 
L 91.963384 16.933752 
" style="fill: none; stroke: #2e3440; stroke-width: 0.5; stroke-linejoin: miter; stroke-linecap: square"/>
   </g>
   <g id="patch_13">
    <path d="M 21.576853 91.066248 
L 91.963384 91.066248 
" style="fill: none; stroke: #2e3440; stroke-width: 0.5; stroke-linejoin: miter; stroke-linecap: square"/>
   </g>
   <g id="patch_14">
    <path d="M 21.576853 16.933752 
L 91.963384 16.933752 
" style="fill: none; stroke: #2e3440; stroke-width: 0.5; stroke-linejoin: miter; stroke-linecap: square"/>
   </g>
  </g>
 </g>
 <defs>
  <clipPath id="p6e6afe9dbd">
   <rect x="21.576853" y="16.933752" width="70.386532" height="74.132495"/>
  </clipPath>
 </defs>
</svg>
