<?xml version="1.0" encoding="utf-8" standalone="no"?>
<!DOCTYPE svg PUBLIC "-//W3C//DTD SVG 1.1//EN"
  "http://www.w3.org/Graphics/SVG/1.1/DTD/svg11.dtd">
<svg xmlns:xlink="http://www.w3.org/1999/xlink" width="86.4pt" height="54pt" viewBox="0 0 86.4 54" xmlns="http://www.w3.org/2000/svg" version="1.1">
 <metadata>
  <rdf:RDF xmlns:dc="http://purl.org/dc/elements/1.1/" xmlns:cc="http://creativecommons.org/ns#" xmlns:rdf="http://www.w3.org/1999/02/22-rdf-syntax-ns#">
   <cc:Work>
    <dc:type rdf:resource="http://purl.org/dc/dcmitype/StillImage"/>
    <dc:date>2024-04-24T10:38:23.922227</dc:date>
    <dc:format>image/svg+xml</dc:format>
    <dc:creator>
     <cc:Agent>
      <dc:title>Matplotlib v3.8.0, https://matplotlib.org/</dc:title>
     </cc:Agent>
    </dc:creator>
   </cc:Work>
  </rdf:RDF>
 </metadata>
 <defs>
  <style type="text/css">*{stroke-linejoin: round; stroke-linecap: butt}</style>
 </defs>
 <g id="figure_1">
  <g id="patch_1">
   <path d="M 0 54 
L 86.4 54 
L 86.4 0 
L 0 0 
z
" style="fill: #ffffff"/>
  </g>
  <g id="axes_1">
   <g id="patch_2">
    <path d="M 28.457615 26.759947 
L 83.39976 26.759947 
L 83.39976 3.00024 
L 28.457615 3.00024 
z
" style="fill: #eceff4"/>
   </g>
   <g id="matplotlib.axis_1">
    <g id="xtick_1">
     <g id="line2d_1">
      <defs>
       <path id="mabc540fd95" d="M 0 0 
L 0 4.8 
" style="stroke: #2e3440"/>
      </defs>
      <g>
       <use xlink:href="#mabc540fd95" x="28.457615" y="26.759947" style="fill: #2e3440; stroke: #2e3440"/>
      </g>
     </g>
     <g id="text_1">
      <text style="fill: #2e3440; font: 6.16px 'Arial'; text-anchor: middle" x="28.457615" y="39.46916" transform="rotate(-0 28.457615 39.46916)">0</text>
     </g>
    </g>
    <g id="xtick_2">
     <g id="line2d_2">
      <g>
       <use xlink:href="#mabc540fd95" x="44.940258" y="26.759947" style="fill: #2e3440; stroke: #2e3440"/>
      </g>
     </g>
     <g id="text_2">
      <text style="fill: #2e3440; font: 6.16px 'Arial'; text-anchor: middle" x="44.940258" y="39.46916" transform="rotate(-0 44.940258 39.46916)">30</text>
     </g>
    </g>
    <g id="xtick_3">
     <g id="line2d_3">
      <g>
       <use xlink:href="#mabc540fd95" x="61.422902" y="26.759947" style="fill: #2e3440; stroke: #2e3440"/>
      </g>
     </g>
     <g id="text_3">
      <text style="fill: #2e3440; font: 6.16px 'Arial'; text-anchor: middle" x="61.422902" y="39.46916" transform="rotate(-0 61.422902 39.46916)">60</text>
     </g>
    </g>
    <g id="xtick_4">
     <g id="line2d_4">
      <g>
       <use xlink:href="#mabc540fd95" x="77.905545" y="26.759947" style="fill: #2e3440; stroke: #2e3440"/>
      </g>
     </g>
     <g id="text_4">
      <text style="fill: #2e3440; font: 6.16px 'Arial'; text-anchor: middle" x="77.905545" y="39.46916" transform="rotate(-0 77.905545 39.46916)">90</text>
     </g>
    </g>
    <g id="text_5">
     <text style="fill: #2e3440; font: 6.72px 'Arial'; text-anchor: middle" x="55.928687" y="49.58541" transform="rotate(-0 55.928687 49.58541)">Time (min.)</text>
    </g>
   </g>
   <g id="matplotlib.axis_2">
    <g id="ytick_1">
     <g id="line2d_5">
      <defs>
       <path id="m3d8d7fb4aa" d="M 0 0 
L -4.8 0 
" style="stroke: #2e3440"/>
      </defs>
      <g>
       <use xlink:href="#m3d8d7fb4aa" x="28.457615" y="26.759947" style="fill: #2e3440; stroke: #2e3440"/>
      </g>
     </g>
     <g id="text_6">
      <text style="fill: #2e3440; font: 6.16px 'Arial'; text-anchor: end" x="20.157615" y="28.964554" transform="rotate(-0 20.157615 28.964554)">0</text>
     </g>
    </g>
    <g id="ytick_2">
     <g id="line2d_6">
      <g>
       <use xlink:href="#m3d8d7fb4aa" x="28.457615" y="13.935594" style="fill: #2e3440; stroke: #2e3440"/>
      </g>
     </g>
     <g id="text_7">
      <text style="fill: #2e3440; font: 6.16px 'Arial'; text-anchor: end" x="20.157615" y="16.1402" transform="rotate(-0 20.157615 16.1402)">50</text>
     </g>
    </g>
    <g id="text_8">
     <text style="fill: #2e3440; font: 6.72px 'Arial'; text-anchor: middle" x="7.89219" y="14.880094" transform="rotate(-90 7.89219 14.880094)">Input (mM)</text>
    </g>
   </g>
   <g id="line2d_7">
    <path d="M 17.652326 19.548819 
L 18.110178 19.548819 
L 18.293318 4.061066 
L 18.659599 4.061066 
L 18.84274 10.257192 
L 19.209021 10.257192 
L 19.392161 17.306563 
L 19.758442 17.306563 
L 19.941583 13.206022 
L 20.307863 13.206022 
L 20.491004 9.411204 
L 20.857285 9.411204 
L 21.040425 16.382184 
L 21.406706 16.382184 
L 21.589847 6.485967 
L 21.956128 6.485967 
L 22.139268 15.038428 
L 22.505549 15.038428 
L 22.68869 15.713513 
L 23.054971 15.713513 
L 23.238111 22.331654 
L 23.604392 22.331654 
L 23.787533 7.015692 
L 24.153814 7.015692 
L 24.336954 15.743152 
L 24.703235 15.743152 
L 24.886376 20.745233 
L 25.252657 20.745233 
L 25.435797 16.167506 
L 25.802078 16.167506 
L 25.985218 20.213035 
L 26.351499 20.213035 
L 26.53464 20.865266 
L 26.900921 20.865266 
L 27.084061 17.379028 
L 27.450342 17.379028 
L 27.633483 17.062545 
L 27.999764 17.062545 
L 28.182904 13.319658 
L 28.549185 13.319658 
L 28.732326 18.527702 
L 29.098607 18.527702 
L 29.281747 16.715401 
L 29.648028 16.715401 
L 29.831169 16.591899 
L 30.19745 16.591899 
L 30.38059 15.136746 
L 30.746871 15.136746 
L 30.930012 15.005902 
L 31.296292 15.005902 
L 31.479433 9.212286 
L 31.845714 9.212286 
L 32.028854 12.618086 
L 32.395135 12.618086 
L 32.578276 15.635908 
L 32.944557 15.635908 
L 33.127697 12.628028 
L 33.493978 12.628028 
L 33.677119 14.93336 
L 34.0434 14.93336 
L 34.22654 11.75299 
L 34.592821 11.75299 
L 34.775962 16.684015 
L 35.142243 16.684015 
L 35.325383 13.151876 
L 35.691664 13.151876 
L 35.874805 10.752242 
L 36.241086 10.752242 
L 36.424226 13.575554 
L 36.790507 13.575554 
L 36.973647 14.661311 
L 37.339928 14.661311 
L 37.523069 17.977518 
L 37.88935 17.977518 
L 38.07249 18.872463 
L 38.438771 18.872463 
L 38.621912 20.426905 
L 38.988193 20.426905 
L 39.171333 25.277583 
L 39.537614 25.277583 
L 39.720755 14.012487 
L 40.087036 14.012487 
L 40.270176 20.0738 
L 40.636457 20.0738 
L 40.819598 16.983299 
L 41.185879 16.983299 
L 41.369019 13.081464 
L 41.7353 13.081464 
L 41.918441 13.931324 
L 42.284721 13.931324 
L 42.467862 12.957674 
L 42.834143 12.957674 
L 43.017283 18.794906 
L 43.383564 18.794906 
L 43.566705 11.842257 
L 43.932986 11.842257 
L 44.116126 9.734104 
L 44.482407 9.734104 
L 44.665548 22.831604 
L 45.031829 22.831604 
L 45.214969 4.599397 
L 45.58125 4.599397 
L 45.764391 13.806679 
L 46.130672 13.806679 
L 46.313812 11.388569 
L 46.680093 11.388569 
L 46.863234 18.935734 
L 47.229515 18.935734 
L 47.412655 13.467073 
L 47.778936 13.467073 
L 47.962076 9.945689 
L 48.328357 9.945689 
L 48.511498 19.022289 
L 48.877779 19.022289 
L 49.060919 15.620476 
L 49.4272 15.620476 
L 49.610341 15.214063 
L 49.976622 15.214063 
L 50.159762 5.176012 
L 50.526043 5.176012 
L 50.709184 12.016275 
L 51.075465 12.016275 
L 51.258605 16.462574 
L 51.624886 16.462574 
L 51.808027 12.14428 
L 52.174308 12.14428 
L 52.357448 13.313965 
L 52.723729 13.313965 
L 52.90687 16.548574 
L 53.27315 16.548574 
L 53.456291 13.619956 
L 53.822572 13.619956 
L 54.005712 11.786775 
L 54.371993 11.786775 
L 54.555134 5.981871 
L 54.921415 5.981871 
L 55.104555 11.938474 
L 55.470836 11.938474 
L 55.653977 12.197787 
L 56.020258 12.197787 
L 56.203398 16.918751 
L 56.569679 16.918751 
L 56.75282 12.748188 
L 57.119101 12.748188 
L 57.302241 10.789487 
L 57.668522 10.789487 
L 57.851663 15.11112 
L 58.217944 15.11112 
L 58.401084 16.955432 
L 58.767365 16.955432 
L 58.950505 12.569787 
L 59.316786 12.569787 
L 59.499927 16.975286 
L 59.866208 16.975286 
L 60.049348 11.934504 
L 60.415629 11.934504 
L 60.59877 15.384961 
L 60.965051 15.384961 
L 61.148191 11.66679 
L 61.514472 11.66679 
L 61.697613 18.256594 
L 62.063894 18.256594 
L 62.247034 11.733563 
L 62.613315 11.733563 
L 62.796456 6.740399 
L 63.162737 6.740399 
L 63.345877 13.510717 
L 63.712158 13.510717 
L 63.895299 16.36175 
L 64.261579 16.36175 
L 64.44472 9.502079 
L 64.811001 9.502079 
L 64.994141 12.758697 
L 65.360422 12.758697 
L 65.543563 10.05225 
L 65.909844 10.05225 
L 66.092984 14.84576 
L 66.459265 14.84576 
L 66.642406 17.853696 
L 67.008687 17.853696 
L 67.191827 11.30168 
L 67.558108 11.30168 
L 67.741249 20.189588 
L 68.10753 20.189588 
L 68.29067 13.797342 
L 68.656951 13.797342 
L 68.840092 12.425969 
L 69.206373 12.425969 
L 69.389513 20.453309 
L 69.755794 20.453309 
L 69.938934 11.129983 
L 70.305215 11.129983 
L 70.488356 15.850345 
L 70.854637 15.850345 
L 71.037777 13.315559 
L 71.404058 13.315559 
L 71.587199 19.87204 
L 71.95348 19.87204 
L 72.13662 15.098606 
L 72.502901 15.098606 
L 72.686042 18.502095 
L 73.052323 18.502095 
L 73.235463 14.744368 
L 73.601744 14.744368 
L 73.784885 14.871488 
L 74.151166 14.871488 
L 74.334306 9.528971 
L 74.700587 9.528971 
L 74.883728 13.671147 
L 75.250008 13.671147 
L 75.433149 19.677547 
L 75.79943 19.677547 
L 75.98257 10.489159 
L 76.348851 10.489159 
L 76.531992 12.992812 
L 76.898273 12.992812 
L 77.081413 21.50701 
L 77.447694 21.50701 
L 77.630835 15.543951 
L 77.997116 15.543951 
L 78.180256 5.214184 
L 78.546537 5.214184 
L 78.729678 15.857965 
L 79.095959 15.857965 
L 79.279099 9.722361 
L 79.64538 9.722361 
L 79.828521 14.991639 
L 80.194802 14.991639 
L 80.377942 14.773797 
L 80.744223 14.773797 
L 80.927363 13.08424 
L 81.293644 13.08424 
L 81.476785 16.271047 
L 81.843066 16.271047 
L 82.026206 6.596354 
L 82.392487 6.596354 
L 82.575628 11.11191 
L 82.941909 11.11191 
L 83.125049 11.607595 
L 83.49133 11.607595 
L 83.49133 11.607595 
" clip-path="url(#p84252e2d4e)" style="fill: none; stroke: #b48ead; stroke-width: 0.5; stroke-linecap: round"/>
   </g>
   <g id="patch_3">
    <path d="M 28.457615 26.759947 
L 83.39976 26.759947 
" style="fill: none; stroke: #2e3440; stroke-width: 0.5; stroke-linejoin: miter; stroke-linecap: square"/>
   </g>
  </g>
 </g>
 <defs>
  <clipPath id="p84252e2d4e">
   <rect x="28.457615" y="3.00024" width="54.942145" height="23.759707"/>
  </clipPath>
 </defs>
</svg>
