<?xml version="1.0" encoding="utf-8" standalone="no"?>
<!DOCTYPE svg PUBLIC "-//W3C//DTD SVG 1.1//EN"
  "http://www.w3.org/Graphics/SVG/1.1/DTD/svg11.dtd">
<svg xmlns:xlink="http://www.w3.org/1999/xlink" width="216pt" height="172.8pt" viewBox="0 0 216 172.8" xmlns="http://www.w3.org/2000/svg" version="1.1">
 <metadata>
  <rdf:RDF xmlns:dc="http://purl.org/dc/elements/1.1/" xmlns:cc="http://creativecommons.org/ns#" xmlns:rdf="http://www.w3.org/1999/02/22-rdf-syntax-ns#">
   <cc:Work>
    <dc:type rdf:resource="http://purl.org/dc/dcmitype/StillImage"/>
    <dc:date>2023-10-24T14:07:35.480954</dc:date>
    <dc:format>image/svg+xml</dc:format>
    <dc:creator>
     <cc:Agent>
      <dc:title>Matplotlib v3.8.0, https://matplotlib.org/</dc:title>
     </cc:Agent>
    </dc:creator>
   </cc:Work>
  </rdf:RDF>
 </metadata>
 <defs>
  <style type="text/css">*{stroke-linejoin: round; stroke-linecap: butt}</style>
 </defs>
 <g id="figure_1">
  <g id="patch_1">
   <path d="M 0 172.8 
L 216 172.8 
L 216 0 
L 0 0 
z
" style="fill: #ffffff"/>
  </g>
  <g id="axes_1">
   <g id="patch_2">
    <path d="M 60.216048 42.248182 
L 212.99976 42.248182 
L 212.99976 3.00024 
L 60.216048 3.00024 
z
" style="fill: #eceff4"/>
   </g>
   <g id="matplotlib.axis_1">
    <g id="xtick_1">
     <g id="line2d_1">
      <defs>
       <path id="m3b3c95a5a6" d="M 0 0 
L 0 4.8 
" style="stroke: #2e3440"/>
      </defs>
      <g>
       <use xlink:href="#m3b3c95a5a6" x="60.216048" y="42.248182" style="fill: #2e3440; stroke: #2e3440"/>
      </g>
     </g>
    </g>
    <g id="xtick_2">
     <g id="line2d_2">
      <g>
       <use xlink:href="#m3b3c95a5a6" x="93.794886" y="42.248182" style="fill: #2e3440; stroke: #2e3440"/>
      </g>
     </g>
    </g>
    <g id="xtick_3">
     <g id="line2d_3">
      <g>
       <use xlink:href="#m3b3c95a5a6" x="127.373724" y="42.248182" style="fill: #2e3440; stroke: #2e3440"/>
      </g>
     </g>
    </g>
    <g id="xtick_4">
     <g id="line2d_4">
      <g>
       <use xlink:href="#m3b3c95a5a6" x="160.952561" y="42.248182" style="fill: #2e3440; stroke: #2e3440"/>
      </g>
     </g>
    </g>
    <g id="xtick_5">
     <g id="line2d_5">
      <g>
       <use xlink:href="#m3b3c95a5a6" x="194.531399" y="42.248182" style="fill: #2e3440; stroke: #2e3440"/>
      </g>
     </g>
    </g>
   </g>
   <g id="matplotlib.axis_2">
    <g id="ytick_1">
     <g id="line2d_6">
      <defs>
       <path id="m53333e6f89" d="M 0 0 
L -4.8 0 
" style="stroke: #2e3440"/>
      </defs>
      <g>
       <use xlink:href="#m53333e6f89" x="60.216048" y="29.165535" style="fill: #2e3440; stroke: #2e3440"/>
      </g>
     </g>
     <g id="text_1">
      <text style="fill: #2e3440; font: 6.6px 'Arial'; text-anchor: end" x="51.916048" y="31.527613" transform="rotate(-0 51.916048 31.527613)">0.75</text>
     </g>
    </g>
    <g id="ytick_2">
     <g id="line2d_7">
      <g>
       <use xlink:href="#m53333e6f89" x="60.216048" y="7.361122" style="fill: #2e3440; stroke: #2e3440"/>
      </g>
     </g>
     <g id="text_2">
      <text style="fill: #2e3440; font: 6.6px 'Arial'; text-anchor: end" x="51.916048" y="9.723201" transform="rotate(-0 51.916048 9.723201)">1.00</text>
     </g>
    </g>
   </g>
   <g id="line2d_8">
    <path d="M 60.216048 23.987476 
L 60.495872 22.587122 
L 60.775695 22.587122 
L 61.055519 22.104015 
L 61.335343 22.618114 
L 62.174814 25.8512 
L 62.454637 25.8512 
L 62.734461 26.657779 
L 63.014284 27.048394 
L 63.294108 27.201836 
L 64.133579 27.166893 
L 65.812521 26.529888 
L 66.092345 26.221104 
L 67.211639 24.010679 
L 67.491463 24.010679 
L 68.330934 22.751826 
L 68.890581 22.191877 
L 69.170405 22.191877 
L 69.450228 21.216672 
L 70.569523 13.861582 
L 70.849347 13.861582 
L 71.12917 12.801883 
L 71.408994 12.409763 
L 71.688818 12.365351 
L 72.528289 12.714069 
L 72.808112 13.303649 
L 73.927407 17.489241 
L 74.20723 17.489241 
L 74.487054 18.022804 
L 74.766878 18.015817 
L 75.326525 17.362395 
L 75.606349 16.948563 
L 75.886172 16.948563 
L 76.165996 16.828933 
L 76.44582 17.059796 
L 77.285291 18.316757 
L 77.844938 18.325631 
L 78.404585 17.173383 
L 78.964232 15.769045 
L 79.52388 15.741003 
L 79.803703 16.456746 
L 80.643174 19.725524 
L 80.922998 19.725524 
L 81.202822 20.298293 
L 81.482645 20.241216 
L 82.042293 19.396509 
L 82.322116 18.882356 
L 82.60194 18.882356 
L 83.161587 17.029804 
L 84.001058 13.97622 
L 84.280882 13.97622 
L 84.560705 13.520534 
L 84.840529 13.55289 
L 85.400176 14.182624 
L 85.68 14.573023 
L 85.959824 14.573023 
L 86.519471 15.692218 
L 87.358942 17.425837 
L 87.638766 17.425837 
L 87.918589 18.289299 
L 89.037884 23.576352 
L 89.317707 23.576352 
L 90.437002 28.292744 
L 90.716826 29.207891 
L 90.996649 29.207891 
L 92.395768 34.628826 
L 92.675591 34.628826 
L 92.955415 36.265912 
L 94.074709 47.061047 
L 94.354533 47.061047 
L 94.634357 47.409813 
L 94.91418 44.91391 
L 95.753651 33.766138 
L 96.033475 33.766138 
L 96.313299 31.600189 
L 96.593122 31.0324 
L 96.872946 31.286509 
L 97.432593 32.757434 
L 97.712417 32.757434 
L 97.992241 33.100388 
L 98.272064 32.813 
L 99.111535 30.897621 
L 99.391359 30.897621 
L 99.671182 29.684339 
L 100.790477 22.610609 
L 101.070301 22.610609 
L 101.629948 20.530285 
L 102.189595 19.467796 
L 102.469419 19.143154 
L 102.749243 19.143154 
L 103.588713 17.894894 
L 104.148361 17.124691 
L 104.428184 17.124691 
L 104.708008 17.536868 
L 105.267655 20.45807 
L 105.827303 23.825895 
L 106.107126 23.825895 
L 106.38695 24.394599 
L 106.666774 23.70047 
L 107.506245 19.646722 
L 107.786068 19.646722 
L 109.185186 12.385562 
L 109.46501 12.385562 
L 109.744834 12.921821 
L 110.304481 18.631446 
L 110.864128 25.747653 
L 111.143952 25.747653 
L 111.423776 26.560102 
L 111.703599 24.137351 
L 112.54307 12.898158 
L 112.822894 12.898158 
L 113.102718 10.756197 
L 113.382541 10.20632 
L 113.662365 10.451171 
L 114.222012 11.873607 
L 114.501836 11.873607 
L 114.781659 12.413102 
L 115.061483 12.598593 
L 115.62113 12.507557 
L 115.900954 12.371499 
L 116.180778 12.371499 
L 116.460601 13.08115 
L 117.020249 16.863489 
L 117.579896 21.136922 
L 117.85972 21.136922 
L 118.139543 22.358816 
L 118.419367 22.538228 
L 118.699191 22.18947 
L 119.258838 20.922326 
L 119.538661 20.922326 
L 120.098309 18.267841 
L 120.93778 13.828009 
L 121.497427 13.755195 
L 121.777251 15.056581 
L 122.616722 21.156652 
L 122.896545 21.156652 
L 123.176369 22.667283 
L 123.456193 23.454053 
L 123.736016 23.821167 
L 124.01584 23.943232 
L 124.855311 23.787389 
L 125.974605 22.81022 
L 126.254429 22.81022 
L 126.534253 21.285721 
L 127.653547 9.335553 
L 127.933371 9.335553 
L 128.213195 7.779663 
L 128.493018 7.401528 
L 128.772842 7.606882 
L 129.332489 8.684985 
L 129.612313 8.684985 
L 129.892136 9.77884 
L 131.011431 16.499899 
L 131.291255 16.499899 
L 131.571078 17.420477 
L 131.850902 17.557972 
L 132.130726 17.301798 
L 132.690373 16.363619 
L 132.970197 16.363619 
L 133.25002 16.008823 
L 133.809668 15.795135 
L 134.649138 15.83614 
L 134.928962 16.273539 
L 135.768433 19.258669 
L 136.048257 20.256311 
L 136.32808 20.256311 
L 136.607904 20.781305 
L 136.887728 20.763695 
L 137.447375 20.087549 
L 137.727199 19.663917 
L 138.007022 19.663917 
L 138.56667 18.17515 
L 139.40614 15.731125 
L 139.685964 15.731125 
L 139.965788 14.412201 
L 141.085082 6.810499 
L 141.364906 6.810499 
L 141.64473 5.994311 
L 141.924553 6.077734 
L 142.484201 7.265588 
L 142.764024 7.994308 
L 143.043848 7.994308 
L 144.163143 10.603554 
L 144.442966 11.075716 
L 144.72279 11.075716 
L 145.002613 11.99842 
L 146.121908 18.237055 
L 146.401732 18.237055 
L 146.681555 19.096956 
L 146.961379 19.195182 
L 147.241203 18.912804 
L 147.80085 17.945987 
L 148.080674 17.945987 
L 148.640321 16.250299 
L 149.479792 13.552555 
L 149.759615 13.552555 
L 150.039439 13.361606 
L 150.319263 13.836079 
L 151.158734 16.322372 
L 151.438557 16.322372 
L 152.278028 19.739188 
L 152.837676 21.876002 
L 153.117499 21.876002 
L 153.397323 22.189018 
L 153.677147 21.720806 
L 154.516617 19.093609 
L 154.796441 19.093609 
L 155.076265 18.822985 
L 155.356088 19.276969 
L 156.195559 21.847902 
L 156.475383 21.847902 
L 156.755207 22.023285 
L 157.03503 21.356391 
L 157.874501 18.169609 
L 158.154325 18.169609 
L 158.434149 17.636803 
L 158.713972 17.706719 
L 159.27362 18.543612 
L 159.553443 19.053783 
L 160.11309 19.074283 
L 160.672738 17.742054 
L 161.232385 16.115682 
L 161.792032 16.19611 
L 162.35168 18.763833 
L 162.911327 21.977743 
L 163.191151 21.977743 
L 163.470974 22.5905 
L 163.750798 22.053714 
L 164.590269 18.580619 
L 164.870092 18.580619 
L 165.42974 14.633825 
L 166.269211 8.549665 
L 166.549034 8.549665 
L 166.828858 7.776995 
L 167.108682 8.045101 
L 167.668329 9.732471 
L 167.948153 10.710603 
L 168.227976 10.710603 
L 168.787624 13.49597 
L 169.627095 17.918733 
L 169.906918 17.918733 
L 170.186742 18.274577 
L 170.466565 17.515517 
L 171.306036 13.606261 
L 171.58586 13.606261 
L 171.865684 12.784031 
L 172.145507 12.523033 
L 172.425331 12.550901 
L 173.264802 12.961727 
L 173.544626 12.904831 
L 174.104273 11.954273 
L 174.66392 10.849892 
L 175.223567 10.897689 
L 175.783215 12.566508 
L 176.342862 14.629533 
L 176.622686 14.629533 
L 177.182333 17.525016 
L 178.021804 22.215343 
L 178.301628 22.215343 
L 178.581451 22.64344 
L 178.861275 21.918007 
L 179.700746 17.989659 
L 179.980569 17.989659 
L 180.260393 17.871257 
L 180.540217 19.15158 
L 181.379688 25.295113 
L 181.659511 25.295113 
L 181.939335 26.396316 
L 182.219159 26.255997 
L 182.778806 24.530984 
L 183.05863 23.496762 
L 183.338453 23.496762 
L 184.737572 17.926407 
L 185.017395 17.926407 
L 185.297219 18.172089 
L 185.856866 21.776739 
L 186.416513 26.223687 
L 186.696337 26.223687 
L 186.976161 26.956554 
L 187.255984 25.946611 
L 188.095455 20.282929 
L 188.375279 20.282929 
L 188.655103 19.152342 
L 188.934926 18.920607 
L 189.21475 19.140828 
L 189.774397 20.095825 
L 190.054221 20.095825 
L 190.334044 20.29282 
L 190.613868 20.084048 
L 191.453339 18.802691 
L 191.733163 18.802691 
L 192.012986 19.217647 
L 192.572634 22.457552 
L 193.132281 26.266186 
L 193.412105 26.266186 
L 193.691928 27.322023 
L 193.971752 27.393546 
L 194.251576 26.971335 
L 194.811223 25.620944 
L 195.091047 25.620944 
L 195.37087 25.405442 
L 195.650694 25.79409 
L 196.490165 27.972361 
L 196.769988 27.972361 
L 197.049812 28.136469 
L 197.329636 27.595758 
L 198.169107 24.942815 
L 198.44893 24.942815 
L 199.008578 23.494787 
L 199.568225 22.50822 
L 199.848049 22.152078 
L 200.127872 22.152078 
L 200.407696 21.158787 
L 201.52699 14.167622 
L 201.806814 14.167622 
L 202.086638 13.281276 
L 202.366461 13.148431 
L 202.646285 13.385291 
L 203.205932 14.257079 
L 203.485756 14.257079 
L 203.76558 15.433493 
L 204.884874 24.083344 
L 205.164698 24.083344 
L 205.444521 24.794397 
L 205.724345 23.836455 
L 206.563816 18.421451 
L 206.84364 18.421451 
L 207.123463 17.0653 
L 207.683111 15.80318 
L 208.242758 15.403129 
L 208.522582 15.403129 
L 208.802405 16.368443 
L 209.362053 21.282974 
L 209.9217 26.864585 
L 210.201524 26.864585 
L 210.481347 28.562387 
L 210.761171 28.976648 
L 211.040994 28.714283 
L 211.600642 27.403054 
L 211.880465 27.403054 
L 212.160289 25.234739 
L 213.279584 10.813551 
L 213.559407 10.813551 
L 213.839231 9.350156 
L 214.119055 9.634656 
L 214.678702 12.183872 
L 214.958526 13.719335 
L 215.238349 13.719335 
L 215.518173 14.472239 
L 215.797996 14.276988 
L 216.357644 12.845374 
L 216.637467 12.019538 
L 217 11.965071 
L 217 11.965071 
" clip-path="url(#pb58167e515)" style="fill: none; stroke: #bf616a; stroke-linecap: round"/>
   </g>
   <g id="line2d_9">
    <path d="M 61.89499 23.938894 
L 62.174814 25.618756 
L 62.454637 23.906525 
L 62.734461 26.493473 
L 63.014284 25.446678 
L 63.294108 25.124371 
L 63.853755 24.799678 
L 64.133579 25.319031 
L 64.413403 25.331044 
L 64.693226 26.677067 
L 64.97305 26.24946 
L 65.252874 26.802043 
L 65.812521 23.944262 
L 66.092345 25.128087 
L 66.372168 23.20427 
L 66.651992 22.679563 
L 66.931816 23.989972 
L 67.211639 21.976238 
L 67.491463 22.6477 
L 67.771287 23.023616 
L 68.05111 21.626353 
L 68.330934 21.374515 
L 68.610757 21.518382 
L 68.890581 21.307176 
L 69.170405 20.630394 
L 69.730052 18.795393 
L 70.009876 18.913252 
L 70.289699 15.437844 
L 70.569523 16.140248 
L 71.12917 13.710504 
L 71.408994 14.051555 
L 71.688818 14.181964 
L 71.968641 14.818527 
L 72.248465 14.79367 
L 72.528289 14.950032 
L 72.808112 14.973978 
L 73.087936 14.156463 
L 73.367759 14.873724 
L 73.647583 16.647451 
L 73.927407 17.521495 
L 74.20723 16.829668 
L 74.487054 15.822077 
L 74.766878 17.360925 
L 75.046701 16.781399 
L 75.326525 17.005811 
L 75.606349 15.537307 
L 75.886172 18.638016 
L 76.165996 17.032833 
L 76.725643 17.123024 
L 77.565114 19.513701 
L 77.844938 18.326148 
L 78.124761 16.479829 
L 78.404585 18.189036 
L 78.684409 17.717325 
L 78.964232 16.787191 
L 79.244056 17.814169 
L 79.52388 17.497147 
L 79.803703 17.948473 
L 80.083527 19.039927 
L 80.363351 17.677034 
L 80.643174 19.507435 
L 80.922998 19.743266 
L 81.202822 19.64849 
L 81.482645 18.713649 
L 81.762469 18.287304 
L 82.322116 19.042005 
L 82.60194 17.379532 
L 83.161587 15.770055 
L 83.441411 16.769029 
L 84.560705 14.066507 
L 84.840529 14.964771 
L 85.120353 14.189219 
L 85.400176 14.863727 
L 85.68 13.986168 
L 85.959824 14.440239 
L 86.239647 14.341669 
L 86.519471 15.210249 
L 86.799295 15.391313 
L 87.079118 13.722156 
L 87.358942 15.119585 
L 87.638766 15.464311 
L 88.75806 19.100801 
L 89.037884 20.789298 
L 89.317707 21.208461 
L 89.597531 23.336937 
L 89.877355 22.737605 
L 90.157178 25.152825 
L 90.437002 24.283091 
L 90.716826 25.658955 
L 91.276473 26.883067 
L 91.556297 29.512327 
L 91.83612 28.819338 
L 92.115944 30.562244 
L 92.395768 33.264202 
L 92.675591 33.633878 
L 92.955415 37.50394 
L 93.235239 37.293117 
L 93.515062 38.964146 
L 93.794886 41.557145 
L 94.074709 41.459676 
L 94.354533 42.175432 
L 94.634357 41.590511 
L 95.194004 38.910856 
L 95.473828 35.850369 
L 95.753651 35.559146 
L 96.033475 34.504359 
L 96.313299 35.13305 
L 96.872946 34.891793 
L 97.15277 35.219156 
L 97.712417 35.31337 
L 97.992241 35.503447 
L 98.272064 34.974047 
L 98.551888 33.572495 
L 98.831711 34.400406 
L 99.111535 33.630975 
L 99.391359 31.112887 
L 99.671182 30.947335 
L 99.951006 28.353604 
L 100.23083 26.816616 
L 100.790477 26.882378 
L 101.070301 25.300534 
L 101.350124 25.555406 
L 101.629948 23.315143 
L 101.909772 23.135254 
L 102.189595 23.35173 
L 102.469419 21.883348 
L 102.749243 21.370643 
L 103.029066 21.404965 
L 103.30889 21.822309 
L 103.588713 19.846677 
L 103.868537 19.459778 
L 104.148361 20.65792 
L 104.428184 20.752281 
L 104.708008 20.019629 
L 105.267655 23.112634 
L 105.547479 23.740425 
L 106.107126 23.11184 
L 106.666774 23.651058 
L 106.946597 21.192914 
L 107.226421 20.559601 
L 107.506245 19.586879 
L 107.786068 17.171811 
L 108.345716 18.041052 
L 108.625539 15.477961 
L 109.185186 16.995016 
L 109.46501 16.175234 
L 109.744834 16.232492 
L 110.024657 18.088979 
L 110.304481 18.707899 
L 110.864128 21.055357 
L 111.143952 19.446617 
L 111.423776 19.074546 
L 111.703599 17.612236 
L 111.983423 15.082998 
L 111.983423 15.082998 
" clip-path="url(#pb58167e515)" style="fill: none; stroke: #ebcb8b; stroke-linecap: round"/>
   </g>
   <g id="line2d_10">
    <path d="M 112.263247 13.168558 
L 112.54307 12.644559 
L 112.822894 11.271167 
L 113.102718 11.73179 
L 113.382541 10.878301 
L 113.942188 11.044766 
L 114.222012 10.86342 
L 115.061483 12.80272 
L 115.341307 11.479534 
L 115.62113 12.870724 
L 115.900954 11.305918 
L 116.180778 12.041972 
L 116.460601 13.859285 
L 116.740425 11.748098 
L 117.020249 14.845843 
L 117.300072 15.982382 
L 117.579896 15.241081 
L 117.85972 16.907215 
L 118.139543 15.569893 
L 118.699191 16.973121 
L 118.979014 15.052612 
L 119.258838 16.852701 
L 119.538661 15.212805 
L 119.818485 14.44116 
L 120.098309 14.48597 
L 120.378132 13.83587 
L 120.657956 12.330187 
L 120.93778 11.886684 
L 121.217603 13.256121 
L 121.497427 13.56023 
L 121.777251 14.661361 
L 122.057074 14.909835 
L 122.336898 14.592994 
L 122.616722 16.282164 
L 122.896545 16.55034 
L 123.176369 18.636597 
L 123.456193 17.573634 
L 123.736016 17.005088 
L 124.01584 19.209747 
L 124.295663 18.279541 
L 124.575487 19.404605 
L 124.855311 18.329176 
L 125.135134 18.710998 
L 125.414958 16.822783 
L 125.694782 18.294674 
L 125.974605 17.570635 
L 126.254429 15.128164 
L 126.534253 15.376798 
L 127.0939 11.497564 
L 127.373724 12.207626 
L 127.653547 9.618808 
L 127.933371 10.600926 
L 128.213195 9.972354 
L 128.772842 9.445358 
L 129.052665 8.96126 
L 129.332489 9.490215 
L 130.451784 12.732547 
L 130.731607 12.606391 
L 131.011431 13.688091 
L 131.291255 14.046749 
L 131.850902 15.513135 
L 132.130726 14.498264 
L 132.410549 14.209854 
L 132.690373 14.152955 
L 132.970197 14.853865 
L 133.25002 14.325678 
L 133.529844 12.7063 
L 133.809668 14.724468 
L 134.089491 14.169939 
L 134.369315 15.32835 
L 134.649138 14.966918 
L 134.928962 16.815089 
L 135.208786 15.617931 
L 135.488609 16.872363 
L 135.768433 17.446244 
L 136.048257 16.834152 
L 136.32808 18.610835 
L 136.607904 18.573318 
L 136.887728 19.596773 
L 137.167551 18.173421 
L 137.447375 17.958104 
L 137.727199 16.462226 
L 138.007022 16.351578 
L 138.56667 16.672129 
L 141.085082 8.116793 
L 141.364906 6.858587 
L 141.64473 7.053568 
L 141.924553 9.068853 
L 142.204377 9.87408 
L 142.484201 7.518478 
L 142.764024 7.41923 
L 143.043848 9.609506 
L 143.323672 8.814137 
L 143.603495 9.864844 
L 144.163143 9.548414 
L 144.442966 8.724966 
L 144.72279 9.596821 
L 145.002613 9.026076 
L 145.562261 10.324051 
L 145.842084 10.738645 
L 146.121908 13.42018 
L 146.401732 12.189874 
L 146.681555 11.959951 
L 146.961379 13.626246 
L 147.521026 12.382805 
L 147.80085 12.438437 
L 148.080674 12.352078 
L 148.360497 12.146371 
L 148.640321 12.166763 
L 148.920145 13.392602 
L 149.199968 9.458282 
L 149.479792 9.937907 
L 149.759615 10.967592 
L 150.039439 11.41742 
L 150.599086 13.207117 
L 150.87891 11.276045 
L 151.158734 14.743184 
L 151.438557 15.124119 
L 151.718381 14.169192 
L 151.998205 16.88442 
L 152.278028 16.569247 
L 152.557852 16.799528 
L 152.837676 17.440619 
L 153.117499 17.315051 
L 153.677147 15.886128 
L 153.95697 16.865465 
L 154.236794 15.300044 
L 154.516617 15.923114 
L 154.796441 18.232297 
L 155.076265 17.669679 
L 155.356088 19.161145 
L 155.635912 16.544322 
L 156.195559 19.890648 
L 156.475383 19.299639 
L 156.755207 17.975491 
L 157.03503 19.297712 
L 157.314854 16.694708 
L 157.594678 17.322522 
L 158.154325 14.404641 
L 158.434149 17.038053 
L 158.713972 17.099987 
L 158.993796 16.100142 
L 159.27362 15.999376 
L 159.553443 16.692092 
L 159.833267 17.829698 
L 160.11309 17.748484 
L 160.392914 16.887101 
L 160.672738 16.724405 
L 160.952561 15.365105 
L 161.512209 17.165071 
L 162.071856 16.086689 
L 162.35168 19.81851 
L 162.911327 18.479939 
L 163.191151 18.437751 
L 163.470974 19.648467 
L 163.750798 17.879484 
L 164.030622 18.623312 
L 164.310445 15.861649 
L 164.590269 16.95591 
L 165.149916 14.262534 
L 165.42974 14.409177 
L 165.709563 11.297779 
L 166.269211 9.220958 
L 166.549034 10.983989 
L 166.828858 9.164495 
L 167.108682 9.394677 
L 167.388505 10.341993 
L 167.668329 10.33745 
L 167.948153 9.962899 
L 168.227976 11.428258 
L 168.5078 9.789187 
L 168.787624 12.659366 
L 169.067447 13.186647 
L 169.627095 13.44206 
L 169.906918 14.735649 
L 170.186742 13.197094 
L 170.466565 13.621896 
L 170.746389 11.706796 
L 171.026213 11.385525 
L 171.306036 10.0008 
L 171.58586 11.40149 
L 171.865684 10.66094 
L 172.145507 11.118078 
L 172.425331 9.769931 
L 172.705155 11.764894 
L 172.984978 10.12757 
L 173.264802 11.369066 
L 174.384097 9.77933 
L 174.66392 11.015856 
L 174.943744 10.89936 
L 175.223567 9.79557 
L 175.503391 11.106437 
L 175.783215 10.685052 
L 176.342862 13.422064 
L 176.622686 13.132653 
L 177.462157 17.167456 
L 177.74198 16.907601 
L 178.021804 16.453619 
L 178.301628 17.440872 
L 178.581451 16.787932 
L 179.420922 15.998319 
L 179.700746 15.064705 
L 179.980569 16.219168 
L 180.260393 16.574461 
L 180.540217 18.161551 
L 180.82004 20.871133 
L 181.659511 22.770201 
L 181.939335 22.26593 
L 182.219159 22.048291 
L 182.498982 22.83173 
L 182.778806 21.90835 
L 183.05863 21.808349 
L 183.338453 20.23119 
L 183.898101 21.024416 
L 184.177924 18.584825 
L 184.457748 18.923613 
L 184.737572 19.026494 
L 185.017395 19.877683 
L 185.297219 21.195718 
L 185.577042 21.909358 
L 185.856866 21.415017 
L 186.416513 25.932263 
L 186.696337 24.827941 
L 186.976161 22.418587 
L 187.255984 21.423296 
L 187.535808 21.625966 
L 187.815632 22.571168 
L 188.095455 20.942234 
L 188.375279 20.054252 
L 188.655103 20.220958 
L 188.934926 20.787546 
L 189.494574 19.447038 
L 189.774397 20.206538 
L 190.054221 19.458076 
L 190.334044 19.7074 
L 190.613868 19.740075 
L 190.893692 17.813675 
L 191.173515 19.964245 
L 191.453339 17.901954 
L 191.733163 19.366484 
L 192.012986 19.272386 
L 192.29281 20.061432 
L 192.852457 22.088566 
L 193.412105 23.601254 
L 193.691928 23.140005 
L 193.971752 22.151387 
L 194.251576 23.809687 
L 194.531399 22.521661 
L 194.811223 22.362571 
L 195.091047 22.890509 
L 195.37087 22.182787 
L 195.650694 23.059544 
L 195.930517 23.384198 
L 196.210341 23.964006 
L 196.769988 24.179004 
L 197.329636 24.553648 
L 197.889283 23.896559 
L 198.44893 20.758208 
L 198.728754 21.76892 
L 199.008578 21.710809 
L 199.288401 19.678879 
L 199.848049 18.811618 
L 200.127872 18.61234 
L 200.407696 17.349973 
L 200.687519 14.999701 
L 200.967343 15.03959 
L 201.247167 14.349472 
L 201.52699 14.941246 
L 202.086638 10.288489 
L 202.366461 13.306124 
L 202.646285 13.487881 
L 202.926109 13.264364 
L 203.205932 13.782583 
L 203.485756 13.88303 
L 203.76558 15.440226 
L 204.045403 15.032947 
L 204.325227 17.087289 
L 204.605051 17.076 
L 204.884874 18.953906 
L 205.164698 19.247822 
L 205.444521 19.16915 
L 205.724345 17.063787 
L 206.004169 18.152531 
L 206.283992 17.99506 
L 206.563816 16.919771 
L 206.84364 15.208904 
L 207.123463 15.102162 
L 207.403287 15.284432 
L 207.683111 15.060526 
L 207.962934 14.982462 
L 208.242758 15.365245 
L 208.522582 16.796407 
L 208.802405 19.080484 
L 209.082229 19.74177 
L 209.362053 20.107008 
L 209.641876 22.521091 
L 209.9217 23.91616 
L 210.201524 23.349855 
L 210.481347 25.136225 
L 210.761171 23.982278 
L 211.040994 22.232237 
L 211.320818 23.043005 
L 211.600642 22.040175 
L 211.880465 19.838605 
L 212.160289 20.967105 
L 212.440113 15.852092 
L 212.719936 13.695298 
L 212.99976 13.937754 
L 213.279584 11.599255 
L 213.559407 12.471459 
L 213.839231 11.672299 
L 214.398878 13.963772 
L 214.678702 14.085608 
L 214.958526 12.711009 
L 215.238349 13.341572 
L 215.518173 13.546422 
L 215.797996 12.897223 
L 216.07782 11.537182 
L 216.357644 12.546167 
L 216.917291 10.045222 
L 217 10.22117 
" clip-path="url(#pb58167e515)" style="fill: none; stroke: #5e81ac; stroke-linecap: round"/>
   </g>
   <g id="patch_3">
    <path d="M 60.216048 42.248182 
L 60.216048 3.00024 
" style="fill: none; stroke: #2e3440; stroke-width: 0.5; stroke-linejoin: miter; stroke-linecap: square"/>
   </g>
   <g id="patch_4">
    <path d="M 60.216048 42.248182 
L 212.99976 42.248182 
" style="fill: none; stroke: #2e3440; stroke-width: 0.5; stroke-linejoin: miter; stroke-linecap: square"/>
   </g>
   <g id="text_3">
    <text style="fill: #2e3440; font: 700 5.9976px 'Arial'; text-anchor: start" x="-0.897437" y="24.139542" transform="rotate(-0 -0.897437 24.139542)">Pyr.</text>
   </g>
  </g>
  <g id="axes_2">
   <g id="patch_5">
    <path d="M 60.216048 92.296604 
L 212.99976 92.296604 
L 212.99976 53.048662 
L 60.216048 53.048662 
z
" style="fill: #eceff4"/>
   </g>
   <g id="matplotlib.axis_3">
    <g id="xtick_6">
     <g id="line2d_11">
      <g>
       <use xlink:href="#m3b3c95a5a6" x="60.216048" y="92.296604" style="fill: #2e3440; stroke: #2e3440"/>
      </g>
     </g>
    </g>
    <g id="xtick_7">
     <g id="line2d_12">
      <g>
       <use xlink:href="#m3b3c95a5a6" x="93.794886" y="92.296604" style="fill: #2e3440; stroke: #2e3440"/>
      </g>
     </g>
    </g>
    <g id="xtick_8">
     <g id="line2d_13">
      <g>
       <use xlink:href="#m3b3c95a5a6" x="127.373724" y="92.296604" style="fill: #2e3440; stroke: #2e3440"/>
      </g>
     </g>
    </g>
    <g id="xtick_9">
     <g id="line2d_14">
      <g>
       <use xlink:href="#m3b3c95a5a6" x="160.952561" y="92.296604" style="fill: #2e3440; stroke: #2e3440"/>
      </g>
     </g>
    </g>
    <g id="xtick_10">
     <g id="line2d_15">
      <g>
       <use xlink:href="#m3b3c95a5a6" x="194.531399" y="92.296604" style="fill: #2e3440; stroke: #2e3440"/>
      </g>
     </g>
    </g>
   </g>
   <g id="matplotlib.axis_4">
    <g id="ytick_3">
     <g id="line2d_16">
      <g>
       <use xlink:href="#m53333e6f89" x="60.216048" y="92.296604" style="fill: #2e3440; stroke: #2e3440"/>
      </g>
     </g>
     <g id="text_4">
      <text style="fill: #2e3440; font: 6.6px 'Arial'; text-anchor: end" x="51.916048" y="94.658682" transform="rotate(-0 51.916048 94.658682)">0.6</text>
     </g>
    </g>
    <g id="ytick_4">
     <g id="line2d_17">
      <g>
       <use xlink:href="#m53333e6f89" x="60.216048" y="60.89825" style="fill: #2e3440; stroke: #2e3440"/>
      </g>
     </g>
     <g id="text_5">
      <text style="fill: #2e3440; font: 6.6px 'Arial'; text-anchor: end" x="51.916048" y="63.260328" transform="rotate(-0 51.916048 63.260328)">0.8</text>
     </g>
    </g>
    <g id="text_6">
     <text style="fill: #2e3440; font: 7.2px 'Arial'; text-anchor: middle" x="28.143931" y="72.672633" transform="rotate(-90 28.143931 72.672633)">Conc. (mM)</text>
    </g>
   </g>
   <g id="line2d_18">
    <path d="M 60.216048 70.528132 
L 60.495872 71.807852 
L 60.775695 71.807852 
L 61.335343 73.630935 
L 61.615166 73.851216 
L 61.89499 73.743222 
L 62.174814 73.420316 
L 62.454637 73.420316 
L 63.014284 72.642608 
L 63.573932 72.221122 
L 64.133579 72.117297 
L 64.693226 72.049271 
L 66.092345 72.245356 
L 66.651992 72.745384 
L 67.211639 73.503449 
L 67.491463 73.503449 
L 68.890581 75.351068 
L 69.170405 75.351068 
L 69.450228 75.74774 
L 69.730052 76.533551 
L 70.569523 80.326405 
L 70.849347 80.326405 
L 71.408994 82.523506 
L 71.968641 83.581932 
L 72.248465 83.845924 
L 73.087936 83.784752 
L 73.647583 82.881221 
L 73.927407 82.296126 
L 74.20723 82.296126 
L 74.766878 81.398857 
L 75.046701 81.264909 
L 75.886172 81.380589 
L 76.165996 81.498024 
L 76.44582 81.485688 
L 77.005467 81.125674 
L 77.285291 80.860367 
L 77.565114 80.860367 
L 77.844938 80.632495 
L 78.124761 80.6239 
L 78.684409 81.143184 
L 78.964232 81.5354 
L 79.244056 81.5354 
L 79.52388 81.866797 
L 79.803703 81.862732 
L 80.083527 81.551422 
L 80.643174 80.420001 
L 80.922998 80.420001 
L 81.482645 79.437024 
L 81.762469 79.306202 
L 82.60194 79.494633 
L 82.881764 79.748091 
L 83.441411 80.803252 
L 84.001058 82.178494 
L 84.280882 82.178494 
L 84.840529 83.197068 
L 85.120353 83.378948 
L 85.68 83.357258 
L 85.959824 83.357258 
L 86.519471 82.988745 
L 87.358942 81.956421 
L 87.638766 81.956421 
L 87.918589 81.537053 
L 88.478236 80.089349 
L 89.037884 78.208525 
L 89.317707 78.208525 
L 90.716826 73.206229 
L 90.996649 73.206229 
L 92.115944 69.127673 
L 92.395768 68.073209 
L 92.675591 68.073209 
L 93.235239 65.522627 
L 94.074709 59.426857 
L 94.354533 59.426857 
L 94.634357 57.339981 
L 94.91418 56.255431 
L 95.194004 56.356865 
L 95.473828 57.398052 
L 95.753651 59.061399 
L 96.033475 59.061399 
L 96.593122 62.474847 
L 96.872946 63.478634 
L 97.15277 64.051644 
L 97.432593 64.304596 
L 97.992241 64.387805 
L 98.272064 64.571355 
L 98.831711 65.3768 
L 99.111535 65.905194 
L 99.391359 65.905194 
L 99.671182 66.530953 
L 100.23083 68.678255 
L 100.790477 71.441927 
L 101.070301 71.441927 
L 101.909772 75.004961 
L 102.469419 76.606703 
L 102.749243 76.606703 
L 103.868537 78.974652 
L 104.148361 79.477145 
L 104.428184 79.477145 
L 104.708008 79.827812 
L 104.987832 79.72364 
L 105.267655 79.211109 
L 105.827303 77.498553 
L 106.107126 77.498553 
L 106.38695 76.615679 
L 106.666774 76.226601 
L 106.946597 76.335998 
L 107.506245 77.445272 
L 107.786068 77.445272 
L 108.345716 79.205019 
L 109.185186 82.429617 
L 109.46501 82.429617 
L 109.744834 83.181807 
L 110.024657 82.977469 
L 110.304481 81.930315 
L 110.864128 78.38445 
L 111.143952 78.38445 
L 111.423776 76.578563 
L 111.703599 76.054117 
L 111.983423 76.815023 
L 112.54307 80.45137 
L 112.822894 80.45137 
L 113.382541 83.833732 
L 113.662365 84.584832 
L 113.942188 84.904534 
L 114.501836 84.944484 
L 115.061483 84.813596 
L 115.62113 84.944582 
L 116.180778 85.064248 
L 116.460601 85.066087 
L 116.740425 84.577571 
L 117.300072 82.481501 
L 117.579896 81.159878 
L 117.85972 81.159878 
L 118.419367 78.988395 
L 118.699191 78.501141 
L 118.979014 78.311177 
L 119.538661 78.322137 
L 119.818485 78.523893 
L 120.098309 79.050092 
L 120.93778 81.702131 
L 121.217603 81.702131 
L 121.497427 82.477779 
L 121.777251 82.592873 
L 122.057074 82.117588 
L 122.616722 80.167522 
L 122.896545 80.167522 
L 123.456193 78.074907 
L 124.01584 76.846625 
L 124.295663 76.47205 
L 124.575487 76.47205 
L 125.135134 76.062159 
L 125.694782 75.994762 
L 126.254429 76.0304 
L 126.534253 76.269605 
L 126.814076 77.247811 
L 127.373724 80.8176 
L 127.653547 82.860677 
L 127.933371 82.860677 
L 128.493018 86.000056 
L 128.772842 86.756685 
L 129.052665 87.151458 
L 129.332489 87.309356 
L 129.892136 87.24054 
L 130.17196 86.797161 
L 130.731607 85.160467 
L 131.011431 84.178163 
L 131.291255 84.178163 
L 131.850902 82.635503 
L 132.130726 82.323476 
L 132.410549 82.226958 
L 134.649138 82.485622 
L 134.928962 82.400452 
L 135.208786 82.089586 
L 135.768433 80.961796 
L 136.048257 80.284238 
L 136.32808 80.284238 
L 136.887728 79.227186 
L 137.167551 79.029641 
L 137.727199 79.055247 
L 138.007022 79.055247 
L 138.286846 79.216009 
L 138.846493 79.992794 
L 139.40614 81.049802 
L 139.685964 81.049802 
L 139.965788 81.677813 
L 140.525435 83.928635 
L 141.085082 86.679965 
L 141.364906 86.679965 
L 141.924553 88.594133 
L 142.204377 88.906141 
L 142.484201 88.949555 
L 142.764024 88.827637 
L 143.043848 88.827637 
L 143.603495 88.316274 
L 144.442966 87.336233 
L 144.72279 87.336233 
L 145.002613 86.947236 
L 145.562261 85.376387 
L 146.121908 83.26207 
L 146.401732 83.26207 
L 146.961379 81.561565 
L 147.241203 81.184763 
L 147.521026 81.033873 
L 148.080674 81.033569 
L 148.360497 81.16291 
L 148.920145 81.945191 
L 149.479792 83.041321 
L 149.759615 83.041321 
L 150.039439 83.513921 
L 150.319263 83.670286 
L 150.599086 83.544789 
L 151.158734 82.82335 
L 151.438557 82.82335 
L 151.998205 81.685046 
L 152.837676 79.332682 
L 153.117499 79.332682 
L 153.397323 78.624566 
L 153.677147 78.270299 
L 153.95697 78.253974 
L 154.236794 78.470145 
L 154.516617 78.827011 
L 154.796441 78.827011 
L 155.076265 79.179942 
L 155.356088 79.253032 
L 155.635912 79.051646 
L 156.195559 78.173778 
L 156.475383 78.173778 
L 156.755207 77.717425 
L 157.03503 77.608913 
L 157.314854 77.840948 
L 157.874501 78.880564 
L 158.154325 78.880564 
L 158.713972 79.794344 
L 158.993796 79.900903 
L 159.833267 79.685687 
L 160.11309 79.532633 
L 160.392914 79.610565 
L 160.952561 80.34706 
L 161.232385 80.853261 
L 161.512209 80.853261 
L 161.792032 81.264735 
L 162.071856 81.2177 
L 162.35168 80.750994 
L 162.911327 79.113426 
L 163.191151 79.113426 
L 163.470974 78.256367 
L 163.750798 77.850928 
L 164.030622 77.897645 
L 164.310445 78.255167 
L 164.590269 78.797047 
L 164.870092 78.797047 
L 165.149916 79.519055 
L 165.709563 81.981986 
L 166.269211 84.920056 
L 166.549034 84.920056 
L 166.828858 86.179897 
L 167.108682 86.894792 
L 167.388505 87.139804 
L 167.668329 87.075632 
L 167.948153 86.823039 
L 168.227976 86.823039 
L 168.5078 86.41439 
L 169.067447 84.944913 
L 169.627095 83.083845 
L 169.906918 83.083845 
L 170.186742 82.268348 
L 170.466565 81.960913 
L 170.746389 82.120808 
L 171.306036 83.216597 
L 171.58586 83.216597 
L 172.145507 84.315081 
L 172.705155 84.670211 
L 173.824449 84.833422 
L 174.384097 85.456628 
L 174.66392 85.834381 
L 174.943744 85.834381 
L 175.223567 86.131071 
L 175.503391 86.106176 
L 175.783215 85.803286 
L 176.342862 84.761321 
L 176.622686 84.761321 
L 177.182333 83.241032 
L 178.021804 79.985337 
L 178.301628 79.985337 
L 178.581451 78.99363 
L 178.861275 78.518732 
L 179.141099 78.538629 
L 179.420922 78.896411 
L 179.700746 79.454739 
L 179.980569 79.454739 
L 180.260393 79.957442 
L 180.540217 79.879289 
L 180.82004 79.248048 
L 181.379688 77.027624 
L 181.659511 77.027624 
L 182.219159 75.026688 
L 182.498982 74.716071 
L 182.778806 74.753176 
L 183.05863 75.018799 
L 183.338453 75.018799 
L 183.898101 76.04426 
L 184.737572 78.273654 
L 185.017395 78.273654 
L 185.297219 78.851868 
L 185.577042 78.813865 
L 185.856866 78.209977 
L 186.416513 76.017031 
L 186.696337 76.017031 
L 186.976161 74.853685 
L 187.255984 74.349726 
L 187.535808 74.528634 
L 188.095455 76.117588 
L 188.375279 76.117588 
L 188.934926 77.782822 
L 189.21475 78.141061 
L 189.494574 78.262879 
L 190.613868 78.168257 
L 191.173515 78.582501 
L 191.453339 78.878638 
L 191.733163 78.878638 
L 192.012986 79.075683 
L 192.29281 78.809357 
L 192.852457 77.13167 
L 193.132281 75.987562 
L 193.412105 75.987562 
L 193.971752 74.056254 
L 194.251576 73.633817 
L 194.531399 73.494216 
L 195.650694 73.605792 
L 196.210341 72.93645 
L 196.490165 72.448507 
L 196.769988 72.448507 
L 197.049812 71.988614 
L 197.329636 71.808788 
L 197.609459 71.920337 
L 198.169107 72.680585 
L 198.44893 72.680585 
L 199.848049 75.087166 
L 200.127872 75.087166 
L 200.407696 75.566458 
L 200.967343 77.520801 
L 201.52699 80.121253 
L 201.806814 80.121253 
L 202.366461 82.152965 
L 202.646285 82.643633 
L 202.926109 82.891565 
L 203.485756 82.977739 
L 203.76558 82.854915 
L 204.045403 82.261875 
L 204.605051 80.033645 
L 204.884874 78.664132 
L 205.164698 78.664132 
L 205.444521 77.406915 
L 205.724345 76.829617 
L 206.004169 76.928385 
L 206.283992 77.492048 
L 206.563816 78.328509 
L 206.84364 78.328509 
L 207.403287 80.03896 
L 207.962934 81.126367 
L 208.242758 81.49032 
L 208.522582 81.49032 
L 208.802405 81.622078 
L 209.082229 81.108922 
L 209.641876 78.575969 
L 209.9217 76.90883 
L 210.201524 76.90883 
L 210.761171 73.993848 
L 211.040994 73.215606 
L 211.320818 72.804225 
L 211.600642 72.655493 
L 211.880465 72.655493 
L 212.160289 72.872966 
L 212.440113 73.983352 
L 212.99976 78.144415 
L 213.279584 80.542619 
L 213.559407 80.542619 
L 213.839231 82.67945 
L 214.119055 83.950313 
L 214.398878 84.448786 
L 214.678702 84.428547 
L 214.958526 84.084362 
L 215.238349 84.084362 
L 215.518173 83.655477 
L 215.797996 83.534729 
L 216.07782 83.723659 
L 216.637467 84.603413 
L 216.917291 84.603413 
L 217 84.734589 
L 217 84.734589 
" clip-path="url(#pacd7b967ca)" style="fill: none; stroke: #bf616a; stroke-linecap: round"/>
   </g>
   <g id="line2d_19">
    <path d="M 61.89499 73.680512 
L 62.174814 72.585876 
L 62.454637 74.774778 
L 62.734461 71.827162 
L 63.294108 74.028596 
L 63.573932 74.331682 
L 63.853755 74.360048 
L 64.133579 73.54144 
L 64.413403 73.80254 
L 64.693226 72.447779 
L 64.97305 72.707218 
L 65.252874 72.080759 
L 65.812521 75.095344 
L 66.092345 73.947833 
L 66.372168 75.049489 
L 66.651992 75.138338 
L 66.931816 74.375432 
L 67.211639 76.61798 
L 67.491463 76.796881 
L 67.771287 76.722831 
L 68.05111 76.506997 
L 68.330934 77.126724 
L 68.610757 77.086054 
L 68.890581 76.115772 
L 69.170405 77.949981 
L 69.730052 78.80131 
L 70.009876 78.284714 
L 70.289699 79.840904 
L 70.569523 79.833836 
L 71.12917 81.187192 
L 71.408994 81.711495 
L 71.688818 81.757927 
L 71.968641 82.514446 
L 72.248465 82.000762 
L 72.528289 82.004078 
L 73.087936 82.854079 
L 73.367759 83.879038 
L 73.647583 81.746085 
L 73.927407 80.59076 
L 74.20723 81.996973 
L 74.487054 82.051086 
L 74.766878 80.983352 
L 75.046701 82.446559 
L 75.326525 81.268542 
L 75.606349 81.525561 
L 75.886172 80.399847 
L 76.165996 80.434903 
L 76.44582 80.919465 
L 76.725643 81.652699 
L 77.005467 80.054355 
L 77.565114 79.922528 
L 77.844938 80.272146 
L 78.124761 81.793183 
L 78.404585 78.952065 
L 78.684409 80.127085 
L 78.964232 80.111554 
L 79.244056 79.263405 
L 79.803703 80.535819 
L 80.083527 79.511495 
L 80.363351 81.661654 
L 80.643174 80.329903 
L 81.202822 78.950252 
L 81.482645 80.430036 
L 81.762469 80.384056 
L 82.322116 80.01135 
L 82.60194 81.181073 
L 82.881764 80.850489 
L 83.161587 81.505962 
L 83.441411 81.10318 
L 83.721234 81.372597 
L 84.001058 82.452948 
L 84.280882 81.854788 
L 84.560705 83.539159 
L 84.840529 81.740171 
L 85.120353 83.368526 
L 85.400176 82.948292 
L 85.68 82.103211 
L 85.959824 83.23588 
L 86.239647 82.490191 
L 86.519471 82.79078 
L 86.799295 81.980478 
L 87.079118 83.006722 
L 87.358942 82.057646 
L 87.638766 82.787965 
L 87.918589 81.10551 
L 88.198413 81.517973 
L 88.478236 81.093291 
L 88.75806 79.568338 
L 89.037884 79.846747 
L 89.317707 78.250848 
L 89.597531 77.487394 
L 89.877355 77.805609 
L 90.157178 75.620786 
L 90.437002 76.778704 
L 90.716826 75.286916 
L 91.276473 73.87267 
L 91.556297 72.224975 
L 91.83612 72.236177 
L 92.115944 71.099177 
L 92.395768 68.523337 
L 92.675591 68.847219 
L 92.955415 66.024562 
L 93.235239 65.150482 
L 93.515062 65.76992 
L 93.794886 61.67492 
L 94.354533 61.181836 
L 94.634357 59.443825 
L 94.91418 60.965949 
L 95.194004 60.245915 
L 95.473828 63.312656 
L 95.753651 62.89588 
L 96.033475 62.69816 
L 96.313299 61.61172 
L 96.593122 63.055515 
L 96.872946 63.295607 
L 97.15277 62.451089 
L 97.432593 63.238214 
L 97.712417 62.815278 
L 97.992241 62.760744 
L 98.272064 62.582328 
L 98.551888 64.439428 
L 98.831711 62.966073 
L 99.111535 63.815715 
L 99.391359 65.383569 
L 99.671182 65.86609 
L 100.23083 68.725367 
L 100.510653 68.758721 
L 100.790477 68.4595 
L 101.350124 70.120346 
L 101.629948 71.841411 
L 101.909772 72.317303 
L 102.189595 71.900005 
L 102.469419 74.275237 
L 102.749243 74.629331 
L 103.029066 74.097492 
L 103.30889 74.785773 
L 103.588713 76.538141 
L 103.868537 76.968467 
L 104.148361 76.418933 
L 104.428184 75.351545 
L 104.708008 75.919413 
L 105.267655 75.123524 
L 105.547479 73.904328 
L 105.827303 75.813521 
L 106.107126 75.018388 
L 106.38695 74.906787 
L 106.666774 75.02668 
L 107.786068 78.663568 
L 108.065892 77.498388 
L 108.345716 78.066065 
L 108.625539 80.862241 
L 108.905363 78.510457 
L 109.185186 79.811626 
L 109.46501 79.775097 
L 109.744834 80.123814 
L 110.024657 79.120931 
L 110.304481 81.035336 
L 110.584305 80.933822 
L 111.143952 82.880491 
L 111.423776 80.701967 
L 111.983423 82.922383 
L 111.983423 82.922383 
" clip-path="url(#pacd7b967ca)" style="fill: none; stroke: #ebcb8b; stroke-linecap: round"/>
   </g>
   <g id="line2d_20">
    <path d="M 112.263247 83.884022 
L 112.54307 83.802571 
L 112.822894 85.546617 
L 113.102718 85.935129 
L 113.382541 85.959063 
L 113.662365 86.523673 
L 113.942188 86.380417 
L 114.222012 87.243932 
L 114.501836 86.214183 
L 114.781659 86.94678 
L 115.061483 85.229054 
L 115.341307 85.688663 
L 115.62113 84.856105 
L 115.900954 87.097542 
L 116.180778 86.355781 
L 116.460601 85.280824 
L 116.740425 87.637916 
L 117.020249 86.421167 
L 118.139543 84.48215 
L 118.419367 83.492588 
L 118.699191 83.625353 
L 118.979014 84.739713 
L 119.258838 84.068935 
L 119.538661 83.710488 
L 119.818485 84.421541 
L 120.098309 84.321429 
L 120.378132 85.206098 
L 120.657956 85.488951 
L 120.93778 84.669722 
L 121.217603 84.641575 
L 121.497427 84.483821 
L 121.777251 83.354162 
L 122.057074 85.336853 
L 122.336898 85.002913 
L 122.616722 83.507153 
L 122.896545 82.721137 
L 123.176369 81.478514 
L 123.456193 82.228313 
L 123.736016 82.106946 
L 124.01584 80.726597 
L 124.295663 80.437073 
L 124.575487 79.781772 
L 124.855311 80.5977 
L 125.694782 81.167762 
L 125.974605 81.069945 
L 126.254429 82.26503 
L 126.814076 81.696499 
L 127.0939 82.741597 
L 127.373724 82.884672 
L 127.653547 84.745978 
L 127.933371 83.996278 
L 128.493018 86.376785 
L 128.772842 87.04095 
L 129.052665 87.310266 
L 129.332489 88.273382 
L 129.892136 86.859124 
L 130.17196 87.296338 
L 130.451784 86.646164 
L 130.731607 87.3205 
L 131.011431 86.181835 
L 131.291255 86.261209 
L 131.571078 85.419639 
L 131.850902 84.073138 
L 132.130726 84.965379 
L 132.410549 84.877043 
L 132.690373 85.085658 
L 132.970197 84.413179 
L 133.25002 86.533421 
L 133.529844 86.828476 
L 133.809668 84.497048 
L 134.089491 85.460151 
L 134.369315 84.869775 
L 134.649138 84.664115 
L 134.928962 83.930614 
L 135.208786 84.369428 
L 135.488609 83.897843 
L 136.048257 83.666536 
L 136.32808 81.491921 
L 136.607904 81.78089 
L 136.887728 80.225368 
L 137.167551 80.286164 
L 137.727199 81.828809 
L 138.007022 81.101669 
L 138.286846 81.179677 
L 138.56667 80.551069 
L 138.846493 82.16421 
L 139.126317 81.518015 
L 139.40614 81.717107 
L 139.965788 83.607227 
L 140.245611 83.272335 
L 140.525435 84.410565 
L 140.805259 84.622896 
L 141.085082 84.648071 
L 141.364906 86.481616 
L 141.64473 86.244621 
L 142.204377 84.666631 
L 142.484201 86.93278 
L 142.764024 86.682584 
L 143.043848 85.200364 
L 143.323672 86.24481 
L 143.603495 85.339149 
L 143.883319 85.554181 
L 144.163143 86.130193 
L 144.442966 88.093131 
L 144.72279 88.13019 
L 145.002613 89.426549 
L 145.282437 89.905842 
L 145.842084 87.732789 
L 146.121908 85.995407 
L 146.401732 87.769576 
L 146.961379 85.581711 
L 147.521026 86.174239 
L 147.80085 85.49145 
L 148.080674 86.058972 
L 148.360497 85.411143 
L 148.640321 87.083299 
L 148.920145 85.722904 
L 149.479792 88.379966 
L 149.759615 88.172135 
L 150.319263 86.436164 
L 150.599086 85.982225 
L 150.87891 87.755804 
L 151.158734 84.562773 
L 151.438557 83.581847 
L 151.718381 85.540997 
L 151.998205 83.013587 
L 152.278028 82.948052 
L 152.557852 83.427089 
L 152.837676 82.924252 
L 153.117499 82.694683 
L 153.397323 83.092446 
L 153.677147 83.693184 
L 153.95697 81.620904 
L 154.236794 83.639451 
L 154.516617 83.402236 
L 154.796441 81.304167 
L 155.076265 82.406975 
L 155.356088 81.703493 
L 155.635912 83.354479 
L 155.915736 83.577322 
L 156.195559 81.891886 
L 156.475383 81.702704 
L 156.755207 82.940587 
L 157.03503 81.909289 
L 157.314854 82.307063 
L 157.594678 82.129545 
L 157.874501 82.237289 
L 158.154325 84.582045 
L 158.434149 83.064181 
L 158.713972 82.449433 
L 158.993796 83.918544 
L 159.27362 83.321573 
L 159.553443 83.407188 
L 159.833267 83.780019 
L 160.11309 81.654096 
L 160.392914 82.631929 
L 160.952561 82.894426 
L 161.232385 83.348617 
L 161.512209 83.02239 
L 161.792032 83.479951 
L 162.071856 84.419992 
L 162.35168 81.875625 
L 162.631503 81.753867 
L 162.911327 82.827177 
L 163.191151 82.92975 
L 163.470974 80.212228 
L 163.750798 81.213986 
L 164.030622 81.356603 
L 164.310445 84.405314 
L 164.590269 81.235909 
L 164.870092 81.277604 
L 165.149916 83.125407 
L 165.42974 82.027402 
L 165.709563 83.980464 
L 165.989387 84.800093 
L 166.269211 85.050804 
L 166.549034 85.150221 
L 167.108682 87.20961 
L 167.388505 85.841126 
L 167.668329 86.4335 
L 167.948153 87.333159 
L 168.227976 86.871551 
L 168.5078 87.878559 
L 168.787624 84.778086 
L 169.067447 84.647035 
L 169.347271 85.471273 
L 169.627095 85.918292 
L 169.906918 84.191849 
L 170.186742 84.812241 
L 170.466565 84.31966 
L 170.746389 86.193174 
L 171.026213 86.135218 
L 171.306036 86.655428 
L 171.58586 84.690138 
L 171.865684 84.973739 
L 172.145507 85.696927 
L 172.425331 85.721712 
L 172.705155 84.210103 
L 172.984978 85.560044 
L 173.544626 85.440711 
L 173.824449 85.438267 
L 174.104273 85.662151 
L 174.384097 86.25518 
L 174.66392 84.996554 
L 174.943744 85.356541 
L 175.223567 86.754285 
L 175.503391 85.176046 
L 175.783215 86.692068 
L 176.063038 85.645179 
L 176.342862 84.01099 
L 176.622686 84.594066 
L 176.902509 84.741063 
L 177.182333 82.930342 
L 177.462157 82.68124 
L 177.74198 81.953714 
L 178.021804 83.377819 
L 178.301628 81.883976 
L 178.581451 81.723015 
L 178.861275 81.727628 
L 179.141099 81.569949 
L 179.420922 81.84524 
L 179.700746 81.51556 
L 179.980569 81.93215 
L 180.82004 79.637536 
L 181.099864 79.028567 
L 181.659511 77.319812 
L 181.939335 77.49528 
L 182.219159 77.530324 
L 182.498982 76.41497 
L 182.778806 77.013248 
L 183.05863 76.529105 
L 183.338453 77.345708 
L 183.618277 76.395334 
L 183.898101 76.906797 
L 184.177924 79.119872 
L 184.457748 78.899351 
L 185.017395 77.552699 
L 185.297219 78.099111 
L 185.577042 77.675339 
L 185.856866 76.765591 
L 186.13669 74.747695 
L 186.696337 74.263266 
L 186.976161 75.891743 
L 187.255984 76.667844 
L 187.535808 76.113581 
L 187.815632 74.873431 
L 188.095455 75.435362 
L 188.655103 77.483754 
L 188.934926 76.056179 
L 189.21475 77.242952 
L 189.494574 77.517505 
L 189.774397 76.928624 
L 190.054221 77.811496 
L 190.334044 77.900679 
L 190.613868 77.536635 
L 190.893692 79.507014 
L 191.173515 77.774516 
L 191.453339 78.900224 
L 191.733163 78.018256 
L 192.012986 79.006419 
L 192.29281 78.883653 
L 192.572634 78.189228 
L 192.852457 76.474211 
L 193.132281 76.4123 
L 193.412105 75.809397 
L 193.691928 75.978021 
L 193.971752 77.246494 
L 194.251576 74.974045 
L 194.531399 75.274968 
L 195.091047 76.96895 
L 195.37087 76.964805 
L 195.650694 76.065243 
L 195.930517 76.143633 
L 196.490165 74.495204 
L 196.769988 74.04094 
L 197.049812 74.454609 
L 197.329636 73.964499 
L 197.609459 73.955911 
L 197.889283 74.712555 
L 198.169107 74.162153 
L 198.44893 76.81247 
L 198.728754 75.564113 
L 199.008578 76.187792 
L 199.288401 76.524085 
L 199.568225 77.298858 
L 199.848049 77.268806 
L 200.127872 78.437203 
L 200.407696 78.302338 
L 201.247167 81.06706 
L 201.52699 80.778363 
L 202.086638 84.12368 
L 202.366461 81.935698 
L 202.646285 81.552961 
L 202.926109 82.043368 
L 203.76558 80.453745 
L 204.045403 81.545741 
L 204.325227 80.455058 
L 204.605051 80.736731 
L 204.884874 80.00886 
L 205.164698 78.751439 
L 205.444521 78.777639 
L 205.724345 79.627362 
L 206.004169 78.718507 
L 206.283992 78.236535 
L 206.563816 78.854896 
L 207.123463 81.018955 
L 207.403287 80.072033 
L 207.683111 81.724082 
L 207.962934 82.340218 
L 208.242758 81.573146 
L 208.802405 79.522939 
L 209.082229 79.885519 
L 209.9217 76.663266 
L 210.201524 76.948888 
L 210.481347 75.466477 
L 211.040994 77.261262 
L 211.320818 76.693244 
L 211.600642 76.868508 
L 211.880465 77.887367 
L 212.160289 76.64874 
L 212.719936 81.161574 
L 212.99976 80.673046 
L 213.279584 81.884646 
L 213.559407 81.996568 
L 213.839231 82.70793 
L 214.398878 82.144087 
L 214.678702 82.063123 
L 214.958526 83.254882 
L 215.238349 83.493558 
L 215.518173 83.52611 
L 215.797996 83.043199 
L 216.07782 84.964145 
L 216.357644 84.136931 
L 216.637467 85.014163 
L 216.917291 86.442975 
L 217 86.230413 
L 217 86.230413 
" clip-path="url(#pacd7b967ca)" style="fill: none; stroke: #5e81ac; stroke-linecap: round"/>
   </g>
   <g id="patch_6">
    <path d="M 60.216048 92.296604 
L 60.216048 53.048662 
" style="fill: none; stroke: #2e3440; stroke-width: 0.5; stroke-linejoin: miter; stroke-linecap: square"/>
   </g>
   <g id="patch_7">
    <path d="M 60.216048 92.296604 
L 212.99976 92.296604 
" style="fill: none; stroke: #2e3440; stroke-width: 0.5; stroke-linejoin: miter; stroke-linecap: square"/>
   </g>
   <g id="text_7">
    <text style="fill: #2e3440; font: 700 5.9976px 'Arial'; text-anchor: start" x="-0.897437" y="74.227323" transform="rotate(-0 -0.897437 74.227323)">3PG</text>
   </g>
  </g>
  <g id="axes_3">
   <g id="patch_8">
    <path d="M 60.216048 144.707104 
L 212.99976 144.707104 
L 212.99976 105.459162 
L 60.216048 105.459162 
z
" style="fill: #eceff4"/>
   </g>
   <g id="matplotlib.axis_5">
    <g id="xtick_11">
     <g id="line2d_21">
      <g>
       <use xlink:href="#m3b3c95a5a6" x="60.216048" y="144.707104" style="fill: #2e3440; stroke: #2e3440"/>
      </g>
     </g>
     <g id="text_8">
      <text style="fill: #2e3440; font: 6.6px 'Arial'; text-anchor: middle" x="60.216048" y="157.73126" transform="rotate(-0 60.216048 157.73126)">0</text>
     </g>
    </g>
    <g id="xtick_12">
     <g id="line2d_22">
      <g>
       <use xlink:href="#m3b3c95a5a6" x="93.794886" y="144.707104" style="fill: #2e3440; stroke: #2e3440"/>
      </g>
     </g>
     <g id="text_9">
      <text style="fill: #2e3440; font: 6.6px 'Arial'; text-anchor: middle" x="93.794886" y="157.73126" transform="rotate(-0 93.794886 157.73126)">20</text>
     </g>
    </g>
    <g id="xtick_13">
     <g id="line2d_23">
      <g>
       <use xlink:href="#m3b3c95a5a6" x="127.373724" y="144.707104" style="fill: #2e3440; stroke: #2e3440"/>
      </g>
     </g>
     <g id="text_10">
      <text style="fill: #2e3440; font: 6.6px 'Arial'; text-anchor: middle" x="127.373724" y="157.73126" transform="rotate(-0 127.373724 157.73126)">40</text>
     </g>
    </g>
    <g id="xtick_14">
     <g id="line2d_24">
      <g>
       <use xlink:href="#m3b3c95a5a6" x="160.952561" y="144.707104" style="fill: #2e3440; stroke: #2e3440"/>
      </g>
     </g>
     <g id="text_11">
      <text style="fill: #2e3440; font: 6.6px 'Arial'; text-anchor: middle" x="160.952561" y="157.73126" transform="rotate(-0 160.952561 157.73126)">60</text>
     </g>
    </g>
    <g id="xtick_15">
     <g id="line2d_25">
      <g>
       <use xlink:href="#m3b3c95a5a6" x="194.531399" y="144.707104" style="fill: #2e3440; stroke: #2e3440"/>
      </g>
     </g>
     <g id="text_12">
      <text style="fill: #2e3440; font: 6.6px 'Arial'; text-anchor: middle" x="194.531399" y="157.73126" transform="rotate(-0 194.531399 157.73126)">80</text>
     </g>
    </g>
    <g id="text_13">
     <text style="fill: #2e3440; font: 7.2px 'Arial'; text-anchor: middle" x="136.607904" y="168.284385" transform="rotate(-0 136.607904 168.284385)">Time (min.)</text>
    </g>
   </g>
   <g id="matplotlib.axis_6">
    <g id="ytick_5">
     <g id="line2d_26">
      <g>
       <use xlink:href="#m53333e6f89" x="60.216048" y="144.707104" style="fill: #2e3440; stroke: #2e3440"/>
      </g>
     </g>
     <g id="text_14">
      <text style="fill: #2e3440; font: 6.6px 'Arial'; text-anchor: end" x="51.916048" y="147.069182" transform="rotate(-0 51.916048 147.069182)">0.0332</text>
     </g>
    </g>
    <g id="ytick_6">
     <g id="line2d_27">
      <g>
       <use xlink:href="#m53333e6f89" x="60.216048" y="125.083133" style="fill: #2e3440; stroke: #2e3440"/>
      </g>
     </g>
     <g id="text_15">
      <text style="fill: #2e3440; font: 6.6px 'Arial'; text-anchor: end" x="51.916048" y="127.445211" transform="rotate(-0 51.916048 127.445211)">0.0335</text>
     </g>
    </g>
    <g id="ytick_7">
     <g id="line2d_28">
      <g>
       <use xlink:href="#m53333e6f89" x="60.216048" y="105.459162" style="fill: #2e3440; stroke: #2e3440"/>
      </g>
     </g>
     <g id="text_16">
      <text style="fill: #2e3440; font: 6.6px 'Arial'; text-anchor: end" x="51.916048" y="107.82124" transform="rotate(-0 51.916048 107.82124)">0.0338</text>
     </g>
    </g>
   </g>
   <g id="line2d_29">
    <path d="M 60.216048 134.97548 
L 60.495872 134.155727 
L 60.775695 134.155727 
L 61.335343 132.13972 
L 62.174814 128.097297 
L 62.454637 128.097297 
L 63.014284 126.24 
L 63.294108 125.862093 
L 63.573932 125.806328 
L 63.853755 125.971224 
L 64.133579 125.971224 
L 65.532697 127.410804 
L 65.812521 127.410804 
L 66.651992 127.78039 
L 67.211639 127.819724 
L 67.771287 127.71917 
L 68.330934 127.273532 
L 68.890581 126.595922 
L 69.170405 126.595922 
L 69.730052 125.923867 
L 70.289699 125.776087 
L 71.12917 125.535145 
L 71.408994 125.118926 
L 71.968641 123.481646 
L 72.248465 122.443115 
L 72.528289 122.443115 
L 73.647583 118.441573 
L 73.927407 117.671152 
L 74.20723 117.671152 
L 74.487054 117.120672 
L 74.766878 116.870315 
L 75.046701 116.955834 
L 75.606349 117.775232 
L 75.886172 117.775232 
L 76.44582 118.682414 
L 76.725643 118.917485 
L 77.285291 118.993155 
L 78.124761 119.003441 
L 78.684409 119.489518 
L 78.964232 119.806693 
L 79.244056 119.806693 
L 79.52388 120.067885 
L 79.803703 120.136179 
L 80.083527 119.919114 
L 80.643174 119.000186 
L 80.922998 119.000186 
L 81.202822 118.576056 
L 81.482645 118.370749 
L 81.762469 118.469785 
L 82.322116 119.278574 
L 82.60194 119.278574 
L 83.721234 121.010235 
L 84.001058 121.242426 
L 84.840529 121.181205 
L 85.400176 120.24558 
L 85.68 119.611444 
L 85.959824 119.611444 
L 86.799295 117.91044 
L 87.358942 117.212105 
L 87.638766 117.212105 
L 88.478236 116.849748 
L 89.037884 116.839155 
L 89.317707 116.839155 
L 89.597531 117.060766 
L 90.157178 118.041702 
L 90.716826 119.678738 
L 90.996649 119.678738 
L 92.115944 124.140558 
L 92.395768 125.389235 
L 92.675591 125.389235 
L 93.794886 131.058697 
L 94.074709 133.100757 
L 94.354533 133.100757 
L 94.91418 138.909377 
L 95.473828 145.036362 
L 95.753651 146.769789 
L 96.033475 146.769789 
L 96.313299 147.310184 
L 96.593122 146.731637 
L 97.15277 143.301465 
L 97.432593 141.195172 
L 97.712417 141.195172 
L 98.272064 137.625059 
L 98.831711 135.604552 
L 99.111535 134.987924 
L 99.391359 134.987924 
L 100.23083 133.633265 
L 100.790477 132.605675 
L 101.070301 132.605675 
L 101.629948 130.938339 
L 102.469419 127.509201 
L 102.749243 127.509201 
L 103.588713 124.356664 
L 104.148361 122.864357 
L 104.428184 122.864357 
L 105.267655 120.797374 
L 105.827303 119.196884 
L 106.107126 119.196884 
L 106.38695 118.697465 
L 106.666774 118.640373 
L 106.946597 119.112053 
L 107.506245 120.878919 
L 107.786068 120.878919 
L 108.345716 122.37643 
L 108.625539 122.834885 
L 108.905363 123.072888 
L 109.46501 123.080838 
L 109.744834 122.85855 
L 110.024657 122.183968 
L 110.584305 119.183744 
L 110.864128 117.495223 
L 111.143952 117.495223 
L 111.423776 116.213011 
L 111.703599 115.896977 
L 111.983423 116.8141 
L 112.54307 120.516115 
L 112.822894 120.516115 
L 113.382541 123.322499 
L 113.662365 123.508464 
L 113.942188 122.923613 
L 114.222012 121.843797 
L 114.501836 121.843797 
L 115.341307 118.295466 
L 115.900954 117.068498 
L 116.180778 117.068498 
L 116.740425 116.386965 
L 117.579896 114.454369 
L 117.85972 114.454369 
L 118.139543 114.026874 
L 118.419367 114.037134 
L 118.699191 114.590788 
L 119.258838 116.726652 
L 119.538661 116.726652 
L 120.378132 119.98708 
L 120.93778 121.395391 
L 121.217603 121.395391 
L 121.497427 121.697834 
L 121.777251 121.553246 
L 122.057074 120.847807 
L 122.616722 118.554508 
L 122.896545 118.554508 
L 123.456193 116.873016 
L 123.736016 116.754364 
L 124.01584 117.098841 
L 124.295663 117.757778 
L 124.575487 117.757778 
L 125.974605 121.562396 
L 126.254429 121.562396 
L 126.814076 122.512675 
L 127.653547 124.47298 
L 127.933371 124.47298 
L 128.213195 124.772965 
L 128.493018 124.606199 
L 128.772842 123.856841 
L 129.332489 121.17334 
L 129.612313 121.17334 
L 131.011431 114.057176 
L 131.291255 114.057176 
L 131.571078 113.236839 
L 131.850902 112.876278 
L 132.130726 113.03232 
L 132.690373 114.369052 
L 132.970197 114.369052 
L 133.809668 116.542299 
L 134.369315 117.206275 
L 134.649138 117.206275 
L 134.928962 117.349158 
L 135.208786 117.35351 
L 135.768433 116.96051 
L 136.048257 116.737003 
L 136.32808 116.737003 
L 136.607904 116.615022 
L 136.887728 116.694236 
L 137.167551 117.024729 
L 137.727199 118.135325 
L 138.007022 118.135325 
L 138.846493 119.707371 
L 139.40614 120.329566 
L 139.965788 120.435843 
L 140.525435 120.677623 
L 141.085082 121.026687 
L 141.64473 121.030389 
L 141.924553 120.733238 
L 142.204377 120.024087 
L 142.764024 117.800371 
L 143.043848 117.800371 
L 143.883319 114.635212 
L 144.442966 113.443882 
L 144.72279 113.443882 
L 146.121908 112.056002 
L 146.681555 112.003525 
L 146.961379 112.256071 
L 147.241203 112.881358 
L 147.80085 114.803676 
L 148.080674 114.803676 
L 148.920145 117.531302 
L 149.479792 118.681696 
L 149.759615 118.681696 
L 150.039439 118.964694 
L 150.319263 118.972084 
L 150.599086 118.657552 
L 151.158734 117.477707 
L 151.438557 117.477707 
L 151.998205 116.365133 
L 152.557852 115.687131 
L 153.117499 115.605337 
L 153.397323 115.731177 
L 153.677147 116.133283 
L 154.236794 117.713815 
L 154.516617 118.608349 
L 154.796441 118.608349 
L 155.356088 119.89264 
L 155.635912 120.044779 
L 155.915736 119.919429 
L 156.195559 119.65991 
L 156.475383 119.65991 
L 156.755207 119.40276 
L 157.03503 119.324485 
L 157.314854 119.529922 
L 157.874501 120.404968 
L 158.154325 120.404968 
L 158.434149 120.80022 
L 158.713972 120.988002 
L 158.993796 120.890147 
L 159.553443 120.113633 
L 159.833267 120.113633 
L 160.392914 119.322868 
L 160.672738 119.214351 
L 162.071856 119.484721 
L 162.35168 119.089339 
L 162.911327 117.804831 
L 163.191151 117.804831 
L 163.470974 117.281656 
L 163.750798 117.122531 
L 164.030622 117.449086 
L 164.590269 118.948795 
L 164.870092 118.948795 
L 165.709563 121.041187 
L 166.269211 121.871537 
L 166.828858 121.936172 
L 167.108682 121.609901 
L 167.388505 120.796566 
L 167.948153 118.270869 
L 168.227976 118.270869 
L 169.067447 114.617709 
L 169.627095 113.057279 
L 169.906918 113.057279 
L 170.186742 112.719881 
L 170.466565 112.827813 
L 170.746389 113.451283 
L 171.306036 115.520127 
L 171.58586 115.520127 
L 172.145507 117.267159 
L 172.425331 117.631182 
L 172.705155 117.658814 
L 172.984978 117.454104 
L 173.264802 117.454104 
L 174.104273 116.634798 
L 174.66392 116.569735 
L 175.503391 116.461425 
L 176.063038 115.58727 
L 176.342862 115.010024 
L 176.622686 115.010024 
L 177.462157 113.676276 
L 177.74198 113.428877 
L 178.301628 113.379644 
L 178.581451 113.582006 
L 178.861275 114.160081 
L 179.420922 116.424477 
L 179.700746 117.704742 
L 179.980569 117.704742 
L 180.540217 119.482195 
L 180.82004 119.554962 
L 181.379688 118.649615 
L 181.659511 118.649615 
L 181.939335 118.223305 
L 182.219159 118.18774 
L 182.498982 118.682274 
L 183.05863 120.60844 
L 183.338453 120.60844 
L 183.898101 122.406837 
L 184.457748 123.369161 
L 185.017395 123.48502 
L 185.297219 123.369507 
L 185.577042 122.918723 
L 186.13669 120.991283 
L 186.416513 119.959764 
L 186.696337 119.959764 
L 186.976161 119.212773 
L 187.255984 119.039279 
L 187.535808 119.559737 
L 188.095455 121.644049 
L 188.375279 121.644049 
L 188.934926 123.176629 
L 189.21475 123.260685 
L 189.494574 122.93397 
L 189.774397 122.360951 
L 190.054221 122.360951 
L 190.613868 121.12445 
L 191.173515 120.51026 
L 191.733163 120.404129 
L 192.012986 120.341077 
L 192.29281 120.157678 
L 192.852457 119.189694 
L 193.132281 118.697876 
L 193.412105 118.697876 
L 193.691928 118.436385 
L 193.971752 118.581567 
L 194.251576 119.199109 
L 194.811223 121.226693 
L 195.091047 121.226693 
L 195.650694 123.045144 
L 195.930517 123.541368 
L 196.490165 123.925519 
L 196.769988 123.925519 
L 197.329636 124.263261 
L 198.169107 125.563932 
L 198.44893 125.563932 
L 198.728754 125.879387 
L 199.008578 126.021382 
L 199.288401 125.981072 
L 200.407696 125.04318 
L 200.967343 124.441548 
L 201.52699 124.110863 
L 201.806814 124.110863 
L 202.086638 123.825471 
L 202.366461 123.318188 
L 202.926109 121.506244 
L 203.205932 120.406761 
L 203.485756 120.406761 
L 204.884874 115.287154 
L 205.164698 115.287154 
L 205.444521 114.861118 
L 205.724345 115.043325 
L 206.004169 115.922666 
L 206.563816 118.694606 
L 206.84364 118.694606 
L 207.403287 120.886708 
L 207.683111 121.346771 
L 207.962934 121.398007 
L 208.242758 121.148513 
L 208.522582 121.148513 
L 208.802405 120.704427 
L 209.082229 120.001739 
L 209.9217 116.851677 
L 210.201524 116.851677 
L 210.481347 116.266249 
L 210.761171 116.326194 
L 211.040994 117.114805 
L 211.600642 119.994193 
L 211.880465 119.994193 
L 212.99976 125.715985 
L 213.279584 126.57062 
L 213.559407 126.57062 
L 213.839231 126.946166 
L 214.119055 126.640476 
L 214.398878 125.520469 
L 214.958526 121.750876 
L 215.238349 121.750876 
L 215.797996 118.099724 
L 216.07782 117.051153 
L 216.357644 116.552982 
L 216.917291 116.43506 
L 217 116.458234 
L 217 116.458234 
" clip-path="url(#pc90eb2b012)" style="fill: none; stroke: #bf616a; stroke-linecap: round"/>
   </g>
   <g id="line2d_30">
    <path d="M 61.89499 128.248519 
L 62.174814 128.182537 
L 62.454637 125.554974 
L 62.734461 129.225646 
L 63.294108 125.37576 
L 63.573932 124.991779 
L 63.853755 124.962839 
L 64.133579 126.230272 
L 64.413403 125.988539 
L 64.693226 127.071169 
L 64.97305 126.792516 
L 65.252874 127.406907 
L 65.532697 125.44219 
L 65.812521 124.41711 
L 66.092345 125.640141 
L 66.372168 125.506245 
L 66.651992 126.308955 
L 66.931816 125.547938 
L 67.211639 123.365363 
L 67.771287 122.132126 
L 68.05111 124.186776 
L 68.330934 123.040006 
L 68.610757 123.314911 
L 68.890581 125.852033 
L 69.170405 121.908678 
L 70.009876 123.165611 
L 70.289699 124.749698 
L 70.569523 123.495707 
L 71.12917 123.935907 
L 71.408994 122.521031 
L 71.688818 122.117468 
L 71.968641 120.698619 
L 72.528289 121.386219 
L 72.808112 119.674155 
L 73.087936 120.164607 
L 73.367759 117.166441 
L 73.647583 119.150935 
L 73.927407 120.16725 
L 74.20723 118.563568 
L 74.766878 120.073403 
L 75.046701 117.394852 
L 75.606349 120.959531 
L 75.886172 119.19627 
L 76.165996 122.322354 
L 76.725643 118.200112 
L 77.005467 120.903587 
L 77.565114 119.250349 
L 77.844938 120.23627 
L 78.124761 118.512197 
L 78.404585 123.067906 
L 78.684409 121.272185 
L 79.244056 122.817933 
L 79.52388 122.231189 
L 79.803703 119.626885 
L 80.083527 120.601475 
L 80.363351 117.591433 
L 80.922998 119.427685 
L 81.202822 120.569227 
L 81.482645 119.278477 
L 81.762469 119.839623 
L 82.042293 119.635824 
L 82.322116 119.571824 
L 82.60194 119.122461 
L 82.881764 120.833934 
L 83.161587 120.383138 
L 83.441411 119.519126 
L 83.721234 120.62965 
L 84.001058 118.707739 
L 84.280882 120.841812 
L 84.560705 118.737858 
L 84.840529 120.945169 
L 85.120353 118.835272 
L 85.400176 118.986554 
L 85.68 121.739201 
L 85.959824 118.688544 
L 86.239647 120.901831 
L 86.519471 118.877102 
L 86.799295 119.728802 
L 87.079118 119.534249 
L 87.358942 120.184597 
L 87.638766 118.00987 
L 87.918589 120.35885 
L 88.198413 118.592215 
L 88.478236 118.333406 
L 88.75806 119.915911 
L 89.037884 118.058718 
L 89.317707 120.647738 
L 89.597531 120.089549 
L 89.877355 120.196736 
L 90.157178 121.512512 
L 90.437002 120.290967 
L 90.716826 121.595234 
L 90.996649 122.215307 
L 91.276473 123.489576 
L 91.556297 123.971888 
L 92.115944 125.443447 
L 92.395768 127.762315 
L 92.675591 126.768983 
L 93.235239 130.608213 
L 93.515062 127.873251 
L 93.794886 133.380077 
L 94.074709 134.652313 
L 94.354533 133.515241 
L 94.634357 137.938562 
L 94.91418 136.383909 
L 95.194004 139.009803 
L 95.473828 135.240955 
L 96.313299 140.640944 
L 96.593122 137.375894 
L 96.872946 136.733952 
L 97.15277 138.886493 
L 97.432593 137.045843 
L 97.712417 137.859243 
L 97.992241 138.146419 
L 98.272064 138.833311 
L 98.551888 136.160643 
L 98.831711 137.947104 
L 99.111535 137.792831 
L 99.391359 136.47904 
L 99.671182 136.294802 
L 100.23083 134.562457 
L 100.510653 134.007845 
L 101.070301 134.890006 
L 101.350124 132.794585 
L 101.909772 131.083109 
L 102.189595 131.192096 
L 102.469419 128.45286 
L 102.749243 128.029444 
L 103.029066 129.367453 
L 103.30889 127.026187 
L 103.588713 125.814246 
L 103.868537 125.410739 
L 104.148361 125.32615 
L 104.428184 127.693937 
L 104.708008 127.108313 
L 104.987832 125.714026 
L 105.267655 125.234471 
L 105.547479 127.116297 
L 105.827303 123.800052 
L 106.107126 125.30204 
L 106.38695 125.462387 
L 106.666774 125.004259 
L 106.946597 125.281835 
L 107.226421 123.863066 
L 107.506245 123.663012 
L 108.065892 126.608554 
L 108.625539 121.725186 
L 108.905363 126.475628 
L 109.185186 122.809475 
L 109.46501 124.174537 
L 109.744834 122.068234 
L 110.024657 122.350643 
L 110.304481 118.310464 
L 110.584305 117.425898 
L 110.864128 114.01818 
L 111.143952 113.666501 
L 111.423776 119.460206 
L 111.703599 117.733657 
L 111.983423 119.099066 
L 111.983423 119.099066 
" clip-path="url(#pc90eb2b012)" style="fill: none; stroke: #ebcb8b; stroke-linecap: round"/>
   </g>
   <g id="line2d_31">
    <path d="M 112.263247 119.063675 
L 112.54307 120.38795 
L 113.102718 116.938247 
L 113.382541 118.362247 
L 113.662365 117.166955 
L 113.942188 117.14649 
L 114.222012 115.462668 
L 114.501836 116.697864 
L 114.781659 114.780466 
L 115.061483 117.356755 
L 115.341307 118.554906 
L 115.62113 118.341812 
L 115.900954 114.857612 
L 116.180778 115.871284 
L 116.460601 115.718295 
L 117.020249 112.258236 
L 117.300072 111.531565 
L 117.579896 113.406095 
L 117.85972 112.492317 
L 118.139543 115.220781 
L 118.419367 116.274804 
L 118.699191 114.598773 
L 118.979014 115.047261 
L 119.258838 114.718445 
L 119.538661 116.930485 
L 119.818485 116.69116 
L 120.098309 116.776977 
L 120.378132 115.929085 
L 120.657956 117.10885 
L 120.93778 120.113079 
L 121.217603 118.658874 
L 121.497427 118.095337 
L 121.777251 119.572979 
L 122.057074 114.023601 
L 122.616722 116.88316 
L 122.896545 117.465778 
L 123.176369 117.715581 
L 123.456193 117.804156 
L 123.736016 118.030686 
L 124.01584 117.985834 
L 124.295663 119.878594 
L 124.575487 120.404242 
L 124.855311 119.917863 
L 125.135134 118.884347 
L 125.414958 121.665293 
L 125.694782 118.636641 
L 125.974605 120.094168 
L 126.534253 120.853215 
L 127.0939 124.637207 
L 127.653547 122.529952 
L 127.933371 123.133885 
L 128.493018 119.521884 
L 128.772842 118.954645 
L 129.052665 118.861796 
L 129.332489 116.23281 
L 129.612313 116.68663 
L 130.17196 114.658114 
L 130.451784 114.581758 
L 130.731607 113.1329 
L 131.011431 114.735558 
L 131.291255 113.513134 
L 131.571078 113.88218 
L 131.850902 116.360932 
L 132.130726 115.689791 
L 132.410549 116.664422 
L 132.690373 115.922384 
L 132.970197 116.608742 
L 133.25002 112.198852 
L 133.529844 114.050968 
L 133.809668 116.69783 
L 134.089491 115.212267 
L 134.369315 114.699849 
L 134.649138 115.938066 
L 134.928962 115.211104 
L 135.208786 116.396275 
L 135.488609 114.831887 
L 135.768433 114.496679 
L 136.32808 117.090168 
L 136.607904 117.171313 
L 137.167551 121.019807 
L 137.447375 119.514841 
L 137.727199 119.442779 
L 138.007022 121.459314 
L 138.286846 120.63413 
L 138.56667 122.759658 
L 138.846493 119.769153 
L 139.126317 122.539159 
L 139.40614 122.668778 
L 139.685964 121.687983 
L 139.965788 121.341432 
L 140.245611 123.385259 
L 140.525435 122.625556 
L 140.805259 123.336678 
L 141.085082 125.416259 
L 141.364906 122.684379 
L 141.64473 123.115258 
L 141.924553 121.498028 
L 142.204377 122.439779 
L 142.484201 120.996759 
L 142.764024 121.206473 
L 143.043848 122.562505 
L 143.323672 120.622376 
L 143.603495 120.590431 
L 143.883319 120.827682 
L 144.163143 119.294614 
L 144.442966 117.021138 
L 145.002613 114.117226 
L 145.282437 111.693137 
L 145.562261 114.026283 
L 145.842084 115.006308 
L 146.121908 115.293688 
L 146.401732 112.969285 
L 146.681555 115.449722 
L 146.961379 116.180701 
L 147.241203 115.557095 
L 147.521026 116.3157 
L 147.80085 117.680784 
L 148.080674 116.133912 
L 148.360497 118.144801 
L 148.640321 114.644994 
L 148.920145 115.925735 
L 149.199968 117.941706 
L 149.479792 115.235118 
L 149.759615 114.370735 
L 150.039439 115.437467 
L 150.319263 115.850957 
L 150.599086 115.861688 
L 150.87891 114.320781 
L 151.438557 118.530676 
L 151.718381 114.98024 
L 151.998205 117.107192 
L 152.278028 117.893367 
L 152.557852 116.614352 
L 152.837676 116.503672 
L 153.117499 117.437029 
L 153.397323 117.478657 
L 153.677147 117.07222 
L 153.95697 120.127976 
L 154.236794 117.636004 
L 154.516617 117.521417 
L 154.796441 118.864653 
L 155.356088 117.128287 
L 155.635912 116.958295 
L 155.915736 113.801847 
L 156.195559 115.137542 
L 156.475383 117.344709 
L 156.755207 115.71171 
L 157.03503 115.968375 
L 157.314854 118.612878 
L 157.594678 118.615364 
L 157.874501 119.339238 
L 158.154325 116.739878 
L 158.434149 116.424986 
L 158.713972 118.243779 
L 158.993796 116.174659 
L 159.27362 117.403802 
L 159.553443 116.34324 
L 159.833267 113.614607 
L 160.11309 118.973594 
L 160.392914 117.692611 
L 160.672738 118.392088 
L 160.952561 119.805015 
L 161.512209 116.724025 
L 161.792032 116.466589 
L 162.071856 114.85838 
L 162.631503 117.020406 
L 162.911327 115.706145 
L 163.191151 115.146787 
L 163.470974 119.320673 
L 163.750798 119.718163 
L 164.030622 118.403912 
L 164.310445 115.254371 
L 164.590269 120.032851 
L 164.870092 122.27188 
L 165.149916 119.287516 
L 165.42974 122.29571 
L 165.709563 122.144023 
L 165.989387 122.356801 
L 166.269211 122.748687 
L 166.549034 120.56829 
L 166.828858 120.881968 
L 167.108682 118.263517 
L 167.388505 119.799497 
L 167.668329 118.950823 
L 167.948153 116.697569 
L 168.5078 116.057076 
L 168.787624 119.105124 
L 169.347271 116.797755 
L 169.627095 115.252334 
L 169.906918 117.345377 
L 170.186742 118.163705 
L 170.466565 118.190231 
L 170.746389 116.660154 
L 171.026213 117.132185 
L 171.58586 120.593075 
L 171.865684 121.121773 
L 172.145507 118.344145 
L 172.425331 120.357965 
L 172.705155 121.138346 
L 172.984978 120.240281 
L 173.264802 118.926576 
L 173.544626 120.047428 
L 173.824449 120.076798 
L 174.104273 120.554306 
L 174.384097 119.548143 
L 174.66392 120.652108 
L 174.943744 119.830624 
L 175.223567 118.066932 
L 175.503391 120.351618 
L 175.783215 116.763296 
L 176.063038 116.99267 
L 176.342862 119.482978 
L 176.622686 118.074065 
L 176.902509 116.076764 
L 177.182333 117.780981 
L 177.462157 117.402922 
L 177.74198 118.828888 
L 178.021804 116.61005 
L 178.301628 118.345702 
L 179.141099 120.464022 
L 179.420922 120.204066 
L 179.700746 122.322151 
L 179.980569 119.557125 
L 180.260393 121.219611 
L 180.540217 120.530236 
L 180.82004 118.549218 
L 181.099864 119.324573 
L 181.379688 119.734307 
L 181.659511 121.440533 
L 181.939335 121.428977 
L 182.219159 122.239262 
L 182.498982 123.680042 
L 182.778806 122.896381 
L 183.05863 124.194938 
L 183.338453 124.155586 
L 183.618277 126.029406 
L 184.177924 122.295675 
L 184.457748 122.774043 
L 184.737572 123.595783 
L 185.017395 123.635176 
L 185.297219 121.388227 
L 185.577042 121.978531 
L 185.856866 124.319338 
L 186.13669 125.304708 
L 186.416513 123.8331 
L 186.696337 125.397951 
L 187.255984 123.792464 
L 187.535808 124.683677 
L 187.815632 126.398586 
L 188.095455 126.918504 
L 188.375279 126.229752 
L 188.655103 123.560319 
L 188.934926 126.145993 
L 189.21475 123.796519 
L 189.494574 124.757077 
L 189.774397 125.28125 
L 190.054221 123.751828 
L 190.334044 123.117113 
L 190.613868 124.089901 
L 190.893692 123.069199 
L 191.173515 123.791363 
L 191.453339 123.636949 
L 191.733163 123.708755 
L 192.012986 121.393689 
L 192.29281 121.072769 
L 192.572634 121.038579 
L 192.852457 123.511718 
L 193.132281 123.072185 
L 193.412105 123.118669 
L 193.691928 123.594049 
L 193.971752 122.372455 
L 194.531399 126.168063 
L 195.091047 121.814593 
L 195.37087 123.091701 
L 195.650694 123.56961 
L 195.930517 122.889995 
L 196.210341 124.074598 
L 196.490165 125.778346 
L 196.769988 126.782834 
L 197.049812 124.814461 
L 197.329636 126.227198 
L 197.609459 126.150065 
L 197.889283 125.244204 
L 198.169107 128.461358 
L 198.44893 124.485113 
L 198.728754 125.997652 
L 199.008578 125.052825 
L 199.288401 127.273208 
L 199.568225 125.429161 
L 199.848049 126.102381 
L 200.127872 123.72384 
L 200.407696 125.415649 
L 200.687519 126.413001 
L 201.247167 123.624712 
L 201.806814 123.816944 
L 202.086638 122.639204 
L 202.646285 124.067165 
L 202.926109 123.583078 
L 203.205932 123.80259 
L 203.485756 124.505935 
L 203.76558 123.99354 
L 204.045403 121.952897 
L 204.325227 121.690116 
L 204.884874 120.302989 
L 205.164698 122.749347 
L 205.444521 122.45368 
L 205.724345 123.925241 
L 206.004169 123.941135 
L 206.283992 125.079332 
L 206.563816 125.013792 
L 206.84364 125.153065 
L 207.123463 121.881374 
L 207.403287 124.625369 
L 207.962934 119.908684 
L 208.522582 122.662319 
L 208.802405 121.718 
L 209.082229 119.503226 
L 209.362053 121.810006 
L 209.641876 121.990107 
L 209.9217 121.856385 
L 210.201524 121.578792 
L 210.481347 122.758495 
L 210.761171 122.190533 
L 211.040994 122.101948 
L 211.320818 122.323596 
L 211.880465 123.707465 
L 212.160289 124.057268 
L 212.440113 126.550443 
L 212.719936 124.505706 
L 212.99976 125.650699 
L 213.839231 123.733269 
L 214.119055 123.305349 
L 214.398878 122.265744 
L 214.678702 122.284486 
L 215.238349 120.222364 
L 215.518173 120.127393 
L 215.797996 122.217547 
L 216.07782 119.249928 
L 216.357644 119.511565 
L 216.637467 118.880058 
L 216.917291 117.772874 
L 217 118.169034 
L 217 118.169034 
" clip-path="url(#pc90eb2b012)" style="fill: none; stroke: #5e81ac; stroke-linecap: round"/>
   </g>
   <g id="patch_9">
    <path d="M 60.216048 144.707104 
L 60.216048 105.459162 
" style="fill: none; stroke: #2e3440; stroke-width: 0.5; stroke-linejoin: miter; stroke-linecap: square"/>
   </g>
   <g id="patch_10">
    <path d="M 60.216048 144.707104 
L 212.99976 144.707104 
" style="fill: none; stroke: #2e3440; stroke-width: 0.5; stroke-linejoin: miter; stroke-linecap: square"/>
   </g>
   <g id="text_17">
    <text style="fill: #2e3440; font: 700 5.9976px 'Arial'; text-anchor: start" x="-0.897437" y="126.637823" transform="rotate(-0 -0.897437 126.637823)">AMP</text>
   </g>
  </g>
 </g>
 <defs>
  <clipPath id="pb58167e515">
   <rect x="60.216048" y="3.00024" width="152.783712" height="39.247942"/>
  </clipPath>
  <clipPath id="pacd7b967ca">
   <rect x="60.216048" y="53.048662" width="152.783712" height="39.247942"/>
  </clipPath>
  <clipPath id="pc90eb2b012">
   <rect x="60.216048" y="105.459162" width="152.783712" height="39.247942"/>
  </clipPath>
 </defs>
</svg>
