<?xml version="1.0" encoding="utf-8" standalone="no"?>
<!DOCTYPE svg PUBLIC "-//W3C//DTD SVG 1.1//EN"
  "http://www.w3.org/Graphics/SVG/1.1/DTD/svg11.dtd">
<svg xmlns:xlink="http://www.w3.org/1999/xlink" width="61.2pt" height="46.8pt" viewBox="0 0 61.2 46.8" xmlns="http://www.w3.org/2000/svg" version="1.1">
 <metadata>
  <rdf:RDF xmlns:dc="http://purl.org/dc/elements/1.1/" xmlns:cc="http://creativecommons.org/ns#" xmlns:rdf="http://www.w3.org/1999/02/22-rdf-syntax-ns#">
   <cc:Work>
    <dc:type rdf:resource="http://purl.org/dc/dcmitype/StillImage"/>
    <dc:date>2024-02-19T15:55:47.375521</dc:date>
    <dc:format>image/svg+xml</dc:format>
    <dc:creator>
     <cc:Agent>
      <dc:title>Matplotlib v3.8.0, https://matplotlib.org/</dc:title>
     </cc:Agent>
    </dc:creator>
   </cc:Work>
  </rdf:RDF>
 </metadata>
 <defs>
  <style type="text/css">*{stroke-linejoin: round; stroke-linecap: butt}</style>
 </defs>
 <g id="figure_1">
  <g id="patch_1">
   <path d="M 0 46.8 
L 61.2 46.8 
L 61.2 0 
L 0 0 
z
" style="fill: #ffffff"/>
  </g>
  <g id="axes_1">
   <g id="patch_2">
    <path d="M 13.584865 33.215135 
L 58.19976 33.215135 
L 58.19976 3.00024 
L 13.584865 3.00024 
z
" style="fill: #eceff4"/>
   </g>
   <g id="matplotlib.axis_1">
    <g id="text_1">
     <text style="fill: #2e3440; font: 7.2px 'Arial'; text-anchor: middle" x="35.892313" y="42.36876" transform="rotate(-0 35.892313 42.36876)">Time</text>
    </g>
   </g>
   <g id="matplotlib.axis_2">
    <g id="text_2">
     <text style="fill: #2e3440; font: 7.2px 'Arial'; text-anchor: middle" x="8.153865" y="18.107687" transform="rotate(-90 8.153865 18.107687)">Input</text>
    </g>
   </g>
   <g id="line2d_1">
    <path d="M -1 15.45204 
L -0.72908 15.45204 
L -0.543185 19.35908 
L 0.386292 19.35908 
L 0.572187 15.464911 
L 1.501664 15.464911 
L 1.68756 18.449523 
L 2.617037 18.449523 
L 2.802932 14.332039 
L 3.732409 14.332039 
L 3.918304 20.716019 
L 4.847781 20.716019 
L 5.033677 16.143114 
L 5.963154 16.143114 
L 6.149049 13.036414 
L 7.078526 13.036414 
L 7.264422 16.691631 
L 8.193899 16.691631 
L 8.379794 18.097313 
L 9.309271 18.097313 
L 9.495166 22.390659 
L 10.424643 22.390659 
L 10.610539 23.549305 
L 11.540016 23.549305 
L 11.725911 25.561773 
L 12.655388 25.561773 
L 12.841283 31.841731 
L 13.77076 31.841731 
L 13.956656 17.257309 
L 14.886133 17.257309 
L 15.072028 25.104622 
L 16.001505 25.104622 
L 16.187401 21.103488 
L 17.116878 21.103488 
L 17.302773 16.051954 
L 18.23225 16.051954 
L 18.418145 17.15223 
L 19.347622 17.15223 
L 19.533518 15.891689 
L 20.462995 15.891689 
L 20.64889 23.448896 
L 21.578367 23.448896 
L 21.764262 14.447608 
L 22.693739 14.447608 
L 22.879635 11.718276 
L 23.809112 11.718276 
L 23.995007 28.67503 
L 24.924484 28.67503 
L 25.11038 5.070598 
L 26.039857 5.070598 
L 26.225752 16.990859 
L 27.155229 16.990859 
L 27.341124 13.860238 
L 28.270601 13.860238 
L 28.456497 23.631219 
L 29.385974 23.631219 
L 29.571869 16.551185 
L 30.501346 16.551185 
L 30.687241 11.992205 
L 31.616718 11.992205 
L 31.802614 23.743278 
L 32.732091 23.743278 
L 32.917986 19.339101 
L 33.847463 19.339101 
L 34.033359 18.812936 
L 34.962836 18.812936 
L 35.148731 5.817116 
L 36.078208 5.817116 
L 36.264103 14.672901 
L 37.19358 14.672901 
L 37.379476 20.429328 
L 38.308953 20.429328 
L 38.494848 14.838624 
L 39.424325 14.838624 
L 39.61022 16.352963 
L 40.539697 16.352963 
L 40.725593 20.540668 
L 41.65507 20.540668 
L 41.840965 16.749117 
L 42.770442 16.749117 
L 42.956338 14.375778 
L 43.885815 14.375778 
L 44.07171 6.860425 
L 45.001187 6.860425 
L 45.187082 14.572177 
L 46.116559 14.572177 
L 46.302455 14.907898 
L 47.231932 14.907898 
L 47.417827 21.01992 
L 48.347304 21.01992 
L 48.533199 15.620477 
L 49.462676 15.620477 
L 49.648572 13.084633 
L 50.578049 13.084633 
L 50.763944 18.67966 
L 51.693421 18.67966 
L 51.879317 21.06741 
L 52.808794 21.06741 
L 52.994689 15.38951 
L 53.924166 15.38951 
L 54.110061 21.093114 
L 55.039538 21.093114 
L 55.225434 14.567036 
L 56.154911 14.567036 
L 56.340806 19.034191 
L 57.270283 19.034191 
L 57.456178 14.220439 
L 58.385655 14.220439 
L 58.571551 22.751967 
L 59.501028 22.751967 
L 59.686923 14.306887 
L 60.6164 14.306887 
L 60.802296 7.842458 
L 61.731773 7.842458 
L 61.917668 16.60769 
L 62.2 16.60769 
L 62.2 16.60769 
" clip-path="url(#pe6440e83d8)" style="fill: none; stroke: #b48ead; stroke-width: 0.5; stroke-linecap: round"/>
   </g>
   <g id="patch_3">
    <path d="M 13.584865 33.215135 
L 58.19976 33.215135 
" style="fill: none; stroke: #2e3440; stroke-width: 0.5; stroke-linejoin: miter; stroke-linecap: square"/>
   </g>
  </g>
 </g>
 <defs>
  <clipPath id="pe6440e83d8">
   <rect x="13.584865" y="3.00024" width="44.614895" height="30.214895"/>
  </clipPath>
 </defs>
</svg>
