<?xml version="1.0" encoding="utf-8" standalone="no"?>
<!DOCTYPE svg PUBLIC "-//W3C//DTD SVG 1.1//EN"
  "http://www.w3.org/Graphics/SVG/1.1/DTD/svg11.dtd">
<svg xmlns:xlink="http://www.w3.org/1999/xlink" width="79.2pt" height="43.2pt" viewBox="0 0 79.2 43.2" xmlns="http://www.w3.org/2000/svg" version="1.1">
 <metadata>
  <rdf:RDF xmlns:dc="http://purl.org/dc/elements/1.1/" xmlns:cc="http://creativecommons.org/ns#" xmlns:rdf="http://www.w3.org/1999/02/22-rdf-syntax-ns#">
   <cc:Work>
    <dc:type rdf:resource="http://purl.org/dc/dcmitype/StillImage"/>
    <dc:date>2023-10-20T22:37:50.112121</dc:date>
    <dc:format>image/svg+xml</dc:format>
    <dc:creator>
     <cc:Agent>
      <dc:title>Matplotlib v3.8.0, https://matplotlib.org/</dc:title>
     </cc:Agent>
    </dc:creator>
   </cc:Work>
  </rdf:RDF>
 </metadata>
 <defs>
  <style type="text/css">*{stroke-linejoin: round; stroke-linecap: butt}</style>
 </defs>
 <g id="figure_1">
  <g id="patch_1">
   <path d="M 0 43.2 
L 79.2 43.2 
L 79.2 0 
L 0 0 
z
" style="fill: #ffffff"/>
  </g>
  <g id="axes_1">
   <g id="patch_2">
    <path d="M 3.00024 32.970532 
L 43.423017 32.970532 
L 43.423017 10.781681 
L 3.00024 10.781681 
z
" style="fill: #eceff4"/>
   </g>
   <g id="matplotlib.axis_1"/>
   <g id="matplotlib.axis_2"/>
   <g id="line2d_1">
    <path d="M 3.112525 18.893391 
L 3.449382 28.775643 
L 3.561667 25.411294 
L 3.786238 27.206024 
L 3.898524 26.904478 
L 4.010809 28.247279 
L 4.123095 25.21483 
L 4.23538 26.631806 
L 4.347666 24.661659 
L 4.459951 28.23464 
L 4.684522 23.355469 
L 4.796808 23.466658 
L 4.909093 31.961947 
L 5.24595 24.229356 
L 5.470521 26.819116 
L 5.582806 27.506887 
L 5.807377 26.568268 
L 5.919663 25.832319 
L 6.031948 27.219454 
L 6.144234 24.208404 
L 6.256519 25.100362 
L 6.368805 22.852336 
L 6.48109 26.289682 
L 6.593376 24.061424 
L 6.705661 25.741673 
L 6.817947 24.75315 
L 6.930232 27.951301 
L 7.042518 23.104165 
L 7.154803 27.788039 
L 7.267089 21.616988 
L 7.379374 28.605761 
L 7.49166 26.759469 
L 7.603945 27.259372 
L 7.828516 24.066877 
L 7.940802 25.362893 
L 8.053087 24.719108 
L 8.165373 26.759586 
L 8.389944 25.563669 
L 8.7268 21.940744 
L 8.839085 22.683288 
L 9.063656 13.89887 
L 9.175942 17.516494 
L 9.400513 17.090462 
L 9.512798 16.195654 
L 9.625084 18.193128 
L 9.737369 23.0302 
L 9.96194 18.09081 
L 10.074226 17.923529 
L 10.298797 23.402656 
L 10.523368 26.282639 
L 10.635653 23.869793 
L 10.747939 26.28121 
L 10.860224 26.226972 
L 10.97251 24.612029 
L 11.084795 25.692123 
L 11.197081 24.359836 
L 11.309366 26.765506 
L 11.421652 26.671698 
L 11.533937 22.64196 
L 11.646223 27.231928 
L 11.758508 24.255997 
L 11.870794 25.020078 
L 12.095365 20.271381 
L 12.20765 21.053709 
L 12.432221 11.790265 
L 12.544507 18.140073 
L 12.656792 14.142027 
L 12.881363 17.899188 
L 12.993649 16.223603 
L 13.21822 17.400039 
L 13.442791 26.114007 
L 13.555076 20.554387 
L 13.667362 22.336016 
L 13.891933 28.364443 
L 14.004218 27.30811 
L 14.116504 27.417099 
L 14.341075 24.441397 
L 14.565646 30.368996 
L 14.790216 24.957804 
L 14.902502 25.96085 
L 15.127073 25.545622 
L 15.239358 26.252983 
L 15.351644 28.58339 
L 15.463929 23.932447 
L 15.576215 28.527534 
L 15.800786 22.973085 
L 15.913071 27.73174 
L 16.025357 23.849548 
L 16.137642 24.031393 
L 16.249928 22.406346 
L 16.474499 24.698701 
L 16.586784 24.409513 
L 16.69907 17.683254 
L 16.811355 27.767198 
L 17.035926 23.917216 
L 17.148212 25.012961 
L 17.260497 28.192768 
L 17.372783 22.099372 
L 17.597354 27.004614 
L 17.709639 29.887351 
L 17.821925 25.949891 
L 17.93421 29.050261 
L 18.046496 27.996619 
L 18.158781 24.683489 
L 18.271067 28.19655 
L 18.383352 28.045824 
L 18.607923 23.335467 
L 18.832494 25.230566 
L 18.94478 28.472514 
L 19.057065 25.557142 
L 19.169351 25.639386 
L 19.393922 26.624745 
L 19.618493 22.712636 
L 19.730778 26.220723 
L 19.843064 16.304038 
L 20.067635 21.708587 
L 20.17992 23.444005 
L 20.404491 22.481066 
L 20.516776 28.615368 
L 20.629062 27.997989 
L 20.741347 23.314767 
L 20.853633 24.445791 
L 20.965918 28.563358 
L 21.078204 25.367925 
L 21.302775 27.547826 
L 21.41506 28.177881 
L 21.527346 30.597649 
L 21.639631 26.239985 
L 21.751917 28.458005 
L 21.864202 26.729509 
L 21.976488 27.560882 
L 22.088773 27.083462 
L 22.201059 24.318122 
L 22.313344 26.707111 
L 22.42563 26.65956 
L 22.650201 17.85605 
L 22.762486 21.102498 
L 22.874772 18.355894 
L 23.099343 25.953157 
L 23.211628 25.57487 
L 23.323914 27.867462 
L 23.548485 21.977049 
L 23.66077 29.338279 
L 23.773056 26.296806 
L 23.885341 27.885065 
L 23.997627 25.890575 
L 24.109912 27.645689 
L 24.222198 26.139672 
L 24.334483 27.020593 
L 24.446769 22.118104 
L 24.67134 28.106491 
L 24.783625 24.290941 
L 24.895911 26.685195 
L 25.008196 22.36547 
L 25.120482 26.41192 
L 25.232767 22.659829 
L 25.345053 22.911437 
L 25.457338 17.975141 
L 25.569624 24.591195 
L 25.681909 21.272769 
L 26.018766 28.32682 
L 26.131051 22.537644 
L 26.355622 25.974407 
L 26.467907 24.607409 
L 26.580193 26.061851 
L 26.692478 25.691214 
L 26.804764 28.084797 
L 26.917049 27.490786 
L 27.14162 23.464836 
L 27.253906 25.821863 
L 27.478477 23.416459 
L 27.590762 26.50872 
L 27.703048 22.176331 
L 27.815333 27.260075 
L 27.927619 26.840644 
L 28.039904 25.858258 
L 28.15219 19.454401 
L 28.376761 26.93254 
L 28.489046 25.840474 
L 28.601332 22.001673 
L 28.713617 24.985229 
L 28.825903 24.394167 
L 28.938188 26.327215 
L 29.050474 16.725041 
L 29.162759 24.896776 
L 29.275045 21.346871 
L 29.38733 25.426578 
L 29.611901 22.818517 
L 29.724187 26.402496 
L 29.948758 17.753373 
L 30.061043 24.580797 
L 30.285614 18.778711 
L 30.3979 19.132161 
L 30.510185 27.53616 
L 30.622471 27.547858 
L 30.734756 20.585632 
L 30.959327 27.287331 
L 31.183898 22.202537 
L 31.520755 28.882245 
L 31.745326 26.116665 
L 32.082182 22.045524 
L 32.194467 28.220287 
L 32.306753 25.912261 
L 32.419038 27.000072 
L 32.531324 24.507957 
L 32.643609 26.559091 
L 32.755895 26.050534 
L 32.86818 28.764625 
L 32.980466 23.601345 
L 33.092751 25.449252 
L 33.317322 22.251174 
L 33.429608 18.611663 
L 33.654179 24.423639 
L 33.766464 23.694575 
L 33.87875 25.384501 
L 33.991035 20.911001 
L 34.103321 22.579244 
L 34.215606 21.401979 
L 34.440177 24.52127 
L 34.552463 17.752197 
L 34.664748 25.305367 
L 34.889319 23.523748 
L 35.11389 23.355942 
L 35.226176 26.83659 
L 35.450747 23.105627 
L 35.563032 24.09496 
L 35.675318 21.063246 
L 35.787603 24.753166 
L 36.012174 19.078372 
L 36.12446 18.115466 
L 36.461316 18.883282 
L 36.573602 20.027148 
L 36.685887 16.784345 
L 36.798173 22.445558 
L 36.910458 21.848456 
L 37.135029 19.14647 
L 37.3596 24.990108 
L 37.471886 22.129466 
L 37.584171 27.461998 
L 37.921028 25.965023 
L 38.145598 21.393883 
L 38.370169 26.750624 
L 38.482455 22.668939 
L 38.59474 25.961594 
L 38.819311 22.691741 
L 39.043882 17.921666 
L 39.156168 23.755415 
L 39.268453 19.425135 
L 39.380739 19.5341 
L 39.493024 17.823265 
L 39.60531 22.636256 
L 39.717595 19.805435 
L 39.829881 22.384477 
L 40.054452 19.761849 
L 40.166737 23.369921 
L 40.279023 21.785409 
L 40.503594 25.223183 
L 40.615879 25.436454 
L 40.728165 24.653027 
L 40.84045 25.709187 
L 40.952736 24.989182 
L 41.065021 27.262459 
L 41.177307 23.006307 
L 41.289592 26.519554 
L 41.401878 22.756993 
L 41.514163 29.787262 
L 41.738734 24.668498 
L 41.85102 28.747357 
L 42.075591 21.815113 
L 42.300162 21.922701 
L 42.412447 25.122181 
L 42.524733 23.168174 
L 42.637018 18.100229 
L 42.749304 18.279997 
L 42.861589 19.278209 
L 42.973875 19.052062 
L 43.198446 20.476412 
L 43.310731 24.85028 
L 43.423017 23.901344 
L 43.423017 23.901344 
" clip-path="url(#p897bb03692)" style="fill: none; stroke: #ebcb8b; stroke-width: 0.5; stroke-linecap: round"/>
   </g>
   <g id="patch_3">
    <path d="M 3.00024 32.970532 
L 43.423017 32.970532 
" style="fill: none; stroke: #2e3440; stroke-width: 0.5; stroke-linejoin: miter; stroke-linecap: square"/>
   </g>
   <g id="text_1">
    <!-- $I(u;x)=0.14$ -->
    <g style="fill: #2e3440" transform="translate(4.349176 6.343911)">
     <text>
      <tspan style="font: oblique 5.9976px 'DejaVu Sans'" x="0 4.09964 11.074591" y="-0.453125">Iux</tspan>
      <tspan style="font: 5.9976px 'DejaVu Sans'" x="1.764923 7.892471 14.616125 18.116742 24.296893 28.104327 30.00658 33.814014" y="-0.453125">(;)=0.14</tspan>
     </text>
    </g>
   </g>
  </g>
  <g id="axes_2">
   <g id="patch_4">
    <path d="M 55.988372 32.970532 
L 76.19976 32.970532 
L 76.19976 10.781681 
L 55.988372 10.781681 
z
" style="fill: #eceff4"/>
   </g>
   <g id="matplotlib.axis_3">
    <g id="text_2">
     <text style="fill: #2e3440; font: 5.9976px 'Arial'; text-anchor: middle" x="66.094066" y="39.482386" transform="rotate(-0 66.094066 39.482386)">Input</text>
    </g>
   </g>
   <g id="matplotlib.axis_4">
    <g id="text_3">
     <text style="fill: #2e3440; font: 5.9976px 'Arial'; text-anchor: middle" x="53.785779" y="21.876106" transform="rotate(-90 53.785779 21.876106)">Output</text>
    </g>
   </g>
   <g id="PathCollection_1">
    <defs>
     <path id="m5a8fdb20ed" d="M 0 0.316228 
C 0.083865 0.316228 0.164306 0.282908 0.223607 0.223607 
C 0.282908 0.164306 0.316228 0.083865 0.316228 0 
C 0.316228 -0.083865 0.282908 -0.164306 0.223607 -0.223607 
C 0.164306 -0.282908 0.083865 -0.316228 0 -0.316228 
C -0.083865 -0.316228 -0.164306 -0.282908 -0.223607 -0.223607 
C -0.282908 -0.164306 -0.316228 -0.083865 -0.316228 0 
C -0.316228 0.083865 -0.282908 0.164306 -0.223607 0.223607 
C -0.164306 0.282908 -0.083865 0.316228 0 0.316228 
z
"/>
    </defs>
    <g clip-path="url(#p6178ac31c0)">
     <use xlink:href="#m5a8fdb20ed" x="71.608069" y="18.893391" style="fill: #ebcb8b"/>
     <use xlink:href="#m5a8fdb20ed" x="73.116383" y="21.571695" style="fill: #ebcb8b"/>
     <use xlink:href="#m5a8fdb20ed" x="74.28959" y="24.911021" style="fill: #ebcb8b"/>
     <use xlink:href="#m5a8fdb20ed" x="74.839901" y="28.775643" style="fill: #ebcb8b"/>
     <use xlink:href="#m5a8fdb20ed" x="74.437799" y="25.411294" style="fill: #ebcb8b"/>
     <use xlink:href="#m5a8fdb20ed" x="72.958685" y="26.168539" style="fill: #ebcb8b"/>
     <use xlink:href="#m5a8fdb20ed" x="70.703653" y="27.206024" style="fill: #ebcb8b"/>
     <use xlink:href="#m5a8fdb20ed" x="68.306619" y="26.904478" style="fill: #ebcb8b"/>
     <use xlink:href="#m5a8fdb20ed" x="66.344431" y="28.247279" style="fill: #ebcb8b"/>
     <use xlink:href="#m5a8fdb20ed" x="65.051979" y="25.21483" style="fill: #ebcb8b"/>
     <use xlink:href="#m5a8fdb20ed" x="64.358308" y="26.631806" style="fill: #ebcb8b"/>
     <use xlink:href="#m5a8fdb20ed" x="64.07042" y="24.661659" style="fill: #ebcb8b"/>
     <use xlink:href="#m5a8fdb20ed" x="64.005602" y="28.23464" style="fill: #ebcb8b"/>
     <use xlink:href="#m5a8fdb20ed" x="64.035493" y="26.357917" style="fill: #ebcb8b"/>
     <use xlink:href="#m5a8fdb20ed" x="64.082772" y="23.355469" style="fill: #ebcb8b"/>
     <use xlink:href="#m5a8fdb20ed" x="64.10532" y="23.466658" style="fill: #ebcb8b"/>
     <use xlink:href="#m5a8fdb20ed" x="64.081947" y="31.961947" style="fill: #ebcb8b"/>
     <use xlink:href="#m5a8fdb20ed" x="64.002567" y="28.307454" style="fill: #ebcb8b"/>
     <use xlink:href="#m5a8fdb20ed" x="63.862162" y="25.965991" style="fill: #ebcb8b"/>
     <use xlink:href="#m5a8fdb20ed" x="63.657368" y="24.229356" style="fill: #ebcb8b"/>
     <use xlink:href="#m5a8fdb20ed" x="63.384866" y="25.985081" style="fill: #ebcb8b"/>
     <use xlink:href="#m5a8fdb20ed" x="63.041088" y="26.819116" style="fill: #ebcb8b"/>
     <use xlink:href="#m5a8fdb20ed" x="62.623107" y="27.506887" style="fill: #ebcb8b"/>
     <use xlink:href="#m5a8fdb20ed" x="62.130834" y="27.127782" style="fill: #ebcb8b"/>
     <use xlink:href="#m5a8fdb20ed" x="61.570862" y="26.568268" style="fill: #ebcb8b"/>
     <use xlink:href="#m5a8fdb20ed" x="60.962237" y="25.832319" style="fill: #ebcb8b"/>
     <use xlink:href="#m5a8fdb20ed" x="60.343881" y="27.219454" style="fill: #ebcb8b"/>
     <use xlink:href="#m5a8fdb20ed" x="59.781699" y="24.208404" style="fill: #ebcb8b"/>
     <use xlink:href="#m5a8fdb20ed" x="59.370311" y="25.100362" style="fill: #ebcb8b"/>
     <use xlink:href="#m5a8fdb20ed" x="59.221108" y="22.852336" style="fill: #ebcb8b"/>
     <use xlink:href="#m5a8fdb20ed" x="59.429621" y="26.289682" style="fill: #ebcb8b"/>
     <use xlink:href="#m5a8fdb20ed" x="60.027695" y="24.061424" style="fill: #ebcb8b"/>
     <use xlink:href="#m5a8fdb20ed" x="60.947254" y="25.741673" style="fill: #ebcb8b"/>
     <use xlink:href="#m5a8fdb20ed" x="62.029897" y="24.75315" style="fill: #ebcb8b"/>
     <use xlink:href="#m5a8fdb20ed" x="63.087275" y="27.951301" style="fill: #ebcb8b"/>
     <use xlink:href="#m5a8fdb20ed" x="63.972912" y="23.104165" style="fill: #ebcb8b"/>
     <use xlink:href="#m5a8fdb20ed" x="64.619131" y="27.788039" style="fill: #ebcb8b"/>
     <use xlink:href="#m5a8fdb20ed" x="65.028807" y="21.616988" style="fill: #ebcb8b"/>
     <use xlink:href="#m5a8fdb20ed" x="65.244448" y="28.605761" style="fill: #ebcb8b"/>
     <use xlink:href="#m5a8fdb20ed" x="65.319184" y="26.759469" style="fill: #ebcb8b"/>
     <use xlink:href="#m5a8fdb20ed" x="65.299748" y="27.259372" style="fill: #ebcb8b"/>
     <use xlink:href="#m5a8fdb20ed" x="65.220238" y="24.449876" style="fill: #ebcb8b"/>
     <use xlink:href="#m5a8fdb20ed" x="65.102044" y="24.066877" style="fill: #ebcb8b"/>
     <use xlink:href="#m5a8fdb20ed" x="64.956194" y="25.362893" style="fill: #ebcb8b"/>
     <use xlink:href="#m5a8fdb20ed" x="64.786093" y="24.719108" style="fill: #ebcb8b"/>
     <use xlink:href="#m5a8fdb20ed" x="64.589813" y="26.759586" style="fill: #ebcb8b"/>
     <use xlink:href="#m5a8fdb20ed" x="64.36173" y="26.020282" style="fill: #ebcb8b"/>
     <use xlink:href="#m5a8fdb20ed" x="64.09363" y="25.563669" style="fill: #ebcb8b"/>
     <use xlink:href="#m5a8fdb20ed" x="63.775466" y="23.800297" style="fill: #ebcb8b"/>
     <use xlink:href="#m5a8fdb20ed" x="63.396097" y="23.30897" style="fill: #ebcb8b"/>
     <use xlink:href="#m5a8fdb20ed" x="62.944356" y="21.940744" style="fill: #ebcb8b"/>
     <use xlink:href="#m5a8fdb20ed" x="62.411018" y="22.683288" style="fill: #ebcb8b"/>
     <use xlink:href="#m5a8fdb20ed" x="61.7924" y="18.965907" style="fill: #ebcb8b"/>
     <use xlink:href="#m5a8fdb20ed" x="61.096495" y="13.89887" style="fill: #ebcb8b"/>
     <use xlink:href="#m5a8fdb20ed" x="60.35236" y="17.516494" style="fill: #ebcb8b"/>
     <use xlink:href="#m5a8fdb20ed" x="59.622029" y="17.287539" style="fill: #ebcb8b"/>
     <use xlink:href="#m5a8fdb20ed" x="59.010482" y="17.090462" style="fill: #ebcb8b"/>
     <use xlink:href="#m5a8fdb20ed" x="58.662623" y="16.195654" style="fill: #ebcb8b"/>
     <use xlink:href="#m5a8fdb20ed" x="58.731354" y="18.193128" style="fill: #ebcb8b"/>
     <use xlink:href="#m5a8fdb20ed" x="59.310479" y="23.0302" style="fill: #ebcb8b"/>
     <use xlink:href="#m5a8fdb20ed" x="60.360763" y="19.961519" style="fill: #ebcb8b"/>
     <use xlink:href="#m5a8fdb20ed" x="61.691916" y="18.09081" style="fill: #ebcb8b"/>
     <use xlink:href="#m5a8fdb20ed" x="63.037632" y="17.923529" style="fill: #ebcb8b"/>
     <use xlink:href="#m5a8fdb20ed" x="64.174922" y="22.1742" style="fill: #ebcb8b"/>
     <use xlink:href="#m5a8fdb20ed" x="64.997361" y="23.402656" style="fill: #ebcb8b"/>
     <use xlink:href="#m5a8fdb20ed" x="65.508578" y="25.097405" style="fill: #ebcb8b"/>
     <use xlink:href="#m5a8fdb20ed" x="65.772602" y="26.282639" style="fill: #ebcb8b"/>
     <use xlink:href="#m5a8fdb20ed" x="65.867228" y="23.869793" style="fill: #ebcb8b"/>
     <use xlink:href="#m5a8fdb20ed" x="65.858606" y="26.28121" style="fill: #ebcb8b"/>
     <use xlink:href="#m5a8fdb20ed" x="65.793587" y="26.226972" style="fill: #ebcb8b"/>
     <use xlink:href="#m5a8fdb20ed" x="65.701167" y="24.612029" style="fill: #ebcb8b"/>
     <use xlink:href="#m5a8fdb20ed" x="65.596828" y="25.692123" style="fill: #ebcb8b"/>
     <use xlink:href="#m5a8fdb20ed" x="65.486869" y="24.359836" style="fill: #ebcb8b"/>
     <use xlink:href="#m5a8fdb20ed" x="65.37174" y="26.765506" style="fill: #ebcb8b"/>
     <use xlink:href="#m5a8fdb20ed" x="65.248272" y="26.671698" style="fill: #ebcb8b"/>
     <use xlink:href="#m5a8fdb20ed" x="65.111007" y="22.64196" style="fill: #ebcb8b"/>
     <use xlink:href="#m5a8fdb20ed" x="64.952837" y="27.231928" style="fill: #ebcb8b"/>
     <use xlink:href="#m5a8fdb20ed" x="64.765198" y="24.255997" style="fill: #ebcb8b"/>
     <use xlink:href="#m5a8fdb20ed" x="64.537966" y="25.020078" style="fill: #ebcb8b"/>
     <use xlink:href="#m5a8fdb20ed" x="64.259213" y="22.818461" style="fill: #ebcb8b"/>
     <use xlink:href="#m5a8fdb20ed" x="63.914981" y="20.271381" style="fill: #ebcb8b"/>
     <use xlink:href="#m5a8fdb20ed" x="63.4893" y="21.053709" style="fill: #ebcb8b"/>
     <use xlink:href="#m5a8fdb20ed" x="62.964871" y="17.079982" style="fill: #ebcb8b"/>
     <use xlink:href="#m5a8fdb20ed" x="62.325151" y="11.790265" style="fill: #ebcb8b"/>
     <use xlink:href="#m5a8fdb20ed" x="61.559132" y="18.140073" style="fill: #ebcb8b"/>
     <use xlink:href="#m5a8fdb20ed" x="60.670784" y="14.142027" style="fill: #ebcb8b"/>
     <use xlink:href="#m5a8fdb20ed" x="59.695403" y="16.266672" style="fill: #ebcb8b"/>
     <use xlink:href="#m5a8fdb20ed" x="58.723169" y="17.899188" style="fill: #ebcb8b"/>
     <use xlink:href="#m5a8fdb20ed" x="57.922399" y="16.223603" style="fill: #ebcb8b"/>
     <use xlink:href="#m5a8fdb20ed" x="57.53814" y="17.105478" style="fill: #ebcb8b"/>
     <use xlink:href="#m5a8fdb20ed" x="57.825954" y="17.400039" style="fill: #ebcb8b"/>
     <use xlink:href="#m5a8fdb20ed" x="58.905986" y="23.221751" style="fill: #ebcb8b"/>
     <use xlink:href="#m5a8fdb20ed" x="60.621953" y="26.114007" style="fill: #ebcb8b"/>
     <use xlink:href="#m5a8fdb20ed" x="62.565726" y="20.554387" style="fill: #ebcb8b"/>
     <use xlink:href="#m5a8fdb20ed" x="64.297163" y="22.336016" style="fill: #ebcb8b"/>
     <use xlink:href="#m5a8fdb20ed" x="65.562311" y="26.870305" style="fill: #ebcb8b"/>
     <use xlink:href="#m5a8fdb20ed" x="66.335205" y="28.364443" style="fill: #ebcb8b"/>
     <use xlink:href="#m5a8fdb20ed" x="66.723729" y="27.30811" style="fill: #ebcb8b"/>
     <use xlink:href="#m5a8fdb20ed" x="66.866015" y="27.417099" style="fill: #ebcb8b"/>
     <use xlink:href="#m5a8fdb20ed" x="66.876269" y="24.845157" style="fill: #ebcb8b"/>
     <use xlink:href="#m5a8fdb20ed" x="66.832045" y="24.441397" style="fill: #ebcb8b"/>
     <use xlink:href="#m5a8fdb20ed" x="66.779979" y="26.65908" style="fill: #ebcb8b"/>
     <use xlink:href="#m5a8fdb20ed" x="66.745586" y="30.368996" style="fill: #ebcb8b"/>
     <use xlink:href="#m5a8fdb20ed" x="66.741702" y="26.869996" style="fill: #ebcb8b"/>
     <use xlink:href="#m5a8fdb20ed" x="66.774475" y="24.957804" style="fill: #ebcb8b"/>
     <use xlink:href="#m5a8fdb20ed" x="66.847268" y="25.96085" style="fill: #ebcb8b"/>
     <use xlink:href="#m5a8fdb20ed" x="66.963065" y="25.73398" style="fill: #ebcb8b"/>
     <use xlink:href="#m5a8fdb20ed" x="67.125907" y="25.545622" style="fill: #ebcb8b"/>
     <use xlink:href="#m5a8fdb20ed" x="67.34171" y="26.252983" style="fill: #ebcb8b"/>
     <use xlink:href="#m5a8fdb20ed" x="67.618679" y="28.58339" style="fill: #ebcb8b"/>
     <use xlink:href="#m5a8fdb20ed" x="67.967357" y="23.932447" style="fill: #ebcb8b"/>
     <use xlink:href="#m5a8fdb20ed" x="68.400189" y="28.527534" style="fill: #ebcb8b"/>
     <use xlink:href="#m5a8fdb20ed" x="68.930204" y="25.66899" style="fill: #ebcb8b"/>
     <use xlink:href="#m5a8fdb20ed" x="69.568087" y="22.973085" style="fill: #ebcb8b"/>
     <use xlink:href="#m5a8fdb20ed" x="70.316427" y="27.73174" style="fill: #ebcb8b"/>
     <use xlink:href="#m5a8fdb20ed" x="71.159563" y="23.849548" style="fill: #ebcb8b"/>
     <use xlink:href="#m5a8fdb20ed" x="72.047939" y="24.031393" style="fill: #ebcb8b"/>
     <use xlink:href="#m5a8fdb20ed" x="72.879006" y="22.406346" style="fill: #ebcb8b"/>
     <use xlink:href="#m5a8fdb20ed" x="73.485125" y="23.652773" style="fill: #ebcb8b"/>
     <use xlink:href="#m5a8fdb20ed" x="73.651954" y="24.698701" style="fill: #ebcb8b"/>
     <use xlink:href="#m5a8fdb20ed" x="73.1938" y="24.409513" style="fill: #ebcb8b"/>
     <use xlink:href="#m5a8fdb20ed" x="72.074907" y="17.683254" style="fill: #ebcb8b"/>
     <use xlink:href="#m5a8fdb20ed" x="70.489056" y="27.767198" style="fill: #ebcb8b"/>
     <use xlink:href="#m5a8fdb20ed" x="68.794156" y="24.782178" style="fill: #ebcb8b"/>
     <use xlink:href="#m5a8fdb20ed" x="67.329219" y="23.917216" style="fill: #ebcb8b"/>
     <use xlink:href="#m5a8fdb20ed" x="66.27068" y="25.012961" style="fill: #ebcb8b"/>
     <use xlink:href="#m5a8fdb20ed" x="65.623171" y="28.192768" style="fill: #ebcb8b"/>
     <use xlink:href="#m5a8fdb20ed" x="65.2957" y="22.099372" style="fill: #ebcb8b"/>
     <use xlink:href="#m5a8fdb20ed" x="65.177082" y="26.020705" style="fill: #ebcb8b"/>
     <use xlink:href="#m5a8fdb20ed" x="65.175115" y="27.004614" style="fill: #ebcb8b"/>
     <use xlink:href="#m5a8fdb20ed" x="65.22631" y="29.887351" style="fill: #ebcb8b"/>
     <use xlink:href="#m5a8fdb20ed" x="65.292023" y="25.949891" style="fill: #ebcb8b"/>
     <use xlink:href="#m5a8fdb20ed" x="65.351146" y="29.050261" style="fill: #ebcb8b"/>
     <use xlink:href="#m5a8fdb20ed" x="65.393534" y="27.996619" style="fill: #ebcb8b"/>
     <use xlink:href="#m5a8fdb20ed" x="65.415183" y="24.683489" style="fill: #ebcb8b"/>
     <use xlink:href="#m5a8fdb20ed" x="65.415033" y="28.19655" style="fill: #ebcb8b"/>
     <use xlink:href="#m5a8fdb20ed" x="65.392978" y="28.045824" style="fill: #ebcb8b"/>
     <use xlink:href="#m5a8fdb20ed" x="65.34868" y="24.211568" style="fill: #ebcb8b"/>
     <use xlink:href="#m5a8fdb20ed" x="65.280884" y="23.335467" style="fill: #ebcb8b"/>
     <use xlink:href="#m5a8fdb20ed" x="65.186983" y="24.564528" style="fill: #ebcb8b"/>
     <use xlink:href="#m5a8fdb20ed" x="65.062707" y="25.230566" style="fill: #ebcb8b"/>
     <use xlink:href="#m5a8fdb20ed" x="64.901818" y="28.472514" style="fill: #ebcb8b"/>
     <use xlink:href="#m5a8fdb20ed" x="64.695778" y="25.557142" style="fill: #ebcb8b"/>
     <use xlink:href="#m5a8fdb20ed" x="64.433368" y="25.639386" style="fill: #ebcb8b"/>
     <use xlink:href="#m5a8fdb20ed" x="64.100318" y="26.522045" style="fill: #ebcb8b"/>
     <use xlink:href="#m5a8fdb20ed" x="63.679101" y="26.624745" style="fill: #ebcb8b"/>
     <use xlink:href="#m5a8fdb20ed" x="63.14926" y="23.373566" style="fill: #ebcb8b"/>
     <use xlink:href="#m5a8fdb20ed" x="62.489002" y="22.712636" style="fill: #ebcb8b"/>
     <use xlink:href="#m5a8fdb20ed" x="61.679529" y="26.220723" style="fill: #ebcb8b"/>
     <use xlink:href="#m5a8fdb20ed" x="60.714602" y="16.304038" style="fill: #ebcb8b"/>
     <use xlink:href="#m5a8fdb20ed" x="59.618915" y="21.155189" style="fill: #ebcb8b"/>
     <use xlink:href="#m5a8fdb20ed" x="58.478089" y="21.708587" style="fill: #ebcb8b"/>
     <use xlink:href="#m5a8fdb20ed" x="57.475298" y="23.444005" style="fill: #ebcb8b"/>
     <use xlink:href="#m5a8fdb20ed" x="56.907071" y="23.040623" style="fill: #ebcb8b"/>
     <use xlink:href="#m5a8fdb20ed" x="57.118859" y="22.481066" style="fill: #ebcb8b"/>
     <use xlink:href="#m5a8fdb20ed" x="58.314498" y="28.615368" style="fill: #ebcb8b"/>
     <use xlink:href="#m5a8fdb20ed" x="60.334055" y="27.997989" style="fill: #ebcb8b"/>
     <use xlink:href="#m5a8fdb20ed" x="62.652943" y="23.314767" style="fill: #ebcb8b"/>
     <use xlink:href="#m5a8fdb20ed" x="64.690163" y="24.445791" style="fill: #ebcb8b"/>
     <use xlink:href="#m5a8fdb20ed" x="66.12806" y="28.563358" style="fill: #ebcb8b"/>
     <use xlink:href="#m5a8fdb20ed" x="66.96104" y="25.367925" style="fill: #ebcb8b"/>
     <use xlink:href="#m5a8fdb20ed" x="67.34812" y="27.085035" style="fill: #ebcb8b"/>
     <use xlink:href="#m5a8fdb20ed" x="67.469579" y="27.547826" style="fill: #ebcb8b"/>
     <use xlink:href="#m5a8fdb20ed" x="67.463396" y="28.177881" style="fill: #ebcb8b"/>
     <use xlink:href="#m5a8fdb20ed" x="67.417482" y="30.597649" style="fill: #ebcb8b"/>
     <use xlink:href="#m5a8fdb20ed" x="67.381901" y="26.239985" style="fill: #ebcb8b"/>
     <use xlink:href="#m5a8fdb20ed" x="67.382874" y="28.458005" style="fill: #ebcb8b"/>
     <use xlink:href="#m5a8fdb20ed" x="67.433303" y="26.729509" style="fill: #ebcb8b"/>
     <use xlink:href="#m5a8fdb20ed" x="67.539602" y="27.560882" style="fill: #ebcb8b"/>
     <use xlink:href="#m5a8fdb20ed" x="67.705793" y="27.083462" style="fill: #ebcb8b"/>
     <use xlink:href="#m5a8fdb20ed" x="67.935723" y="24.318122" style="fill: #ebcb8b"/>
     <use xlink:href="#m5a8fdb20ed" x="68.233977" y="26.707111" style="fill: #ebcb8b"/>
     <use xlink:href="#m5a8fdb20ed" x="68.605738" y="26.65956" style="fill: #ebcb8b"/>
     <use xlink:href="#m5a8fdb20ed" x="69.055567" y="22.456298" style="fill: #ebcb8b"/>
     <use xlink:href="#m5a8fdb20ed" x="69.584811" y="17.85605" style="fill: #ebcb8b"/>
     <use xlink:href="#m5a8fdb20ed" x="70.187145" y="21.102498" style="fill: #ebcb8b"/>
     <use xlink:href="#m5a8fdb20ed" x="70.841787" y="18.355894" style="fill: #ebcb8b"/>
     <use xlink:href="#m5a8fdb20ed" x="71.504665" y="25.242286" style="fill: #ebcb8b"/>
     <use xlink:href="#m5a8fdb20ed" x="72.099945" y="25.953157" style="fill: #ebcb8b"/>
     <use xlink:href="#m5a8fdb20ed" x="72.518326" y="25.57487" style="fill: #ebcb8b"/>
     <use xlink:href="#m5a8fdb20ed" x="72.63269" y="27.867462" style="fill: #ebcb8b"/>
     <use xlink:href="#m5a8fdb20ed" x="72.339439" y="22.613326" style="fill: #ebcb8b"/>
     <use xlink:href="#m5a8fdb20ed" x="71.616447" y="21.977049" style="fill: #ebcb8b"/>
     <use xlink:href="#m5a8fdb20ed" x="70.56117" y="29.338279" style="fill: #ebcb8b"/>
     <use xlink:href="#m5a8fdb20ed" x="69.367986" y="26.296806" style="fill: #ebcb8b"/>
     <use xlink:href="#m5a8fdb20ed" x="68.248126" y="27.885065" style="fill: #ebcb8b"/>
     <use xlink:href="#m5a8fdb20ed" x="67.348537" y="25.890575" style="fill: #ebcb8b"/>
     <use xlink:href="#m5a8fdb20ed" x="66.721483" y="27.645689" style="fill: #ebcb8b"/>
     <use xlink:href="#m5a8fdb20ed" x="66.345296" y="26.139672" style="fill: #ebcb8b"/>
     <use xlink:href="#m5a8fdb20ed" x="66.163423" y="27.020593" style="fill: #ebcb8b"/>
     <use xlink:href="#m5a8fdb20ed" x="66.115217" y="22.118104" style="fill: #ebcb8b"/>
     <use xlink:href="#m5a8fdb20ed" x="66.151314" y="24.399183" style="fill: #ebcb8b"/>
     <use xlink:href="#m5a8fdb20ed" x="66.237647" y="28.106491" style="fill: #ebcb8b"/>
     <use xlink:href="#m5a8fdb20ed" x="66.353903" y="24.290941" style="fill: #ebcb8b"/>
     <use xlink:href="#m5a8fdb20ed" x="66.49026" y="26.685195" style="fill: #ebcb8b"/>
     <use xlink:href="#m5a8fdb20ed" x="66.644262" y="22.36547" style="fill: #ebcb8b"/>
     <use xlink:href="#m5a8fdb20ed" x="66.818423" y="26.41192" style="fill: #ebcb8b"/>
     <use xlink:href="#m5a8fdb20ed" x="67.018643" y="22.659829" style="fill: #ebcb8b"/>
     <use xlink:href="#m5a8fdb20ed" x="67.253263" y="22.911437" style="fill: #ebcb8b"/>
     <use xlink:href="#m5a8fdb20ed" x="67.532551" y="17.975141" style="fill: #ebcb8b"/>
     <use xlink:href="#m5a8fdb20ed" x="67.868361" y="24.591195" style="fill: #ebcb8b"/>
     <use xlink:href="#m5a8fdb20ed" x="68.273672" y="21.272769" style="fill: #ebcb8b"/>
     <use xlink:href="#m5a8fdb20ed" x="68.761569" y="23.601352" style="fill: #ebcb8b"/>
     <use xlink:href="#m5a8fdb20ed" x="69.343055" y="24.218765" style="fill: #ebcb8b"/>
     <use xlink:href="#m5a8fdb20ed" x="70.02273" y="28.32682" style="fill: #ebcb8b"/>
     <use xlink:href="#m5a8fdb20ed" x="70.791121" y="22.537644" style="fill: #ebcb8b"/>
     <use xlink:href="#m5a8fdb20ed" x="71.612669" y="24.763847" style="fill: #ebcb8b"/>
     <use xlink:href="#m5a8fdb20ed" x="72.410287" y="25.974407" style="fill: #ebcb8b"/>
     <use xlink:href="#m5a8fdb20ed" x="73.052923" y="24.607409" style="fill: #ebcb8b"/>
     <use xlink:href="#m5a8fdb20ed" x="73.362002" y="26.061851" style="fill: #ebcb8b"/>
     <use xlink:href="#m5a8fdb20ed" x="73.158793" y="25.691214" style="fill: #ebcb8b"/>
     <use xlink:href="#m5a8fdb20ed" x="72.356806" y="28.084797" style="fill: #ebcb8b"/>
     <use xlink:href="#m5a8fdb20ed" x="71.049798" y="27.490786" style="fill: #ebcb8b"/>
     <use xlink:href="#m5a8fdb20ed" x="69.506815" y="23.550955" style="fill: #ebcb8b"/>
     <use xlink:href="#m5a8fdb20ed" x="68.047987" y="23.464836" style="fill: #ebcb8b"/>
     <use xlink:href="#m5a8fdb20ed" x="66.897319" y="25.821863" style="fill: #ebcb8b"/>
     <use xlink:href="#m5a8fdb20ed" x="66.124856" y="24.933981" style="fill: #ebcb8b"/>
     <use xlink:href="#m5a8fdb20ed" x="65.685271" y="23.416459" style="fill: #ebcb8b"/>
     <use xlink:href="#m5a8fdb20ed" x="65.486437" y="26.50872" style="fill: #ebcb8b"/>
     <use xlink:href="#m5a8fdb20ed" x="65.437915" y="22.176331" style="fill: #ebcb8b"/>
     <use xlink:href="#m5a8fdb20ed" x="65.470877" y="27.260075" style="fill: #ebcb8b"/>
     <use xlink:href="#m5a8fdb20ed" x="65.540211" y="26.840644" style="fill: #ebcb8b"/>
     <use xlink:href="#m5a8fdb20ed" x="65.619698" y="25.858258" style="fill: #ebcb8b"/>
     <use xlink:href="#m5a8fdb20ed" x="65.696069" y="19.454401" style="fill: #ebcb8b"/>
     <use xlink:href="#m5a8fdb20ed" x="65.764099" y="24.172828" style="fill: #ebcb8b"/>
     <use xlink:href="#m5a8fdb20ed" x="65.823148" y="26.93254" style="fill: #ebcb8b"/>
     <use xlink:href="#m5a8fdb20ed" x="65.874945" y="25.840474" style="fill: #ebcb8b"/>
     <use xlink:href="#m5a8fdb20ed" x="65.922302" y="22.001673" style="fill: #ebcb8b"/>
     <use xlink:href="#m5a8fdb20ed" x="65.968446" y="24.985229" style="fill: #ebcb8b"/>
     <use xlink:href="#m5a8fdb20ed" x="66.01675" y="24.394167" style="fill: #ebcb8b"/>
     <use xlink:href="#m5a8fdb20ed" x="66.07072" y="26.327215" style="fill: #ebcb8b"/>
     <use xlink:href="#m5a8fdb20ed" x="66.134112" y="16.725041" style="fill: #ebcb8b"/>
     <use xlink:href="#m5a8fdb20ed" x="66.211156" y="24.896776" style="fill: #ebcb8b"/>
     <use xlink:href="#m5a8fdb20ed" x="66.306847" y="21.346871" style="fill: #ebcb8b"/>
     <use xlink:href="#m5a8fdb20ed" x="66.427294" y="25.426578" style="fill: #ebcb8b"/>
     <use xlink:href="#m5a8fdb20ed" x="66.580157" y="24.34376" style="fill: #ebcb8b"/>
     <use xlink:href="#m5a8fdb20ed" x="66.775147" y="22.818517" style="fill: #ebcb8b"/>
     <use xlink:href="#m5a8fdb20ed" x="67.024621" y="26.402496" style="fill: #ebcb8b"/>
     <use xlink:href="#m5a8fdb20ed" x="67.344215" y="22.083006" style="fill: #ebcb8b"/>
     <use xlink:href="#m5a8fdb20ed" x="67.753414" y="17.753373" style="fill: #ebcb8b"/>
     <use xlink:href="#m5a8fdb20ed" x="68.275745" y="24.580797" style="fill: #ebcb8b"/>
     <use xlink:href="#m5a8fdb20ed" x="68.937929" y="20.086799" style="fill: #ebcb8b"/>
     <use xlink:href="#m5a8fdb20ed" x="69.766532" y="18.778711" style="fill: #ebcb8b"/>
     <use xlink:href="#m5a8fdb20ed" x="70.779352" y="19.132161" style="fill: #ebcb8b"/>
     <use xlink:href="#m5a8fdb20ed" x="71.966922" y="27.53616" style="fill: #ebcb8b"/>
     <use xlink:href="#m5a8fdb20ed" x="73.258617" y="27.547858" style="fill: #ebcb8b"/>
     <use xlink:href="#m5a8fdb20ed" x="74.473552" y="20.585632" style="fill: #ebcb8b"/>
     <use xlink:href="#m5a8fdb20ed" x="75.281061" y="25.972997" style="fill: #ebcb8b"/>
     <use xlink:href="#m5a8fdb20ed" x="75.244649" y="27.287331" style="fill: #ebcb8b"/>
     <use xlink:href="#m5a8fdb20ed" x="74.040051" y="23.618122" style="fill: #ebcb8b"/>
     <use xlink:href="#m5a8fdb20ed" x="71.777854" y="22.202537" style="fill: #ebcb8b"/>
     <use xlink:href="#m5a8fdb20ed" x="69.080419" y="25.09634" style="fill: #ebcb8b"/>
     <use xlink:href="#m5a8fdb20ed" x="66.6973" y="26.794955" style="fill: #ebcb8b"/>
     <use xlink:href="#m5a8fdb20ed" x="65.0442" y="28.882245" style="fill: #ebcb8b"/>
     <use xlink:href="#m5a8fdb20ed" x="64.120721" y="27.955695" style="fill: #ebcb8b"/>
     <use xlink:href="#m5a8fdb20ed" x="63.716812" y="26.116665" style="fill: #ebcb8b"/>
     <use xlink:href="#m5a8fdb20ed" x="63.60701" y="24.487635" style="fill: #ebcb8b"/>
     <use xlink:href="#m5a8fdb20ed" x="63.627581" y="23.600879" style="fill: #ebcb8b"/>
     <use xlink:href="#m5a8fdb20ed" x="63.679488" y="22.045524" style="fill: #ebcb8b"/>
     <use xlink:href="#m5a8fdb20ed" x="63.709203" y="28.220287" style="fill: #ebcb8b"/>
     <use xlink:href="#m5a8fdb20ed" x="63.690324" y="25.912261" style="fill: #ebcb8b"/>
     <use xlink:href="#m5a8fdb20ed" x="63.611046" y="27.000072" style="fill: #ebcb8b"/>
     <use xlink:href="#m5a8fdb20ed" x="63.46667" y="24.507957" style="fill: #ebcb8b"/>
     <use xlink:href="#m5a8fdb20ed" x="63.255566" y="26.559091" style="fill: #ebcb8b"/>
     <use xlink:href="#m5a8fdb20ed" x="62.97743" y="26.050534" style="fill: #ebcb8b"/>
     <use xlink:href="#m5a8fdb20ed" x="62.633179" y="28.764625" style="fill: #ebcb8b"/>
     <use xlink:href="#m5a8fdb20ed" x="62.22622" y="23.601345" style="fill: #ebcb8b"/>
     <use xlink:href="#m5a8fdb20ed" x="61.765015" y="25.449252" style="fill: #ebcb8b"/>
     <use xlink:href="#m5a8fdb20ed" x="61.266886" y="24.234115" style="fill: #ebcb8b"/>
     <use xlink:href="#m5a8fdb20ed" x="60.762634" y="22.251174" style="fill: #ebcb8b"/>
     <use xlink:href="#m5a8fdb20ed" x="60.300601" y="18.611663" style="fill: #ebcb8b"/>
     <use xlink:href="#m5a8fdb20ed" x="59.947239" y="23.033369" style="fill: #ebcb8b"/>
     <use xlink:href="#m5a8fdb20ed" x="59.779792" y="24.423639" style="fill: #ebcb8b"/>
     <use xlink:href="#m5a8fdb20ed" x="59.867498" y="23.694575" style="fill: #ebcb8b"/>
     <use xlink:href="#m5a8fdb20ed" x="60.243594" y="25.384501" style="fill: #ebcb8b"/>
     <use xlink:href="#m5a8fdb20ed" x="60.880708" y="20.911001" style="fill: #ebcb8b"/>
     <use xlink:href="#m5a8fdb20ed" x="61.688033" y="22.579244" style="fill: #ebcb8b"/>
     <use xlink:href="#m5a8fdb20ed" x="62.538626" y="21.401979" style="fill: #ebcb8b"/>
     <use xlink:href="#m5a8fdb20ed" x="63.31308" y="23.004623" style="fill: #ebcb8b"/>
     <use xlink:href="#m5a8fdb20ed" x="63.933532" y="24.52127" style="fill: #ebcb8b"/>
     <use xlink:href="#m5a8fdb20ed" x="64.37255" y="17.752197" style="fill: #ebcb8b"/>
     <use xlink:href="#m5a8fdb20ed" x="64.641153" y="25.305367" style="fill: #ebcb8b"/>
     <use xlink:href="#m5a8fdb20ed" x="64.769767" y="23.930659" style="fill: #ebcb8b"/>
     <use xlink:href="#m5a8fdb20ed" x="64.792612" y="23.523748" style="fill: #ebcb8b"/>
     <use xlink:href="#m5a8fdb20ed" x="64.738846" y="23.474708" style="fill: #ebcb8b"/>
     <use xlink:href="#m5a8fdb20ed" x="64.62931" y="23.355942" style="fill: #ebcb8b"/>
     <use xlink:href="#m5a8fdb20ed" x="64.476515" y="26.83659" style="fill: #ebcb8b"/>
     <use xlink:href="#m5a8fdb20ed" x="64.286027" y="24.172307" style="fill: #ebcb8b"/>
     <use xlink:href="#m5a8fdb20ed" x="64.058171" y="23.105627" style="fill: #ebcb8b"/>
     <use xlink:href="#m5a8fdb20ed" x="63.789629" y="24.09496" style="fill: #ebcb8b"/>
     <use xlink:href="#m5a8fdb20ed" x="63.474864" y="21.063246" style="fill: #ebcb8b"/>
     <use xlink:href="#m5a8fdb20ed" x="63.10753" y="24.753166" style="fill: #ebcb8b"/>
     <use xlink:href="#m5a8fdb20ed" x="62.682183" y="20.029132" style="fill: #ebcb8b"/>
     <use xlink:href="#m5a8fdb20ed" x="62.196683" y="19.078372" style="fill: #ebcb8b"/>
     <use xlink:href="#m5a8fdb20ed" x="61.655767" y="18.115466" style="fill: #ebcb8b"/>
     <use xlink:href="#m5a8fdb20ed" x="61.076084" y="18.476969" style="fill: #ebcb8b"/>
     <use xlink:href="#m5a8fdb20ed" x="60.49246" y="18.87162" style="fill: #ebcb8b"/>
     <use xlink:href="#m5a8fdb20ed" x="59.963628" y="18.883282" style="fill: #ebcb8b"/>
     <use xlink:href="#m5a8fdb20ed" x="59.573211" y="20.027148" style="fill: #ebcb8b"/>
     <use xlink:href="#m5a8fdb20ed" x="59.419219" y="16.784345" style="fill: #ebcb8b"/>
     <use xlink:href="#m5a8fdb20ed" x="59.586546" y="22.445558" style="fill: #ebcb8b"/>
     <use xlink:href="#m5a8fdb20ed" x="60.106848" y="21.848456" style="fill: #ebcb8b"/>
     <use xlink:href="#m5a8fdb20ed" x="60.926867" y="19.892473" style="fill: #ebcb8b"/>
     <use xlink:href="#m5a8fdb20ed" x="61.913069" y="19.14647" style="fill: #ebcb8b"/>
     <use xlink:href="#m5a8fdb20ed" x="62.899137" y="22.000187" style="fill: #ebcb8b"/>
     <use xlink:href="#m5a8fdb20ed" x="63.747436" y="24.990108" style="fill: #ebcb8b"/>
     <use xlink:href="#m5a8fdb20ed" x="64.385632" y="22.129466" style="fill: #ebcb8b"/>
     <use xlink:href="#m5a8fdb20ed" x="64.805323" y="27.461998" style="fill: #ebcb8b"/>
     <use xlink:href="#m5a8fdb20ed" x="65.037978" y="27.089524" style="fill: #ebcb8b"/>
     <use xlink:href="#m5a8fdb20ed" x="65.129124" y="26.834191" style="fill: #ebcb8b"/>
     <use xlink:href="#m5a8fdb20ed" x="65.121481" y="25.965023" style="fill: #ebcb8b"/>
     <use xlink:href="#m5a8fdb20ed" x="65.047642" y="22.689739" style="fill: #ebcb8b"/>
     <use xlink:href="#m5a8fdb20ed" x="64.928846" y="21.393883" style="fill: #ebcb8b"/>
     <use xlink:href="#m5a8fdb20ed" x="64.776545" y="23.627879" style="fill: #ebcb8b"/>
     <use xlink:href="#m5a8fdb20ed" x="64.594695" y="26.750624" style="fill: #ebcb8b"/>
     <use xlink:href="#m5a8fdb20ed" x="64.381871" y="22.668939" style="fill: #ebcb8b"/>
     <use xlink:href="#m5a8fdb20ed" x="64.132906" y="25.961594" style="fill: #ebcb8b"/>
     <use xlink:href="#m5a8fdb20ed" x="63.840107" y="22.915151" style="fill: #ebcb8b"/>
     <use xlink:href="#m5a8fdb20ed" x="63.494265" y="22.691741" style="fill: #ebcb8b"/>
     <use xlink:href="#m5a8fdb20ed" x="63.08577" y="20.183573" style="fill: #ebcb8b"/>
     <use xlink:href="#m5a8fdb20ed" x="62.60628" y="17.921666" style="fill: #ebcb8b"/>
     <use xlink:href="#m5a8fdb20ed" x="62.051512" y="23.755415" style="fill: #ebcb8b"/>
     <use xlink:href="#m5a8fdb20ed" x="61.425878" y="19.425135" style="fill: #ebcb8b"/>
     <use xlink:href="#m5a8fdb20ed" x="60.749535" y="19.5341" style="fill: #ebcb8b"/>
     <use xlink:href="#m5a8fdb20ed" x="60.067644" y="17.823265" style="fill: #ebcb8b"/>
     <use xlink:href="#m5a8fdb20ed" x="59.45925" y="22.636256" style="fill: #ebcb8b"/>
     <use xlink:href="#m5a8fdb20ed" x="59.038814" y="19.805435" style="fill: #ebcb8b"/>
     <use xlink:href="#m5a8fdb20ed" x="58.938921" y="22.384477" style="fill: #ebcb8b"/>
     <use xlink:href="#m5a8fdb20ed" x="59.26537" y="19.969703" style="fill: #ebcb8b"/>
     <use xlink:href="#m5a8fdb20ed" x="60.035405" y="19.761849" style="fill: #ebcb8b"/>
     <use xlink:href="#m5a8fdb20ed" x="61.13953" y="23.369921" style="fill: #ebcb8b"/>
     <use xlink:href="#m5a8fdb20ed" x="62.369988" y="21.785409" style="fill: #ebcb8b"/>
     <use xlink:href="#m5a8fdb20ed" x="63.508327" y="24.496555" style="fill: #ebcb8b"/>
     <use xlink:href="#m5a8fdb20ed" x="64.409042" y="25.223183" style="fill: #ebcb8b"/>
     <use xlink:href="#m5a8fdb20ed" x="65.026516" y="25.436454" style="fill: #ebcb8b"/>
     <use xlink:href="#m5a8fdb20ed" x="65.389412" y="24.653027" style="fill: #ebcb8b"/>
     <use xlink:href="#m5a8fdb20ed" x="65.559013" y="25.709187" style="fill: #ebcb8b"/>
     <use xlink:href="#m5a8fdb20ed" x="65.598221" y="24.989182" style="fill: #ebcb8b"/>
     <use xlink:href="#m5a8fdb20ed" x="65.556993" y="27.262459" style="fill: #ebcb8b"/>
     <use xlink:href="#m5a8fdb20ed" x="65.46918" y="23.006307" style="fill: #ebcb8b"/>
     <use xlink:href="#m5a8fdb20ed" x="65.354628" y="26.519554" style="fill: #ebcb8b"/>
     <use xlink:href="#m5a8fdb20ed" x="65.222728" y="22.756993" style="fill: #ebcb8b"/>
     <use xlink:href="#m5a8fdb20ed" x="65.075649" y="29.787262" style="fill: #ebcb8b"/>
     <use xlink:href="#m5a8fdb20ed" x="64.910761" y="27.054027" style="fill: #ebcb8b"/>
     <use xlink:href="#m5a8fdb20ed" x="64.722194" y="24.668498" style="fill: #ebcb8b"/>
     <use xlink:href="#m5a8fdb20ed" x="64.501734" y="28.747357" style="fill: #ebcb8b"/>
     <use xlink:href="#m5a8fdb20ed" x="64.239263" y="22.381608" style="fill: #ebcb8b"/>
     <use xlink:href="#m5a8fdb20ed" x="63.922981" y="21.815113" style="fill: #ebcb8b"/>
     <use xlink:href="#m5a8fdb20ed" x="63.539683" y="21.888007" style="fill: #ebcb8b"/>
     <use xlink:href="#m5a8fdb20ed" x="63.075441" y="21.922701" style="fill: #ebcb8b"/>
     <use xlink:href="#m5a8fdb20ed" x="62.517269" y="25.122181" style="fill: #ebcb8b"/>
     <use xlink:href="#m5a8fdb20ed" x="61.856634" y="23.168174" style="fill: #ebcb8b"/>
     <use xlink:href="#m5a8fdb20ed" x="61.096071" y="18.100229" style="fill: #ebcb8b"/>
     <use xlink:href="#m5a8fdb20ed" x="60.260265" y="18.279997" style="fill: #ebcb8b"/>
     <use xlink:href="#m5a8fdb20ed" x="59.411828" y="19.278209" style="fill: #ebcb8b"/>
     <use xlink:href="#m5a8fdb20ed" x="58.667708" y="19.052062" style="fill: #ebcb8b"/>
     <use xlink:href="#m5a8fdb20ed" x="58.202893" y="20.227776" style="fill: #ebcb8b"/>
     <use xlink:href="#m5a8fdb20ed" x="58.217638" y="20.476412" style="fill: #ebcb8b"/>
     <use xlink:href="#m5a8fdb20ed" x="58.851294" y="24.85028" style="fill: #ebcb8b"/>
     <use xlink:href="#m5a8fdb20ed" x="60.073734" y="23.901344" style="fill: #ebcb8b"/>
    </g>
   </g>
   <g id="patch_5">
    <path d="M 55.988372 32.970532 
L 55.988372 10.781681 
" style="fill: none; stroke: #2e3440; stroke-width: 0.5; stroke-linejoin: miter; stroke-linecap: square"/>
   </g>
   <g id="patch_6">
    <path d="M 55.988372 32.970532 
L 76.19976 32.970532 
" style="fill: none; stroke: #2e3440; stroke-width: 0.5; stroke-linejoin: miter; stroke-linecap: square"/>
   </g>
  </g>
 </g>
 <defs>
  <clipPath id="p897bb03692">
   <rect x="3.00024" y="10.781681" width="40.422777" height="22.18885"/>
  </clipPath>
  <clipPath id="p6178ac31c0">
   <rect x="55.988372" y="10.781681" width="20.211388" height="22.18885"/>
  </clipPath>
 </defs>
</svg>
