<?xml version="1.0" encoding="utf-8" standalone="no"?>
<!DOCTYPE svg PUBLIC "-//W3C//DTD SVG 1.1//EN"
  "http://www.w3.org/Graphics/SVG/1.1/DTD/svg11.dtd">
<svg xmlns:xlink="http://www.w3.org/1999/xlink" width="79.2pt" height="43.2pt" viewBox="0 0 79.2 43.2" xmlns="http://www.w3.org/2000/svg" version="1.1">
 <metadata>
  <rdf:RDF xmlns:dc="http://purl.org/dc/elements/1.1/" xmlns:cc="http://creativecommons.org/ns#" xmlns:rdf="http://www.w3.org/1999/02/22-rdf-syntax-ns#">
   <cc:Work>
    <dc:type rdf:resource="http://purl.org/dc/dcmitype/StillImage"/>
    <dc:date>2024-04-24T10:45:33.311450</dc:date>
    <dc:format>image/svg+xml</dc:format>
    <dc:creator>
     <cc:Agent>
      <dc:title>Matplotlib v3.8.0, https://matplotlib.org/</dc:title>
     </cc:Agent>
    </dc:creator>
   </cc:Work>
  </rdf:RDF>
 </metadata>
 <defs>
  <style type="text/css">*{stroke-linejoin: round; stroke-linecap: butt}</style>
 </defs>
 <g id="figure_1">
  <g id="patch_1">
   <path d="M 0 43.2 
L 79.2 43.2 
L 79.2 0 
L 0 0 
z
" style="fill: #ffffff"/>
  </g>
  <g id="axes_1">
   <g id="patch_2">
    <path d="M 3.00024 33.271011 
L 43.660257 33.271011 
L 43.660257 10.625856 
L 3.00024 10.625856 
z
" style="fill: #eceff4"/>
   </g>
   <g id="matplotlib.axis_1"/>
   <g id="matplotlib.axis_2"/>
   <g id="line2d_1">
    <path d="M 3.113184 23.679674 
L 3.226129 23.910373 
L 3.452018 26.389122 
L 3.790851 24.261937 
L 3.903796 24.901952 
L 4.01674 24.726515 
L 4.129685 26.026886 
L 4.242629 25.70805 
L 4.468518 26.312986 
L 4.581463 24.884709 
L 4.807352 26.598692 
L 5.146185 28.940565 
L 5.25913 28.836115 
L 5.372074 28.836967 
L 5.485019 30.994197 
L 5.597963 29.789808 
L 5.710908 31.090759 
L 5.823852 30.361326 
L 6.049741 30.608994 
L 6.162686 31.523526 
L 6.388575 31.010964 
L 6.727408 31.287227 
L 7.066242 30.928544 
L 7.179186 31.021462 
L 7.292131 31.642697 
L 7.51802 30.411852 
L 7.630964 30.561871 
L 7.856853 31.201271 
L 7.969798 31.113591 
L 8.082742 31.278416 
L 8.308631 30.949424 
L 8.421576 31.428085 
L 8.53452 31.255313 
L 8.760409 31.634744 
L 8.873354 31.485984 
L 9.099243 31.541916 
L 9.212187 31.57408 
L 9.325132 31.800366 
L 9.438076 31.59054 
L 9.551021 30.822911 
L 9.77691 31.524186 
L 9.889854 31.806348 
L 10.002799 31.366437 
L 10.228687 31.535242 
L 10.454576 31.151888 
L 10.680465 31.594533 
L 11.019299 30.782077 
L 11.132243 31.443457 
L 11.245188 30.654532 
L 11.471077 30.88757 
L 11.584021 31.368465 
L 11.696966 30.759907 
L 11.80991 31.239027 
L 12.035799 31.107935 
L 12.148744 31.478678 
L 12.261688 31.124008 
L 12.487577 31.544923 
L 12.600522 31.249224 
L 12.713466 31.470925 
L 12.826411 31.324149 
L 13.0523 31.598865 
L 13.278189 31.294383 
L 13.391133 31.548654 
L 13.504078 31.425486 
L 13.617022 31.068217 
L 13.729967 31.374451 
L 14.0688 30.70822 
L 14.181745 31.059954 
L 14.407634 30.598956 
L 14.746467 29.151994 
L 14.859412 29.016258 
L 15.198245 26.038221 
L 15.31119 26.334956 
L 15.424134 24.964416 
L 15.537079 25.878815 
L 15.650023 23.365263 
L 15.762968 23.80953 
L 15.875912 22.227745 
L 15.988857 23.378119 
L 16.101801 22.219394 
L 16.214746 23.505562 
L 16.440635 21.535003 
L 16.666524 24.108758 
L 16.892413 22.326354 
L 17.005357 23.196139 
L 17.118302 23.008855 
L 17.231246 22.021489 
L 17.457135 24.293404 
L 17.570079 21.834308 
L 17.683024 23.949115 
L 17.795968 23.255969 
L 17.908913 23.405952 
L 18.021857 22.856724 
L 18.134802 23.38198 
L 18.247746 22.249481 
L 18.360691 23.596504 
L 18.473635 26.368188 
L 18.58658 22.08471 
L 18.699524 24.117889 
L 18.812469 22.717391 
L 18.925413 23.234397 
L 19.151302 26.642687 
L 19.264247 26.818485 
L 19.490136 27.943109 
L 19.716025 29.466344 
L 19.828969 29.581409 
L 19.941914 29.464182 
L 20.393692 30.517573 
L 20.506636 29.991534 
L 20.619581 30.624205 
L 20.732525 30.454971 
L 20.84547 30.940412 
L 20.958414 29.597821 
L 21.184303 30.531044 
L 21.297248 30.382729 
L 22.087859 26.864556 
L 22.200804 27.785967 
L 22.426693 25.473752 
L 22.991415 23.670778 
L 23.10436 24.235297 
L 23.330249 23.243993 
L 23.556138 24.245748 
L 23.669082 23.692032 
L 23.782027 21.713171 
L 24.007916 24.273825 
L 24.233805 22.843584 
L 24.346749 22.324847 
L 24.459693 22.959948 
L 24.572638 22.572867 
L 24.685582 19.625616 
L 24.911471 20.980887 
L 25.13736 19.082638 
L 25.250305 17.978994 
L 25.363249 19.062891 
L 25.589138 17.437691 
L 25.815027 19.290683 
L 25.927972 17.968232 
L 26.040916 18.451921 
L 26.153861 18.199397 
L 26.37975 21.204379 
L 26.492694 19.050029 
L 26.605639 19.659544 
L 26.718583 17.751379 
L 26.831528 20.659259 
L 27.170361 18.798111 
L 27.39625 20.327795 
L 27.509195 20.33409 
L 27.622139 22.755532 
L 27.848028 20.801045 
L 27.960973 19.988886 
L 28.073917 21.156065 
L 28.186862 21.041539 
L 28.299806 22.170394 
L 28.412751 18.791329 
L 28.525695 19.525413 
L 28.63864 21.591564 
L 28.751584 18.658684 
L 28.977473 20.203871 
L 29.090418 19.65477 
L 29.316307 16.355078 
L 29.429251 16.46845 
L 29.542196 15.711536 
L 29.65514 15.96312 
L 29.768085 11.655181 
L 29.881029 12.144076 
L 29.993974 13.316293 
L 30.106918 12.554911 
L 30.332807 16.53075 
L 30.445752 15.092558 
L 30.784585 18.334592 
L 30.89753 17.90912 
L 31.010474 18.208462 
L 31.236363 19.494646 
L 31.349308 18.184028 
L 31.575196 21.398309 
L 31.801085 23.159366 
L 31.91403 22.618772 
L 32.478752 27.437522 
L 32.591697 25.848958 
L 32.817586 28.032474 
L 33.043475 28.21151 
L 33.382308 30.224776 
L 33.495253 30.174163 
L 33.608197 30.5282 
L 33.721142 30.289578 
L 33.947031 31.01215 
L 34.059975 30.797082 
L 34.17292 30.842594 
L 34.285864 31.57107 
L 34.398809 30.662439 
L 34.511753 30.992925 
L 34.624698 30.575445 
L 34.737642 30.928669 
L 34.850587 30.398653 
L 35.076476 30.71209 
L 35.415309 31.131511 
L 35.754143 31.251988 
L 35.867087 30.80568 
L 36.092976 31.681475 
L 36.205921 31.739232 
L 36.43181 31.431015 
L 36.544754 31.581279 
L 36.657699 32.028305 
L 36.883588 31.283934 
L 37.222421 31.71108 
L 37.335366 31.352057 
L 37.44831 31.664443 
L 37.561255 31.293093 
L 37.674199 31.818197 
L 37.787144 31.243284 
L 37.900088 31.541304 
L 38.013033 31.098758 
L 38.125977 31.815018 
L 38.351866 31.384825 
L 38.464811 30.917273 
L 38.803644 31.799289 
L 39.029533 31.692827 
L 39.142477 31.931108 
L 39.368366 31.690031 
L 39.481311 31.816688 
L 39.594255 32.241686 
L 39.820144 31.562871 
L 40.046033 31.355741 
L 40.158978 31.677403 
L 40.384867 30.895721 
L 40.497811 31.453387 
L 40.7237 31.356588 
L 40.836645 31.854063 
L 41.062534 30.850205 
L 41.175478 31.211336 
L 41.288423 30.728013 
L 41.401367 31.183715 
L 41.740201 30.472581 
L 41.853145 31.211713 
L 41.96609 30.373565 
L 42.304923 31.49779 
L 42.417868 31.667116 
L 42.530812 31.375425 
L 42.643757 31.718549 
L 42.756701 31.177905 
L 42.869646 31.80071 
L 42.98259 31.388664 
L 43.095535 31.401257 
L 43.321424 31.816763 
L 43.434368 31.343544 
L 43.547313 31.589959 
L 43.660257 31.440434 
L 43.660257 31.440434 
" clip-path="url(#p15e731b5ee)" style="fill: none; stroke: #a3be8c; stroke-width: 0.5; stroke-linecap: round"/>
   </g>
   <g id="patch_3">
    <path d="M 3.00024 33.271011 
L 43.660257 33.271011 
" style="fill: none; stroke: #2e3440; stroke-width: 0.5; stroke-linejoin: miter; stroke-linecap: square"/>
   </g>
   <g id="text_1">
    <!-- $I(u;x)=0.52$ -->
    <g style="fill: #2e3440" transform="translate(5.725293 6.096825)">
     <text>
      <tspan style="font: oblique 5.59776px 'DejaVu Sans'" x="0 3.832047 10.351715" y="-0.75">Iux</tspan>
      <tspan style="font: 5.59776px 'DejaVu Sans'" x="1.649719 7.377304 13.662079 16.934204 22.710953 26.269867 28.047958 31.606873" y="-0.75">(;)=0.52</tspan>
     </text>
    </g>
   </g>
  </g>
  <g id="axes_2">
   <g id="patch_4">
    <path d="M 55.869751 33.271011 
L 76.19976 33.271011 
L 76.19976 10.625856 
L 55.869751 10.625856 
z
" style="fill: #eceff4"/>
   </g>
   <g id="matplotlib.axis_3">
    <g id="text_2">
     <text style="fill: #2e3440; font: 5.59776px 'Arial'; text-anchor: middle" x="66.034756" y="39.542299" transform="rotate(-0 66.034756 39.542299)">Input</text>
    </g>
   </g>
   <g id="matplotlib.axis_4">
    <g id="text_3">
     <text style="fill: #2e3440; font: 5.59776px 'Arial'; text-anchor: middle" x="53.740696" y="21.948434" transform="rotate(-90 53.740696 21.948434)">Output</text>
    </g>
   </g>
   <g id="PathCollection_1">
    <defs>
     <path id="m1ac893b92d" d="M 0 0.316228 
C 0.083865 0.316228 0.164306 0.282908 0.223607 0.223607 
C 0.282908 0.164306 0.316228 0.083865 0.316228 0 
C 0.316228 -0.083865 0.282908 -0.164306 0.223607 -0.223607 
C 0.164306 -0.282908 0.083865 -0.316228 0 -0.316228 
C -0.083865 -0.316228 -0.164306 -0.282908 -0.223607 -0.223607 
C -0.282908 -0.164306 -0.316228 -0.083865 -0.316228 0 
C -0.316228 0.083865 -0.282908 0.164306 -0.223607 0.223607 
C -0.164306 0.282908 -0.083865 0.316228 0 0.316228 
z
"/>
    </defs>
    <g clip-path="url(#p5d62772188)">
     <use xlink:href="#m1ac893b92d" x="71.581121" y="23.679674" style="fill: #a3be8c"/>
     <use xlink:href="#m1ac893b92d" x="73.098286" y="23.910373" style="fill: #a3be8c"/>
     <use xlink:href="#m1ac893b92d" x="74.278379" y="25.432127" style="fill: #a3be8c"/>
     <use xlink:href="#m1ac893b92d" x="74.83192" y="26.389122" style="fill: #a3be8c"/>
     <use xlink:href="#m1ac893b92d" x="74.427458" y="25.564259" style="fill: #a3be8c"/>
     <use xlink:href="#m1ac893b92d" x="72.939664" y="25.416495" style="fill: #a3be8c"/>
     <use xlink:href="#m1ac893b92d" x="70.671396" y="24.261937" style="fill: #a3be8c"/>
     <use xlink:href="#m1ac893b92d" x="68.260295" y="24.901952" style="fill: #a3be8c"/>
     <use xlink:href="#m1ac893b92d" x="66.28659" y="24.726515" style="fill: #a3be8c"/>
     <use xlink:href="#m1ac893b92d" x="64.986553" y="26.026886" style="fill: #a3be8c"/>
     <use xlink:href="#m1ac893b92d" x="64.288811" y="25.70805" style="fill: #a3be8c"/>
     <use xlink:href="#m1ac893b92d" x="63.999233" y="26.001524" style="fill: #a3be8c"/>
     <use xlink:href="#m1ac893b92d" x="63.934035" y="26.312986" style="fill: #a3be8c"/>
     <use xlink:href="#m1ac893b92d" x="63.964101" y="24.884709" style="fill: #a3be8c"/>
     <use xlink:href="#m1ac893b92d" x="64.011658" y="26.403628" style="fill: #a3be8c"/>
     <use xlink:href="#m1ac893b92d" x="64.034338" y="26.598692" style="fill: #a3be8c"/>
     <use xlink:href="#m1ac893b92d" x="64.010827" y="27.284984" style="fill: #a3be8c"/>
     <use xlink:href="#m1ac893b92d" x="63.930982" y="28.061977" style="fill: #a3be8c"/>
     <use xlink:href="#m1ac893b92d" x="63.789753" y="28.940565" style="fill: #a3be8c"/>
     <use xlink:href="#m1ac893b92d" x="63.583757" y="28.836115" style="fill: #a3be8c"/>
     <use xlink:href="#m1ac893b92d" x="63.309655" y="28.836967" style="fill: #a3be8c"/>
     <use xlink:href="#m1ac893b92d" x="62.96386" y="30.994197" style="fill: #a3be8c"/>
     <use xlink:href="#m1ac893b92d" x="62.543426" y="29.789808" style="fill: #a3be8c"/>
     <use xlink:href="#m1ac893b92d" x="62.048264" y="31.090759" style="fill: #a3be8c"/>
     <use xlink:href="#m1ac893b92d" x="61.485006" y="30.361326" style="fill: #a3be8c"/>
     <use xlink:href="#m1ac893b92d" x="60.872808" y="30.457746" style="fill: #a3be8c"/>
     <use xlink:href="#m1ac893b92d" x="60.250823" y="30.608994" style="fill: #a3be8c"/>
     <use xlink:href="#m1ac893b92d" x="59.685341" y="31.523526" style="fill: #a3be8c"/>
     <use xlink:href="#m1ac893b92d" x="59.271539" y="31.054265" style="fill: #a3be8c"/>
     <use xlink:href="#m1ac893b92d" x="59.12146" y="31.010964" style="fill: #a3be8c"/>
     <use xlink:href="#m1ac893b92d" x="59.331197" y="31.119548" style="fill: #a3be8c"/>
     <use xlink:href="#m1ac893b92d" x="59.932782" y="31.121796" style="fill: #a3be8c"/>
     <use xlink:href="#m1ac893b92d" x="60.857737" y="31.287227" style="fill: #a3be8c"/>
     <use xlink:href="#m1ac893b92d" x="61.946735" y="31.175569" style="fill: #a3be8c"/>
     <use xlink:href="#m1ac893b92d" x="63.010318" y="31.027856" style="fill: #a3be8c"/>
     <use xlink:href="#m1ac893b92d" x="63.901153" y="30.928544" style="fill: #a3be8c"/>
     <use xlink:href="#m1ac893b92d" x="64.551164" y="31.021462" style="fill: #a3be8c"/>
     <use xlink:href="#m1ac893b92d" x="64.963245" y="31.642697" style="fill: #a3be8c"/>
     <use xlink:href="#m1ac893b92d" x="65.180152" y="31.093876" style="fill: #a3be8c"/>
     <use xlink:href="#m1ac893b92d" x="65.255326" y="30.411852" style="fill: #a3be8c"/>
     <use xlink:href="#m1ac893b92d" x="65.235776" y="30.561871" style="fill: #a3be8c"/>
     <use xlink:href="#m1ac893b92d" x="65.1558" y="30.95922" style="fill: #a3be8c"/>
     <use xlink:href="#m1ac893b92d" x="65.036912" y="31.201271" style="fill: #a3be8c"/>
     <use xlink:href="#m1ac893b92d" x="64.890205" y="31.113591" style="fill: #a3be8c"/>
     <use xlink:href="#m1ac893b92d" x="64.719107" y="31.278416" style="fill: #a3be8c"/>
     <use xlink:href="#m1ac893b92d" x="64.521674" y="30.968496" style="fill: #a3be8c"/>
     <use xlink:href="#m1ac893b92d" x="64.292253" y="30.949424" style="fill: #a3be8c"/>
     <use xlink:href="#m1ac893b92d" x="64.022579" y="31.428085" style="fill: #a3be8c"/>
     <use xlink:href="#m1ac893b92d" x="63.702548" y="31.255313" style="fill: #a3be8c"/>
     <use xlink:href="#m1ac893b92d" x="63.320953" y="31.380035" style="fill: #a3be8c"/>
     <use xlink:href="#m1ac893b92d" x="62.86656" y="31.634744" style="fill: #a3be8c"/>
     <use xlink:href="#m1ac893b92d" x="62.330092" y="31.485984" style="fill: #a3be8c"/>
     <use xlink:href="#m1ac893b92d" x="61.707843" y="31.570953" style="fill: #a3be8c"/>
     <use xlink:href="#m1ac893b92d" x="61.007854" y="31.541916" style="fill: #a3be8c"/>
     <use xlink:href="#m1ac893b92d" x="60.259352" y="31.57408" style="fill: #a3be8c"/>
     <use xlink:href="#m1ac893b92d" x="59.524734" y="31.800366" style="fill: #a3be8c"/>
     <use xlink:href="#m1ac893b92d" x="58.909598" y="31.59054" style="fill: #a3be8c"/>
     <use xlink:href="#m1ac893b92d" x="58.559698" y="30.822911" style="fill: #a3be8c"/>
     <use xlink:href="#m1ac893b92d" x="58.628832" y="31.456899" style="fill: #a3be8c"/>
     <use xlink:href="#m1ac893b92d" x="59.211356" y="31.524186" style="fill: #a3be8c"/>
     <use xlink:href="#m1ac893b92d" x="60.267804" y="31.806348" style="fill: #a3be8c"/>
     <use xlink:href="#m1ac893b92d" x="61.606769" y="31.366437" style="fill: #a3be8c"/>
     <use xlink:href="#m1ac893b92d" x="62.960384" y="31.518071" style="fill: #a3be8c"/>
     <use xlink:href="#m1ac893b92d" x="64.104348" y="31.535242" style="fill: #a3be8c"/>
     <use xlink:href="#m1ac893b92d" x="64.931614" y="31.163952" style="fill: #a3be8c"/>
     <use xlink:href="#m1ac893b92d" x="65.445832" y="31.151888" style="fill: #a3be8c"/>
     <use xlink:href="#m1ac893b92d" x="65.711405" y="31.338298" style="fill: #a3be8c"/>
     <use xlink:href="#m1ac893b92d" x="65.806587" y="31.594533" style="fill: #a3be8c"/>
     <use xlink:href="#m1ac893b92d" x="65.797914" y="31.259234" style="fill: #a3be8c"/>
     <use xlink:href="#m1ac893b92d" x="65.732514" y="31.105854" style="fill: #a3be8c"/>
     <use xlink:href="#m1ac893b92d" x="65.639551" y="30.782077" style="fill: #a3be8c"/>
     <use xlink:href="#m1ac893b92d" x="65.534599" y="31.443457" style="fill: #a3be8c"/>
     <use xlink:href="#m1ac893b92d" x="65.423995" y="30.654532" style="fill: #a3be8c"/>
     <use xlink:href="#m1ac893b92d" x="65.30819" y="30.816248" style="fill: #a3be8c"/>
     <use xlink:href="#m1ac893b92d" x="65.183998" y="30.88757" style="fill: #a3be8c"/>
     <use xlink:href="#m1ac893b92d" x="65.045927" y="31.368465" style="fill: #a3be8c"/>
     <use xlink:href="#m1ac893b92d" x="64.886829" y="30.759907" style="fill: #a3be8c"/>
     <use xlink:href="#m1ac893b92d" x="64.698089" y="31.239027" style="fill: #a3be8c"/>
     <use xlink:href="#m1ac893b92d" x="64.469523" y="31.10141" style="fill: #a3be8c"/>
     <use xlink:href="#m1ac893b92d" x="64.189134" y="31.107935" style="fill: #a3be8c"/>
     <use xlink:href="#m1ac893b92d" x="63.842882" y="31.478678" style="fill: #a3be8c"/>
     <use xlink:href="#m1ac893b92d" x="63.414702" y="31.124008" style="fill: #a3be8c"/>
     <use xlink:href="#m1ac893b92d" x="62.887195" y="31.400937" style="fill: #a3be8c"/>
     <use xlink:href="#m1ac893b92d" x="62.243721" y="31.544923" style="fill: #a3be8c"/>
     <use xlink:href="#m1ac893b92d" x="61.473206" y="31.249224" style="fill: #a3be8c"/>
     <use xlink:href="#m1ac893b92d" x="60.579645" y="31.470925" style="fill: #a3be8c"/>
     <use xlink:href="#m1ac893b92d" x="59.598539" y="31.324149" style="fill: #a3be8c"/>
     <use xlink:href="#m1ac893b92d" x="58.620599" y="31.42447" style="fill: #a3be8c"/>
     <use xlink:href="#m1ac893b92d" x="57.815129" y="31.598865" style="fill: #a3be8c"/>
     <use xlink:href="#m1ac893b92d" x="57.428615" y="31.462669" style="fill: #a3be8c"/>
     <use xlink:href="#m1ac893b92d" x="57.718119" y="31.294383" style="fill: #a3be8c"/>
     <use xlink:href="#m1ac893b92d" x="58.804489" y="31.548654" style="fill: #a3be8c"/>
     <use xlink:href="#m1ac893b92d" x="60.530528" y="31.425486" style="fill: #a3be8c"/>
     <use xlink:href="#m1ac893b92d" x="62.485708" y="31.068217" style="fill: #a3be8c"/>
     <use xlink:href="#m1ac893b92d" x="64.227307" y="31.374451" style="fill: #a3be8c"/>
     <use xlink:href="#m1ac893b92d" x="65.49988" y="31.150761" style="fill: #a3be8c"/>
     <use xlink:href="#m1ac893b92d" x="66.27731" y="30.698416" style="fill: #a3be8c"/>
     <use xlink:href="#m1ac893b92d" x="66.668114" y="30.70822" style="fill: #a3be8c"/>
     <use xlink:href="#m1ac893b92d" x="66.811236" y="31.059954" style="fill: #a3be8c"/>
     <use xlink:href="#m1ac893b92d" x="66.82155" y="30.852153" style="fill: #a3be8c"/>
     <use xlink:href="#m1ac893b92d" x="66.777066" y="30.598956" style="fill: #a3be8c"/>
     <use xlink:href="#m1ac893b92d" x="66.724694" y="30.043015" style="fill: #a3be8c"/>
     <use xlink:href="#m1ac893b92d" x="66.690099" y="29.373553" style="fill: #a3be8c"/>
     <use xlink:href="#m1ac893b92d" x="66.686193" y="29.151994" style="fill: #a3be8c"/>
     <use xlink:href="#m1ac893b92d" x="66.719159" y="29.016258" style="fill: #a3be8c"/>
     <use xlink:href="#m1ac893b92d" x="66.792379" y="27.763846" style="fill: #a3be8c"/>
     <use xlink:href="#m1ac893b92d" x="66.908855" y="26.285502" style="fill: #a3be8c"/>
     <use xlink:href="#m1ac893b92d" x="67.072652" y="26.038221" style="fill: #a3be8c"/>
     <use xlink:href="#m1ac893b92d" x="67.289722" y="26.334956" style="fill: #a3be8c"/>
     <use xlink:href="#m1ac893b92d" x="67.568317" y="24.964416" style="fill: #a3be8c"/>
     <use xlink:href="#m1ac893b92d" x="67.919042" y="25.878815" style="fill: #a3be8c"/>
     <use xlink:href="#m1ac893b92d" x="68.354414" y="23.365263" style="fill: #a3be8c"/>
     <use xlink:href="#m1ac893b92d" x="68.887539" y="23.80953" style="fill: #a3be8c"/>
     <use xlink:href="#m1ac893b92d" x="69.529166" y="22.227745" style="fill: #a3be8c"/>
     <use xlink:href="#m1ac893b92d" x="70.281898" y="23.378119" style="fill: #a3be8c"/>
     <use xlink:href="#m1ac893b92d" x="71.129982" y="22.219394" style="fill: #a3be8c"/>
     <use xlink:href="#m1ac893b92d" x="72.023572" y="23.505562" style="fill: #a3be8c"/>
     <use xlink:href="#m1ac893b92d" x="72.859516" y="21.770595" style="fill: #a3be8c"/>
     <use xlink:href="#m1ac893b92d" x="73.469193" y="21.535003" style="fill: #a3be8c"/>
     <use xlink:href="#m1ac893b92d" x="73.637001" y="22.495008" style="fill: #a3be8c"/>
     <use xlink:href="#m1ac893b92d" x="73.176158" y="24.108758" style="fill: #a3be8c"/>
     <use xlink:href="#m1ac893b92d" x="72.050698" y="22.461604" style="fill: #a3be8c"/>
     <use xlink:href="#m1ac893b92d" x="70.45554" y="22.326354" style="fill: #a3be8c"/>
     <use xlink:href="#m1ac893b92d" x="68.750692" y="23.196139" style="fill: #a3be8c"/>
     <use xlink:href="#m1ac893b92d" x="67.277158" y="23.008855" style="fill: #a3be8c"/>
     <use xlink:href="#m1ac893b92d" x="66.212407" y="22.021489" style="fill: #a3be8c"/>
     <use xlink:href="#m1ac893b92d" x="65.561097" y="23.853047" style="fill: #a3be8c"/>
     <use xlink:href="#m1ac893b92d" x="65.231704" y="24.293404" style="fill: #a3be8c"/>
     <use xlink:href="#m1ac893b92d" x="65.11239" y="21.834308" style="fill: #a3be8c"/>
     <use xlink:href="#m1ac893b92d" x="65.110411" y="23.949115" style="fill: #a3be8c"/>
     <use xlink:href="#m1ac893b92d" x="65.161907" y="23.255969" style="fill: #a3be8c"/>
     <use xlink:href="#m1ac893b92d" x="65.228006" y="23.405952" style="fill: #a3be8c"/>
     <use xlink:href="#m1ac893b92d" x="65.287475" y="22.856724" style="fill: #a3be8c"/>
     <use xlink:href="#m1ac893b92d" x="65.330112" y="23.38198" style="fill: #a3be8c"/>
     <use xlink:href="#m1ac893b92d" x="65.351888" y="22.249481" style="fill: #a3be8c"/>
     <use xlink:href="#m1ac893b92d" x="65.351738" y="23.596504" style="fill: #a3be8c"/>
     <use xlink:href="#m1ac893b92d" x="65.329553" y="26.368188" style="fill: #a3be8c"/>
     <use xlink:href="#m1ac893b92d" x="65.284995" y="22.08471" style="fill: #a3be8c"/>
     <use xlink:href="#m1ac893b92d" x="65.216801" y="24.117889" style="fill: #a3be8c"/>
     <use xlink:href="#m1ac893b92d" x="65.122349" y="22.717391" style="fill: #a3be8c"/>
     <use xlink:href="#m1ac893b92d" x="64.997343" y="23.234397" style="fill: #a3be8c"/>
     <use xlink:href="#m1ac893b92d" x="64.83551" y="26.364064" style="fill: #a3be8c"/>
     <use xlink:href="#m1ac893b92d" x="64.628261" y="26.642687" style="fill: #a3be8c"/>
     <use xlink:href="#m1ac893b92d" x="64.364311" y="26.818485" style="fill: #a3be8c"/>
     <use xlink:href="#m1ac893b92d" x="64.029306" y="27.404329" style="fill: #a3be8c"/>
     <use xlink:href="#m1ac893b92d" x="63.605618" y="27.943109" style="fill: #a3be8c"/>
     <use xlink:href="#m1ac893b92d" x="63.072667" y="29.323352" style="fill: #a3be8c"/>
     <use xlink:href="#m1ac893b92d" x="62.408533" y="29.466344" style="fill: #a3be8c"/>
     <use xlink:href="#m1ac893b92d" x="61.59431" y="29.581409" style="fill: #a3be8c"/>
     <use xlink:href="#m1ac893b92d" x="60.62372" y="29.464182" style="fill: #a3be8c"/>
     <use xlink:href="#m1ac893b92d" x="59.521603" y="29.735307" style="fill: #a3be8c"/>
     <use xlink:href="#m1ac893b92d" x="58.374081" y="29.977185" style="fill: #a3be8c"/>
     <use xlink:href="#m1ac893b92d" x="57.365405" y="30.24388" style="fill: #a3be8c"/>
     <use xlink:href="#m1ac893b92d" x="56.793843" y="30.517573" style="fill: #a3be8c"/>
     <use xlink:href="#m1ac893b92d" x="57.006873" y="29.991534" style="fill: #a3be8c"/>
     <use xlink:href="#m1ac893b92d" x="58.20953" y="30.624205" style="fill: #a3be8c"/>
     <use xlink:href="#m1ac893b92d" x="60.240939" y="30.454971" style="fill: #a3be8c"/>
     <use xlink:href="#m1ac893b92d" x="62.573437" y="30.940412" style="fill: #a3be8c"/>
     <use xlink:href="#m1ac893b92d" x="64.622613" y="29.597821" style="fill: #a3be8c"/>
     <use xlink:href="#m1ac893b92d" x="66.068949" y="30.254587" style="fill: #a3be8c"/>
     <use xlink:href="#m1ac893b92d" x="66.906818" y="30.531044" style="fill: #a3be8c"/>
     <use xlink:href="#m1ac893b92d" x="67.29617" y="30.382729" style="fill: #a3be8c"/>
     <use xlink:href="#m1ac893b92d" x="67.418341" y="29.877742" style="fill: #a3be8c"/>
     <use xlink:href="#m1ac893b92d" x="67.412122" y="29.516865" style="fill: #a3be8c"/>
     <use xlink:href="#m1ac893b92d" x="67.365939" y="29.102923" style="fill: #a3be8c"/>
     <use xlink:href="#m1ac893b92d" x="67.330149" y="28.827118" style="fill: #a3be8c"/>
     <use xlink:href="#m1ac893b92d" x="67.331128" y="27.710458" style="fill: #a3be8c"/>
     <use xlink:href="#m1ac893b92d" x="67.381853" y="27.313181" style="fill: #a3be8c"/>
     <use xlink:href="#m1ac893b92d" x="67.488776" y="26.864556" style="fill: #a3be8c"/>
     <use xlink:href="#m1ac893b92d" x="67.655942" y="27.785967" style="fill: #a3be8c"/>
     <use xlink:href="#m1ac893b92d" x="67.887221" y="25.899683" style="fill: #a3be8c"/>
     <use xlink:href="#m1ac893b92d" x="68.187226" y="25.473752" style="fill: #a3be8c"/>
     <use xlink:href="#m1ac893b92d" x="68.561169" y="25.081667" style="fill: #a3be8c"/>
     <use xlink:href="#m1ac893b92d" x="69.013638" y="24.349655" style="fill: #a3be8c"/>
     <use xlink:href="#m1ac893b92d" x="69.545988" y="24.105573" style="fill: #a3be8c"/>
     <use xlink:href="#m1ac893b92d" x="70.151857" y="24.163014" style="fill: #a3be8c"/>
     <use xlink:href="#m1ac893b92d" x="70.810341" y="23.670778" style="fill: #a3be8c"/>
     <use xlink:href="#m1ac893b92d" x="71.47711" y="24.235297" style="fill: #a3be8c"/>
     <use xlink:href="#m1ac893b92d" x="72.075883" y="23.776479" style="fill: #a3be8c"/>
     <use xlink:href="#m1ac893b92d" x="72.49672" y="23.243993" style="fill: #a3be8c"/>
     <use xlink:href="#m1ac893b92d" x="72.611755" y="23.603501" style="fill: #a3be8c"/>
     <use xlink:href="#m1ac893b92d" x="72.316783" y="24.245748" style="fill: #a3be8c"/>
     <use xlink:href="#m1ac893b92d" x="71.589548" y="23.692032" style="fill: #a3be8c"/>
     <use xlink:href="#m1ac893b92d" x="70.528077" y="21.713171" style="fill: #a3be8c"/>
     <use xlink:href="#m1ac893b92d" x="69.327891" y="22.696027" style="fill: #a3be8c"/>
     <use xlink:href="#m1ac893b92d" x="68.201458" y="24.273825" style="fill: #a3be8c"/>
     <use xlink:href="#m1ac893b92d" x="67.296589" y="23.035711" style="fill: #a3be8c"/>
     <use xlink:href="#m1ac893b92d" x="66.665855" y="22.843584" style="fill: #a3be8c"/>
     <use xlink:href="#m1ac893b92d" x="66.28746" y="22.324847" style="fill: #a3be8c"/>
     <use xlink:href="#m1ac893b92d" x="66.10452" y="22.959948" style="fill: #a3be8c"/>
     <use xlink:href="#m1ac893b92d" x="66.056031" y="22.572867" style="fill: #a3be8c"/>
     <use xlink:href="#m1ac893b92d" x="66.09234" y="19.625616" style="fill: #a3be8c"/>
     <use xlink:href="#m1ac893b92d" x="66.17918" y="20.263335" style="fill: #a3be8c"/>
     <use xlink:href="#m1ac893b92d" x="66.296117" y="20.980887" style="fill: #a3be8c"/>
     <use xlink:href="#m1ac893b92d" x="66.433275" y="20.282538" style="fill: #a3be8c"/>
     <use xlink:href="#m1ac893b92d" x="66.588181" y="19.082638" style="fill: #a3be8c"/>
     <use xlink:href="#m1ac893b92d" x="66.763364" y="17.978994" style="fill: #a3be8c"/>
     <use xlink:href="#m1ac893b92d" x="66.96476" y="19.062891" style="fill: #a3be8c"/>
     <use xlink:href="#m1ac893b92d" x="67.200756" y="17.594999" style="fill: #a3be8c"/>
     <use xlink:href="#m1ac893b92d" x="67.481683" y="17.437691" style="fill: #a3be8c"/>
     <use xlink:href="#m1ac893b92d" x="67.819464" y="18.512813" style="fill: #a3be8c"/>
     <use xlink:href="#m1ac893b92d" x="68.227154" y="19.290683" style="fill: #a3be8c"/>
     <use xlink:href="#m1ac893b92d" x="68.717915" y="17.968232" style="fill: #a3be8c"/>
     <use xlink:href="#m1ac893b92d" x="69.302813" y="18.451921" style="fill: #a3be8c"/>
     <use xlink:href="#m1ac893b92d" x="69.986477" y="18.199397" style="fill: #a3be8c"/>
     <use xlink:href="#m1ac893b92d" x="70.759378" y="19.329836" style="fill: #a3be8c"/>
     <use xlink:href="#m1ac893b92d" x="71.585747" y="21.204379" style="fill: #a3be8c"/>
     <use xlink:href="#m1ac893b92d" x="72.388047" y="19.050029" style="fill: #a3be8c"/>
     <use xlink:href="#m1ac893b92d" x="73.034454" y="19.659544" style="fill: #a3be8c"/>
     <use xlink:href="#m1ac893b92d" x="73.345348" y="17.751379" style="fill: #a3be8c"/>
     <use xlink:href="#m1ac893b92d" x="73.140946" y="20.659259" style="fill: #a3be8c"/>
     <use xlink:href="#m1ac893b92d" x="72.334251" y="19.819485" style="fill: #a3be8c"/>
     <use xlink:href="#m1ac893b92d" x="71.019573" y="18.819042" style="fill: #a3be8c"/>
     <use xlink:href="#m1ac893b92d" x="69.467534" y="18.798111" style="fill: #a3be8c"/>
     <use xlink:href="#m1ac893b92d" x="68.000144" y="19.893441" style="fill: #a3be8c"/>
     <use xlink:href="#m1ac893b92d" x="66.842724" y="20.327795" style="fill: #a3be8c"/>
     <use xlink:href="#m1ac893b92d" x="66.065726" y="20.33409" style="fill: #a3be8c"/>
     <use xlink:href="#m1ac893b92d" x="65.623562" y="22.755532" style="fill: #a3be8c"/>
     <use xlink:href="#m1ac893b92d" x="65.42356" y="21.294435" style="fill: #a3be8c"/>
     <use xlink:href="#m1ac893b92d" x="65.374754" y="20.801045" style="fill: #a3be8c"/>
     <use xlink:href="#m1ac893b92d" x="65.40791" y="19.988886" style="fill: #a3be8c"/>
     <use xlink:href="#m1ac893b92d" x="65.477651" y="21.156065" style="fill: #a3be8c"/>
     <use xlink:href="#m1ac893b92d" x="65.557604" y="21.041539" style="fill: #a3be8c"/>
     <use xlink:href="#m1ac893b92d" x="65.634423" y="22.170394" style="fill: #a3be8c"/>
     <use xlink:href="#m1ac893b92d" x="65.702852" y="18.791329" style="fill: #a3be8c"/>
     <use xlink:href="#m1ac893b92d" x="65.762247" y="19.525413" style="fill: #a3be8c"/>
     <use xlink:href="#m1ac893b92d" x="65.814349" y="21.591564" style="fill: #a3be8c"/>
     <use xlink:href="#m1ac893b92d" x="65.861984" y="18.658684" style="fill: #a3be8c"/>
     <use xlink:href="#m1ac893b92d" x="65.908398" y="19.893242" style="fill: #a3be8c"/>
     <use xlink:href="#m1ac893b92d" x="65.956986" y="20.203871" style="fill: #a3be8c"/>
     <use xlink:href="#m1ac893b92d" x="66.011273" y="19.65477" style="fill: #a3be8c"/>
     <use xlink:href="#m1ac893b92d" x="66.075037" y="16.775847" style="fill: #a3be8c"/>
     <use xlink:href="#m1ac893b92d" x="66.152533" y="16.355078" style="fill: #a3be8c"/>
     <use xlink:href="#m1ac893b92d" x="66.248785" y="16.46845" style="fill: #a3be8c"/>
     <use xlink:href="#m1ac893b92d" x="66.36994" y="15.711536" style="fill: #a3be8c"/>
     <use xlink:href="#m1ac893b92d" x="66.5237" y="15.96312" style="fill: #a3be8c"/>
     <use xlink:href="#m1ac893b92d" x="66.719834" y="11.655181" style="fill: #a3be8c"/>
     <use xlink:href="#m1ac893b92d" x="66.970772" y="12.144076" style="fill: #a3be8c"/>
     <use xlink:href="#m1ac893b92d" x="67.292242" y="13.316293" style="fill: #a3be8c"/>
     <use xlink:href="#m1ac893b92d" x="67.703842" y="12.554911" style="fill: #a3be8c"/>
     <use xlink:href="#m1ac893b92d" x="68.229239" y="16.184281" style="fill: #a3be8c"/>
     <use xlink:href="#m1ac893b92d" x="68.89531" y="16.53075" style="fill: #a3be8c"/>
     <use xlink:href="#m1ac893b92d" x="69.728776" y="15.092558" style="fill: #a3be8c"/>
     <use xlink:href="#m1ac893b92d" x="70.74754" y="16.421231" style="fill: #a3be8c"/>
     <use xlink:href="#m1ac893b92d" x="71.94208" y="16.995879" style="fill: #a3be8c"/>
     <use xlink:href="#m1ac893b92d" x="73.241356" y="18.334592" style="fill: #a3be8c"/>
     <use xlink:href="#m1ac893b92d" x="74.463421" y="17.90912" style="fill: #a3be8c"/>
     <use xlink:href="#m1ac893b92d" x="75.275669" y="18.208462" style="fill: #a3be8c"/>
     <use xlink:href="#m1ac893b92d" x="75.239043" y="19.000806" style="fill: #a3be8c"/>
     <use xlink:href="#m1ac893b92d" x="74.027376" y="19.494646" style="fill: #a3be8c"/>
     <use xlink:href="#m1ac893b92d" x="71.751902" y="18.184028" style="fill: #a3be8c"/>
     <use xlink:href="#m1ac893b92d" x="69.038635" y="21.073196" style="fill: #a3be8c"/>
     <use xlink:href="#m1ac893b92d" x="66.64153" y="21.398309" style="fill: #a3be8c"/>
     <use xlink:href="#m1ac893b92d" x="64.978728" y="22.795314" style="fill: #a3be8c"/>
     <use xlink:href="#m1ac893b92d" x="64.049829" y="23.159366" style="fill: #a3be8c"/>
     <use xlink:href="#m1ac893b92d" x="63.64355" y="22.618772" style="fill: #a3be8c"/>
     <use xlink:href="#m1ac893b92d" x="63.533103" y="23.448399" style="fill: #a3be8c"/>
     <use xlink:href="#m1ac893b92d" x="63.553795" y="24.482534" style="fill: #a3be8c"/>
     <use xlink:href="#m1ac893b92d" x="63.606007" y="25.051617" style="fill: #a3be8c"/>
     <use xlink:href="#m1ac893b92d" x="63.635896" y="25.345409" style="fill: #a3be8c"/>
     <use xlink:href="#m1ac893b92d" x="63.616906" y="27.437522" style="fill: #a3be8c"/>
     <use xlink:href="#m1ac893b92d" x="63.537163" y="25.848958" style="fill: #a3be8c"/>
     <use xlink:href="#m1ac893b92d" x="63.39194" y="27.477565" style="fill: #a3be8c"/>
     <use xlink:href="#m1ac893b92d" x="63.179597" y="28.032474" style="fill: #a3be8c"/>
     <use xlink:href="#m1ac893b92d" x="62.899828" y="28.174817" style="fill: #a3be8c"/>
     <use xlink:href="#m1ac893b92d" x="62.553557" y="28.21151" style="fill: #a3be8c"/>
     <use xlink:href="#m1ac893b92d" x="62.144209" y="28.879743" style="fill: #a3be8c"/>
     <use xlink:href="#m1ac893b92d" x="61.680298" y="29.392463" style="fill: #a3be8c"/>
     <use xlink:href="#m1ac893b92d" x="61.179245" y="30.224776" style="fill: #a3be8c"/>
     <use xlink:href="#m1ac893b92d" x="60.672034" y="30.174163" style="fill: #a3be8c"/>
     <use xlink:href="#m1ac893b92d" x="60.207289" y="30.5282" style="fill: #a3be8c"/>
     <use xlink:href="#m1ac893b92d" x="59.851853" y="30.289578" style="fill: #a3be8c"/>
     <use xlink:href="#m1ac893b92d" x="59.683423" y="30.552868" style="fill: #a3be8c"/>
     <use xlink:href="#m1ac893b92d" x="59.771644" y="31.01215" style="fill: #a3be8c"/>
     <use xlink:href="#m1ac893b92d" x="60.149947" y="30.797082" style="fill: #a3be8c"/>
     <use xlink:href="#m1ac893b92d" x="60.790801" y="30.842594" style="fill: #a3be8c"/>
     <use xlink:href="#m1ac893b92d" x="61.602864" y="31.57107" style="fill: #a3be8c"/>
     <use xlink:href="#m1ac893b92d" x="62.458449" y="30.662439" style="fill: #a3be8c"/>
     <use xlink:href="#m1ac893b92d" x="63.237448" y="30.992925" style="fill: #a3be8c"/>
     <use xlink:href="#m1ac893b92d" x="63.861542" y="30.575445" style="fill: #a3be8c"/>
     <use xlink:href="#m1ac893b92d" x="64.303136" y="30.928669" style="fill: #a3be8c"/>
     <use xlink:href="#m1ac893b92d" x="64.573316" y="30.398653" style="fill: #a3be8c"/>
     <use xlink:href="#m1ac893b92d" x="64.702685" y="30.696969" style="fill: #a3be8c"/>
     <use xlink:href="#m1ac893b92d" x="64.725664" y="30.71209" style="fill: #a3be8c"/>
     <use xlink:href="#m1ac893b92d" x="64.671583" y="30.904996" style="fill: #a3be8c"/>
     <use xlink:href="#m1ac893b92d" x="64.561403" y="31.138524" style="fill: #a3be8c"/>
     <use xlink:href="#m1ac893b92d" x="64.407711" y="31.131511" style="fill: #a3be8c"/>
     <use xlink:href="#m1ac893b92d" x="64.216105" y="31.153816" style="fill: #a3be8c"/>
     <use xlink:href="#m1ac893b92d" x="63.986912" y="31.265156" style="fill: #a3be8c"/>
     <use xlink:href="#m1ac893b92d" x="63.716794" y="31.251988" style="fill: #a3be8c"/>
     <use xlink:href="#m1ac893b92d" x="63.400181" y="30.80568" style="fill: #a3be8c"/>
     <use xlink:href="#m1ac893b92d" x="63.030692" y="31.359484" style="fill: #a3be8c"/>
     <use xlink:href="#m1ac893b92d" x="62.602848" y="31.681475" style="fill: #a3be8c"/>
     <use xlink:href="#m1ac893b92d" x="62.1145" y="31.739232" style="fill: #a3be8c"/>
     <use xlink:href="#m1ac893b92d" x="61.570408" y="31.526535" style="fill: #a3be8c"/>
     <use xlink:href="#m1ac893b92d" x="60.987323" y="31.431015" style="fill: #a3be8c"/>
     <use xlink:href="#m1ac893b92d" x="60.400274" y="31.581279" style="fill: #a3be8c"/>
     <use xlink:href="#m1ac893b92d" x="59.868338" y="32.028305" style="fill: #a3be8c"/>
     <use xlink:href="#m1ac893b92d" x="59.47563" y="31.693588" style="fill: #a3be8c"/>
     <use xlink:href="#m1ac893b92d" x="59.320734" y="31.283934" style="fill: #a3be8c"/>
     <use xlink:href="#m1ac893b92d" x="59.489044" y="31.436736" style="fill: #a3be8c"/>
     <use xlink:href="#m1ac893b92d" x="60.012399" y="31.67487" style="fill: #a3be8c"/>
     <use xlink:href="#m1ac893b92d" x="60.837231" y="31.71108" style="fill: #a3be8c"/>
     <use xlink:href="#m1ac893b92d" x="61.829221" y="31.352057" style="fill: #a3be8c"/>
     <use xlink:href="#m1ac893b92d" x="62.821075" y="31.664443" style="fill: #a3be8c"/>
     <use xlink:href="#m1ac893b92d" x="63.674353" y="31.293093" style="fill: #a3be8c"/>
     <use xlink:href="#m1ac893b92d" x="64.316295" y="31.818197" style="fill: #a3be8c"/>
     <use xlink:href="#m1ac893b92d" x="64.738449" y="31.243284" style="fill: #a3be8c"/>
     <use xlink:href="#m1ac893b92d" x="64.97247" y="31.541304" style="fill: #a3be8c"/>
     <use xlink:href="#m1ac893b92d" x="65.06415" y="31.098758" style="fill: #a3be8c"/>
     <use xlink:href="#m1ac893b92d" x="65.056463" y="31.815018" style="fill: #a3be8c"/>
     <use xlink:href="#m1ac893b92d" x="64.98219" y="31.628602" style="fill: #a3be8c"/>
     <use xlink:href="#m1ac893b92d" x="64.862698" y="31.384825" style="fill: #a3be8c"/>
     <use xlink:href="#m1ac893b92d" x="64.709502" y="30.917273" style="fill: #a3be8c"/>
     <use xlink:href="#m1ac893b92d" x="64.526585" y="31.227832" style="fill: #a3be8c"/>
     <use xlink:href="#m1ac893b92d" x="64.312512" y="31.2265" style="fill: #a3be8c"/>
     <use xlink:href="#m1ac893b92d" x="64.062085" y="31.799289" style="fill: #a3be8c"/>
     <use xlink:href="#m1ac893b92d" x="63.767568" y="31.745115" style="fill: #a3be8c"/>
     <use xlink:href="#m1ac893b92d" x="63.419697" y="31.692827" style="fill: #a3be8c"/>
     <use xlink:href="#m1ac893b92d" x="63.008805" y="31.931108" style="fill: #a3be8c"/>
     <use xlink:href="#m1ac893b92d" x="62.5265" y="31.769866" style="fill: #a3be8c"/>
     <use xlink:href="#m1ac893b92d" x="61.968476" y="31.690031" style="fill: #a3be8c"/>
     <use xlink:href="#m1ac893b92d" x="61.33917" y="31.816688" style="fill: #a3be8c"/>
     <use xlink:href="#m1ac893b92d" x="60.658858" y="32.241686" style="fill: #a3be8c"/>
     <use xlink:href="#m1ac893b92d" x="59.972965" y="31.827543" style="fill: #a3be8c"/>
     <use xlink:href="#m1ac893b92d" x="59.361" y="31.562871" style="fill: #a3be8c"/>
     <use xlink:href="#m1ac893b92d" x="58.938097" y="31.518491" style="fill: #a3be8c"/>
     <use xlink:href="#m1ac893b92d" x="58.837617" y="31.355741" style="fill: #a3be8c"/>
     <use xlink:href="#m1ac893b92d" x="59.165983" y="31.677403" style="fill: #a3be8c"/>
     <use xlink:href="#m1ac893b92d" x="59.940537" y="31.324065" style="fill: #a3be8c"/>
     <use xlink:href="#m1ac893b92d" x="61.051142" y="30.895721" style="fill: #a3be8c"/>
     <use xlink:href="#m1ac893b92d" x="62.288821" y="31.453387" style="fill: #a3be8c"/>
     <use xlink:href="#m1ac893b92d" x="63.433841" y="31.395827" style="fill: #a3be8c"/>
     <use xlink:href="#m1ac893b92d" x="64.339843" y="31.356588" style="fill: #a3be8c"/>
     <use xlink:href="#m1ac893b92d" x="64.960941" y="31.854063" style="fill: #a3be8c"/>
     <use xlink:href="#m1ac893b92d" x="65.325966" y="31.51948" style="fill: #a3be8c"/>
     <use xlink:href="#m1ac893b92d" x="65.496563" y="30.850205" style="fill: #a3be8c"/>
     <use xlink:href="#m1ac893b92d" x="65.536001" y="31.211336" style="fill: #a3be8c"/>
     <use xlink:href="#m1ac893b92d" x="65.494531" y="30.728013" style="fill: #a3be8c"/>
     <use xlink:href="#m1ac893b92d" x="65.406202" y="31.183715" style="fill: #a3be8c"/>
     <use xlink:href="#m1ac893b92d" x="65.290979" y="30.823875" style="fill: #a3be8c"/>
     <use xlink:href="#m1ac893b92d" x="65.158304" y="30.637492" style="fill: #a3be8c"/>
     <use xlink:href="#m1ac893b92d" x="65.010362" y="30.472581" style="fill: #a3be8c"/>
     <use xlink:href="#m1ac893b92d" x="64.844506" y="31.211713" style="fill: #a3be8c"/>
     <use xlink:href="#m1ac893b92d" x="64.654832" y="30.373565" style="fill: #a3be8c"/>
     <use xlink:href="#m1ac893b92d" x="64.433078" y="30.87" style="fill: #a3be8c"/>
     <use xlink:href="#m1ac893b92d" x="64.169067" y="31.39789" style="fill: #a3be8c"/>
     <use xlink:href="#m1ac893b92d" x="63.850929" y="31.49779" style="fill: #a3be8c"/>
     <use xlink:href="#m1ac893b92d" x="63.465381" y="31.667116" style="fill: #a3be8c"/>
     <use xlink:href="#m1ac893b92d" x="62.998414" y="31.375425" style="fill: #a3be8c"/>
     <use xlink:href="#m1ac893b92d" x="62.436967" y="31.718549" style="fill: #a3be8c"/>
     <use xlink:href="#m1ac893b92d" x="61.772454" y="31.177905" style="fill: #a3be8c"/>
     <use xlink:href="#m1ac893b92d" x="61.007428" y="31.80071" style="fill: #a3be8c"/>
     <use xlink:href="#m1ac893b92d" x="60.166717" y="31.388664" style="fill: #a3be8c"/>
     <use xlink:href="#m1ac893b92d" x="59.3133" y="31.401257" style="fill: #a3be8c"/>
     <use xlink:href="#m1ac893b92d" x="58.564813" y="31.589617" style="fill: #a3be8c"/>
     <use xlink:href="#m1ac893b92d" x="58.09727" y="31.816763" style="fill: #a3be8c"/>
     <use xlink:href="#m1ac893b92d" x="58.112101" y="31.343544" style="fill: #a3be8c"/>
     <use xlink:href="#m1ac893b92d" x="58.749476" y="31.589959" style="fill: #a3be8c"/>
     <use xlink:href="#m1ac893b92d" x="59.979091" y="31.440434" style="fill: #a3be8c"/>
    </g>
   </g>
   <g id="patch_5">
    <path d="M 55.869751 33.271011 
L 55.869751 10.625856 
" style="fill: none; stroke: #2e3440; stroke-width: 0.5; stroke-linejoin: miter; stroke-linecap: square"/>
   </g>
   <g id="patch_6">
    <path d="M 55.869751 33.271011 
L 76.19976 33.271011 
" style="fill: none; stroke: #2e3440; stroke-width: 0.5; stroke-linejoin: miter; stroke-linecap: square"/>
   </g>
  </g>
 </g>
 <defs>
  <clipPath id="p15e731b5ee">
   <rect x="3.00024" y="10.625856" width="40.660017" height="22.645155"/>
  </clipPath>
  <clipPath id="p5d62772188">
   <rect x="55.869751" y="10.625856" width="20.330009" height="22.645155"/>
  </clipPath>
 </defs>
</svg>
