<?xml version="1.0" encoding="utf-8" standalone="no"?>
<!DOCTYPE svg PUBLIC "-//W3C//DTD SVG 1.1//EN"
  "http://www.w3.org/Graphics/SVG/1.1/DTD/svg11.dtd">
<svg xmlns:xlink="http://www.w3.org/1999/xlink" width="79.2pt" height="43.2pt" viewBox="0 0 79.2 43.2" xmlns="http://www.w3.org/2000/svg" version="1.1">
 <metadata>
  <rdf:RDF xmlns:dc="http://purl.org/dc/elements/1.1/" xmlns:cc="http://creativecommons.org/ns#" xmlns:rdf="http://www.w3.org/1999/02/22-rdf-syntax-ns#">
   <cc:Work>
    <dc:type rdf:resource="http://purl.org/dc/dcmitype/StillImage"/>
    <dc:date>2024-04-24T10:45:33.440927</dc:date>
    <dc:format>image/svg+xml</dc:format>
    <dc:creator>
     <cc:Agent>
      <dc:title>Matplotlib v3.8.0, https://matplotlib.org/</dc:title>
     </cc:Agent>
    </dc:creator>
   </cc:Work>
  </rdf:RDF>
 </metadata>
 <defs>
  <style type="text/css">*{stroke-linejoin: round; stroke-linecap: butt}</style>
 </defs>
 <g id="figure_1">
  <g id="patch_1">
   <path d="M 0 43.2 
L 79.2 43.2 
L 79.2 0 
L 0 0 
z
" style="fill: #ffffff"/>
  </g>
  <g id="axes_1">
   <g id="patch_2">
    <path d="M 3.00024 33.271011 
L 43.660257 33.271011 
L 43.660257 10.625856 
L 3.00024 10.625856 
z
" style="fill: #eceff4"/>
   </g>
   <g id="matplotlib.axis_1"/>
   <g id="matplotlib.axis_2"/>
   <g id="line2d_1">
    <path d="M 3.113184 31.915596 
L 3.226129 31.076611 
L 3.564962 31.622974 
L 3.677907 32.241686 
L 3.903796 30.568654 
L 4.01674 31.575478 
L 4.129685 30.485134 
L 4.242629 31.222488 
L 4.355574 29.932819 
L 4.468518 30.865949 
L 4.807352 27.870201 
L 4.920296 28.254119 
L 5.033241 29.067087 
L 5.146185 25.958043 
L 5.25913 26.656555 
L 5.372074 26.553936 
L 5.485019 25.410297 
L 5.597963 22.656309 
L 5.823852 22.775287 
L 6.162686 17.728312 
L 6.27563 19.734871 
L 6.501519 18.521496 
L 6.614464 18.793297 
L 6.727408 18.297951 
L 6.840353 19.624031 
L 6.953297 19.116247 
L 7.066242 18.020258 
L 7.179186 20.180104 
L 7.292131 18.989533 
L 7.405075 20.38458 
L 7.51802 19.589542 
L 7.743909 21.833748 
L 7.856853 21.207127 
L 8.082742 23.291601 
L 8.421576 24.428348 
L 9.099243 20.520717 
L 9.325132 16.937186 
L 9.438076 15.89343 
L 9.551021 16.717214 
L 9.663965 16.539676 
L 9.77691 15.271168 
L 9.889854 15.803727 
L 10.002799 14.919492 
L 10.115743 15.779377 
L 10.228687 14.662148 
L 10.341632 15.67834 
L 10.454576 14.555518 
L 10.680465 17.005084 
L 10.79341 16.099284 
L 11.019299 17.404108 
L 11.132243 17.316113 
L 12.035799 23.506852 
L 12.148744 23.928346 
L 12.374633 20.143199 
L 12.487577 20.45858 
L 12.826411 15.416768 
L 13.0523 16.98774 
L 13.165244 13.714155 
L 13.278189 14.121305 
L 13.391133 16.17984 
L 13.617022 12.920292 
L 13.729967 13.889568 
L 13.955856 13.144502 
L 14.0688 15.039429 
L 14.181745 14.267781 
L 14.294689 15.501405 
L 14.407634 13.604735 
L 14.520578 15.508205 
L 14.633523 14.267445 
L 14.859412 15.91542 
L 14.972356 15.425189 
L 15.198245 17.495414 
L 15.31119 17.521407 
L 15.537079 20.910936 
L 15.650023 20.266884 
L 15.875912 25.776777 
L 16.101801 27.486252 
L 16.214746 28.75853 
L 16.32769 28.551892 
L 16.440635 30.255751 
L 16.666524 28.843449 
L 16.779468 28.872533 
L 16.892413 26.614301 
L 17.005357 30.262582 
L 17.231246 28.227908 
L 17.34419 28.883216 
L 17.457135 25.616049 
L 17.570079 27.311507 
L 17.683024 25.349159 
L 17.908913 27.813773 
L 18.021857 25.827131 
L 18.247746 26.733394 
L 18.360691 25.72679 
L 18.473635 26.126086 
L 18.58658 27.004361 
L 18.699524 25.068801 
L 18.812469 26.075527 
L 18.925413 28.538037 
L 19.038358 27.979263 
L 19.151302 28.439069 
L 19.490136 25.325879 
L 19.716025 21.750366 
L 19.941914 16.952778 
L 20.054858 17.654369 
L 20.167803 13.8596 
L 20.280747 14.541836 
L 20.506636 11.655181 
L 20.732525 13.544119 
L 20.84547 13.172765 
L 20.958414 12.943307 
L 21.071359 11.73258 
L 21.184303 14.198839 
L 21.297248 12.18927 
L 21.410192 13.099204 
L 21.523137 15.044131 
L 21.636081 13.007398 
L 21.86197 17.029109 
L 22.087859 15.175527 
L 22.426693 21.049982 
L 22.539637 19.25057 
L 22.765526 23.809663 
L 22.878471 25.241857 
L 22.991415 23.973645 
L 23.217304 27.433926 
L 23.330249 26.541065 
L 23.443193 28.308339 
L 23.556138 28.324883 
L 23.669082 28.060489 
L 23.782027 26.875616 
L 23.894971 27.02481 
L 24.007916 27.701044 
L 24.233805 26.619457 
L 24.346749 25.224299 
L 24.572638 25.452006 
L 24.685582 27.473262 
L 24.911471 24.843449 
L 25.13736 25.79484 
L 25.250305 23.778242 
L 25.363249 24.06231 
L 25.476194 23.999761 
L 25.815027 29.292691 
L 25.927972 27.077191 
L 26.040916 29.995551 
L 26.153861 29.384517 
L 26.266805 29.752207 
L 26.37975 32.141721 
L 26.492694 31.694094 
L 26.605639 30.456643 
L 26.718583 31.28949 
L 26.831528 30.461479 
L 26.944472 31.247778 
L 27.057417 30.926505 
L 27.170361 29.928848 
L 27.283306 32.064999 
L 27.509195 28.941009 
L 27.622139 28.893106 
L 27.848028 27.69205 
L 27.960973 28.112886 
L 28.073917 28.021235 
L 28.186862 28.708381 
L 28.299806 26.166275 
L 28.525695 27.117005 
L 28.63864 27.058412 
L 28.977473 23.095832 
L 29.090418 22.527568 
L 29.203362 21.028229 
L 29.316307 21.775358 
L 29.542196 18.645279 
L 29.881029 21.627335 
L 29.993974 23.471128 
L 30.106918 23.459555 
L 30.332807 28.973337 
L 30.445752 25.731774 
L 30.784585 30.780337 
L 30.89753 29.228127 
L 31.236363 30.941921 
L 31.349308 29.635606 
L 31.462252 30.073085 
L 31.688141 28.774998 
L 31.91403 29.434459 
L 32.026974 29.176555 
L 32.252863 26.829056 
L 32.365808 28.505422 
L 32.93053 25.270285 
L 33.156419 22.79871 
L 33.382308 20.690498 
L 33.608197 18.944766 
L 33.721142 18.817982 
L 34.059975 16.534876 
L 34.17292 17.763971 
L 34.285864 17.251412 
L 34.398809 17.344535 
L 34.511753 17.853833 
L 34.624698 17.637505 
L 34.737642 17.918803 
L 34.850587 16.990172 
L 34.963531 18.357852 
L 35.076476 17.957222 
L 35.18942 20.591995 
L 35.302365 20.187225 
L 35.641198 22.148972 
L 35.754143 20.978514 
L 35.867087 21.936206 
L 36.092976 18.952299 
L 36.205921 19.22731 
L 36.318865 20.082134 
L 36.43181 17.044014 
L 36.544754 17.237767 
L 36.770643 14.737816 
L 36.883588 16.406731 
L 37.109477 13.696308 
L 37.222421 14.964985 
L 37.335366 13.62114 
L 37.44831 14.743683 
L 37.561255 14.718708 
L 37.674199 16.546321 
L 37.787144 15.134037 
L 37.900088 17.547445 
L 38.013033 17.555079 
L 38.125977 19.597148 
L 38.238922 17.81316 
L 38.351866 20.508514 
L 38.464811 19.941958 
L 38.577755 22.589155 
L 38.690699 22.108229 
L 38.803644 20.701973 
L 39.029533 22.821211 
L 39.255422 18.379054 
L 39.368366 19.620361 
L 39.594255 16.549951 
L 39.7072 16.801233 
L 39.820144 16.027556 
L 39.933089 14.057515 
L 40.046033 16.230967 
L 40.271922 13.551748 
L 40.384867 14.378848 
L 40.497811 14.328955 
L 40.949589 16.318536 
L 41.062534 14.939999 
L 41.288423 18.010724 
L 41.401367 18.298521 
L 41.514312 17.93619 
L 41.627256 18.43367 
L 41.853145 21.003843 
L 41.96609 20.908478 
L 42.191979 23.017646 
L 42.304923 24.124712 
L 42.417868 21.165968 
L 42.530812 21.797724 
L 43.208479 14.044214 
L 43.434368 14.31267 
L 43.547313 14.385159 
L 43.660257 12.636608 
L 43.660257 12.636608 
" clip-path="url(#p96180e936e)" style="fill: none; stroke: #bf616a; stroke-width: 0.5; stroke-linecap: round"/>
   </g>
   <g id="patch_3">
    <path d="M 3.00024 33.271011 
L 43.660257 33.271011 
" style="fill: none; stroke: #2e3440; stroke-width: 0.5; stroke-linejoin: miter; stroke-linecap: square"/>
   </g>
   <g id="text_1">
    <!-- $I(u;x)=0.45$ -->
    <g style="fill: #2e3440" transform="translate(5.725293 6.096825)">
     <text>
      <tspan style="font: oblique 5.59776px 'DejaVu Sans'" x="0 3.832047 10.351715" y="-0.75">Iux</tspan>
      <tspan style="font: 5.59776px 'DejaVu Sans'" x="1.649719 7.377304 13.662079 16.934204 22.710953 26.269867 28.047958 31.606873" y="-0.75">(;)=0.45</tspan>
     </text>
    </g>
   </g>
  </g>
  <g id="axes_2">
   <g id="patch_4">
    <path d="M 55.869751 33.271011 
L 76.19976 33.271011 
L 76.19976 10.625856 
L 55.869751 10.625856 
z
" style="fill: #eceff4"/>
   </g>
   <g id="matplotlib.axis_3">
    <g id="text_2">
     <text style="fill: #2e3440; font: 5.59776px 'Arial'; text-anchor: middle" x="66.034756" y="39.542299" transform="rotate(-0 66.034756 39.542299)">Input</text>
    </g>
   </g>
   <g id="matplotlib.axis_4">
    <g id="text_3">
     <text style="fill: #2e3440; font: 5.59776px 'Arial'; text-anchor: middle" x="53.740696" y="21.948434" transform="rotate(-90 53.740696 21.948434)">Output</text>
    </g>
   </g>
   <g id="PathCollection_1">
    <defs>
     <path id="me946b87a04" d="M 0 0.316228 
C 0.083865 0.316228 0.164306 0.282908 0.223607 0.223607 
C 0.282908 0.164306 0.316228 0.083865 0.316228 0 
C 0.316228 -0.083865 0.282908 -0.164306 0.223607 -0.223607 
C 0.164306 -0.282908 0.083865 -0.316228 0 -0.316228 
C -0.083865 -0.316228 -0.164306 -0.282908 -0.223607 -0.223607 
C -0.282908 -0.164306 -0.316228 -0.083865 -0.316228 0 
C -0.316228 0.083865 -0.282908 0.164306 -0.223607 0.223607 
C -0.164306 0.282908 -0.083865 0.316228 0 0.316228 
z
"/>
    </defs>
    <g clip-path="url(#p04bcdfc4df)">
     <use xlink:href="#me946b87a04" x="71.581121" y="31.915596" style="fill: #bf616a"/>
     <use xlink:href="#me946b87a04" x="73.098286" y="31.076611" style="fill: #bf616a"/>
     <use xlink:href="#me946b87a04" x="74.278379" y="31.252824" style="fill: #bf616a"/>
     <use xlink:href="#me946b87a04" x="74.83192" y="31.463297" style="fill: #bf616a"/>
     <use xlink:href="#me946b87a04" x="74.427458" y="31.622974" style="fill: #bf616a"/>
     <use xlink:href="#me946b87a04" x="72.939664" y="32.241686" style="fill: #bf616a"/>
     <use xlink:href="#me946b87a04" x="70.671396" y="31.657166" style="fill: #bf616a"/>
     <use xlink:href="#me946b87a04" x="68.260295" y="30.568654" style="fill: #bf616a"/>
     <use xlink:href="#me946b87a04" x="66.28659" y="31.575478" style="fill: #bf616a"/>
     <use xlink:href="#me946b87a04" x="64.986553" y="30.485134" style="fill: #bf616a"/>
     <use xlink:href="#me946b87a04" x="64.288811" y="31.222488" style="fill: #bf616a"/>
     <use xlink:href="#me946b87a04" x="63.999233" y="29.932819" style="fill: #bf616a"/>
     <use xlink:href="#me946b87a04" x="63.934035" y="30.865949" style="fill: #bf616a"/>
     <use xlink:href="#me946b87a04" x="63.964101" y="30.067169" style="fill: #bf616a"/>
     <use xlink:href="#me946b87a04" x="64.011658" y="28.723136" style="fill: #bf616a"/>
     <use xlink:href="#me946b87a04" x="64.034338" y="27.870201" style="fill: #bf616a"/>
     <use xlink:href="#me946b87a04" x="64.010827" y="28.254119" style="fill: #bf616a"/>
     <use xlink:href="#me946b87a04" x="63.930982" y="29.067087" style="fill: #bf616a"/>
     <use xlink:href="#me946b87a04" x="63.789753" y="25.958043" style="fill: #bf616a"/>
     <use xlink:href="#me946b87a04" x="63.583757" y="26.656555" style="fill: #bf616a"/>
     <use xlink:href="#me946b87a04" x="63.309655" y="26.553936" style="fill: #bf616a"/>
     <use xlink:href="#me946b87a04" x="62.96386" y="25.410297" style="fill: #bf616a"/>
     <use xlink:href="#me946b87a04" x="62.543426" y="22.656309" style="fill: #bf616a"/>
     <use xlink:href="#me946b87a04" x="62.048264" y="22.686695" style="fill: #bf616a"/>
     <use xlink:href="#me946b87a04" x="61.485006" y="22.775287" style="fill: #bf616a"/>
     <use xlink:href="#me946b87a04" x="60.872808" y="20.505536" style="fill: #bf616a"/>
     <use xlink:href="#me946b87a04" x="60.250823" y="18.994016" style="fill: #bf616a"/>
     <use xlink:href="#me946b87a04" x="59.685341" y="17.728312" style="fill: #bf616a"/>
     <use xlink:href="#me946b87a04" x="59.271539" y="19.734871" style="fill: #bf616a"/>
     <use xlink:href="#me946b87a04" x="59.12146" y="18.92536" style="fill: #bf616a"/>
     <use xlink:href="#me946b87a04" x="59.331197" y="18.521496" style="fill: #bf616a"/>
     <use xlink:href="#me946b87a04" x="59.932782" y="18.793297" style="fill: #bf616a"/>
     <use xlink:href="#me946b87a04" x="60.857737" y="18.297951" style="fill: #bf616a"/>
     <use xlink:href="#me946b87a04" x="61.946735" y="19.624031" style="fill: #bf616a"/>
     <use xlink:href="#me946b87a04" x="63.010318" y="19.116247" style="fill: #bf616a"/>
     <use xlink:href="#me946b87a04" x="63.901153" y="18.020258" style="fill: #bf616a"/>
     <use xlink:href="#me946b87a04" x="64.551164" y="20.180104" style="fill: #bf616a"/>
     <use xlink:href="#me946b87a04" x="64.963245" y="18.989533" style="fill: #bf616a"/>
     <use xlink:href="#me946b87a04" x="65.180152" y="20.38458" style="fill: #bf616a"/>
     <use xlink:href="#me946b87a04" x="65.255326" y="19.589542" style="fill: #bf616a"/>
     <use xlink:href="#me946b87a04" x="65.235776" y="21.240146" style="fill: #bf616a"/>
     <use xlink:href="#me946b87a04" x="65.1558" y="21.833748" style="fill: #bf616a"/>
     <use xlink:href="#me946b87a04" x="65.036912" y="21.207127" style="fill: #bf616a"/>
     <use xlink:href="#me946b87a04" x="64.890205" y="23.177565" style="fill: #bf616a"/>
     <use xlink:href="#me946b87a04" x="64.719107" y="23.291601" style="fill: #bf616a"/>
     <use xlink:href="#me946b87a04" x="64.521674" y="23.615349" style="fill: #bf616a"/>
     <use xlink:href="#me946b87a04" x="64.292253" y="24.041436" style="fill: #bf616a"/>
     <use xlink:href="#me946b87a04" x="64.022579" y="24.428348" style="fill: #bf616a"/>
     <use xlink:href="#me946b87a04" x="63.702548" y="23.825041" style="fill: #bf616a"/>
     <use xlink:href="#me946b87a04" x="63.320953" y="23.799068" style="fill: #bf616a"/>
     <use xlink:href="#me946b87a04" x="62.86656" y="23.008757" style="fill: #bf616a"/>
     <use xlink:href="#me946b87a04" x="62.330092" y="21.463017" style="fill: #bf616a"/>
     <use xlink:href="#me946b87a04" x="61.707843" y="20.9302" style="fill: #bf616a"/>
     <use xlink:href="#me946b87a04" x="61.007854" y="20.520717" style="fill: #bf616a"/>
     <use xlink:href="#me946b87a04" x="60.259352" y="17.792682" style="fill: #bf616a"/>
     <use xlink:href="#me946b87a04" x="59.524734" y="16.937186" style="fill: #bf616a"/>
     <use xlink:href="#me946b87a04" x="58.909598" y="15.89343" style="fill: #bf616a"/>
     <use xlink:href="#me946b87a04" x="58.559698" y="16.717214" style="fill: #bf616a"/>
     <use xlink:href="#me946b87a04" x="58.628832" y="16.539676" style="fill: #bf616a"/>
     <use xlink:href="#me946b87a04" x="59.211356" y="15.271168" style="fill: #bf616a"/>
     <use xlink:href="#me946b87a04" x="60.267804" y="15.803727" style="fill: #bf616a"/>
     <use xlink:href="#me946b87a04" x="61.606769" y="14.919492" style="fill: #bf616a"/>
     <use xlink:href="#me946b87a04" x="62.960384" y="15.779377" style="fill: #bf616a"/>
     <use xlink:href="#me946b87a04" x="64.104348" y="14.662148" style="fill: #bf616a"/>
     <use xlink:href="#me946b87a04" x="64.931614" y="15.67834" style="fill: #bf616a"/>
     <use xlink:href="#me946b87a04" x="65.445832" y="14.555518" style="fill: #bf616a"/>
     <use xlink:href="#me946b87a04" x="65.711405" y="16.033885" style="fill: #bf616a"/>
     <use xlink:href="#me946b87a04" x="65.806587" y="17.005084" style="fill: #bf616a"/>
     <use xlink:href="#me946b87a04" x="65.797914" y="16.099284" style="fill: #bf616a"/>
     <use xlink:href="#me946b87a04" x="65.732514" y="16.842189" style="fill: #bf616a"/>
     <use xlink:href="#me946b87a04" x="65.639551" y="17.404108" style="fill: #bf616a"/>
     <use xlink:href="#me946b87a04" x="65.534599" y="17.316113" style="fill: #bf616a"/>
     <use xlink:href="#me946b87a04" x="65.423995" y="18.158128" style="fill: #bf616a"/>
     <use xlink:href="#me946b87a04" x="65.30819" y="18.677048" style="fill: #bf616a"/>
     <use xlink:href="#me946b87a04" x="65.183998" y="19.764983" style="fill: #bf616a"/>
     <use xlink:href="#me946b87a04" x="65.045927" y="20.449578" style="fill: #bf616a"/>
     <use xlink:href="#me946b87a04" x="64.886829" y="21.739525" style="fill: #bf616a"/>
     <use xlink:href="#me946b87a04" x="64.698089" y="21.873029" style="fill: #bf616a"/>
     <use xlink:href="#me946b87a04" x="64.469523" y="23.320734" style="fill: #bf616a"/>
     <use xlink:href="#me946b87a04" x="64.189134" y="23.506852" style="fill: #bf616a"/>
     <use xlink:href="#me946b87a04" x="63.842882" y="23.928346" style="fill: #bf616a"/>
     <use xlink:href="#me946b87a04" x="63.414702" y="21.543032" style="fill: #bf616a"/>
     <use xlink:href="#me946b87a04" x="62.887195" y="20.143199" style="fill: #bf616a"/>
     <use xlink:href="#me946b87a04" x="62.243721" y="20.45858" style="fill: #bf616a"/>
     <use xlink:href="#me946b87a04" x="61.473206" y="18.906812" style="fill: #bf616a"/>
     <use xlink:href="#me946b87a04" x="60.579645" y="16.203792" style="fill: #bf616a"/>
     <use xlink:href="#me946b87a04" x="59.598539" y="15.416768" style="fill: #bf616a"/>
     <use xlink:href="#me946b87a04" x="58.620599" y="16.119909" style="fill: #bf616a"/>
     <use xlink:href="#me946b87a04" x="57.815129" y="16.98774" style="fill: #bf616a"/>
     <use xlink:href="#me946b87a04" x="57.428615" y="13.714155" style="fill: #bf616a"/>
     <use xlink:href="#me946b87a04" x="57.718119" y="14.121305" style="fill: #bf616a"/>
     <use xlink:href="#me946b87a04" x="58.804489" y="16.17984" style="fill: #bf616a"/>
     <use xlink:href="#me946b87a04" x="60.530528" y="13.634223" style="fill: #bf616a"/>
     <use xlink:href="#me946b87a04" x="62.485708" y="12.920292" style="fill: #bf616a"/>
     <use xlink:href="#me946b87a04" x="64.227307" y="13.889568" style="fill: #bf616a"/>
     <use xlink:href="#me946b87a04" x="65.49988" y="13.509568" style="fill: #bf616a"/>
     <use xlink:href="#me946b87a04" x="66.27731" y="13.144502" style="fill: #bf616a"/>
     <use xlink:href="#me946b87a04" x="66.668114" y="15.039429" style="fill: #bf616a"/>
     <use xlink:href="#me946b87a04" x="66.811236" y="14.267781" style="fill: #bf616a"/>
     <use xlink:href="#me946b87a04" x="66.82155" y="15.501405" style="fill: #bf616a"/>
     <use xlink:href="#me946b87a04" x="66.777066" y="13.604735" style="fill: #bf616a"/>
     <use xlink:href="#me946b87a04" x="66.724694" y="15.508205" style="fill: #bf616a"/>
     <use xlink:href="#me946b87a04" x="66.690099" y="14.267445" style="fill: #bf616a"/>
     <use xlink:href="#me946b87a04" x="66.686193" y="15.809623" style="fill: #bf616a"/>
     <use xlink:href="#me946b87a04" x="66.719159" y="15.91542" style="fill: #bf616a"/>
     <use xlink:href="#me946b87a04" x="66.792379" y="15.425189" style="fill: #bf616a"/>
     <use xlink:href="#me946b87a04" x="66.908855" y="16.769823" style="fill: #bf616a"/>
     <use xlink:href="#me946b87a04" x="67.072652" y="17.495414" style="fill: #bf616a"/>
     <use xlink:href="#me946b87a04" x="67.289722" y="17.521407" style="fill: #bf616a"/>
     <use xlink:href="#me946b87a04" x="67.568317" y="18.995078" style="fill: #bf616a"/>
     <use xlink:href="#me946b87a04" x="67.919042" y="20.910936" style="fill: #bf616a"/>
     <use xlink:href="#me946b87a04" x="68.354414" y="20.266884" style="fill: #bf616a"/>
     <use xlink:href="#me946b87a04" x="68.887539" y="24.504515" style="fill: #bf616a"/>
     <use xlink:href="#me946b87a04" x="69.529166" y="25.776777" style="fill: #bf616a"/>
     <use xlink:href="#me946b87a04" x="70.281898" y="27.329469" style="fill: #bf616a"/>
     <use xlink:href="#me946b87a04" x="71.129982" y="27.486252" style="fill: #bf616a"/>
     <use xlink:href="#me946b87a04" x="72.023572" y="28.75853" style="fill: #bf616a"/>
     <use xlink:href="#me946b87a04" x="72.859516" y="28.551892" style="fill: #bf616a"/>
     <use xlink:href="#me946b87a04" x="73.469193" y="30.255751" style="fill: #bf616a"/>
     <use xlink:href="#me946b87a04" x="73.637001" y="29.42149" style="fill: #bf616a"/>
     <use xlink:href="#me946b87a04" x="73.176158" y="28.843449" style="fill: #bf616a"/>
     <use xlink:href="#me946b87a04" x="72.050698" y="28.872533" style="fill: #bf616a"/>
     <use xlink:href="#me946b87a04" x="70.45554" y="26.614301" style="fill: #bf616a"/>
     <use xlink:href="#me946b87a04" x="68.750692" y="30.262582" style="fill: #bf616a"/>
     <use xlink:href="#me946b87a04" x="67.277158" y="29.370338" style="fill: #bf616a"/>
     <use xlink:href="#me946b87a04" x="66.212407" y="28.227908" style="fill: #bf616a"/>
     <use xlink:href="#me946b87a04" x="65.561097" y="28.883216" style="fill: #bf616a"/>
     <use xlink:href="#me946b87a04" x="65.231704" y="25.616049" style="fill: #bf616a"/>
     <use xlink:href="#me946b87a04" x="65.11239" y="27.311507" style="fill: #bf616a"/>
     <use xlink:href="#me946b87a04" x="65.110411" y="25.349159" style="fill: #bf616a"/>
     <use xlink:href="#me946b87a04" x="65.161907" y="26.690496" style="fill: #bf616a"/>
     <use xlink:href="#me946b87a04" x="65.228006" y="27.813773" style="fill: #bf616a"/>
     <use xlink:href="#me946b87a04" x="65.287475" y="25.827131" style="fill: #bf616a"/>
     <use xlink:href="#me946b87a04" x="65.330112" y="26.676879" style="fill: #bf616a"/>
     <use xlink:href="#me946b87a04" x="65.351888" y="26.733394" style="fill: #bf616a"/>
     <use xlink:href="#me946b87a04" x="65.351738" y="25.72679" style="fill: #bf616a"/>
     <use xlink:href="#me946b87a04" x="65.329553" y="26.126086" style="fill: #bf616a"/>
     <use xlink:href="#me946b87a04" x="65.284995" y="27.004361" style="fill: #bf616a"/>
     <use xlink:href="#me946b87a04" x="65.216801" y="25.068801" style="fill: #bf616a"/>
     <use xlink:href="#me946b87a04" x="65.122349" y="26.075527" style="fill: #bf616a"/>
     <use xlink:href="#me946b87a04" x="64.997343" y="28.538037" style="fill: #bf616a"/>
     <use xlink:href="#me946b87a04" x="64.83551" y="27.979263" style="fill: #bf616a"/>
     <use xlink:href="#me946b87a04" x="64.628261" y="28.439069" style="fill: #bf616a"/>
     <use xlink:href="#me946b87a04" x="64.364311" y="27.63454" style="fill: #bf616a"/>
     <use xlink:href="#me946b87a04" x="64.029306" y="27.403765" style="fill: #bf616a"/>
     <use xlink:href="#me946b87a04" x="63.605618" y="25.325879" style="fill: #bf616a"/>
     <use xlink:href="#me946b87a04" x="63.072667" y="23.752923" style="fill: #bf616a"/>
     <use xlink:href="#me946b87a04" x="62.408533" y="21.750366" style="fill: #bf616a"/>
     <use xlink:href="#me946b87a04" x="61.59431" y="17.372727" style="fill: #bf616a"/>
     <use xlink:href="#me946b87a04" x="60.62372" y="16.952778" style="fill: #bf616a"/>
     <use xlink:href="#me946b87a04" x="59.521603" y="17.654369" style="fill: #bf616a"/>
     <use xlink:href="#me946b87a04" x="58.374081" y="13.8596" style="fill: #bf616a"/>
     <use xlink:href="#me946b87a04" x="57.365405" y="14.541836" style="fill: #bf616a"/>
     <use xlink:href="#me946b87a04" x="56.793843" y="13.391818" style="fill: #bf616a"/>
     <use xlink:href="#me946b87a04" x="57.006873" y="11.655181" style="fill: #bf616a"/>
     <use xlink:href="#me946b87a04" x="58.20953" y="12.407355" style="fill: #bf616a"/>
     <use xlink:href="#me946b87a04" x="60.240939" y="13.544119" style="fill: #bf616a"/>
     <use xlink:href="#me946b87a04" x="62.573437" y="13.172765" style="fill: #bf616a"/>
     <use xlink:href="#me946b87a04" x="64.622613" y="12.943307" style="fill: #bf616a"/>
     <use xlink:href="#me946b87a04" x="66.068949" y="11.73258" style="fill: #bf616a"/>
     <use xlink:href="#me946b87a04" x="66.906818" y="14.198839" style="fill: #bf616a"/>
     <use xlink:href="#me946b87a04" x="67.29617" y="12.18927" style="fill: #bf616a"/>
     <use xlink:href="#me946b87a04" x="67.418341" y="13.099204" style="fill: #bf616a"/>
     <use xlink:href="#me946b87a04" x="67.412122" y="15.044131" style="fill: #bf616a"/>
     <use xlink:href="#me946b87a04" x="67.365939" y="13.007398" style="fill: #bf616a"/>
     <use xlink:href="#me946b87a04" x="67.330149" y="15.269551" style="fill: #bf616a"/>
     <use xlink:href="#me946b87a04" x="67.331128" y="17.029109" style="fill: #bf616a"/>
     <use xlink:href="#me946b87a04" x="67.381853" y="15.24151" style="fill: #bf616a"/>
     <use xlink:href="#me946b87a04" x="67.488776" y="15.175527" style="fill: #bf616a"/>
     <use xlink:href="#me946b87a04" x="67.655942" y="17.524227" style="fill: #bf616a"/>
     <use xlink:href="#me946b87a04" x="67.887221" y="19.088217" style="fill: #bf616a"/>
     <use xlink:href="#me946b87a04" x="68.187226" y="21.049982" style="fill: #bf616a"/>
     <use xlink:href="#me946b87a04" x="68.561169" y="19.25057" style="fill: #bf616a"/>
     <use xlink:href="#me946b87a04" x="69.013638" y="22.504099" style="fill: #bf616a"/>
     <use xlink:href="#me946b87a04" x="69.545988" y="23.809663" style="fill: #bf616a"/>
     <use xlink:href="#me946b87a04" x="70.151857" y="25.241857" style="fill: #bf616a"/>
     <use xlink:href="#me946b87a04" x="70.810341" y="23.973645" style="fill: #bf616a"/>
     <use xlink:href="#me946b87a04" x="71.47711" y="26.809032" style="fill: #bf616a"/>
     <use xlink:href="#me946b87a04" x="72.075883" y="27.433926" style="fill: #bf616a"/>
     <use xlink:href="#me946b87a04" x="72.49672" y="26.541065" style="fill: #bf616a"/>
     <use xlink:href="#me946b87a04" x="72.611755" y="28.308339" style="fill: #bf616a"/>
     <use xlink:href="#me946b87a04" x="72.316783" y="28.324883" style="fill: #bf616a"/>
     <use xlink:href="#me946b87a04" x="71.589548" y="28.060489" style="fill: #bf616a"/>
     <use xlink:href="#me946b87a04" x="70.528077" y="26.875616" style="fill: #bf616a"/>
     <use xlink:href="#me946b87a04" x="69.327891" y="27.02481" style="fill: #bf616a"/>
     <use xlink:href="#me946b87a04" x="68.201458" y="27.701044" style="fill: #bf616a"/>
     <use xlink:href="#me946b87a04" x="67.296589" y="27.287596" style="fill: #bf616a"/>
     <use xlink:href="#me946b87a04" x="66.665855" y="26.619457" style="fill: #bf616a"/>
     <use xlink:href="#me946b87a04" x="66.28746" y="25.224299" style="fill: #bf616a"/>
     <use xlink:href="#me946b87a04" x="66.10452" y="25.409068" style="fill: #bf616a"/>
     <use xlink:href="#me946b87a04" x="66.056031" y="25.452006" style="fill: #bf616a"/>
     <use xlink:href="#me946b87a04" x="66.09234" y="27.473262" style="fill: #bf616a"/>
     <use xlink:href="#me946b87a04" x="66.17918" y="25.38563" style="fill: #bf616a"/>
     <use xlink:href="#me946b87a04" x="66.296117" y="24.843449" style="fill: #bf616a"/>
     <use xlink:href="#me946b87a04" x="66.433275" y="25.661044" style="fill: #bf616a"/>
     <use xlink:href="#me946b87a04" x="66.588181" y="25.79484" style="fill: #bf616a"/>
     <use xlink:href="#me946b87a04" x="66.763364" y="23.778242" style="fill: #bf616a"/>
     <use xlink:href="#me946b87a04" x="66.96476" y="24.06231" style="fill: #bf616a"/>
     <use xlink:href="#me946b87a04" x="67.200756" y="23.999761" style="fill: #bf616a"/>
     <use xlink:href="#me946b87a04" x="67.481683" y="25.760224" style="fill: #bf616a"/>
     <use xlink:href="#me946b87a04" x="67.819464" y="27.207859" style="fill: #bf616a"/>
     <use xlink:href="#me946b87a04" x="68.227154" y="29.292691" style="fill: #bf616a"/>
     <use xlink:href="#me946b87a04" x="68.717915" y="27.077191" style="fill: #bf616a"/>
     <use xlink:href="#me946b87a04" x="69.302813" y="29.995551" style="fill: #bf616a"/>
     <use xlink:href="#me946b87a04" x="69.986477" y="29.384517" style="fill: #bf616a"/>
     <use xlink:href="#me946b87a04" x="70.759378" y="29.752207" style="fill: #bf616a"/>
     <use xlink:href="#me946b87a04" x="71.585747" y="32.141721" style="fill: #bf616a"/>
     <use xlink:href="#me946b87a04" x="72.388047" y="31.694094" style="fill: #bf616a"/>
     <use xlink:href="#me946b87a04" x="73.034454" y="30.456643" style="fill: #bf616a"/>
     <use xlink:href="#me946b87a04" x="73.345348" y="31.28949" style="fill: #bf616a"/>
     <use xlink:href="#me946b87a04" x="73.140946" y="30.461479" style="fill: #bf616a"/>
     <use xlink:href="#me946b87a04" x="72.334251" y="31.247778" style="fill: #bf616a"/>
     <use xlink:href="#me946b87a04" x="71.019573" y="30.926505" style="fill: #bf616a"/>
     <use xlink:href="#me946b87a04" x="69.467534" y="29.928848" style="fill: #bf616a"/>
     <use xlink:href="#me946b87a04" x="68.000144" y="32.064999" style="fill: #bf616a"/>
     <use xlink:href="#me946b87a04" x="66.842724" y="29.559362" style="fill: #bf616a"/>
     <use xlink:href="#me946b87a04" x="66.065726" y="28.941009" style="fill: #bf616a"/>
     <use xlink:href="#me946b87a04" x="65.623562" y="28.893106" style="fill: #bf616a"/>
     <use xlink:href="#me946b87a04" x="65.42356" y="27.799438" style="fill: #bf616a"/>
     <use xlink:href="#me946b87a04" x="65.374754" y="27.69205" style="fill: #bf616a"/>
     <use xlink:href="#me946b87a04" x="65.40791" y="28.112886" style="fill: #bf616a"/>
     <use xlink:href="#me946b87a04" x="65.477651" y="28.021235" style="fill: #bf616a"/>
     <use xlink:href="#me946b87a04" x="65.557604" y="28.708381" style="fill: #bf616a"/>
     <use xlink:href="#me946b87a04" x="65.634423" y="26.166275" style="fill: #bf616a"/>
     <use xlink:href="#me946b87a04" x="65.702852" y="26.983725" style="fill: #bf616a"/>
     <use xlink:href="#me946b87a04" x="65.762247" y="27.117005" style="fill: #bf616a"/>
     <use xlink:href="#me946b87a04" x="65.814349" y="27.058412" style="fill: #bf616a"/>
     <use xlink:href="#me946b87a04" x="65.861984" y="25.22264" style="fill: #bf616a"/>
     <use xlink:href="#me946b87a04" x="65.908398" y="24.46454" style="fill: #bf616a"/>
     <use xlink:href="#me946b87a04" x="65.956986" y="23.095832" style="fill: #bf616a"/>
     <use xlink:href="#me946b87a04" x="66.011273" y="22.527568" style="fill: #bf616a"/>
     <use xlink:href="#me946b87a04" x="66.075037" y="21.028229" style="fill: #bf616a"/>
     <use xlink:href="#me946b87a04" x="66.152533" y="21.775358" style="fill: #bf616a"/>
     <use xlink:href="#me946b87a04" x="66.248785" y="20.015788" style="fill: #bf616a"/>
     <use xlink:href="#me946b87a04" x="66.36994" y="18.645279" style="fill: #bf616a"/>
     <use xlink:href="#me946b87a04" x="66.5237" y="19.578089" style="fill: #bf616a"/>
     <use xlink:href="#me946b87a04" x="66.719834" y="19.83083" style="fill: #bf616a"/>
     <use xlink:href="#me946b87a04" x="66.970772" y="21.627335" style="fill: #bf616a"/>
     <use xlink:href="#me946b87a04" x="67.292242" y="23.471128" style="fill: #bf616a"/>
     <use xlink:href="#me946b87a04" x="67.703842" y="23.459555" style="fill: #bf616a"/>
     <use xlink:href="#me946b87a04" x="68.229239" y="25.422827" style="fill: #bf616a"/>
     <use xlink:href="#me946b87a04" x="68.89531" y="28.973337" style="fill: #bf616a"/>
     <use xlink:href="#me946b87a04" x="69.728776" y="25.731774" style="fill: #bf616a"/>
     <use xlink:href="#me946b87a04" x="70.74754" y="27.224396" style="fill: #bf616a"/>
     <use xlink:href="#me946b87a04" x="71.94208" y="29.176247" style="fill: #bf616a"/>
     <use xlink:href="#me946b87a04" x="73.241356" y="30.780337" style="fill: #bf616a"/>
     <use xlink:href="#me946b87a04" x="74.463421" y="29.228127" style="fill: #bf616a"/>
     <use xlink:href="#me946b87a04" x="75.275669" y="30.027617" style="fill: #bf616a"/>
     <use xlink:href="#me946b87a04" x="75.239043" y="30.654427" style="fill: #bf616a"/>
     <use xlink:href="#me946b87a04" x="74.027376" y="30.941921" style="fill: #bf616a"/>
     <use xlink:href="#me946b87a04" x="71.751902" y="29.635606" style="fill: #bf616a"/>
     <use xlink:href="#me946b87a04" x="69.038635" y="30.073085" style="fill: #bf616a"/>
     <use xlink:href="#me946b87a04" x="66.64153" y="29.059269" style="fill: #bf616a"/>
     <use xlink:href="#me946b87a04" x="64.978728" y="28.774998" style="fill: #bf616a"/>
     <use xlink:href="#me946b87a04" x="64.049829" y="29.17494" style="fill: #bf616a"/>
     <use xlink:href="#me946b87a04" x="63.64355" y="29.434459" style="fill: #bf616a"/>
     <use xlink:href="#me946b87a04" x="63.533103" y="29.176555" style="fill: #bf616a"/>
     <use xlink:href="#me946b87a04" x="63.553795" y="27.952729" style="fill: #bf616a"/>
     <use xlink:href="#me946b87a04" x="63.606007" y="26.829056" style="fill: #bf616a"/>
     <use xlink:href="#me946b87a04" x="63.635896" y="28.505422" style="fill: #bf616a"/>
     <use xlink:href="#me946b87a04" x="63.616906" y="27.888138" style="fill: #bf616a"/>
     <use xlink:href="#me946b87a04" x="63.537163" y="27.239559" style="fill: #bf616a"/>
     <use xlink:href="#me946b87a04" x="63.39194" y="27.126592" style="fill: #bf616a"/>
     <use xlink:href="#me946b87a04" x="63.179597" y="26.302296" style="fill: #bf616a"/>
     <use xlink:href="#me946b87a04" x="62.899828" y="25.270285" style="fill: #bf616a"/>
     <use xlink:href="#me946b87a04" x="62.553557" y="23.597223" style="fill: #bf616a"/>
     <use xlink:href="#me946b87a04" x="62.144209" y="22.79871" style="fill: #bf616a"/>
     <use xlink:href="#me946b87a04" x="61.680298" y="21.942592" style="fill: #bf616a"/>
     <use xlink:href="#me946b87a04" x="61.179245" y="20.690498" style="fill: #bf616a"/>
     <use xlink:href="#me946b87a04" x="60.672034" y="19.24744" style="fill: #bf616a"/>
     <use xlink:href="#me946b87a04" x="60.207289" y="18.944766" style="fill: #bf616a"/>
     <use xlink:href="#me946b87a04" x="59.851853" y="18.817982" style="fill: #bf616a"/>
     <use xlink:href="#me946b87a04" x="59.683423" y="18.096402" style="fill: #bf616a"/>
     <use xlink:href="#me946b87a04" x="59.771644" y="16.935378" style="fill: #bf616a"/>
     <use xlink:href="#me946b87a04" x="60.149947" y="16.534876" style="fill: #bf616a"/>
     <use xlink:href="#me946b87a04" x="60.790801" y="17.763971" style="fill: #bf616a"/>
     <use xlink:href="#me946b87a04" x="61.602864" y="17.251412" style="fill: #bf616a"/>
     <use xlink:href="#me946b87a04" x="62.458449" y="17.344535" style="fill: #bf616a"/>
     <use xlink:href="#me946b87a04" x="63.237448" y="17.853833" style="fill: #bf616a"/>
     <use xlink:href="#me946b87a04" x="63.861542" y="17.637505" style="fill: #bf616a"/>
     <use xlink:href="#me946b87a04" x="64.303136" y="17.918803" style="fill: #bf616a"/>
     <use xlink:href="#me946b87a04" x="64.573316" y="16.990172" style="fill: #bf616a"/>
     <use xlink:href="#me946b87a04" x="64.702685" y="18.357852" style="fill: #bf616a"/>
     <use xlink:href="#me946b87a04" x="64.725664" y="17.957222" style="fill: #bf616a"/>
     <use xlink:href="#me946b87a04" x="64.671583" y="20.591995" style="fill: #bf616a"/>
     <use xlink:href="#me946b87a04" x="64.561403" y="20.187225" style="fill: #bf616a"/>
     <use xlink:href="#me946b87a04" x="64.407711" y="21.039829" style="fill: #bf616a"/>
     <use xlink:href="#me946b87a04" x="64.216105" y="21.472603" style="fill: #bf616a"/>
     <use xlink:href="#me946b87a04" x="63.986912" y="22.148972" style="fill: #bf616a"/>
     <use xlink:href="#me946b87a04" x="63.716794" y="20.978514" style="fill: #bf616a"/>
     <use xlink:href="#me946b87a04" x="63.400181" y="21.936206" style="fill: #bf616a"/>
     <use xlink:href="#me946b87a04" x="63.030692" y="19.826453" style="fill: #bf616a"/>
     <use xlink:href="#me946b87a04" x="62.602848" y="18.952299" style="fill: #bf616a"/>
     <use xlink:href="#me946b87a04" x="62.1145" y="19.22731" style="fill: #bf616a"/>
     <use xlink:href="#me946b87a04" x="61.570408" y="20.082134" style="fill: #bf616a"/>
     <use xlink:href="#me946b87a04" x="60.987323" y="17.044014" style="fill: #bf616a"/>
     <use xlink:href="#me946b87a04" x="60.400274" y="17.237767" style="fill: #bf616a"/>
     <use xlink:href="#me946b87a04" x="59.868338" y="16.159402" style="fill: #bf616a"/>
     <use xlink:href="#me946b87a04" x="59.47563" y="14.737816" style="fill: #bf616a"/>
     <use xlink:href="#me946b87a04" x="59.320734" y="16.406731" style="fill: #bf616a"/>
     <use xlink:href="#me946b87a04" x="59.489044" y="14.874423" style="fill: #bf616a"/>
     <use xlink:href="#me946b87a04" x="60.012399" y="13.696308" style="fill: #bf616a"/>
     <use xlink:href="#me946b87a04" x="60.837231" y="14.964985" style="fill: #bf616a"/>
     <use xlink:href="#me946b87a04" x="61.829221" y="13.62114" style="fill: #bf616a"/>
     <use xlink:href="#me946b87a04" x="62.821075" y="14.743683" style="fill: #bf616a"/>
     <use xlink:href="#me946b87a04" x="63.674353" y="14.718708" style="fill: #bf616a"/>
     <use xlink:href="#me946b87a04" x="64.316295" y="16.546321" style="fill: #bf616a"/>
     <use xlink:href="#me946b87a04" x="64.738449" y="15.134037" style="fill: #bf616a"/>
     <use xlink:href="#me946b87a04" x="64.97247" y="17.547445" style="fill: #bf616a"/>
     <use xlink:href="#me946b87a04" x="65.06415" y="17.555079" style="fill: #bf616a"/>
     <use xlink:href="#me946b87a04" x="65.056463" y="19.597148" style="fill: #bf616a"/>
     <use xlink:href="#me946b87a04" x="64.98219" y="17.81316" style="fill: #bf616a"/>
     <use xlink:href="#me946b87a04" x="64.862698" y="20.508514" style="fill: #bf616a"/>
     <use xlink:href="#me946b87a04" x="64.709502" y="19.941958" style="fill: #bf616a"/>
     <use xlink:href="#me946b87a04" x="64.526585" y="22.589155" style="fill: #bf616a"/>
     <use xlink:href="#me946b87a04" x="64.312512" y="22.108229" style="fill: #bf616a"/>
     <use xlink:href="#me946b87a04" x="64.062085" y="20.701973" style="fill: #bf616a"/>
     <use xlink:href="#me946b87a04" x="63.767568" y="21.419804" style="fill: #bf616a"/>
     <use xlink:href="#me946b87a04" x="63.419697" y="22.821211" style="fill: #bf616a"/>
     <use xlink:href="#me946b87a04" x="63.008805" y="19.984449" style="fill: #bf616a"/>
     <use xlink:href="#me946b87a04" x="62.5265" y="18.379054" style="fill: #bf616a"/>
     <use xlink:href="#me946b87a04" x="61.968476" y="19.620361" style="fill: #bf616a"/>
     <use xlink:href="#me946b87a04" x="61.33917" y="17.863083" style="fill: #bf616a"/>
     <use xlink:href="#me946b87a04" x="60.658858" y="16.549951" style="fill: #bf616a"/>
     <use xlink:href="#me946b87a04" x="59.972965" y="16.801233" style="fill: #bf616a"/>
     <use xlink:href="#me946b87a04" x="59.361" y="16.027556" style="fill: #bf616a"/>
     <use xlink:href="#me946b87a04" x="58.938097" y="14.057515" style="fill: #bf616a"/>
     <use xlink:href="#me946b87a04" x="58.837617" y="16.230967" style="fill: #bf616a"/>
     <use xlink:href="#me946b87a04" x="59.165983" y="14.490596" style="fill: #bf616a"/>
     <use xlink:href="#me946b87a04" x="59.940537" y="13.551748" style="fill: #bf616a"/>
     <use xlink:href="#me946b87a04" x="61.051142" y="14.378848" style="fill: #bf616a"/>
     <use xlink:href="#me946b87a04" x="62.288821" y="14.328955" style="fill: #bf616a"/>
     <use xlink:href="#me946b87a04" x="63.433841" y="14.931589" style="fill: #bf616a"/>
     <use xlink:href="#me946b87a04" x="64.339843" y="15.071732" style="fill: #bf616a"/>
     <use xlink:href="#me946b87a04" x="64.960941" y="15.689103" style="fill: #bf616a"/>
     <use xlink:href="#me946b87a04" x="65.325966" y="16.318536" style="fill: #bf616a"/>
     <use xlink:href="#me946b87a04" x="65.496563" y="14.939999" style="fill: #bf616a"/>
     <use xlink:href="#me946b87a04" x="65.536001" y="17.466858" style="fill: #bf616a"/>
     <use xlink:href="#me946b87a04" x="65.494531" y="18.010724" style="fill: #bf616a"/>
     <use xlink:href="#me946b87a04" x="65.406202" y="18.298521" style="fill: #bf616a"/>
     <use xlink:href="#me946b87a04" x="65.290979" y="17.93619" style="fill: #bf616a"/>
     <use xlink:href="#me946b87a04" x="65.158304" y="18.43367" style="fill: #bf616a"/>
     <use xlink:href="#me946b87a04" x="65.010362" y="19.859938" style="fill: #bf616a"/>
     <use xlink:href="#me946b87a04" x="64.844506" y="21.003843" style="fill: #bf616a"/>
     <use xlink:href="#me946b87a04" x="64.654832" y="20.908478" style="fill: #bf616a"/>
     <use xlink:href="#me946b87a04" x="64.433078" y="22.711118" style="fill: #bf616a"/>
     <use xlink:href="#me946b87a04" x="64.169067" y="23.017646" style="fill: #bf616a"/>
     <use xlink:href="#me946b87a04" x="63.850929" y="24.124712" style="fill: #bf616a"/>
     <use xlink:href="#me946b87a04" x="63.465381" y="21.165968" style="fill: #bf616a"/>
     <use xlink:href="#me946b87a04" x="62.998414" y="21.797724" style="fill: #bf616a"/>
     <use xlink:href="#me946b87a04" x="62.436967" y="20.46166" style="fill: #bf616a"/>
     <use xlink:href="#me946b87a04" x="61.772454" y="19.38201" style="fill: #bf616a"/>
     <use xlink:href="#me946b87a04" x="61.007428" y="16.480077" style="fill: #bf616a"/>
     <use xlink:href="#me946b87a04" x="60.166717" y="15.634407" style="fill: #bf616a"/>
     <use xlink:href="#me946b87a04" x="59.3133" y="15.914275" style="fill: #bf616a"/>
     <use xlink:href="#me946b87a04" x="58.564813" y="14.044214" style="fill: #bf616a"/>
     <use xlink:href="#me946b87a04" x="58.09727" y="14.278724" style="fill: #bf616a"/>
     <use xlink:href="#me946b87a04" x="58.112101" y="14.31267" style="fill: #bf616a"/>
     <use xlink:href="#me946b87a04" x="58.749476" y="14.385159" style="fill: #bf616a"/>
     <use xlink:href="#me946b87a04" x="59.979091" y="12.636608" style="fill: #bf616a"/>
    </g>
   </g>
   <g id="patch_5">
    <path d="M 55.869751 33.271011 
L 55.869751 10.625856 
" style="fill: none; stroke: #2e3440; stroke-width: 0.5; stroke-linejoin: miter; stroke-linecap: square"/>
   </g>
   <g id="patch_6">
    <path d="M 55.869751 33.271011 
L 76.19976 33.271011 
" style="fill: none; stroke: #2e3440; stroke-width: 0.5; stroke-linejoin: miter; stroke-linecap: square"/>
   </g>
  </g>
 </g>
 <defs>
  <clipPath id="p96180e936e">
   <rect x="3.00024" y="10.625856" width="40.660017" height="22.645155"/>
  </clipPath>
  <clipPath id="p04bcdfc4df">
   <rect x="55.869751" y="10.625856" width="20.330009" height="22.645155"/>
  </clipPath>
 </defs>
</svg>
