<?xml version="1.0" encoding="utf-8" standalone="no"?>
<!DOCTYPE svg PUBLIC "-//W3C//DTD SVG 1.1//EN"
  "http://www.w3.org/Graphics/SVG/1.1/DTD/svg11.dtd">
<svg xmlns:xlink="http://www.w3.org/1999/xlink" width="79.2pt" height="43.2pt" viewBox="0 0 79.2 43.2" xmlns="http://www.w3.org/2000/svg" version="1.1">
 <metadata>
  <rdf:RDF xmlns:dc="http://purl.org/dc/elements/1.1/" xmlns:cc="http://creativecommons.org/ns#" xmlns:rdf="http://www.w3.org/1999/02/22-rdf-syntax-ns#">
   <cc:Work>
    <dc:type rdf:resource="http://purl.org/dc/dcmitype/StillImage"/>
    <dc:date>2024-04-24T10:45:33.579286</dc:date>
    <dc:format>image/svg+xml</dc:format>
    <dc:creator>
     <cc:Agent>
      <dc:title>Matplotlib v3.8.0, https://matplotlib.org/</dc:title>
     </cc:Agent>
    </dc:creator>
   </cc:Work>
  </rdf:RDF>
 </metadata>
 <defs>
  <style type="text/css">*{stroke-linejoin: round; stroke-linecap: butt}</style>
 </defs>
 <g id="figure_1">
  <g id="patch_1">
   <path d="M 0 43.2 
L 79.2 43.2 
L 79.2 0 
L 0 0 
z
" style="fill: #ffffff"/>
  </g>
  <g id="axes_1">
   <g id="patch_2">
    <path d="M 3.00024 33.271011 
L 43.660257 33.271011 
L 43.660257 10.625856 
L 3.00024 10.625856 
z
" style="fill: #eceff4"/>
   </g>
   <g id="matplotlib.axis_1"/>
   <g id="matplotlib.axis_2"/>
   <g id="line2d_1">
    <path d="M 3.113184 18.90438 
L 3.452018 28.989857 
L 3.564962 25.556321 
L 3.790851 27.387959 
L 3.903796 27.080212 
L 4.01674 28.450627 
L 4.129685 25.355817 
L 4.242629 26.801933 
L 4.355574 24.79127 
L 4.468518 28.437728 
L 4.694407 23.458218 
L 4.807352 23.571694 
L 4.920296 32.241686 
L 5.25913 24.350077 
L 5.485019 26.993094 
L 5.597963 27.695009 
L 5.823852 26.737088 
L 5.936797 25.986004 
L 6.049741 27.401665 
L 6.162686 24.328694 
L 6.27563 25.238995 
L 6.388575 22.944739 
L 6.501519 26.452773 
L 6.614464 24.178692 
L 6.727408 25.893494 
L 6.840353 24.884642 
L 6.953297 28.148562 
L 7.066242 23.201746 
L 7.179186 27.981943 
L 7.292131 21.683986 
L 7.405075 28.816481 
L 7.51802 26.932221 
L 7.630964 27.442404 
L 7.856853 24.184256 
L 7.969798 25.506925 
L 8.082742 24.8499 
L 8.195687 26.93234 
L 8.421576 25.71183 
L 8.760409 22.0144 
L 8.873354 22.772215 
L 9.099243 13.807149 
L 9.212187 17.499167 
L 9.438076 17.064375 
L 9.551021 16.151166 
L 9.663965 18.189717 
L 9.77691 23.126261 
L 10.002799 18.085294 
L 10.115743 17.914573 
L 10.341632 23.506376 
L 10.567521 26.445585 
L 10.680465 23.98312 
L 10.79341 26.444127 
L 10.906354 26.388773 
L 11.019299 24.74062 
L 11.132243 25.842925 
L 11.245188 24.48324 
L 11.358132 26.938382 
L 11.471077 26.842644 
L 11.584021 22.730036 
L 11.696966 27.414396 
L 11.80991 24.377266 
L 11.922855 25.157059 
L 12.148744 20.310708 
L 12.261688 21.109124 
L 12.487577 11.655181 
L 12.600522 18.13557 
L 12.713466 14.055306 
L 12.939355 17.889732 
L 13.0523 16.179689 
L 13.278189 17.380318 
L 13.504078 26.273485 
L 13.617022 20.599533 
L 13.729967 22.417801 
L 13.955856 28.5702 
L 14.0688 27.492144 
L 14.181745 27.603375 
L 14.407634 24.566478 
L 14.633523 30.615976 
L 14.859412 25.093505 
L 14.972356 26.117179 
L 15.198245 25.693411 
L 15.31119 26.415319 
L 15.424134 28.79365 
L 15.537079 24.047062 
L 15.650023 28.736646 
L 15.875912 23.067971 
L 15.988857 27.924486 
L 16.101801 23.962458 
L 16.214746 24.148043 
L 16.32769 22.489578 
L 16.553579 24.829074 
L 16.666524 24.533939 
L 16.779468 17.669357 
L 16.892413 27.960673 
L 17.118302 24.031518 
L 17.231246 25.149796 
L 17.34419 28.394995 
L 17.457135 22.17629 
L 17.683024 27.182407 
L 17.795968 30.124426 
L 17.908913 26.105994 
L 18.021857 29.270122 
L 18.134802 28.194812 
L 18.247746 24.813549 
L 18.360691 28.398855 
L 18.473635 28.245029 
L 18.699524 23.437806 
L 18.925413 25.371876 
L 19.038358 28.680494 
L 19.151302 25.705168 
L 19.264247 25.789104 
L 19.490136 26.794726 
L 19.716025 22.802166 
L 19.828969 26.382396 
L 19.941914 16.261778 
L 20.167803 21.77747 
L 20.280747 23.548575 
L 20.506636 22.565834 
L 20.619581 28.826285 
L 20.732525 28.196211 
L 20.84547 23.41668 
L 20.958414 24.570963 
L 21.071359 28.773206 
L 21.184303 25.51206 
L 21.410192 27.736789 
L 21.523137 28.379802 
L 21.636081 30.849331 
L 21.749026 26.402054 
L 21.86197 28.665686 
L 21.974915 26.901645 
L 22.087859 27.750114 
L 22.200804 27.262876 
L 22.313748 24.440668 
L 22.426693 26.878786 
L 22.539637 26.830258 
L 22.765526 17.845706 
L 22.878471 21.158916 
L 22.991415 18.35583 
L 23.217304 26.109327 
L 23.330249 25.723261 
L 23.443193 28.063 
L 23.669082 22.051452 
L 23.782027 29.564063 
L 23.894971 26.460043 
L 24.007916 28.080964 
L 24.12086 26.045459 
L 24.233805 27.836666 
L 24.346749 26.299678 
L 24.459693 27.198714 
L 24.572638 22.195407 
L 24.798527 28.306944 
L 24.911471 24.412928 
L 25.024416 26.856419 
L 25.13736 22.447861 
L 25.250305 26.577524 
L 25.363249 22.748273 
L 25.476194 23.005056 
L 25.589138 17.967246 
L 25.702083 24.719357 
L 25.815027 21.332689 
L 26.153861 28.531803 
L 26.266805 22.623576 
L 26.492694 26.131015 
L 26.605639 24.735904 
L 26.718583 26.220257 
L 26.831528 25.841998 
L 26.944472 28.284804 
L 27.057417 27.678577 
L 27.283306 23.569835 
L 27.39625 25.975333 
L 27.622139 23.520463 
L 27.735084 26.676315 
L 27.848028 22.254833 
L 27.960973 27.443121 
L 28.073917 27.015065 
L 28.186862 26.012477 
L 28.299806 19.476927 
L 28.525695 27.108851 
L 28.63864 25.994327 
L 28.751584 22.076582 
L 28.864529 25.121494 
L 28.977473 24.518278 
L 29.090418 26.491078 
L 29.203362 16.691439 
L 29.316307 25.031222 
L 29.429251 21.408315 
L 29.542196 25.571919 
L 29.768085 22.910225 
L 29.881029 26.567907 
L 30.106918 17.740918 
L 30.219863 24.708745 
L 30.445752 18.787342 
L 30.558696 19.14806 
L 30.671641 27.724885 
L 30.784585 27.736822 
L 30.89753 20.631421 
L 31.123419 27.470938 
L 31.349308 22.281578 
L 31.688141 29.098651 
L 31.91403 26.276198 
L 32.252863 22.121335 
L 32.365808 28.42308 
L 32.478752 26.06759 
L 32.591697 27.177772 
L 32.704641 24.634407 
L 32.817586 26.727723 
L 32.93053 26.208707 
L 33.043475 28.978612 
L 33.156419 23.709151 
L 33.269364 25.595059 
L 33.495253 22.331215 
L 33.608197 18.616858 
L 33.834086 24.548355 
L 33.947031 23.804299 
L 34.059975 25.528977 
L 34.17292 20.963482 
L 34.285864 22.666031 
L 34.398809 21.464557 
L 34.624698 24.647994 
L 34.737642 17.739718 
L 34.850587 25.448216 
L 35.076476 23.629959 
L 35.302365 23.458702 
L 35.415309 27.010928 
L 35.641198 23.203239 
L 35.754143 24.212917 
L 35.867087 21.118857 
L 35.980032 24.884659 
L 36.205921 19.093165 
L 36.318865 18.110458 
L 36.657699 18.894063 
L 36.770643 20.061452 
L 36.883588 16.751962 
L 36.996532 22.529596 
L 37.109477 21.920215 
L 37.335366 19.162663 
L 37.561255 25.126473 
L 37.674199 22.207004 
L 37.787144 27.649197 
L 38.125977 26.121438 
L 38.351866 21.456294 
L 38.577755 26.923194 
L 38.690699 22.757571 
L 38.803644 26.117937 
L 39.029533 22.780842 
L 39.255422 17.912672 
L 39.368366 23.866389 
L 39.481311 19.447059 
L 39.594255 19.558265 
L 39.7072 17.812247 
L 39.820144 22.724215 
L 39.933089 19.83518 
L 40.046033 22.467259 
L 40.271922 19.790698 
L 40.384867 23.472968 
L 40.497811 21.855871 
L 40.7237 25.364341 
L 40.836645 25.581998 
L 40.949589 24.78246 
L 41.062534 25.86034 
L 41.175478 25.125528 
L 41.288423 27.445555 
L 41.401367 23.101876 
L 41.514312 26.687372 
L 41.627256 22.847436 
L 41.740201 30.022279 
L 41.96609 24.79825 
L 42.079034 28.960989 
L 42.304923 21.886186 
L 42.530812 21.995986 
L 42.643757 25.261263 
L 42.756701 23.267072 
L 42.869646 18.094907 
L 42.98259 18.278371 
L 43.095535 19.297112 
L 43.208479 19.066314 
L 43.434368 20.519956 
L 43.547313 24.98377 
L 43.660257 24.01532 
L 43.660257 24.01532 
" clip-path="url(#p03a2f6ba07)" style="fill: none; stroke: #ebcb8b; stroke-width: 0.5; stroke-linecap: round"/>
   </g>
   <g id="patch_3">
    <path d="M 3.00024 33.271011 
L 43.660257 33.271011 
" style="fill: none; stroke: #2e3440; stroke-width: 0.5; stroke-linejoin: miter; stroke-linecap: square"/>
   </g>
   <g id="text_1">
    <!-- $I(u;x)=0.14$ -->
    <g style="fill: #2e3440" transform="translate(5.725293 6.096825)">
     <text>
      <tspan style="font: oblique 5.59776px 'DejaVu Sans'" x="0 3.832047 10.351715" y="-0.75">Iux</tspan>
      <tspan style="font: 5.59776px 'DejaVu Sans'" x="1.649719 7.377304 13.662079 16.934204 22.710953 26.269867 28.047958 31.606873" y="-0.75">(;)=0.14</tspan>
     </text>
    </g>
   </g>
  </g>
  <g id="axes_2">
   <g id="patch_4">
    <path d="M 55.869751 33.271011 
L 76.19976 33.271011 
L 76.19976 10.625856 
L 55.869751 10.625856 
z
" style="fill: #eceff4"/>
   </g>
   <g id="matplotlib.axis_3">
    <g id="text_2">
     <text style="fill: #2e3440; font: 5.59776px 'Arial'; text-anchor: middle" x="66.034756" y="39.542299" transform="rotate(-0 66.034756 39.542299)">Input</text>
    </g>
   </g>
   <g id="matplotlib.axis_4">
    <g id="text_3">
     <text style="fill: #2e3440; font: 5.59776px 'Arial'; text-anchor: middle" x="53.740696" y="21.948434" transform="rotate(-90 53.740696 21.948434)">Output</text>
    </g>
   </g>
   <g id="PathCollection_1">
    <defs>
     <path id="m6813e1aa92" d="M 0 0.316228 
C 0.083865 0.316228 0.164306 0.282908 0.223607 0.223607 
C 0.282908 0.164306 0.316228 0.083865 0.316228 0 
C 0.316228 -0.083865 0.282908 -0.164306 0.223607 -0.223607 
C 0.164306 -0.282908 0.083865 -0.316228 0 -0.316228 
C -0.083865 -0.316228 -0.164306 -0.282908 -0.223607 -0.223607 
C -0.282908 -0.164306 -0.316228 -0.083865 -0.316228 0 
C -0.316228 0.083865 -0.282908 0.164306 -0.223607 0.223607 
C -0.164306 0.282908 -0.083865 0.316228 0 0.316228 
z
"/>
    </defs>
    <g clip-path="url(#p42423af0f0)">
     <use xlink:href="#m6813e1aa92" x="71.581121" y="18.90438" style="fill: #ebcb8b"/>
     <use xlink:href="#m6813e1aa92" x="73.098286" y="21.637762" style="fill: #ebcb8b"/>
     <use xlink:href="#m6813e1aa92" x="74.278379" y="25.04576" style="fill: #ebcb8b"/>
     <use xlink:href="#m6813e1aa92" x="74.83192" y="28.989857" style="fill: #ebcb8b"/>
     <use xlink:href="#m6813e1aa92" x="74.427458" y="25.556321" style="fill: #ebcb8b"/>
     <use xlink:href="#m6813e1aa92" x="72.939664" y="26.329138" style="fill: #ebcb8b"/>
     <use xlink:href="#m6813e1aa92" x="70.671396" y="27.387959" style="fill: #ebcb8b"/>
     <use xlink:href="#m6813e1aa92" x="68.260295" y="27.080212" style="fill: #ebcb8b"/>
     <use xlink:href="#m6813e1aa92" x="66.28659" y="28.450627" style="fill: #ebcb8b"/>
     <use xlink:href="#m6813e1aa92" x="64.986553" y="25.355817" style="fill: #ebcb8b"/>
     <use xlink:href="#m6813e1aa92" x="64.288811" y="26.801933" style="fill: #ebcb8b"/>
     <use xlink:href="#m6813e1aa92" x="63.999233" y="24.79127" style="fill: #ebcb8b"/>
     <use xlink:href="#m6813e1aa92" x="63.934035" y="28.437728" style="fill: #ebcb8b"/>
     <use xlink:href="#m6813e1aa92" x="63.964101" y="26.522411" style="fill: #ebcb8b"/>
     <use xlink:href="#m6813e1aa92" x="64.011658" y="23.458218" style="fill: #ebcb8b"/>
     <use xlink:href="#m6813e1aa92" x="64.034338" y="23.571694" style="fill: #ebcb8b"/>
     <use xlink:href="#m6813e1aa92" x="64.010827" y="32.241686" style="fill: #ebcb8b"/>
     <use xlink:href="#m6813e1aa92" x="63.930982" y="28.512039" style="fill: #ebcb8b"/>
     <use xlink:href="#m6813e1aa92" x="63.789753" y="26.122425" style="fill: #ebcb8b"/>
     <use xlink:href="#m6813e1aa92" x="63.583757" y="24.350077" style="fill: #ebcb8b"/>
     <use xlink:href="#m6813e1aa92" x="63.309655" y="26.141907" style="fill: #ebcb8b"/>
     <use xlink:href="#m6813e1aa92" x="62.96386" y="26.993094" style="fill: #ebcb8b"/>
     <use xlink:href="#m6813e1aa92" x="62.543426" y="27.695009" style="fill: #ebcb8b"/>
     <use xlink:href="#m6813e1aa92" x="62.048264" y="27.308108" style="fill: #ebcb8b"/>
     <use xlink:href="#m6813e1aa92" x="61.485006" y="26.737088" style="fill: #ebcb8b"/>
     <use xlink:href="#m6813e1aa92" x="60.872808" y="25.986004" style="fill: #ebcb8b"/>
     <use xlink:href="#m6813e1aa92" x="60.250823" y="27.401665" style="fill: #ebcb8b"/>
     <use xlink:href="#m6813e1aa92" x="59.685341" y="24.328694" style="fill: #ebcb8b"/>
     <use xlink:href="#m6813e1aa92" x="59.271539" y="25.238995" style="fill: #ebcb8b"/>
     <use xlink:href="#m6813e1aa92" x="59.12146" y="22.944739" style="fill: #ebcb8b"/>
     <use xlink:href="#m6813e1aa92" x="59.331197" y="26.452773" style="fill: #ebcb8b"/>
     <use xlink:href="#m6813e1aa92" x="59.932782" y="24.178692" style="fill: #ebcb8b"/>
     <use xlink:href="#m6813e1aa92" x="60.857737" y="25.893494" style="fill: #ebcb8b"/>
     <use xlink:href="#m6813e1aa92" x="61.946735" y="24.884642" style="fill: #ebcb8b"/>
     <use xlink:href="#m6813e1aa92" x="63.010318" y="28.148562" style="fill: #ebcb8b"/>
     <use xlink:href="#m6813e1aa92" x="63.901153" y="23.201746" style="fill: #ebcb8b"/>
     <use xlink:href="#m6813e1aa92" x="64.551164" y="27.981943" style="fill: #ebcb8b"/>
     <use xlink:href="#m6813e1aa92" x="64.963245" y="21.683986" style="fill: #ebcb8b"/>
     <use xlink:href="#m6813e1aa92" x="65.180152" y="28.816481" style="fill: #ebcb8b"/>
     <use xlink:href="#m6813e1aa92" x="65.255326" y="26.932221" style="fill: #ebcb8b"/>
     <use xlink:href="#m6813e1aa92" x="65.235776" y="27.442404" style="fill: #ebcb8b"/>
     <use xlink:href="#m6813e1aa92" x="65.1558" y="24.575132" style="fill: #ebcb8b"/>
     <use xlink:href="#m6813e1aa92" x="65.036912" y="24.184256" style="fill: #ebcb8b"/>
     <use xlink:href="#m6813e1aa92" x="64.890205" y="25.506925" style="fill: #ebcb8b"/>
     <use xlink:href="#m6813e1aa92" x="64.719107" y="24.8499" style="fill: #ebcb8b"/>
     <use xlink:href="#m6813e1aa92" x="64.521674" y="26.93234" style="fill: #ebcb8b"/>
     <use xlink:href="#m6813e1aa92" x="64.292253" y="26.177832" style="fill: #ebcb8b"/>
     <use xlink:href="#m6813e1aa92" x="64.022579" y="25.71183" style="fill: #ebcb8b"/>
     <use xlink:href="#m6813e1aa92" x="63.702548" y="23.912194" style="fill: #ebcb8b"/>
     <use xlink:href="#m6813e1aa92" x="63.320953" y="23.410763" style="fill: #ebcb8b"/>
     <use xlink:href="#m6813e1aa92" x="62.86656" y="22.0144" style="fill: #ebcb8b"/>
     <use xlink:href="#m6813e1aa92" x="62.330092" y="22.772215" style="fill: #ebcb8b"/>
     <use xlink:href="#m6813e1aa92" x="61.707843" y="18.978387" style="fill: #ebcb8b"/>
     <use xlink:href="#m6813e1aa92" x="61.007854" y="13.807149" style="fill: #ebcb8b"/>
     <use xlink:href="#m6813e1aa92" x="60.259352" y="17.499167" style="fill: #ebcb8b"/>
     <use xlink:href="#m6813e1aa92" x="59.524734" y="17.265504" style="fill: #ebcb8b"/>
     <use xlink:href="#m6813e1aa92" x="58.909598" y="17.064375" style="fill: #ebcb8b"/>
     <use xlink:href="#m6813e1aa92" x="58.559698" y="16.151166" style="fill: #ebcb8b"/>
     <use xlink:href="#m6813e1aa92" x="58.628832" y="18.189717" style="fill: #ebcb8b"/>
     <use xlink:href="#m6813e1aa92" x="59.211356" y="23.126261" style="fill: #ebcb8b"/>
     <use xlink:href="#m6813e1aa92" x="60.267804" y="19.994473" style="fill: #ebcb8b"/>
     <use xlink:href="#m6813e1aa92" x="61.606769" y="18.085294" style="fill: #ebcb8b"/>
     <use xlink:href="#m6813e1aa92" x="62.960384" y="17.914573" style="fill: #ebcb8b"/>
     <use xlink:href="#m6813e1aa92" x="64.104348" y="22.252658" style="fill: #ebcb8b"/>
     <use xlink:href="#m6813e1aa92" x="64.931614" y="23.506376" style="fill: #ebcb8b"/>
     <use xlink:href="#m6813e1aa92" x="65.445832" y="25.235977" style="fill: #ebcb8b"/>
     <use xlink:href="#m6813e1aa92" x="65.711405" y="26.445585" style="fill: #ebcb8b"/>
     <use xlink:href="#m6813e1aa92" x="65.806587" y="23.98312" style="fill: #ebcb8b"/>
     <use xlink:href="#m6813e1aa92" x="65.797914" y="26.444127" style="fill: #ebcb8b"/>
     <use xlink:href="#m6813e1aa92" x="65.732514" y="26.388773" style="fill: #ebcb8b"/>
     <use xlink:href="#m6813e1aa92" x="65.639551" y="24.74062" style="fill: #ebcb8b"/>
     <use xlink:href="#m6813e1aa92" x="65.534599" y="25.842925" style="fill: #ebcb8b"/>
     <use xlink:href="#m6813e1aa92" x="65.423995" y="24.48324" style="fill: #ebcb8b"/>
     <use xlink:href="#m6813e1aa92" x="65.30819" y="26.938382" style="fill: #ebcb8b"/>
     <use xlink:href="#m6813e1aa92" x="65.183998" y="26.842644" style="fill: #ebcb8b"/>
     <use xlink:href="#m6813e1aa92" x="65.045927" y="22.730036" style="fill: #ebcb8b"/>
     <use xlink:href="#m6813e1aa92" x="64.886829" y="27.414396" style="fill: #ebcb8b"/>
     <use xlink:href="#m6813e1aa92" x="64.698089" y="24.377266" style="fill: #ebcb8b"/>
     <use xlink:href="#m6813e1aa92" x="64.469523" y="25.157059" style="fill: #ebcb8b"/>
     <use xlink:href="#m6813e1aa92" x="64.189134" y="22.910167" style="fill: #ebcb8b"/>
     <use xlink:href="#m6813e1aa92" x="63.842882" y="20.310708" style="fill: #ebcb8b"/>
     <use xlink:href="#m6813e1aa92" x="63.414702" y="21.109124" style="fill: #ebcb8b"/>
     <use xlink:href="#m6813e1aa92" x="62.887195" y="17.053679" style="fill: #ebcb8b"/>
     <use xlink:href="#m6813e1aa92" x="62.243721" y="11.655181" style="fill: #ebcb8b"/>
     <use xlink:href="#m6813e1aa92" x="61.473206" y="18.13557" style="fill: #ebcb8b"/>
     <use xlink:href="#m6813e1aa92" x="60.579645" y="14.055306" style="fill: #ebcb8b"/>
     <use xlink:href="#m6813e1aa92" x="59.598539" y="16.223643" style="fill: #ebcb8b"/>
     <use xlink:href="#m6813e1aa92" x="58.620599" y="17.889732" style="fill: #ebcb8b"/>
     <use xlink:href="#m6813e1aa92" x="57.815129" y="16.179689" style="fill: #ebcb8b"/>
     <use xlink:href="#m6813e1aa92" x="57.428615" y="17.079699" style="fill: #ebcb8b"/>
     <use xlink:href="#m6813e1aa92" x="57.718119" y="17.380318" style="fill: #ebcb8b"/>
     <use xlink:href="#m6813e1aa92" x="58.804489" y="23.321751" style="fill: #ebcb8b"/>
     <use xlink:href="#m6813e1aa92" x="60.530528" y="26.273485" style="fill: #ebcb8b"/>
     <use xlink:href="#m6813e1aa92" x="62.485708" y="20.599533" style="fill: #ebcb8b"/>
     <use xlink:href="#m6813e1aa92" x="64.227307" y="22.417801" style="fill: #ebcb8b"/>
     <use xlink:href="#m6813e1aa92" x="65.49988" y="27.045336" style="fill: #ebcb8b"/>
     <use xlink:href="#m6813e1aa92" x="66.27731" y="28.5702" style="fill: #ebcb8b"/>
     <use xlink:href="#m6813e1aa92" x="66.668114" y="27.492144" style="fill: #ebcb8b"/>
     <use xlink:href="#m6813e1aa92" x="66.811236" y="27.603375" style="fill: #ebcb8b"/>
     <use xlink:href="#m6813e1aa92" x="66.82155" y="24.978542" style="fill: #ebcb8b"/>
     <use xlink:href="#m6813e1aa92" x="66.777066" y="24.566478" style="fill: #ebcb8b"/>
     <use xlink:href="#m6813e1aa92" x="66.724694" y="26.829768" style="fill: #ebcb8b"/>
     <use xlink:href="#m6813e1aa92" x="66.690099" y="30.615976" style="fill: #ebcb8b"/>
     <use xlink:href="#m6813e1aa92" x="66.686193" y="27.045021" style="fill: #ebcb8b"/>
     <use xlink:href="#m6813e1aa92" x="66.719159" y="25.093505" style="fill: #ebcb8b"/>
     <use xlink:href="#m6813e1aa92" x="66.792379" y="26.117179" style="fill: #ebcb8b"/>
     <use xlink:href="#m6813e1aa92" x="66.908855" y="25.885643" style="fill: #ebcb8b"/>
     <use xlink:href="#m6813e1aa92" x="67.072652" y="25.693411" style="fill: #ebcb8b"/>
     <use xlink:href="#m6813e1aa92" x="67.289722" y="26.415319" style="fill: #ebcb8b"/>
     <use xlink:href="#m6813e1aa92" x="67.568317" y="28.79365" style="fill: #ebcb8b"/>
     <use xlink:href="#m6813e1aa92" x="67.919042" y="24.047062" style="fill: #ebcb8b"/>
     <use xlink:href="#m6813e1aa92" x="68.354414" y="28.736646" style="fill: #ebcb8b"/>
     <use xlink:href="#m6813e1aa92" x="68.887539" y="25.819317" style="fill: #ebcb8b"/>
     <use xlink:href="#m6813e1aa92" x="69.529166" y="23.067971" style="fill: #ebcb8b"/>
     <use xlink:href="#m6813e1aa92" x="70.281898" y="27.924486" style="fill: #ebcb8b"/>
     <use xlink:href="#m6813e1aa92" x="71.129982" y="23.962458" style="fill: #ebcb8b"/>
     <use xlink:href="#m6813e1aa92" x="72.023572" y="24.148043" style="fill: #ebcb8b"/>
     <use xlink:href="#m6813e1aa92" x="72.859516" y="22.489578" style="fill: #ebcb8b"/>
     <use xlink:href="#m6813e1aa92" x="73.469193" y="23.761637" style="fill: #ebcb8b"/>
     <use xlink:href="#m6813e1aa92" x="73.637001" y="24.829074" style="fill: #ebcb8b"/>
     <use xlink:href="#m6813e1aa92" x="73.176158" y="24.533939" style="fill: #ebcb8b"/>
     <use xlink:href="#m6813e1aa92" x="72.050698" y="17.669357" style="fill: #ebcb8b"/>
     <use xlink:href="#m6813e1aa92" x="70.45554" y="27.960673" style="fill: #ebcb8b"/>
     <use xlink:href="#m6813e1aa92" x="68.750692" y="24.914267" style="fill: #ebcb8b"/>
     <use xlink:href="#m6813e1aa92" x="67.277158" y="24.031518" style="fill: #ebcb8b"/>
     <use xlink:href="#m6813e1aa92" x="66.212407" y="25.149796" style="fill: #ebcb8b"/>
     <use xlink:href="#m6813e1aa92" x="65.561097" y="28.394995" style="fill: #ebcb8b"/>
     <use xlink:href="#m6813e1aa92" x="65.231704" y="22.17629" style="fill: #ebcb8b"/>
     <use xlink:href="#m6813e1aa92" x="65.11239" y="26.178264" style="fill: #ebcb8b"/>
     <use xlink:href="#m6813e1aa92" x="65.110411" y="27.182407" style="fill: #ebcb8b"/>
     <use xlink:href="#m6813e1aa92" x="65.161907" y="30.124426" style="fill: #ebcb8b"/>
     <use xlink:href="#m6813e1aa92" x="65.228006" y="26.105994" style="fill: #ebcb8b"/>
     <use xlink:href="#m6813e1aa92" x="65.287475" y="29.270122" style="fill: #ebcb8b"/>
     <use xlink:href="#m6813e1aa92" x="65.330112" y="28.194812" style="fill: #ebcb8b"/>
     <use xlink:href="#m6813e1aa92" x="65.351888" y="24.813549" style="fill: #ebcb8b"/>
     <use xlink:href="#m6813e1aa92" x="65.351738" y="28.398855" style="fill: #ebcb8b"/>
     <use xlink:href="#m6813e1aa92" x="65.329553" y="28.245029" style="fill: #ebcb8b"/>
     <use xlink:href="#m6813e1aa92" x="65.284995" y="24.331923" style="fill: #ebcb8b"/>
     <use xlink:href="#m6813e1aa92" x="65.216801" y="23.437806" style="fill: #ebcb8b"/>
     <use xlink:href="#m6813e1aa92" x="65.122349" y="24.692141" style="fill: #ebcb8b"/>
     <use xlink:href="#m6813e1aa92" x="64.997343" y="25.371876" style="fill: #ebcb8b"/>
     <use xlink:href="#m6813e1aa92" x="64.83551" y="28.680494" style="fill: #ebcb8b"/>
     <use xlink:href="#m6813e1aa92" x="64.628261" y="25.705168" style="fill: #ebcb8b"/>
     <use xlink:href="#m6813e1aa92" x="64.364311" y="25.789104" style="fill: #ebcb8b"/>
     <use xlink:href="#m6813e1aa92" x="64.029306" y="26.689914" style="fill: #ebcb8b"/>
     <use xlink:href="#m6813e1aa92" x="63.605618" y="26.794726" style="fill: #ebcb8b"/>
     <use xlink:href="#m6813e1aa92" x="63.072667" y="23.476688" style="fill: #ebcb8b"/>
     <use xlink:href="#m6813e1aa92" x="62.408533" y="22.802166" style="fill: #ebcb8b"/>
     <use xlink:href="#m6813e1aa92" x="61.59431" y="26.382396" style="fill: #ebcb8b"/>
     <use xlink:href="#m6813e1aa92" x="60.62372" y="16.261778" style="fill: #ebcb8b"/>
     <use xlink:href="#m6813e1aa92" x="59.521603" y="21.212691" style="fill: #ebcb8b"/>
     <use xlink:href="#m6813e1aa92" x="58.374081" y="21.77747" style="fill: #ebcb8b"/>
     <use xlink:href="#m6813e1aa92" x="57.365405" y="23.548575" style="fill: #ebcb8b"/>
     <use xlink:href="#m6813e1aa92" x="56.793843" y="23.136898" style="fill: #ebcb8b"/>
     <use xlink:href="#m6813e1aa92" x="57.006873" y="22.565834" style="fill: #ebcb8b"/>
     <use xlink:href="#m6813e1aa92" x="58.20953" y="28.826285" style="fill: #ebcb8b"/>
     <use xlink:href="#m6813e1aa92" x="60.240939" y="28.196211" style="fill: #ebcb8b"/>
     <use xlink:href="#m6813e1aa92" x="62.573437" y="23.41668" style="fill: #ebcb8b"/>
     <use xlink:href="#m6813e1aa92" x="64.622613" y="24.570963" style="fill: #ebcb8b"/>
     <use xlink:href="#m6813e1aa92" x="66.068949" y="28.773206" style="fill: #ebcb8b"/>
     <use xlink:href="#m6813e1aa92" x="66.906818" y="25.51206" style="fill: #ebcb8b"/>
     <use xlink:href="#m6813e1aa92" x="67.29617" y="27.264482" style="fill: #ebcb8b"/>
     <use xlink:href="#m6813e1aa92" x="67.418341" y="27.736789" style="fill: #ebcb8b"/>
     <use xlink:href="#m6813e1aa92" x="67.412122" y="28.379802" style="fill: #ebcb8b"/>
     <use xlink:href="#m6813e1aa92" x="67.365939" y="30.849331" style="fill: #ebcb8b"/>
     <use xlink:href="#m6813e1aa92" x="67.330149" y="26.402054" style="fill: #ebcb8b"/>
     <use xlink:href="#m6813e1aa92" x="67.331128" y="28.665686" style="fill: #ebcb8b"/>
     <use xlink:href="#m6813e1aa92" x="67.381853" y="26.901645" style="fill: #ebcb8b"/>
     <use xlink:href="#m6813e1aa92" x="67.488776" y="27.750114" style="fill: #ebcb8b"/>
     <use xlink:href="#m6813e1aa92" x="67.655942" y="27.262876" style="fill: #ebcb8b"/>
     <use xlink:href="#m6813e1aa92" x="67.887221" y="24.440668" style="fill: #ebcb8b"/>
     <use xlink:href="#m6813e1aa92" x="68.187226" y="26.878786" style="fill: #ebcb8b"/>
     <use xlink:href="#m6813e1aa92" x="68.561169" y="26.830258" style="fill: #ebcb8b"/>
     <use xlink:href="#m6813e1aa92" x="69.013638" y="22.540557" style="fill: #ebcb8b"/>
     <use xlink:href="#m6813e1aa92" x="69.545988" y="17.845706" style="fill: #ebcb8b"/>
     <use xlink:href="#m6813e1aa92" x="70.151857" y="21.158916" style="fill: #ebcb8b"/>
     <use xlink:href="#m6813e1aa92" x="70.810341" y="18.35583" style="fill: #ebcb8b"/>
     <use xlink:href="#m6813e1aa92" x="71.47711" y="25.383837" style="fill: #ebcb8b"/>
     <use xlink:href="#m6813e1aa92" x="72.075883" y="26.109327" style="fill: #ebcb8b"/>
     <use xlink:href="#m6813e1aa92" x="72.49672" y="25.723261" style="fill: #ebcb8b"/>
     <use xlink:href="#m6813e1aa92" x="72.611755" y="28.063" style="fill: #ebcb8b"/>
     <use xlink:href="#m6813e1aa92" x="72.316783" y="22.700813" style="fill: #ebcb8b"/>
     <use xlink:href="#m6813e1aa92" x="71.589548" y="22.051452" style="fill: #ebcb8b"/>
     <use xlink:href="#m6813e1aa92" x="70.528077" y="29.564063" style="fill: #ebcb8b"/>
     <use xlink:href="#m6813e1aa92" x="69.327891" y="26.460043" style="fill: #ebcb8b"/>
     <use xlink:href="#m6813e1aa92" x="68.201458" y="28.080964" style="fill: #ebcb8b"/>
     <use xlink:href="#m6813e1aa92" x="67.296589" y="26.045459" style="fill: #ebcb8b"/>
     <use xlink:href="#m6813e1aa92" x="66.665855" y="27.836666" style="fill: #ebcb8b"/>
     <use xlink:href="#m6813e1aa92" x="66.28746" y="26.299678" style="fill: #ebcb8b"/>
     <use xlink:href="#m6813e1aa92" x="66.10452" y="27.198714" style="fill: #ebcb8b"/>
     <use xlink:href="#m6813e1aa92" x="66.056031" y="22.195407" style="fill: #ebcb8b"/>
     <use xlink:href="#m6813e1aa92" x="66.09234" y="24.523397" style="fill: #ebcb8b"/>
     <use xlink:href="#m6813e1aa92" x="66.17918" y="28.306944" style="fill: #ebcb8b"/>
     <use xlink:href="#m6813e1aa92" x="66.296117" y="24.412928" style="fill: #ebcb8b"/>
     <use xlink:href="#m6813e1aa92" x="66.433275" y="26.856419" style="fill: #ebcb8b"/>
     <use xlink:href="#m6813e1aa92" x="66.588181" y="22.447861" style="fill: #ebcb8b"/>
     <use xlink:href="#m6813e1aa92" x="66.763364" y="26.577524" style="fill: #ebcb8b"/>
     <use xlink:href="#m6813e1aa92" x="66.96476" y="22.748273" style="fill: #ebcb8b"/>
     <use xlink:href="#m6813e1aa92" x="67.200756" y="23.005056" style="fill: #ebcb8b"/>
     <use xlink:href="#m6813e1aa92" x="67.481683" y="17.967246" style="fill: #ebcb8b"/>
     <use xlink:href="#m6813e1aa92" x="67.819464" y="24.719357" style="fill: #ebcb8b"/>
     <use xlink:href="#m6813e1aa92" x="68.227154" y="21.332689" style="fill: #ebcb8b"/>
     <use xlink:href="#m6813e1aa92" x="68.717915" y="23.709158" style="fill: #ebcb8b"/>
     <use xlink:href="#m6813e1aa92" x="69.302813" y="24.339269" style="fill: #ebcb8b"/>
     <use xlink:href="#m6813e1aa92" x="69.986477" y="28.531803" style="fill: #ebcb8b"/>
     <use xlink:href="#m6813e1aa92" x="70.759378" y="22.623576" style="fill: #ebcb8b"/>
     <use xlink:href="#m6813e1aa92" x="71.585747" y="24.895559" style="fill: #ebcb8b"/>
     <use xlink:href="#m6813e1aa92" x="72.388047" y="26.131015" style="fill: #ebcb8b"/>
     <use xlink:href="#m6813e1aa92" x="73.034454" y="24.735904" style="fill: #ebcb8b"/>
     <use xlink:href="#m6813e1aa92" x="73.345348" y="26.220257" style="fill: #ebcb8b"/>
     <use xlink:href="#m6813e1aa92" x="73.140946" y="25.841998" style="fill: #ebcb8b"/>
     <use xlink:href="#m6813e1aa92" x="72.334251" y="28.284804" style="fill: #ebcb8b"/>
     <use xlink:href="#m6813e1aa92" x="71.019573" y="27.678577" style="fill: #ebcb8b"/>
     <use xlink:href="#m6813e1aa92" x="69.467534" y="23.657725" style="fill: #ebcb8b"/>
     <use xlink:href="#m6813e1aa92" x="68.000144" y="23.569835" style="fill: #ebcb8b"/>
     <use xlink:href="#m6813e1aa92" x="66.842724" y="25.975333" style="fill: #ebcb8b"/>
     <use xlink:href="#m6813e1aa92" x="66.065726" y="25.069192" style="fill: #ebcb8b"/>
     <use xlink:href="#m6813e1aa92" x="65.623562" y="23.520463" style="fill: #ebcb8b"/>
     <use xlink:href="#m6813e1aa92" x="65.42356" y="26.676315" style="fill: #ebcb8b"/>
     <use xlink:href="#m6813e1aa92" x="65.374754" y="22.254833" style="fill: #ebcb8b"/>
     <use xlink:href="#m6813e1aa92" x="65.40791" y="27.443121" style="fill: #ebcb8b"/>
     <use xlink:href="#m6813e1aa92" x="65.477651" y="27.015065" style="fill: #ebcb8b"/>
     <use xlink:href="#m6813e1aa92" x="65.557604" y="26.012477" style="fill: #ebcb8b"/>
     <use xlink:href="#m6813e1aa92" x="65.634423" y="19.476927" style="fill: #ebcb8b"/>
     <use xlink:href="#m6813e1aa92" x="65.702852" y="24.292386" style="fill: #ebcb8b"/>
     <use xlink:href="#m6813e1aa92" x="65.762247" y="27.108851" style="fill: #ebcb8b"/>
     <use xlink:href="#m6813e1aa92" x="65.814349" y="25.994327" style="fill: #ebcb8b"/>
     <use xlink:href="#m6813e1aa92" x="65.861984" y="22.076582" style="fill: #ebcb8b"/>
     <use xlink:href="#m6813e1aa92" x="65.908398" y="25.121494" style="fill: #ebcb8b"/>
     <use xlink:href="#m6813e1aa92" x="65.956986" y="24.518278" style="fill: #ebcb8b"/>
     <use xlink:href="#m6813e1aa92" x="66.011273" y="26.491078" style="fill: #ebcb8b"/>
     <use xlink:href="#m6813e1aa92" x="66.075037" y="16.691439" style="fill: #ebcb8b"/>
     <use xlink:href="#m6813e1aa92" x="66.152533" y="25.031222" style="fill: #ebcb8b"/>
     <use xlink:href="#m6813e1aa92" x="66.248785" y="21.408315" style="fill: #ebcb8b"/>
     <use xlink:href="#m6813e1aa92" x="66.36994" y="25.571919" style="fill: #ebcb8b"/>
     <use xlink:href="#m6813e1aa92" x="66.5237" y="24.466833" style="fill: #ebcb8b"/>
     <use xlink:href="#m6813e1aa92" x="66.719834" y="22.910225" style="fill: #ebcb8b"/>
     <use xlink:href="#m6813e1aa92" x="66.970772" y="26.567907" style="fill: #ebcb8b"/>
     <use xlink:href="#m6813e1aa92" x="67.292242" y="22.159588" style="fill: #ebcb8b"/>
     <use xlink:href="#m6813e1aa92" x="67.703842" y="17.740918" style="fill: #ebcb8b"/>
     <use xlink:href="#m6813e1aa92" x="68.229239" y="24.708745" style="fill: #ebcb8b"/>
     <use xlink:href="#m6813e1aa92" x="68.89531" y="20.12233" style="fill: #ebcb8b"/>
     <use xlink:href="#m6813e1aa92" x="69.728776" y="18.787342" style="fill: #ebcb8b"/>
     <use xlink:href="#m6813e1aa92" x="70.74754" y="19.14806" style="fill: #ebcb8b"/>
     <use xlink:href="#m6813e1aa92" x="71.94208" y="27.724885" style="fill: #ebcb8b"/>
     <use xlink:href="#m6813e1aa92" x="73.241356" y="27.736822" style="fill: #ebcb8b"/>
     <use xlink:href="#m6813e1aa92" x="74.463421" y="20.631421" style="fill: #ebcb8b"/>
     <use xlink:href="#m6813e1aa92" x="75.275669" y="26.129575" style="fill: #ebcb8b"/>
     <use xlink:href="#m6813e1aa92" x="75.239043" y="27.470938" style="fill: #ebcb8b"/>
     <use xlink:href="#m6813e1aa92" x="74.027376" y="23.726273" style="fill: #ebcb8b"/>
     <use xlink:href="#m6813e1aa92" x="71.751902" y="22.281578" style="fill: #ebcb8b"/>
     <use xlink:href="#m6813e1aa92" x="69.038635" y="25.23489" style="fill: #ebcb8b"/>
     <use xlink:href="#m6813e1aa92" x="66.64153" y="26.968436" style="fill: #ebcb8b"/>
     <use xlink:href="#m6813e1aa92" x="64.978728" y="29.098651" style="fill: #ebcb8b"/>
     <use xlink:href="#m6813e1aa92" x="64.049829" y="28.153047" style="fill: #ebcb8b"/>
     <use xlink:href="#m6813e1aa92" x="63.64355" y="26.276198" style="fill: #ebcb8b"/>
     <use xlink:href="#m6813e1aa92" x="63.533103" y="24.613667" style="fill: #ebcb8b"/>
     <use xlink:href="#m6813e1aa92" x="63.553795" y="23.708676" style="fill: #ebcb8b"/>
     <use xlink:href="#m6813e1aa92" x="63.606007" y="22.121335" style="fill: #ebcb8b"/>
     <use xlink:href="#m6813e1aa92" x="63.635896" y="28.42308" style="fill: #ebcb8b"/>
     <use xlink:href="#m6813e1aa92" x="63.616906" y="26.06759" style="fill: #ebcb8b"/>
     <use xlink:href="#m6813e1aa92" x="63.537163" y="27.177772" style="fill: #ebcb8b"/>
     <use xlink:href="#m6813e1aa92" x="63.39194" y="24.634407" style="fill: #ebcb8b"/>
     <use xlink:href="#m6813e1aa92" x="63.179597" y="26.727723" style="fill: #ebcb8b"/>
     <use xlink:href="#m6813e1aa92" x="62.899828" y="26.208707" style="fill: #ebcb8b"/>
     <use xlink:href="#m6813e1aa92" x="62.553557" y="28.978612" style="fill: #ebcb8b"/>
     <use xlink:href="#m6813e1aa92" x="62.144209" y="23.709151" style="fill: #ebcb8b"/>
     <use xlink:href="#m6813e1aa92" x="61.680298" y="25.595059" style="fill: #ebcb8b"/>
     <use xlink:href="#m6813e1aa92" x="61.179245" y="24.354934" style="fill: #ebcb8b"/>
     <use xlink:href="#m6813e1aa92" x="60.672034" y="22.331215" style="fill: #ebcb8b"/>
     <use xlink:href="#m6813e1aa92" x="60.207289" y="18.616858" style="fill: #ebcb8b"/>
     <use xlink:href="#m6813e1aa92" x="59.851853" y="23.129495" style="fill: #ebcb8b"/>
     <use xlink:href="#m6813e1aa92" x="59.683423" y="24.548355" style="fill: #ebcb8b"/>
     <use xlink:href="#m6813e1aa92" x="59.771644" y="23.804299" style="fill: #ebcb8b"/>
     <use xlink:href="#m6813e1aa92" x="60.149947" y="25.528977" style="fill: #ebcb8b"/>
     <use xlink:href="#m6813e1aa92" x="60.790801" y="20.963482" style="fill: #ebcb8b"/>
     <use xlink:href="#m6813e1aa92" x="61.602864" y="22.666031" style="fill: #ebcb8b"/>
     <use xlink:href="#m6813e1aa92" x="62.458449" y="21.464557" style="fill: #ebcb8b"/>
     <use xlink:href="#m6813e1aa92" x="63.237448" y="23.100158" style="fill: #ebcb8b"/>
     <use xlink:href="#m6813e1aa92" x="63.861542" y="24.647994" style="fill: #ebcb8b"/>
     <use xlink:href="#m6813e1aa92" x="64.303136" y="17.739718" style="fill: #ebcb8b"/>
     <use xlink:href="#m6813e1aa92" x="64.573316" y="25.448216" style="fill: #ebcb8b"/>
     <use xlink:href="#m6813e1aa92" x="64.702685" y="24.045237" style="fill: #ebcb8b"/>
     <use xlink:href="#m6813e1aa92" x="64.725664" y="23.629959" style="fill: #ebcb8b"/>
     <use xlink:href="#m6813e1aa92" x="64.671583" y="23.57991" style="fill: #ebcb8b"/>
     <use xlink:href="#m6813e1aa92" x="64.561403" y="23.458702" style="fill: #ebcb8b"/>
     <use xlink:href="#m6813e1aa92" x="64.407711" y="27.010928" style="fill: #ebcb8b"/>
     <use xlink:href="#m6813e1aa92" x="64.216105" y="24.291854" style="fill: #ebcb8b"/>
     <use xlink:href="#m6813e1aa92" x="63.986912" y="23.203239" style="fill: #ebcb8b"/>
     <use xlink:href="#m6813e1aa92" x="63.716794" y="24.212917" style="fill: #ebcb8b"/>
     <use xlink:href="#m6813e1aa92" x="63.400181" y="21.118857" style="fill: #ebcb8b"/>
     <use xlink:href="#m6813e1aa92" x="63.030692" y="24.884659" style="fill: #ebcb8b"/>
     <use xlink:href="#m6813e1aa92" x="62.602848" y="20.063477" style="fill: #ebcb8b"/>
     <use xlink:href="#m6813e1aa92" x="62.1145" y="19.093165" style="fill: #ebcb8b"/>
     <use xlink:href="#m6813e1aa92" x="61.570408" y="18.110458" style="fill: #ebcb8b"/>
     <use xlink:href="#m6813e1aa92" x="60.987323" y="18.479394" style="fill: #ebcb8b"/>
     <use xlink:href="#m6813e1aa92" x="60.400274" y="18.882162" style="fill: #ebcb8b"/>
     <use xlink:href="#m6813e1aa92" x="59.868338" y="18.894063" style="fill: #ebcb8b"/>
     <use xlink:href="#m6813e1aa92" x="59.47563" y="20.061452" style="fill: #ebcb8b"/>
     <use xlink:href="#m6813e1aa92" x="59.320734" y="16.751962" style="fill: #ebcb8b"/>
     <use xlink:href="#m6813e1aa92" x="59.489044" y="22.529596" style="fill: #ebcb8b"/>
     <use xlink:href="#m6813e1aa92" x="60.012399" y="21.920215" style="fill: #ebcb8b"/>
     <use xlink:href="#m6813e1aa92" x="60.837231" y="19.924008" style="fill: #ebcb8b"/>
     <use xlink:href="#m6813e1aa92" x="61.829221" y="19.162663" style="fill: #ebcb8b"/>
     <use xlink:href="#m6813e1aa92" x="62.821075" y="22.075066" style="fill: #ebcb8b"/>
     <use xlink:href="#m6813e1aa92" x="63.674353" y="25.126473" style="fill: #ebcb8b"/>
     <use xlink:href="#m6813e1aa92" x="64.316295" y="22.207004" style="fill: #ebcb8b"/>
     <use xlink:href="#m6813e1aa92" x="64.738449" y="27.649197" style="fill: #ebcb8b"/>
     <use xlink:href="#m6813e1aa92" x="64.97247" y="27.269063" style="fill: #ebcb8b"/>
     <use xlink:href="#m6813e1aa92" x="65.06415" y="27.008479" style="fill: #ebcb8b"/>
     <use xlink:href="#m6813e1aa92" x="65.056463" y="26.121438" style="fill: #ebcb8b"/>
     <use xlink:href="#m6813e1aa92" x="64.98219" y="22.778798" style="fill: #ebcb8b"/>
     <use xlink:href="#m6813e1aa92" x="64.862698" y="21.456294" style="fill: #ebcb8b"/>
     <use xlink:href="#m6813e1aa92" x="64.709502" y="23.736231" style="fill: #ebcb8b"/>
     <use xlink:href="#m6813e1aa92" x="64.526585" y="26.923194" style="fill: #ebcb8b"/>
     <use xlink:href="#m6813e1aa92" x="64.312512" y="22.757571" style="fill: #ebcb8b"/>
     <use xlink:href="#m6813e1aa92" x="64.062085" y="26.117937" style="fill: #ebcb8b"/>
     <use xlink:href="#m6813e1aa92" x="63.767568" y="23.008846" style="fill: #ebcb8b"/>
     <use xlink:href="#m6813e1aa92" x="63.419697" y="22.780842" style="fill: #ebcb8b"/>
     <use xlink:href="#m6813e1aa92" x="63.008805" y="20.221094" style="fill: #ebcb8b"/>
     <use xlink:href="#m6813e1aa92" x="62.5265" y="17.912672" style="fill: #ebcb8b"/>
     <use xlink:href="#m6813e1aa92" x="61.968476" y="23.866389" style="fill: #ebcb8b"/>
     <use xlink:href="#m6813e1aa92" x="61.33917" y="19.447059" style="fill: #ebcb8b"/>
     <use xlink:href="#m6813e1aa92" x="60.658858" y="19.558265" style="fill: #ebcb8b"/>
     <use xlink:href="#m6813e1aa92" x="59.972965" y="17.812247" style="fill: #ebcb8b"/>
     <use xlink:href="#m6813e1aa92" x="59.361" y="22.724215" style="fill: #ebcb8b"/>
     <use xlink:href="#m6813e1aa92" x="58.938097" y="19.83518" style="fill: #ebcb8b"/>
     <use xlink:href="#m6813e1aa92" x="58.837617" y="22.467259" style="fill: #ebcb8b"/>
     <use xlink:href="#m6813e1aa92" x="59.165983" y="20.002826" style="fill: #ebcb8b"/>
     <use xlink:href="#m6813e1aa92" x="59.940537" y="19.790698" style="fill: #ebcb8b"/>
     <use xlink:href="#m6813e1aa92" x="61.051142" y="23.472968" style="fill: #ebcb8b"/>
     <use xlink:href="#m6813e1aa92" x="62.288821" y="21.855871" style="fill: #ebcb8b"/>
     <use xlink:href="#m6813e1aa92" x="63.433841" y="24.622771" style="fill: #ebcb8b"/>
     <use xlink:href="#m6813e1aa92" x="64.339843" y="25.364341" style="fill: #ebcb8b"/>
     <use xlink:href="#m6813e1aa92" x="64.960941" y="25.581998" style="fill: #ebcb8b"/>
     <use xlink:href="#m6813e1aa92" x="65.325966" y="24.78246" style="fill: #ebcb8b"/>
     <use xlink:href="#m6813e1aa92" x="65.496563" y="25.86034" style="fill: #ebcb8b"/>
     <use xlink:href="#m6813e1aa92" x="65.536001" y="25.125528" style="fill: #ebcb8b"/>
     <use xlink:href="#m6813e1aa92" x="65.494531" y="27.445555" style="fill: #ebcb8b"/>
     <use xlink:href="#m6813e1aa92" x="65.406202" y="23.101876" style="fill: #ebcb8b"/>
     <use xlink:href="#m6813e1aa92" x="65.290979" y="26.687372" style="fill: #ebcb8b"/>
     <use xlink:href="#m6813e1aa92" x="65.158304" y="22.847436" style="fill: #ebcb8b"/>
     <use xlink:href="#m6813e1aa92" x="65.010362" y="30.022279" style="fill: #ebcb8b"/>
     <use xlink:href="#m6813e1aa92" x="64.844506" y="27.232836" style="fill: #ebcb8b"/>
     <use xlink:href="#m6813e1aa92" x="64.654832" y="24.79825" style="fill: #ebcb8b"/>
     <use xlink:href="#m6813e1aa92" x="64.433078" y="28.960989" style="fill: #ebcb8b"/>
     <use xlink:href="#m6813e1aa92" x="64.169067" y="22.46433" style="fill: #ebcb8b"/>
     <use xlink:href="#m6813e1aa92" x="63.850929" y="21.886186" style="fill: #ebcb8b"/>
     <use xlink:href="#m6813e1aa92" x="63.465381" y="21.960579" style="fill: #ebcb8b"/>
     <use xlink:href="#m6813e1aa92" x="62.998414" y="21.995986" style="fill: #ebcb8b"/>
     <use xlink:href="#m6813e1aa92" x="62.436967" y="25.261263" style="fill: #ebcb8b"/>
     <use xlink:href="#m6813e1aa92" x="61.772454" y="23.267072" style="fill: #ebcb8b"/>
     <use xlink:href="#m6813e1aa92" x="61.007428" y="18.094907" style="fill: #ebcb8b"/>
     <use xlink:href="#m6813e1aa92" x="60.166717" y="18.278371" style="fill: #ebcb8b"/>
     <use xlink:href="#m6813e1aa92" x="59.3133" y="19.297112" style="fill: #ebcb8b"/>
     <use xlink:href="#m6813e1aa92" x="58.564813" y="19.066314" style="fill: #ebcb8b"/>
     <use xlink:href="#m6813e1aa92" x="58.09727" y="20.266206" style="fill: #ebcb8b"/>
     <use xlink:href="#m6813e1aa92" x="58.112101" y="20.519956" style="fill: #ebcb8b"/>
     <use xlink:href="#m6813e1aa92" x="58.749476" y="24.98377" style="fill: #ebcb8b"/>
     <use xlink:href="#m6813e1aa92" x="59.979091" y="24.01532" style="fill: #ebcb8b"/>
    </g>
   </g>
   <g id="patch_5">
    <path d="M 55.869751 33.271011 
L 55.869751 10.625856 
" style="fill: none; stroke: #2e3440; stroke-width: 0.5; stroke-linejoin: miter; stroke-linecap: square"/>
   </g>
   <g id="patch_6">
    <path d="M 55.869751 33.271011 
L 76.19976 33.271011 
" style="fill: none; stroke: #2e3440; stroke-width: 0.5; stroke-linejoin: miter; stroke-linecap: square"/>
   </g>
  </g>
 </g>
 <defs>
  <clipPath id="p03a2f6ba07">
   <rect x="3.00024" y="10.625856" width="40.660017" height="22.645155"/>
  </clipPath>
  <clipPath id="p42423af0f0">
   <rect x="55.869751" y="10.625856" width="20.330009" height="22.645155"/>
  </clipPath>
 </defs>
</svg>
