<?xml version="1.0" encoding="utf-8" standalone="no"?>
<!DOCTYPE svg PUBLIC "-//W3C//DTD SVG 1.1//EN"
  "http://www.w3.org/Graphics/SVG/1.1/DTD/svg11.dtd">
<svg xmlns:xlink="http://www.w3.org/1999/xlink" width="79.2pt" height="43.2pt" viewBox="0 0 79.2 43.2" xmlns="http://www.w3.org/2000/svg" version="1.1">
 <metadata>
  <rdf:RDF xmlns:dc="http://purl.org/dc/elements/1.1/" xmlns:cc="http://creativecommons.org/ns#" xmlns:rdf="http://www.w3.org/1999/02/22-rdf-syntax-ns#">
   <cc:Work>
    <dc:type rdf:resource="http://purl.org/dc/dcmitype/StillImage"/>
    <dc:date>2024-04-24T10:45:33.175435</dc:date>
    <dc:format>image/svg+xml</dc:format>
    <dc:creator>
     <cc:Agent>
      <dc:title>Matplotlib v3.8.0, https://matplotlib.org/</dc:title>
     </cc:Agent>
    </dc:creator>
   </cc:Work>
  </rdf:RDF>
 </metadata>
 <defs>
  <style type="text/css">*{stroke-linejoin: round; stroke-linecap: butt}</style>
 </defs>
 <g id="figure_1">
  <g id="patch_1">
   <path d="M 0 43.2 
L 79.2 43.2 
L 79.2 0 
L 0 0 
z
" style="fill: #ffffff"/>
  </g>
  <g id="axes_1">
   <g id="patch_2">
    <path d="M 3.00024 33.271011 
L 43.660257 33.271011 
L 43.660257 10.625856 
L 3.00024 10.625856 
z
" style="fill: #eceff4"/>
   </g>
   <g id="matplotlib.axis_1"/>
   <g id="matplotlib.axis_2"/>
   <g id="line2d_1">
    <path d="M 3.113184 31.672437 
L 3.226129 31.362789 
L 3.452018 31.45297 
L 3.564962 30.736818 
L 3.677907 30.842787 
L 4.129685 29.347875 
L 4.242629 29.2945 
L 4.355574 29.055327 
L 4.581463 27.395856 
L 4.694407 27.174476 
L 4.920296 28.287445 
L 5.372074 23.389546 
L 6.049741 17.647346 
L 6.27563 18.144396 
L 6.388575 17.876254 
L 6.501519 18.470499 
L 6.727408 17.993014 
L 6.953297 18.738797 
L 7.179186 18.383685 
L 7.292131 18.989324 
L 7.51802 18.009245 
L 7.630964 19.25321 
L 7.743909 18.424754 
L 7.856853 18.459431 
L 7.969798 18.616838 
L 8.308631 17.482291 
L 8.53452 16.955337 
L 8.760409 14.668451 
L 9.325132 12.820304 
L 9.438076 13.407602 
L 9.663965 12.832359 
L 9.889854 13.819982 
L 10.115743 14.36233 
L 10.341632 15.863651 
L 10.680465 16.920589 
L 10.79341 17.648421 
L 10.906354 17.359996 
L 11.019299 17.413985 
L 11.132243 18.055768 
L 11.245188 17.49939 
L 11.358132 17.552468 
L 11.471077 17.255293 
L 11.696966 17.549057 
L 12.148744 14.800596 
L 12.261688 14.402556 
L 12.487577 12.279662 
L 12.600522 12.874503 
L 12.713466 11.655181 
L 12.939355 12.625424 
L 13.165244 13.087019 
L 13.617022 15.217851 
L 13.842911 17.121359 
L 14.181745 20.125478 
L 14.520578 21.380127 
L 14.746467 23.500684 
L 14.859412 24.031351 
L 15.31119 28.555379 
L 15.424134 28.629048 
L 15.762968 30.11318 
L 15.988857 30.618785 
L 16.440635 31.148752 
L 16.666524 30.834111 
L 16.779468 30.916973 
L 16.892413 30.282783 
L 17.005357 30.354148 
L 17.34419 28.790897 
L 17.570079 28.333199 
L 17.795968 28.652349 
L 18.021857 27.939374 
L 18.134802 28.033694 
L 18.473635 26.253472 
L 18.925413 24.656403 
L 19.151302 22.394947 
L 19.264247 21.481033 
L 19.716025 15.6256 
L 19.828969 15.140742 
L 20.054858 13.23862 
L 21.297248 20.164434 
L 21.749026 24.170671 
L 22.200804 27.351424 
L 22.313748 27.453353 
L 22.539637 28.889197 
L 22.652582 29.742779 
L 22.765526 29.504205 
L 22.991415 30.07439 
L 23.10436 29.87117 
L 23.443193 30.629361 
L 23.556138 29.535761 
L 23.669082 30.164016 
L 23.782027 29.70893 
L 23.894971 30.395348 
L 24.007916 29.524915 
L 24.12086 29.640542 
L 24.233805 29.55122 
L 24.346749 28.995251 
L 24.572638 29.255935 
L 24.685582 30.057839 
L 24.911471 29.346181 
L 25.250305 31.35402 
L 25.476194 30.748185 
L 25.589138 31.647074 
L 25.702083 31.252499 
L 25.815027 31.29679 
L 25.927972 31.800324 
L 26.040916 31.658027 
L 26.153861 32.241686 
L 26.266805 31.731145 
L 26.37975 31.858168 
L 26.492694 31.388654 
L 26.605639 31.579961 
L 26.718583 31.514078 
L 26.831528 30.993325 
L 27.057417 31.514683 
L 27.170361 31.065186 
L 27.283306 31.351491 
L 27.509195 30.661035 
L 27.622139 30.657857 
L 27.735084 30.046379 
L 27.848028 30.463874 
L 27.960973 29.90836 
L 28.073917 30.200102 
L 28.186862 30.042587 
L 28.412751 28.53801 
L 28.525695 29.15372 
L 28.864529 28.418738 
L 28.977473 28.850291 
L 29.090418 28.475076 
L 29.316307 28.999582 
L 29.429251 28.596055 
L 29.768085 30.336475 
L 29.993974 30.524661 
L 30.106918 31.344426 
L 30.219863 30.679256 
L 30.332807 31.749446 
L 30.445752 31.376192 
L 30.558696 32.142073 
L 30.671641 31.370617 
L 30.784585 31.474918 
L 30.89753 32.141294 
L 31.123419 31.037599 
L 31.236363 30.851684 
L 32.139919 27.159317 
L 32.817586 21.798578 
L 33.269364 17.642211 
L 33.495253 16.206296 
L 33.608197 16.198627 
L 33.947031 15.454985 
L 34.059975 16.228398 
L 34.17292 15.709456 
L 34.285864 16.198906 
L 34.398809 15.783834 
L 34.511753 16.563377 
L 34.624698 15.399841 
L 34.850587 17.002688 
L 34.963531 16.685886 
L 35.076476 17.415259 
L 35.302365 16.547445 
L 35.415309 16.648368 
L 35.641198 15.48985 
L 35.754143 14.637082 
L 35.867087 15.241874 
L 35.980032 13.659223 
L 36.092976 13.653941 
L 36.205921 14.000501 
L 36.43181 13.116227 
L 36.544754 13.115499 
L 36.657699 12.617684 
L 36.770643 13.515217 
L 36.883588 12.630348 
L 36.996532 13.426858 
L 37.222421 13.254825 
L 37.674199 15.845473 
L 37.787144 15.418534 
L 38.013033 16.385008 
L 38.238922 17.196201 
L 38.464811 16.238085 
L 38.577755 16.348383 
L 39.368366 13.206138 
L 39.481311 13.420612 
L 39.594255 12.819288 
L 39.7072 13.160903 
L 39.820144 13.880117 
L 39.933089 13.467208 
L 40.046033 14.408092 
L 40.158978 13.914089 
L 40.271922 14.042623 
L 40.949589 17.798903 
L 41.062534 17.761973 
L 41.401367 18.802848 
L 41.514312 18.180205 
L 41.627256 18.412444 
L 41.740201 18.257744 
L 41.853145 18.33834 
L 42.079034 17.159467 
L 42.643757 13.323908 
L 42.756701 13.467292 
L 42.869646 13.658146 
L 42.98259 13.0076 
L 43.208479 14.018537 
L 43.321424 13.788937 
L 43.547313 14.862309 
L 43.660257 14.4102 
L 43.660257 14.4102 
" clip-path="url(#p7245e07d24)" style="fill: none; stroke: #81a1c1; stroke-width: 0.5; stroke-linecap: round"/>
   </g>
   <g id="patch_3">
    <path d="M 3.00024 33.271011 
L 43.660257 33.271011 
" style="fill: none; stroke: #2e3440; stroke-width: 0.5; stroke-linejoin: miter; stroke-linecap: square"/>
   </g>
   <g id="text_1">
    <!-- $I(u;x)=0.75$ -->
    <g style="fill: #2e3440" transform="translate(5.949204 6.096825)">
     <text>
      <tspan style="font: oblique 5.59776px 'DejaVu Sans'" x="0 3.832047 10.351715" y="-0.75">Iux</tspan>
      <tspan style="font: 5.59776px 'DejaVu Sans'" x="1.649719 7.377304 13.662079 16.934204 22.710953 26.269867 27.672958 31.231873" y="-0.75">(;)=0.75</tspan>
     </text>
    </g>
   </g>
  </g>
  <g id="axes_2">
   <g id="patch_4">
    <path d="M 55.869751 33.271011 
L 76.19976 33.271011 
L 76.19976 10.625856 
L 55.869751 10.625856 
z
" style="fill: #eceff4"/>
   </g>
   <g id="matplotlib.axis_3">
    <g id="text_2">
     <text style="fill: #2e3440; font: 5.59776px 'Arial'; text-anchor: middle" x="66.034756" y="39.542299" transform="rotate(-0 66.034756 39.542299)">Input</text>
    </g>
   </g>
   <g id="matplotlib.axis_4">
    <g id="text_3">
     <text style="fill: #2e3440; font: 5.59776px 'Arial'; text-anchor: middle" x="53.740696" y="21.948434" transform="rotate(-90 53.740696 21.948434)">Output</text>
    </g>
   </g>
   <g id="PathCollection_1">
    <defs>
     <path id="mc5352009a4" d="M 0 0.316228 
C 0.083865 0.316228 0.164306 0.282908 0.223607 0.223607 
C 0.282908 0.164306 0.316228 0.083865 0.316228 0 
C 0.316228 -0.083865 0.282908 -0.164306 0.223607 -0.223607 
C 0.164306 -0.282908 0.083865 -0.316228 0 -0.316228 
C -0.083865 -0.316228 -0.164306 -0.282908 -0.223607 -0.223607 
C -0.282908 -0.164306 -0.316228 -0.083865 -0.316228 0 
C -0.316228 0.083865 -0.282908 0.164306 -0.223607 0.223607 
C -0.164306 0.282908 -0.083865 0.316228 0 0.316228 
z
"/>
    </defs>
    <g clip-path="url(#p6d912dea36)">
     <use xlink:href="#mc5352009a4" x="71.581121" y="31.672437" style="fill: #81a1c1"/>
     <use xlink:href="#mc5352009a4" x="73.098286" y="31.362789" style="fill: #81a1c1"/>
     <use xlink:href="#mc5352009a4" x="74.278379" y="31.450839" style="fill: #81a1c1"/>
     <use xlink:href="#mc5352009a4" x="74.83192" y="31.45297" style="fill: #81a1c1"/>
     <use xlink:href="#mc5352009a4" x="74.427458" y="30.736818" style="fill: #81a1c1"/>
     <use xlink:href="#mc5352009a4" x="72.939664" y="30.842787" style="fill: #81a1c1"/>
     <use xlink:href="#mc5352009a4" x="70.671396" y="30.357408" style="fill: #81a1c1"/>
     <use xlink:href="#mc5352009a4" x="68.260295" y="30.247362" style="fill: #81a1c1"/>
     <use xlink:href="#mc5352009a4" x="66.28659" y="29.58283" style="fill: #81a1c1"/>
     <use xlink:href="#mc5352009a4" x="64.986553" y="29.347875" style="fill: #81a1c1"/>
     <use xlink:href="#mc5352009a4" x="64.288811" y="29.2945" style="fill: #81a1c1"/>
     <use xlink:href="#mc5352009a4" x="63.999233" y="29.055327" style="fill: #81a1c1"/>
     <use xlink:href="#mc5352009a4" x="63.934035" y="27.65958" style="fill: #81a1c1"/>
     <use xlink:href="#mc5352009a4" x="63.964101" y="27.395856" style="fill: #81a1c1"/>
     <use xlink:href="#mc5352009a4" x="64.011658" y="27.174476" style="fill: #81a1c1"/>
     <use xlink:href="#mc5352009a4" x="64.034338" y="27.77843" style="fill: #81a1c1"/>
     <use xlink:href="#mc5352009a4" x="64.010827" y="28.287445" style="fill: #81a1c1"/>
     <use xlink:href="#mc5352009a4" x="63.930982" y="26.789935" style="fill: #81a1c1"/>
     <use xlink:href="#mc5352009a4" x="63.789753" y="25.447987" style="fill: #81a1c1"/>
     <use xlink:href="#mc5352009a4" x="63.583757" y="24.360181" style="fill: #81a1c1"/>
     <use xlink:href="#mc5352009a4" x="63.309655" y="23.389546" style="fill: #81a1c1"/>
     <use xlink:href="#mc5352009a4" x="62.96386" y="22.331942" style="fill: #81a1c1"/>
     <use xlink:href="#mc5352009a4" x="62.543426" y="20.874931" style="fill: #81a1c1"/>
     <use xlink:href="#mc5352009a4" x="62.048264" y="20.022329" style="fill: #81a1c1"/>
     <use xlink:href="#mc5352009a4" x="61.485006" y="18.839891" style="fill: #81a1c1"/>
     <use xlink:href="#mc5352009a4" x="60.872808" y="18.9283" style="fill: #81a1c1"/>
     <use xlink:href="#mc5352009a4" x="60.250823" y="17.647346" style="fill: #81a1c1"/>
     <use xlink:href="#mc5352009a4" x="59.685341" y="18.074905" style="fill: #81a1c1"/>
     <use xlink:href="#mc5352009a4" x="59.271539" y="18.144396" style="fill: #81a1c1"/>
     <use xlink:href="#mc5352009a4" x="59.12146" y="17.876254" style="fill: #81a1c1"/>
     <use xlink:href="#mc5352009a4" x="59.331197" y="18.470499" style="fill: #81a1c1"/>
     <use xlink:href="#mc5352009a4" x="59.932782" y="17.99013" style="fill: #81a1c1"/>
     <use xlink:href="#mc5352009a4" x="60.857737" y="17.993014" style="fill: #81a1c1"/>
     <use xlink:href="#mc5352009a4" x="61.946735" y="18.403188" style="fill: #81a1c1"/>
     <use xlink:href="#mc5352009a4" x="63.010318" y="18.738797" style="fill: #81a1c1"/>
     <use xlink:href="#mc5352009a4" x="63.901153" y="18.521833" style="fill: #81a1c1"/>
     <use xlink:href="#mc5352009a4" x="64.551164" y="18.383685" style="fill: #81a1c1"/>
     <use xlink:href="#mc5352009a4" x="64.963245" y="18.989324" style="fill: #81a1c1"/>
     <use xlink:href="#mc5352009a4" x="65.180152" y="18.342625" style="fill: #81a1c1"/>
     <use xlink:href="#mc5352009a4" x="65.255326" y="18.009245" style="fill: #81a1c1"/>
     <use xlink:href="#mc5352009a4" x="65.235776" y="19.25321" style="fill: #81a1c1"/>
     <use xlink:href="#mc5352009a4" x="65.1558" y="18.424754" style="fill: #81a1c1"/>
     <use xlink:href="#mc5352009a4" x="65.036912" y="18.459431" style="fill: #81a1c1"/>
     <use xlink:href="#mc5352009a4" x="64.890205" y="18.616838" style="fill: #81a1c1"/>
     <use xlink:href="#mc5352009a4" x="64.719107" y="18.082881" style="fill: #81a1c1"/>
     <use xlink:href="#mc5352009a4" x="64.521674" y="17.844592" style="fill: #81a1c1"/>
     <use xlink:href="#mc5352009a4" x="64.292253" y="17.482291" style="fill: #81a1c1"/>
     <use xlink:href="#mc5352009a4" x="64.022579" y="17.282032" style="fill: #81a1c1"/>
     <use xlink:href="#mc5352009a4" x="63.702548" y="16.955337" style="fill: #81a1c1"/>
     <use xlink:href="#mc5352009a4" x="63.320953" y="14.719304" style="fill: #81a1c1"/>
     <use xlink:href="#mc5352009a4" x="62.86656" y="14.668451" style="fill: #81a1c1"/>
     <use xlink:href="#mc5352009a4" x="62.330092" y="14.24727" style="fill: #81a1c1"/>
     <use xlink:href="#mc5352009a4" x="61.707843" y="13.81425" style="fill: #81a1c1"/>
     <use xlink:href="#mc5352009a4" x="61.007854" y="13.001498" style="fill: #81a1c1"/>
     <use xlink:href="#mc5352009a4" x="60.259352" y="12.869775" style="fill: #81a1c1"/>
     <use xlink:href="#mc5352009a4" x="59.524734" y="12.820304" style="fill: #81a1c1"/>
     <use xlink:href="#mc5352009a4" x="58.909598" y="13.407602" style="fill: #81a1c1"/>
     <use xlink:href="#mc5352009a4" x="58.559698" y="13.126584" style="fill: #81a1c1"/>
     <use xlink:href="#mc5352009a4" x="58.628832" y="12.832359" style="fill: #81a1c1"/>
     <use xlink:href="#mc5352009a4" x="59.211356" y="13.740241" style="fill: #81a1c1"/>
     <use xlink:href="#mc5352009a4" x="60.267804" y="13.819982" style="fill: #81a1c1"/>
     <use xlink:href="#mc5352009a4" x="61.606769" y="14.061615" style="fill: #81a1c1"/>
     <use xlink:href="#mc5352009a4" x="62.960384" y="14.36233" style="fill: #81a1c1"/>
     <use xlink:href="#mc5352009a4" x="64.104348" y="15.539847" style="fill: #81a1c1"/>
     <use xlink:href="#mc5352009a4" x="64.931614" y="15.863651" style="fill: #81a1c1"/>
     <use xlink:href="#mc5352009a4" x="65.445832" y="16.21052" style="fill: #81a1c1"/>
     <use xlink:href="#mc5352009a4" x="65.711405" y="16.90629" style="fill: #81a1c1"/>
     <use xlink:href="#mc5352009a4" x="65.806587" y="16.920589" style="fill: #81a1c1"/>
     <use xlink:href="#mc5352009a4" x="65.797914" y="17.648421" style="fill: #81a1c1"/>
     <use xlink:href="#mc5352009a4" x="65.732514" y="17.359996" style="fill: #81a1c1"/>
     <use xlink:href="#mc5352009a4" x="65.639551" y="17.413985" style="fill: #81a1c1"/>
     <use xlink:href="#mc5352009a4" x="65.534599" y="18.055768" style="fill: #81a1c1"/>
     <use xlink:href="#mc5352009a4" x="65.423995" y="17.49939" style="fill: #81a1c1"/>
     <use xlink:href="#mc5352009a4" x="65.30819" y="17.552468" style="fill: #81a1c1"/>
     <use xlink:href="#mc5352009a4" x="65.183998" y="17.255293" style="fill: #81a1c1"/>
     <use xlink:href="#mc5352009a4" x="65.045927" y="17.56294" style="fill: #81a1c1"/>
     <use xlink:href="#mc5352009a4" x="64.886829" y="17.549057" style="fill: #81a1c1"/>
     <use xlink:href="#mc5352009a4" x="64.698089" y="16.716662" style="fill: #81a1c1"/>
     <use xlink:href="#mc5352009a4" x="64.469523" y="16.162934" style="fill: #81a1c1"/>
     <use xlink:href="#mc5352009a4" x="64.189134" y="15.843186" style="fill: #81a1c1"/>
     <use xlink:href="#mc5352009a4" x="63.842882" y="14.800596" style="fill: #81a1c1"/>
     <use xlink:href="#mc5352009a4" x="63.414702" y="14.402556" style="fill: #81a1c1"/>
     <use xlink:href="#mc5352009a4" x="62.887195" y="13.384947" style="fill: #81a1c1"/>
     <use xlink:href="#mc5352009a4" x="62.243721" y="12.279662" style="fill: #81a1c1"/>
     <use xlink:href="#mc5352009a4" x="61.473206" y="12.874503" style="fill: #81a1c1"/>
     <use xlink:href="#mc5352009a4" x="60.579645" y="11.655181" style="fill: #81a1c1"/>
     <use xlink:href="#mc5352009a4" x="59.598539" y="12.291497" style="fill: #81a1c1"/>
     <use xlink:href="#mc5352009a4" x="58.620599" y="12.625424" style="fill: #81a1c1"/>
     <use xlink:href="#mc5352009a4" x="57.815129" y="12.773912" style="fill: #81a1c1"/>
     <use xlink:href="#mc5352009a4" x="57.428615" y="13.087019" style="fill: #81a1c1"/>
     <use xlink:href="#mc5352009a4" x="57.718119" y="13.79497" style="fill: #81a1c1"/>
     <use xlink:href="#mc5352009a4" x="58.804489" y="14.061754" style="fill: #81a1c1"/>
     <use xlink:href="#mc5352009a4" x="60.530528" y="14.932372" style="fill: #81a1c1"/>
     <use xlink:href="#mc5352009a4" x="62.485708" y="15.217851" style="fill: #81a1c1"/>
     <use xlink:href="#mc5352009a4" x="64.227307" y="15.907513" style="fill: #81a1c1"/>
     <use xlink:href="#mc5352009a4" x="65.49988" y="17.121359" style="fill: #81a1c1"/>
     <use xlink:href="#mc5352009a4" x="66.27731" y="18.251821" style="fill: #81a1c1"/>
     <use xlink:href="#mc5352009a4" x="66.668114" y="18.764984" style="fill: #81a1c1"/>
     <use xlink:href="#mc5352009a4" x="66.811236" y="20.125478" style="fill: #81a1c1"/>
     <use xlink:href="#mc5352009a4" x="66.82155" y="20.483319" style="fill: #81a1c1"/>
     <use xlink:href="#mc5352009a4" x="66.777066" y="21.194525" style="fill: #81a1c1"/>
     <use xlink:href="#mc5352009a4" x="66.724694" y="21.380127" style="fill: #81a1c1"/>
     <use xlink:href="#mc5352009a4" x="66.690099" y="22.979853" style="fill: #81a1c1"/>
     <use xlink:href="#mc5352009a4" x="66.686193" y="23.500684" style="fill: #81a1c1"/>
     <use xlink:href="#mc5352009a4" x="66.719159" y="24.031351" style="fill: #81a1c1"/>
     <use xlink:href="#mc5352009a4" x="66.792379" y="25.363033" style="fill: #81a1c1"/>
     <use xlink:href="#mc5352009a4" x="66.908855" y="26.031269" style="fill: #81a1c1"/>
     <use xlink:href="#mc5352009a4" x="67.072652" y="27.545" style="fill: #81a1c1"/>
     <use xlink:href="#mc5352009a4" x="67.289722" y="28.555379" style="fill: #81a1c1"/>
     <use xlink:href="#mc5352009a4" x="67.568317" y="28.629048" style="fill: #81a1c1"/>
     <use xlink:href="#mc5352009a4" x="67.919042" y="29.361768" style="fill: #81a1c1"/>
     <use xlink:href="#mc5352009a4" x="68.354414" y="29.470169" style="fill: #81a1c1"/>
     <use xlink:href="#mc5352009a4" x="68.887539" y="30.11318" style="fill: #81a1c1"/>
     <use xlink:href="#mc5352009a4" x="69.529166" y="30.512554" style="fill: #81a1c1"/>
     <use xlink:href="#mc5352009a4" x="70.281898" y="30.618785" style="fill: #81a1c1"/>
     <use xlink:href="#mc5352009a4" x="71.129982" y="30.749384" style="fill: #81a1c1"/>
     <use xlink:href="#mc5352009a4" x="72.023572" y="30.759354" style="fill: #81a1c1"/>
     <use xlink:href="#mc5352009a4" x="72.859516" y="31.008277" style="fill: #81a1c1"/>
     <use xlink:href="#mc5352009a4" x="73.469193" y="31.148752" style="fill: #81a1c1"/>
     <use xlink:href="#mc5352009a4" x="73.637001" y="30.857524" style="fill: #81a1c1"/>
     <use xlink:href="#mc5352009a4" x="73.176158" y="30.834111" style="fill: #81a1c1"/>
     <use xlink:href="#mc5352009a4" x="72.050698" y="30.916973" style="fill: #81a1c1"/>
     <use xlink:href="#mc5352009a4" x="70.45554" y="30.282783" style="fill: #81a1c1"/>
     <use xlink:href="#mc5352009a4" x="68.750692" y="30.354148" style="fill: #81a1c1"/>
     <use xlink:href="#mc5352009a4" x="67.277158" y="29.706135" style="fill: #81a1c1"/>
     <use xlink:href="#mc5352009a4" x="66.212407" y="29.625875" style="fill: #81a1c1"/>
     <use xlink:href="#mc5352009a4" x="65.561097" y="28.790897" style="fill: #81a1c1"/>
     <use xlink:href="#mc5352009a4" x="65.231704" y="28.619999" style="fill: #81a1c1"/>
     <use xlink:href="#mc5352009a4" x="65.11239" y="28.333199" style="fill: #81a1c1"/>
     <use xlink:href="#mc5352009a4" x="65.110411" y="28.52022" style="fill: #81a1c1"/>
     <use xlink:href="#mc5352009a4" x="65.161907" y="28.652349" style="fill: #81a1c1"/>
     <use xlink:href="#mc5352009a4" x="65.228006" y="28.244715" style="fill: #81a1c1"/>
     <use xlink:href="#mc5352009a4" x="65.287475" y="27.939374" style="fill: #81a1c1"/>
     <use xlink:href="#mc5352009a4" x="65.330112" y="28.033694" style="fill: #81a1c1"/>
     <use xlink:href="#mc5352009a4" x="65.351888" y="27.234508" style="fill: #81a1c1"/>
     <use xlink:href="#mc5352009a4" x="65.351738" y="26.743883" style="fill: #81a1c1"/>
     <use xlink:href="#mc5352009a4" x="65.329553" y="26.253472" style="fill: #81a1c1"/>
     <use xlink:href="#mc5352009a4" x="65.284995" y="25.755072" style="fill: #81a1c1"/>
     <use xlink:href="#mc5352009a4" x="65.216801" y="25.493231" style="fill: #81a1c1"/>
     <use xlink:href="#mc5352009a4" x="65.122349" y="24.767574" style="fill: #81a1c1"/>
     <use xlink:href="#mc5352009a4" x="64.997343" y="24.656403" style="fill: #81a1c1"/>
     <use xlink:href="#mc5352009a4" x="64.83551" y="23.00634" style="fill: #81a1c1"/>
     <use xlink:href="#mc5352009a4" x="64.628261" y="22.394947" style="fill: #81a1c1"/>
     <use xlink:href="#mc5352009a4" x="64.364311" y="21.481033" style="fill: #81a1c1"/>
     <use xlink:href="#mc5352009a4" x="64.029306" y="19.642269" style="fill: #81a1c1"/>
     <use xlink:href="#mc5352009a4" x="63.605618" y="17.998384" style="fill: #81a1c1"/>
     <use xlink:href="#mc5352009a4" x="63.072667" y="16.594437" style="fill: #81a1c1"/>
     <use xlink:href="#mc5352009a4" x="62.408533" y="15.6256" style="fill: #81a1c1"/>
     <use xlink:href="#mc5352009a4" x="61.59431" y="15.140742" style="fill: #81a1c1"/>
     <use xlink:href="#mc5352009a4" x="60.62372" y="13.564267" style="fill: #81a1c1"/>
     <use xlink:href="#mc5352009a4" x="59.521603" y="13.23862" style="fill: #81a1c1"/>
     <use xlink:href="#mc5352009a4" x="58.374081" y="13.841942" style="fill: #81a1c1"/>
     <use xlink:href="#mc5352009a4" x="57.365405" y="14.084411" style="fill: #81a1c1"/>
     <use xlink:href="#mc5352009a4" x="56.793843" y="15.067036" style="fill: #81a1c1"/>
     <use xlink:href="#mc5352009a4" x="57.006873" y="15.094097" style="fill: #81a1c1"/>
     <use xlink:href="#mc5352009a4" x="58.20953" y="16.032526" style="fill: #81a1c1"/>
     <use xlink:href="#mc5352009a4" x="60.240939" y="16.548929" style="fill: #81a1c1"/>
     <use xlink:href="#mc5352009a4" x="62.573437" y="17.642269" style="fill: #81a1c1"/>
     <use xlink:href="#mc5352009a4" x="64.622613" y="17.902728" style="fill: #81a1c1"/>
     <use xlink:href="#mc5352009a4" x="66.068949" y="18.898816" style="fill: #81a1c1"/>
     <use xlink:href="#mc5352009a4" x="66.906818" y="19.834466" style="fill: #81a1c1"/>
     <use xlink:href="#mc5352009a4" x="67.29617" y="20.164434" style="fill: #81a1c1"/>
     <use xlink:href="#mc5352009a4" x="67.418341" y="21.472215" style="fill: #81a1c1"/>
     <use xlink:href="#mc5352009a4" x="67.412122" y="21.797259" style="fill: #81a1c1"/>
     <use xlink:href="#mc5352009a4" x="67.365939" y="23.003982" style="fill: #81a1c1"/>
     <use xlink:href="#mc5352009a4" x="67.330149" y="24.170671" style="fill: #81a1c1"/>
     <use xlink:href="#mc5352009a4" x="67.331128" y="25.076367" style="fill: #81a1c1"/>
     <use xlink:href="#mc5352009a4" x="67.381853" y="25.334702" style="fill: #81a1c1"/>
     <use xlink:href="#mc5352009a4" x="67.488776" y="26.435836" style="fill: #81a1c1"/>
     <use xlink:href="#mc5352009a4" x="67.655942" y="27.351424" style="fill: #81a1c1"/>
     <use xlink:href="#mc5352009a4" x="67.887221" y="27.453353" style="fill: #81a1c1"/>
     <use xlink:href="#mc5352009a4" x="68.187226" y="28.775671" style="fill: #81a1c1"/>
     <use xlink:href="#mc5352009a4" x="68.561169" y="28.889197" style="fill: #81a1c1"/>
     <use xlink:href="#mc5352009a4" x="69.013638" y="29.742779" style="fill: #81a1c1"/>
     <use xlink:href="#mc5352009a4" x="69.545988" y="29.504205" style="fill: #81a1c1"/>
     <use xlink:href="#mc5352009a4" x="70.151857" y="29.763385" style="fill: #81a1c1"/>
     <use xlink:href="#mc5352009a4" x="70.810341" y="30.07439" style="fill: #81a1c1"/>
     <use xlink:href="#mc5352009a4" x="71.47711" y="29.87117" style="fill: #81a1c1"/>
     <use xlink:href="#mc5352009a4" x="72.075883" y="30.237976" style="fill: #81a1c1"/>
     <use xlink:href="#mc5352009a4" x="72.49672" y="30.376432" style="fill: #81a1c1"/>
     <use xlink:href="#mc5352009a4" x="72.611755" y="30.629361" style="fill: #81a1c1"/>
     <use xlink:href="#mc5352009a4" x="72.316783" y="29.535761" style="fill: #81a1c1"/>
     <use xlink:href="#mc5352009a4" x="71.589548" y="30.164016" style="fill: #81a1c1"/>
     <use xlink:href="#mc5352009a4" x="70.528077" y="29.70893" style="fill: #81a1c1"/>
     <use xlink:href="#mc5352009a4" x="69.327891" y="30.395348" style="fill: #81a1c1"/>
     <use xlink:href="#mc5352009a4" x="68.201458" y="29.524915" style="fill: #81a1c1"/>
     <use xlink:href="#mc5352009a4" x="67.296589" y="29.640542" style="fill: #81a1c1"/>
     <use xlink:href="#mc5352009a4" x="66.665855" y="29.55122" style="fill: #81a1c1"/>
     <use xlink:href="#mc5352009a4" x="66.28746" y="28.995251" style="fill: #81a1c1"/>
     <use xlink:href="#mc5352009a4" x="66.10452" y="29.225958" style="fill: #81a1c1"/>
     <use xlink:href="#mc5352009a4" x="66.056031" y="29.255935" style="fill: #81a1c1"/>
     <use xlink:href="#mc5352009a4" x="66.09234" y="30.057839" style="fill: #81a1c1"/>
     <use xlink:href="#mc5352009a4" x="66.17918" y="29.446105" style="fill: #81a1c1"/>
     <use xlink:href="#mc5352009a4" x="66.296117" y="29.346181" style="fill: #81a1c1"/>
     <use xlink:href="#mc5352009a4" x="66.433275" y="30.22297" style="fill: #81a1c1"/>
     <use xlink:href="#mc5352009a4" x="66.588181" y="30.611594" style="fill: #81a1c1"/>
     <use xlink:href="#mc5352009a4" x="66.763364" y="31.35402" style="fill: #81a1c1"/>
     <use xlink:href="#mc5352009a4" x="66.96476" y="30.776938" style="fill: #81a1c1"/>
     <use xlink:href="#mc5352009a4" x="67.200756" y="30.748185" style="fill: #81a1c1"/>
     <use xlink:href="#mc5352009a4" x="67.481683" y="31.647074" style="fill: #81a1c1"/>
     <use xlink:href="#mc5352009a4" x="67.819464" y="31.252499" style="fill: #81a1c1"/>
     <use xlink:href="#mc5352009a4" x="68.227154" y="31.29679" style="fill: #81a1c1"/>
     <use xlink:href="#mc5352009a4" x="68.717915" y="31.800324" style="fill: #81a1c1"/>
     <use xlink:href="#mc5352009a4" x="69.302813" y="31.658027" style="fill: #81a1c1"/>
     <use xlink:href="#mc5352009a4" x="69.986477" y="32.241686" style="fill: #81a1c1"/>
     <use xlink:href="#mc5352009a4" x="70.759378" y="31.731145" style="fill: #81a1c1"/>
     <use xlink:href="#mc5352009a4" x="71.585747" y="31.858168" style="fill: #81a1c1"/>
     <use xlink:href="#mc5352009a4" x="72.388047" y="31.388654" style="fill: #81a1c1"/>
     <use xlink:href="#mc5352009a4" x="73.034454" y="31.579961" style="fill: #81a1c1"/>
     <use xlink:href="#mc5352009a4" x="73.345348" y="31.514078" style="fill: #81a1c1"/>
     <use xlink:href="#mc5352009a4" x="73.140946" y="30.993325" style="fill: #81a1c1"/>
     <use xlink:href="#mc5352009a4" x="72.334251" y="31.462987" style="fill: #81a1c1"/>
     <use xlink:href="#mc5352009a4" x="71.019573" y="31.514683" style="fill: #81a1c1"/>
     <use xlink:href="#mc5352009a4" x="69.467534" y="31.065186" style="fill: #81a1c1"/>
     <use xlink:href="#mc5352009a4" x="68.000144" y="31.351491" style="fill: #81a1c1"/>
     <use xlink:href="#mc5352009a4" x="66.842724" y="30.732432" style="fill: #81a1c1"/>
     <use xlink:href="#mc5352009a4" x="66.065726" y="30.661035" style="fill: #81a1c1"/>
     <use xlink:href="#mc5352009a4" x="65.623562" y="30.657857" style="fill: #81a1c1"/>
     <use xlink:href="#mc5352009a4" x="65.42356" y="30.046379" style="fill: #81a1c1"/>
     <use xlink:href="#mc5352009a4" x="65.374754" y="30.463874" style="fill: #81a1c1"/>
     <use xlink:href="#mc5352009a4" x="65.40791" y="29.90836" style="fill: #81a1c1"/>
     <use xlink:href="#mc5352009a4" x="65.477651" y="30.200102" style="fill: #81a1c1"/>
     <use xlink:href="#mc5352009a4" x="65.557604" y="30.042587" style="fill: #81a1c1"/>
     <use xlink:href="#mc5352009a4" x="65.634423" y="29.324133" style="fill: #81a1c1"/>
     <use xlink:href="#mc5352009a4" x="65.702852" y="28.53801" style="fill: #81a1c1"/>
     <use xlink:href="#mc5352009a4" x="65.762247" y="29.15372" style="fill: #81a1c1"/>
     <use xlink:href="#mc5352009a4" x="65.814349" y="28.843033" style="fill: #81a1c1"/>
     <use xlink:href="#mc5352009a4" x="65.861984" y="28.429163" style="fill: #81a1c1"/>
     <use xlink:href="#mc5352009a4" x="65.908398" y="28.418738" style="fill: #81a1c1"/>
     <use xlink:href="#mc5352009a4" x="65.956986" y="28.850291" style="fill: #81a1c1"/>
     <use xlink:href="#mc5352009a4" x="66.011273" y="28.475076" style="fill: #81a1c1"/>
     <use xlink:href="#mc5352009a4" x="66.075037" y="28.937307" style="fill: #81a1c1"/>
     <use xlink:href="#mc5352009a4" x="66.152533" y="28.999582" style="fill: #81a1c1"/>
     <use xlink:href="#mc5352009a4" x="66.248785" y="28.596055" style="fill: #81a1c1"/>
     <use xlink:href="#mc5352009a4" x="66.36994" y="29.336031" style="fill: #81a1c1"/>
     <use xlink:href="#mc5352009a4" x="66.5237" y="29.844647" style="fill: #81a1c1"/>
     <use xlink:href="#mc5352009a4" x="66.719834" y="30.336475" style="fill: #81a1c1"/>
     <use xlink:href="#mc5352009a4" x="66.970772" y="30.376449" style="fill: #81a1c1"/>
     <use xlink:href="#mc5352009a4" x="67.292242" y="30.524661" style="fill: #81a1c1"/>
     <use xlink:href="#mc5352009a4" x="67.703842" y="31.344426" style="fill: #81a1c1"/>
     <use xlink:href="#mc5352009a4" x="68.229239" y="30.679256" style="fill: #81a1c1"/>
     <use xlink:href="#mc5352009a4" x="68.89531" y="31.749446" style="fill: #81a1c1"/>
     <use xlink:href="#mc5352009a4" x="69.728776" y="31.376192" style="fill: #81a1c1"/>
     <use xlink:href="#mc5352009a4" x="70.74754" y="32.142073" style="fill: #81a1c1"/>
     <use xlink:href="#mc5352009a4" x="71.94208" y="31.370617" style="fill: #81a1c1"/>
     <use xlink:href="#mc5352009a4" x="73.241356" y="31.474918" style="fill: #81a1c1"/>
     <use xlink:href="#mc5352009a4" x="74.463421" y="32.141294" style="fill: #81a1c1"/>
     <use xlink:href="#mc5352009a4" x="75.275669" y="31.077578" style="fill: #81a1c1"/>
     <use xlink:href="#mc5352009a4" x="75.239043" y="31.037599" style="fill: #81a1c1"/>
     <use xlink:href="#mc5352009a4" x="74.027376" y="30.851684" style="fill: #81a1c1"/>
     <use xlink:href="#mc5352009a4" x="71.751902" y="30.405476" style="fill: #81a1c1"/>
     <use xlink:href="#mc5352009a4" x="69.038635" y="30.384745" style="fill: #81a1c1"/>
     <use xlink:href="#mc5352009a4" x="66.64153" y="29.630791" style="fill: #81a1c1"/>
     <use xlink:href="#mc5352009a4" x="64.978728" y="29.514623" style="fill: #81a1c1"/>
     <use xlink:href="#mc5352009a4" x="64.049829" y="28.727024" style="fill: #81a1c1"/>
     <use xlink:href="#mc5352009a4" x="63.64355" y="28.215033" style="fill: #81a1c1"/>
     <use xlink:href="#mc5352009a4" x="63.533103" y="27.963392" style="fill: #81a1c1"/>
     <use xlink:href="#mc5352009a4" x="63.553795" y="27.159317" style="fill: #81a1c1"/>
     <use xlink:href="#mc5352009a4" x="63.606007" y="26.329589" style="fill: #81a1c1"/>
     <use xlink:href="#mc5352009a4" x="63.635896" y="25.835592" style="fill: #81a1c1"/>
     <use xlink:href="#mc5352009a4" x="63.616906" y="24.466676" style="fill: #81a1c1"/>
     <use xlink:href="#mc5352009a4" x="63.537163" y="23.866886" style="fill: #81a1c1"/>
     <use xlink:href="#mc5352009a4" x="63.39194" y="22.934739" style="fill: #81a1c1"/>
     <use xlink:href="#mc5352009a4" x="63.179597" y="21.798578" style="fill: #81a1c1"/>
     <use xlink:href="#mc5352009a4" x="62.899828" y="20.437627" style="fill: #81a1c1"/>
     <use xlink:href="#mc5352009a4" x="62.553557" y="18.914069" style="fill: #81a1c1"/>
     <use xlink:href="#mc5352009a4" x="62.144209" y="18.956018" style="fill: #81a1c1"/>
     <use xlink:href="#mc5352009a4" x="61.680298" y="17.642211" style="fill: #81a1c1"/>
     <use xlink:href="#mc5352009a4" x="61.179245" y="16.622034" style="fill: #81a1c1"/>
     <use xlink:href="#mc5352009a4" x="60.672034" y="16.206296" style="fill: #81a1c1"/>
     <use xlink:href="#mc5352009a4" x="60.207289" y="16.198627" style="fill: #81a1c1"/>
     <use xlink:href="#mc5352009a4" x="59.851853" y="15.876244" style="fill: #81a1c1"/>
     <use xlink:href="#mc5352009a4" x="59.683423" y="15.420371" style="fill: #81a1c1"/>
     <use xlink:href="#mc5352009a4" x="59.771644" y="15.454985" style="fill: #81a1c1"/>
     <use xlink:href="#mc5352009a4" x="60.149947" y="16.228398" style="fill: #81a1c1"/>
     <use xlink:href="#mc5352009a4" x="60.790801" y="15.709456" style="fill: #81a1c1"/>
     <use xlink:href="#mc5352009a4" x="61.602864" y="16.198906" style="fill: #81a1c1"/>
     <use xlink:href="#mc5352009a4" x="62.458449" y="15.783834" style="fill: #81a1c1"/>
     <use xlink:href="#mc5352009a4" x="63.237448" y="16.563377" style="fill: #81a1c1"/>
     <use xlink:href="#mc5352009a4" x="63.861542" y="15.399841" style="fill: #81a1c1"/>
     <use xlink:href="#mc5352009a4" x="64.303136" y="16.092103" style="fill: #81a1c1"/>
     <use xlink:href="#mc5352009a4" x="64.573316" y="17.002688" style="fill: #81a1c1"/>
     <use xlink:href="#mc5352009a4" x="64.702685" y="16.685886" style="fill: #81a1c1"/>
     <use xlink:href="#mc5352009a4" x="64.725664" y="17.415259" style="fill: #81a1c1"/>
     <use xlink:href="#mc5352009a4" x="64.671583" y="17.112619" style="fill: #81a1c1"/>
     <use xlink:href="#mc5352009a4" x="64.561403" y="16.547445" style="fill: #81a1c1"/>
     <use xlink:href="#mc5352009a4" x="64.407711" y="16.648368" style="fill: #81a1c1"/>
     <use xlink:href="#mc5352009a4" x="64.216105" y="15.582269" style="fill: #81a1c1"/>
     <use xlink:href="#mc5352009a4" x="63.986912" y="15.48985" style="fill: #81a1c1"/>
     <use xlink:href="#mc5352009a4" x="63.716794" y="14.637082" style="fill: #81a1c1"/>
     <use xlink:href="#mc5352009a4" x="63.400181" y="15.241874" style="fill: #81a1c1"/>
     <use xlink:href="#mc5352009a4" x="63.030692" y="13.659223" style="fill: #81a1c1"/>
     <use xlink:href="#mc5352009a4" x="62.602848" y="13.653941" style="fill: #81a1c1"/>
     <use xlink:href="#mc5352009a4" x="62.1145" y="14.000501" style="fill: #81a1c1"/>
     <use xlink:href="#mc5352009a4" x="61.570408" y="13.276278" style="fill: #81a1c1"/>
     <use xlink:href="#mc5352009a4" x="60.987323" y="13.116227" style="fill: #81a1c1"/>
     <use xlink:href="#mc5352009a4" x="60.400274" y="13.115499" style="fill: #81a1c1"/>
     <use xlink:href="#mc5352009a4" x="59.868338" y="12.617684" style="fill: #81a1c1"/>
     <use xlink:href="#mc5352009a4" x="59.47563" y="13.515217" style="fill: #81a1c1"/>
     <use xlink:href="#mc5352009a4" x="59.320734" y="12.630348" style="fill: #81a1c1"/>
     <use xlink:href="#mc5352009a4" x="59.489044" y="13.426858" style="fill: #81a1c1"/>
     <use xlink:href="#mc5352009a4" x="60.012399" y="13.289792" style="fill: #81a1c1"/>
     <use xlink:href="#mc5352009a4" x="60.837231" y="13.254825" style="fill: #81a1c1"/>
     <use xlink:href="#mc5352009a4" x="61.829221" y="14.053856" style="fill: #81a1c1"/>
     <use xlink:href="#mc5352009a4" x="62.821075" y="15.097748" style="fill: #81a1c1"/>
     <use xlink:href="#mc5352009a4" x="63.674353" y="15.163455" style="fill: #81a1c1"/>
     <use xlink:href="#mc5352009a4" x="64.316295" y="15.845473" style="fill: #81a1c1"/>
     <use xlink:href="#mc5352009a4" x="64.738449" y="15.418534" style="fill: #81a1c1"/>
     <use xlink:href="#mc5352009a4" x="64.97247" y="16.28547" style="fill: #81a1c1"/>
     <use xlink:href="#mc5352009a4" x="65.06415" y="16.385008" style="fill: #81a1c1"/>
     <use xlink:href="#mc5352009a4" x="65.056463" y="16.919889" style="fill: #81a1c1"/>
     <use xlink:href="#mc5352009a4" x="64.98219" y="17.196201" style="fill: #81a1c1"/>
     <use xlink:href="#mc5352009a4" x="64.862698" y="16.34945" style="fill: #81a1c1"/>
     <use xlink:href="#mc5352009a4" x="64.709502" y="16.238085" style="fill: #81a1c1"/>
     <use xlink:href="#mc5352009a4" x="64.526585" y="16.348383" style="fill: #81a1c1"/>
     <use xlink:href="#mc5352009a4" x="64.312512" y="15.912148" style="fill: #81a1c1"/>
     <use xlink:href="#mc5352009a4" x="64.062085" y="15.820414" style="fill: #81a1c1"/>
     <use xlink:href="#mc5352009a4" x="63.767568" y="15.271443" style="fill: #81a1c1"/>
     <use xlink:href="#mc5352009a4" x="63.419697" y="14.796189" style="fill: #81a1c1"/>
     <use xlink:href="#mc5352009a4" x="63.008805" y="14.40073" style="fill: #81a1c1"/>
     <use xlink:href="#mc5352009a4" x="62.5265" y="14.005363" style="fill: #81a1c1"/>
     <use xlink:href="#mc5352009a4" x="61.968476" y="13.206138" style="fill: #81a1c1"/>
     <use xlink:href="#mc5352009a4" x="61.33917" y="13.420612" style="fill: #81a1c1"/>
     <use xlink:href="#mc5352009a4" x="60.658858" y="12.819288" style="fill: #81a1c1"/>
     <use xlink:href="#mc5352009a4" x="59.972965" y="13.160903" style="fill: #81a1c1"/>
     <use xlink:href="#mc5352009a4" x="59.361" y="13.880117" style="fill: #81a1c1"/>
     <use xlink:href="#mc5352009a4" x="58.938097" y="13.467208" style="fill: #81a1c1"/>
     <use xlink:href="#mc5352009a4" x="58.837617" y="14.408092" style="fill: #81a1c1"/>
     <use xlink:href="#mc5352009a4" x="59.165983" y="13.914089" style="fill: #81a1c1"/>
     <use xlink:href="#mc5352009a4" x="59.940537" y="14.042623" style="fill: #81a1c1"/>
     <use xlink:href="#mc5352009a4" x="61.051142" y="14.760361" style="fill: #81a1c1"/>
     <use xlink:href="#mc5352009a4" x="62.288821" y="15.584897" style="fill: #81a1c1"/>
     <use xlink:href="#mc5352009a4" x="63.433841" y="15.806138" style="fill: #81a1c1"/>
     <use xlink:href="#mc5352009a4" x="64.339843" y="16.243253" style="fill: #81a1c1"/>
     <use xlink:href="#mc5352009a4" x="64.960941" y="17.478187" style="fill: #81a1c1"/>
     <use xlink:href="#mc5352009a4" x="65.325966" y="17.798903" style="fill: #81a1c1"/>
     <use xlink:href="#mc5352009a4" x="65.496563" y="17.761973" style="fill: #81a1c1"/>
     <use xlink:href="#mc5352009a4" x="65.536001" y="18.033035" style="fill: #81a1c1"/>
     <use xlink:href="#mc5352009a4" x="65.494531" y="18.429599" style="fill: #81a1c1"/>
     <use xlink:href="#mc5352009a4" x="65.406202" y="18.802848" style="fill: #81a1c1"/>
     <use xlink:href="#mc5352009a4" x="65.290979" y="18.180205" style="fill: #81a1c1"/>
     <use xlink:href="#mc5352009a4" x="65.158304" y="18.412444" style="fill: #81a1c1"/>
     <use xlink:href="#mc5352009a4" x="65.010362" y="18.257744" style="fill: #81a1c1"/>
     <use xlink:href="#mc5352009a4" x="64.844506" y="18.33834" style="fill: #81a1c1"/>
     <use xlink:href="#mc5352009a4" x="64.654832" y="17.181972" style="fill: #81a1c1"/>
     <use xlink:href="#mc5352009a4" x="64.433078" y="17.159467" style="fill: #81a1c1"/>
     <use xlink:href="#mc5352009a4" x="64.169067" y="16.434898" style="fill: #81a1c1"/>
     <use xlink:href="#mc5352009a4" x="63.850929" y="16.015086" style="fill: #81a1c1"/>
     <use xlink:href="#mc5352009a4" x="63.465381" y="15.25894" style="fill: #81a1c1"/>
     <use xlink:href="#mc5352009a4" x="62.998414" y="14.279408" style="fill: #81a1c1"/>
     <use xlink:href="#mc5352009a4" x="62.436967" y="13.323908" style="fill: #81a1c1"/>
     <use xlink:href="#mc5352009a4" x="61.772454" y="13.467292" style="fill: #81a1c1"/>
     <use xlink:href="#mc5352009a4" x="61.007428" y="13.658146" style="fill: #81a1c1"/>
     <use xlink:href="#mc5352009a4" x="60.166717" y="13.0076" style="fill: #81a1c1"/>
     <use xlink:href="#mc5352009a4" x="59.3133" y="13.796097" style="fill: #81a1c1"/>
     <use xlink:href="#mc5352009a4" x="58.564813" y="14.018537" style="fill: #81a1c1"/>
     <use xlink:href="#mc5352009a4" x="58.09727" y="13.788937" style="fill: #81a1c1"/>
     <use xlink:href="#mc5352009a4" x="58.112101" y="14.209989" style="fill: #81a1c1"/>
     <use xlink:href="#mc5352009a4" x="58.749476" y="14.862309" style="fill: #81a1c1"/>
     <use xlink:href="#mc5352009a4" x="59.979091" y="14.4102" style="fill: #81a1c1"/>
    </g>
   </g>
   <g id="patch_5">
    <path d="M 55.869751 33.271011 
L 55.869751 10.625856 
" style="fill: none; stroke: #2e3440; stroke-width: 0.5; stroke-linejoin: miter; stroke-linecap: square"/>
   </g>
   <g id="patch_6">
    <path d="M 55.869751 33.271011 
L 76.19976 33.271011 
" style="fill: none; stroke: #2e3440; stroke-width: 0.5; stroke-linejoin: miter; stroke-linecap: square"/>
   </g>
  </g>
 </g>
 <defs>
  <clipPath id="p7245e07d24">
   <rect x="3.00024" y="10.625856" width="40.660017" height="22.645155"/>
  </clipPath>
  <clipPath id="p6d912dea36">
   <rect x="55.869751" y="10.625856" width="20.330009" height="22.645155"/>
  </clipPath>
 </defs>
</svg>
