<?xml version="1.0" encoding="utf-8" standalone="no"?>
<!DOCTYPE svg PUBLIC "-//W3C//DTD SVG 1.1//EN"
  "http://www.w3.org/Graphics/SVG/1.1/DTD/svg11.dtd">
<svg xmlns:xlink="http://www.w3.org/1999/xlink" width="61.2pt" height="46.8pt" viewBox="0 0 61.2 46.8" xmlns="http://www.w3.org/2000/svg" version="1.1">
 <metadata>
  <rdf:RDF xmlns:dc="http://purl.org/dc/elements/1.1/" xmlns:cc="http://creativecommons.org/ns#" xmlns:rdf="http://www.w3.org/1999/02/22-rdf-syntax-ns#">
   <cc:Work>
    <dc:type rdf:resource="http://purl.org/dc/dcmitype/StillImage"/>
    <dc:date>2024-04-24T10:45:13.526345</dc:date>
    <dc:format>image/svg+xml</dc:format>
    <dc:creator>
     <cc:Agent>
      <dc:title>Matplotlib v3.8.0, https://matplotlib.org/</dc:title>
     </cc:Agent>
    </dc:creator>
   </cc:Work>
  </rdf:RDF>
 </metadata>
 <defs>
  <style type="text/css">*{stroke-linejoin: round; stroke-linecap: butt}</style>
 </defs>
 <g id="figure_1">
  <g id="patch_1">
   <path d="M 0 46.8 
L 61.2 46.8 
L 61.2 0 
L 0 0 
z
" style="fill: #ffffff"/>
  </g>
  <g id="axes_1">
   <g id="patch_2">
    <path d="M 13.14589 33.65411 
L 58.19976 33.65411 
L 58.19976 3.00024 
L 13.14589 3.00024 
z
" style="fill: #eceff4"/>
   </g>
   <g id="matplotlib.axis_1">
    <g id="text_1">
     <text style="fill: #2e3440; font: 6.72px 'Arial'; text-anchor: middle" x="35.672825" y="42.46416" transform="rotate(-0 35.672825 42.46416)">Time</text>
    </g>
   </g>
   <g id="matplotlib.axis_2">
    <g id="text_2">
     <text style="fill: #2e3440; font: 6.72px 'Arial'; text-anchor: middle" x="7.81029" y="18.327175" transform="rotate(-90 7.81029 18.327175)">Input</text>
    </g>
   </g>
   <g id="line2d_1">
    <path d="M 13.27104 9.964289 
L 13.646489 5.062688 
L 13.771638 5.672541 
L 14.021937 11.335984 
L 14.397386 19.907669 
L 14.647686 21.396364 
L 14.772835 21.494671 
L 15.273434 21.378882 
L 15.523733 21.712221 
L 15.774032 22.436119 
L 16.149481 24.338063 
L 16.900379 28.751138 
L 17.025529 28.434893 
L 17.275828 26.133156 
L 17.776427 20.564155 
L 18.026726 19.615759 
L 18.277025 19.531888 
L 18.527324 19.831738 
L 18.902773 20.60862 
L 19.278222 21.84371 
L 19.653671 23.913118 
L 20.404569 29.598171 
L 20.529719 29.49393 
L 20.780018 27.022665 
L 21.280617 19.990507 
L 21.530916 18.814728 
L 21.781215 18.684288 
L 22.156664 19.081318 
L 22.782412 20.058035 
L 23.157861 21.110028 
L 23.53331 23.07311 
L 23.908759 26.552467 
L 24.409357 31.303633 
L 24.534507 30.867116 
L 24.784806 26.626527 
L 25.160255 19.133667 
L 25.410555 17.372188 
L 25.660854 17.140836 
L 26.161452 17.344929 
L 26.411752 17.18482 
L 26.662051 16.76222 
L 27.0375 15.486022 
L 27.412949 13.058254 
L 28.163847 6.864403 
L 28.288996 7.559269 
L 28.539296 11.661455 
L 28.914745 18.05931 
L 29.165044 19.538028 
L 29.415343 19.720914 
L 30.166241 19.357039 
L 30.54169 19.560498 
L 30.917139 20.135414 
L 31.292588 21.351019 
L 31.668037 23.794844 
L 32.043485 28.147798 
L 32.418934 32.260752 
L 32.544084 31.939542 
L 32.794383 27.063172 
L 33.169832 18.275618 
L 33.420131 16.425198 
L 33.670431 16.250362 
L 34.04588 16.372487 
L 34.296179 16.134784 
L 34.546478 15.534002 
L 34.921927 13.835575 
L 35.797975 8.410283 
L 35.923124 8.855046 
L 36.173424 11.552082 
L 36.674022 17.375594 
L 36.924321 18.221984 
L 37.174621 18.240349 
L 37.55007 17.726282 
L 38.050668 16.569063 
L 38.426117 15.021446 
L 38.801566 12.368715 
L 39.427314 7.304163 
L 39.552464 7.612363 
L 39.802763 10.810998 
L 40.303362 18.280477 
L 40.553661 19.248744 
L 40.80396 19.272342 
L 42.055457 18.362583 
L 42.430906 18.004458 
L 42.806354 17.294204 
L 43.181803 15.810503 
L 43.557252 12.75728 
L 44.183 4.393598 
L 44.30815 4.448822 
L 44.558449 9.706782 
L 44.933898 19.919469 
L 45.184198 21.932669 
L 45.309347 22.099201 
L 45.809946 21.972842 
L 46.060245 22.312049 
L 46.435694 23.576176 
L 47.311741 27.903802 
L 47.436891 27.770782 
L 47.68719 26.234083 
L 48.312939 20.938135 
L 48.563238 20.33569 
L 48.688387 20.301042 
L 48.938687 20.548717 
L 49.314136 21.414942 
L 49.689585 22.856745 
L 50.190183 25.937764 
L 50.565632 28.217116 
L 50.690782 28.45067 
L 50.815931 28.196891 
L 51.066231 26.164076 
L 51.566829 20.918294 
L 51.817128 19.928904 
L 52.067428 19.802258 
L 52.317727 20.09442 
L 52.693176 20.923998 
L 53.068625 22.270197 
L 53.444074 24.458368 
L 54.069822 29.027616 
L 54.194972 29.179121 
L 54.320121 28.684007 
L 54.57042 25.841538 
L 55.071019 19.946288 
L 55.321318 19.138669 
L 55.571618 19.141733 
L 55.947066 19.648702 
L 56.447665 20.742206 
L 56.823114 22.201314 
L 57.198563 24.753932 
L 57.824311 30.295427 
L 57.949461 30.273064 
L 58.07461 29.312021 
L 58.19976 27.457991 
L 58.19976 27.457991 
" clip-path="url(#pec2b928e4e)" style="fill: none; stroke: #b48ead; stroke-width: 0.5; stroke-linecap: round"/>
   </g>
   <g id="patch_3">
    <path d="M 13.14589 33.65411 
L 58.19976 33.65411 
" style="fill: none; stroke: #2e3440; stroke-width: 0.5; stroke-linejoin: miter; stroke-linecap: square"/>
   </g>
  </g>
 </g>
 <defs>
  <clipPath id="pec2b928e4e">
   <rect x="13.14589" y="3.00024" width="45.05387" height="30.65387"/>
  </clipPath>
 </defs>
</svg>
