<?xml version="1.0" encoding="utf-8" standalone="no"?>
<!DOCTYPE svg PUBLIC "-//W3C//DTD SVG 1.1//EN"
  "http://www.w3.org/Graphics/SVG/1.1/DTD/svg11.dtd">
<svg xmlns:xlink="http://www.w3.org/1999/xlink" width="61.2pt" height="46.8pt" viewBox="0 0 61.2 46.8" xmlns="http://www.w3.org/2000/svg" version="1.1">
 <metadata>
  <rdf:RDF xmlns:dc="http://purl.org/dc/elements/1.1/" xmlns:cc="http://creativecommons.org/ns#" xmlns:rdf="http://www.w3.org/1999/02/22-rdf-syntax-ns#">
   <cc:Work>
    <dc:type rdf:resource="http://purl.org/dc/dcmitype/StillImage"/>
    <dc:date>2023-10-20T22:37:34.705774</dc:date>
    <dc:format>image/svg+xml</dc:format>
    <dc:creator>
     <cc:Agent>
      <dc:title>Matplotlib v3.8.0, https://matplotlib.org/</dc:title>
     </cc:Agent>
    </dc:creator>
   </cc:Work>
  </rdf:RDF>
 </metadata>
 <defs>
  <style type="text/css">*{stroke-linejoin: round; stroke-linecap: butt}</style>
 </defs>
 <g id="figure_1">
  <g id="patch_1">
   <path d="M 0 46.8 
L 61.2 46.8 
L 61.2 0 
L 0 0 
z
" style="fill: #ffffff"/>
  </g>
  <g id="axes_1">
   <g id="patch_2">
    <path d="M 13.584865 33.215135 
L 58.19976 33.215135 
L 58.19976 3.00024 
L 13.584865 3.00024 
z
" style="fill: #eceff4"/>
   </g>
   <g id="matplotlib.axis_1">
    <g id="text_1">
     <text style="fill: #2e3440; font: 7.2px 'Arial'; text-anchor: middle" x="35.892313" y="42.36876" transform="rotate(-0 35.892313 42.36876)">Time</text>
    </g>
   </g>
   <g id="matplotlib.axis_2">
    <g id="text_2">
     <text style="fill: #2e3440; font: 7.2px 'Arial'; text-anchor: middle" x="8.153865" y="18.107687" transform="rotate(-90 8.153865 18.107687)">Input</text>
    </g>
   </g>
   <g id="line2d_1">
    <path d="M 13.708795 9.864561 
L 14.080586 5.033153 
L 14.204516 5.634273 
L 14.452377 11.216613 
L 14.824168 19.665549 
L 15.072028 21.132925 
L 15.195958 21.229824 
L 15.691679 21.115693 
L 15.93954 21.444259 
L 16.187401 22.15779 
L 16.559191 24.032497 
L 17.302773 28.382375 
L 17.426703 28.07066 
L 17.674564 25.801884 
L 18.170285 20.312633 
L 18.418145 19.377819 
L 18.666006 19.295149 
L 18.913866 19.590705 
L 19.285657 20.356462 
L 19.657448 21.573864 
L 20.029239 23.613638 
L 20.77282 29.217279 
L 20.896751 29.11453 
L 21.144611 26.678654 
L 21.640332 19.7472 
L 21.888193 18.588258 
L 22.136053 18.459687 
L 22.507844 18.851031 
L 23.127495 19.813761 
L 23.499286 20.850689 
L 23.871077 22.785659 
L 24.242868 26.215191 
L 24.738589 30.898318 
L 24.862519 30.468052 
L 25.11038 26.28819 
L 25.48217 18.902631 
L 25.730031 17.166376 
L 25.977891 16.938338 
L 26.473612 17.139508 
L 26.721473 16.981692 
L 26.969334 16.565143 
L 27.341124 15.307221 
L 27.712915 12.91422 
L 28.456497 6.809067 
L 28.580427 7.493982 
L 28.828287 11.537423 
L 29.200078 17.843659 
L 29.447939 19.3012 
L 29.695799 19.481468 
L 30.439381 19.122803 
L 30.811172 19.323349 
L 31.182962 19.890032 
L 31.554753 21.088229 
L 31.926544 23.497057 
L 32.298335 27.787675 
L 32.670126 31.841731 
L 32.794056 31.52512 
L 33.041916 26.718582 
L 33.413707 18.056868 
L 33.661568 16.232947 
L 33.909428 16.060616 
L 34.281219 16.180991 
L 34.52908 15.946692 
L 34.77694 15.354513 
L 35.148731 13.680409 
L 36.016243 8.33281 
L 36.140173 8.771203 
L 36.388034 11.429616 
L 36.883755 17.169734 
L 37.131615 18.004003 
L 37.379476 18.022105 
L 37.751266 17.5154 
L 38.246988 16.374752 
L 38.618778 14.849298 
L 38.990569 12.234554 
L 39.61022 7.242529 
L 39.734151 7.546316 
L 39.982011 10.699145 
L 40.477732 18.061658 
L 40.725593 19.016059 
L 40.973453 19.03932 
L 42.212756 18.142588 
L 42.584547 17.789592 
L 42.956338 17.089509 
L 43.328128 15.627055 
L 43.699919 12.617556 
L 44.31957 4.373644 
L 44.443501 4.428078 
L 44.691361 9.610742 
L 45.063152 19.677179 
L 45.311013 21.661549 
L 45.434943 21.825697 
L 45.930664 21.701147 
L 46.178524 22.035497 
L 46.550315 23.28152 
L 47.417827 27.547174 
L 47.541757 27.416058 
L 47.789618 25.901366 
L 48.409269 20.681257 
L 48.65713 20.08744 
L 48.90499 20.133665 
L 49.152851 20.525836 
L 49.524642 21.552691 
L 49.896432 23.208262 
L 50.763944 28.086211 
L 50.887874 27.836065 
L 51.135735 25.832361 
L 51.631456 20.661701 
L 51.879317 19.686479 
L 52.127177 19.561647 
L 52.375038 19.849625 
L 52.746828 20.667323 
L 53.118619 21.994244 
L 53.49041 24.151079 
L 54.110061 28.654894 
L 54.233992 28.804229 
L 54.357922 28.316206 
L 54.605782 25.514442 
L 55.101503 19.703615 
L 55.349364 18.907561 
L 55.597224 18.910581 
L 55.969015 19.41029 
L 56.464736 20.488135 
L 56.836527 21.926347 
L 57.208318 24.442411 
L 57.827969 29.904549 
L 57.951899 29.882507 
L 58.07583 28.935226 
L 58.19976 27.107747 
L 58.19976 27.107747 
" clip-path="url(#p7fe3d12dc6)" style="fill: none; stroke: #b48ead; stroke-width: 0.5; stroke-linecap: round"/>
   </g>
   <g id="patch_3">
    <path d="M 13.584865 33.215135 
L 58.19976 33.215135 
" style="fill: none; stroke: #2e3440; stroke-width: 0.5; stroke-linejoin: miter; stroke-linecap: square"/>
   </g>
  </g>
 </g>
 <defs>
  <clipPath id="p7fe3d12dc6">
   <rect x="13.584865" y="3.00024" width="44.614895" height="30.214895"/>
  </clipPath>
 </defs>
</svg>
