<?xml version="1.0" encoding="utf-8" standalone="no"?>
<!DOCTYPE svg PUBLIC "-//W3C//DTD SVG 1.1//EN"
  "http://www.w3.org/Graphics/SVG/1.1/DTD/svg11.dtd">
<svg xmlns:xlink="http://www.w3.org/1999/xlink" width="453.6pt" height="216pt" viewBox="0 0 453.6 216" xmlns="http://www.w3.org/2000/svg" version="1.1">
 <metadata>
  <rdf:RDF xmlns:dc="http://purl.org/dc/elements/1.1/" xmlns:cc="http://creativecommons.org/ns#" xmlns:rdf="http://www.w3.org/1999/02/22-rdf-syntax-ns#">
   <cc:Work>
    <dc:type rdf:resource="http://purl.org/dc/dcmitype/StillImage"/>
    <dc:date>2023-10-23T15:01:12.538232</dc:date>
    <dc:format>image/svg+xml</dc:format>
    <dc:creator>
     <cc:Agent>
      <dc:title>Matplotlib v3.8.0, https://matplotlib.org/</dc:title>
     </cc:Agent>
    </dc:creator>
   </cc:Work>
  </rdf:RDF>
 </metadata>
 <defs>
  <style type="text/css">*{stroke-linejoin: round; stroke-linecap: butt}</style>
 </defs>
 <g id="figure_1">
  <g id="patch_1">
   <path d="M 0 216 
L 453.6 216 
L 453.6 0 
L 0 0 
z
" style="fill: #ffffff"/>
  </g>
  <g id="axes_1">
   <g id="patch_2">
    <path d="M 31.058865 78.353856 
L 106.32666 78.353856 
L 106.32666 14.153865 
L 31.058865 14.153865 
z
" style="fill: #eceff4"/>
   </g>
   <g id="matplotlib.axis_1">
    <g id="xtick_1">
     <g id="line2d_1">
      <defs>
       <path id="mb9620b24b7" d="M 0 0 
L 0 4.8 
" style="stroke: #2e3440"/>
      </defs>
      <g>
       <use xlink:href="#mb9620b24b7" x="31.058865" y="78.353856" style="fill: #2e3440; stroke: #2e3440"/>
      </g>
     </g>
    </g>
    <g id="xtick_2">
     <g id="line2d_2">
      <g>
       <use xlink:href="#mb9620b24b7" x="59.569393" y="78.353856" style="fill: #2e3440; stroke: #2e3440"/>
      </g>
     </g>
    </g>
    <g id="xtick_3">
     <g id="line2d_3">
      <g>
       <use xlink:href="#mb9620b24b7" x="88.079922" y="78.353856" style="fill: #2e3440; stroke: #2e3440"/>
      </g>
     </g>
    </g>
   </g>
   <g id="matplotlib.axis_2">
    <g id="ytick_1">
     <g id="line2d_4">
      <defs>
       <path id="m1fb5ec9d98" d="M 0 0 
L -4.8 0 
" style="stroke: #2e3440"/>
      </defs>
      <g>
       <use xlink:href="#m1fb5ec9d98" x="31.058865" y="78.353856" style="fill: #2e3440; stroke: #2e3440"/>
      </g>
     </g>
     <g id="text_1">
      <text style="fill: #2e3440; font: 6.6px 'Arial'; text-anchor: end" x="22.758865" y="80.715934" transform="rotate(-0 22.758865 80.715934)">0.0</text>
     </g>
    </g>
    <g id="ytick_2">
     <g id="line2d_5">
      <g>
       <use xlink:href="#m1fb5ec9d98" x="31.058865" y="49.172042" style="fill: #2e3440; stroke: #2e3440"/>
      </g>
     </g>
     <g id="text_2">
      <text style="fill: #2e3440; font: 6.6px 'Arial'; text-anchor: end" x="22.758865" y="51.53412" transform="rotate(-0 22.758865 51.53412)">0.5</text>
     </g>
    </g>
    <g id="ytick_3">
     <g id="line2d_6">
      <g>
       <use xlink:href="#m1fb5ec9d98" x="31.058865" y="19.990228" style="fill: #2e3440; stroke: #2e3440"/>
      </g>
     </g>
     <g id="text_3">
      <text style="fill: #2e3440; font: 6.6px 'Arial'; text-anchor: end" x="22.758865" y="22.352306" transform="rotate(-0 22.758865 22.352306)">1.0</text>
     </g>
    </g>
    <g id="text_4">
     <!-- $\Phi$ score -->
     <g style="fill: #2e3440" transform="translate(8.153865 58.92586) rotate(-90)">
      <text>
       <tspan style="font: 7.2px 'DejaVu Sans'" x="0" y="-0.765625">Φ</tspan>
       <tspan style="font: 7.2px 'Arial'" x="5.657349 7.654266 11.248016 14.841766 18.839111 21.232605" y="-0.765625"> score</tspan>
      </text>
     </g>
    </g>
   </g>
   <g id="line2d_7">
    <path d="M 38.585645 45.472255 
L 39.338322 44.5634 
L 40.091 47.598011 
L 40.843678 42.892319 
M 42.349034 42.780307 
L 43.101712 42.060588 
L 43.85439 42.963313 
L 44.607068 43.886908 
L 45.359746 34.402322 
L 46.112424 42.787428 
L 46.865102 40.467127 
L 47.61778 39.626065 
L 48.370458 41.642017 
L 49.123136 44.852513 
L 49.875814 47.522103 
L 50.628492 41.408662 
L 51.38117 39.258836 
L 52.133848 37.077322 
L 52.886526 37.789422 
L 53.639204 40.491693 
L 54.391881 40.790633 
L 55.144559 38.497602 
L 55.897237 39.302559 
L 56.649915 36.863619 
L 57.402593 40.372559 
L 58.155271 34.766846 
L 58.907949 35.30676 
L 59.660627 35.747192 
L 60.413305 39.917883 
L 61.165983 34.146609 
L 61.918661 39.275784 
L 62.671339 37.198664 
L 63.424017 36.970222 
L 64.176695 35.000202 
L 64.929373 37.6052 
L 65.682051 32.344855 
L 66.434729 39.070916 
L 67.187407 36.02427 
L 67.940085 36.994292 
L 68.692763 38.351693 
L 69.44544 35.854291 
L 70.198118 34.139487 
L 70.950796 36.829226 
L 71.703474 37.770266 
L 72.456152 37.390505 
L 73.20883 35.058665 
L 73.961508 33.818189 
L 74.714186 32.420266 
L 75.466864 35.848881 
L 76.219542 36.045635 
L 76.97222 35.535202 
L 77.724898 36.938534 
L 78.477576 36.393211 
L 79.230254 35.17559 
L 79.982932 32.04321 
L 80.73561 38.543534 
L 81.488288 39.236974 
L 82.240966 32.230138 
L 82.993644 35.345073 
L 83.746322 33.246588 
L 84.498999 34.348276 
L 85.251677 35.646718 
L 86.004355 30.902216 
L 86.757033 32.361307 
L 87.509711 32.356394 
L 88.262389 34.946652 
L 89.015067 36.128664 
L 89.767745 33.883774 
L 90.520423 33.995786 
L 91.273101 32.726328 
L 92.025779 34.282691 
L 92.778457 30.165549 
L 93.531135 33.343861 
L 94.283813 34.017152 
L 95.036491 33.774466 
L 95.789169 32.317584 
L 96.541847 33.334034 
L 97.294525 34.839056 
L 98.047203 30.260614 
L 98.799881 35.160354 
L 99.552558 33.73516 
L 100.305236 35.291523 
L 101.057914 35.486069 
L 101.810592 29.669359 
L 102.56327 36.264251 
L 103.315948 35.323212 
" clip-path="url(#p6b9ce19d2c)" style="fill: none; stroke: #5e81ac; stroke-width: 1.2; stroke-linecap: round"/>
   </g>
   <g id="line2d_8">
    <path d="M 38.585645 19.990228 
L 39.338322 19.990228 
L 40.091 19.990228 
L 40.843678 19.990228 
L 41.596356 19.990228 
L 42.349034 19.990228 
L 43.101712 19.990228 
L 43.85439 19.990228 
L 44.607068 19.990228 
L 45.359746 19.990228 
L 46.112424 19.990228 
L 46.865102 19.990228 
L 47.61778 19.990228 
L 48.370458 19.990228 
L 49.123136 19.990228 
L 49.875814 19.990228 
L 50.628492 19.990228 
L 51.38117 19.990228 
L 52.133848 19.990228 
L 52.886526 19.990228 
L 53.639204 19.990228 
L 54.391881 19.990228 
L 55.144559 19.990228 
L 55.897237 19.990228 
L 56.649915 19.990228 
L 57.402593 19.990228 
L 58.155271 19.990228 
L 58.907949 19.990228 
L 59.660627 19.990228 
L 60.413305 19.990228 
L 61.165983 19.990228 
L 61.918661 19.990228 
L 62.671339 19.990228 
L 63.424017 19.990228 
L 64.176695 19.990228 
L 64.929373 19.990228 
L 65.682051 19.990228 
L 66.434729 19.990228 
L 67.187407 19.990228 
L 67.940085 19.990228 
L 68.692763 19.990228 
L 69.44544 19.990228 
L 70.198118 19.990228 
L 70.950796 19.990228 
L 71.703474 19.990228 
L 72.456152 19.990228 
L 73.20883 19.990228 
L 73.961508 19.990228 
L 74.714186 19.990228 
L 75.466864 19.990228 
L 76.219542 19.990228 
L 76.97222 19.990228 
L 77.724898 19.990228 
L 78.477576 19.990228 
L 79.230254 19.990228 
L 79.982932 19.990228 
L 80.73561 19.990228 
L 81.488288 19.990228 
L 82.240966 19.990228 
L 82.993644 19.990228 
L 83.746322 19.990228 
L 84.498999 19.990228 
L 85.251677 19.990228 
L 86.004355 19.990228 
L 86.757033 19.990228 
L 87.509711 19.990228 
L 88.262389 19.990228 
L 89.015067 19.990228 
L 89.767745 19.990228 
L 90.520423 19.990228 
L 91.273101 19.990228 
L 92.025779 19.990228 
L 92.778457 19.990228 
L 93.531135 19.990228 
L 94.283813 19.990228 
L 95.036491 19.990228 
L 95.789169 19.990228 
L 96.541847 19.990228 
L 97.294525 19.990228 
L 98.047203 19.990228 
L 98.799881 19.990228 
L 99.552558 19.990228 
L 100.305236 19.990228 
L 101.057914 19.990228 
L 101.810592 19.990228 
L 102.56327 19.990228 
L 103.315948 19.990228 
" clip-path="url(#p6b9ce19d2c)" style="fill: none; stroke: #bf616a; stroke-width: 1.2; stroke-linecap: round"/>
   </g>
   <g id="patch_3">
    <path d="M 31.058865 78.353856 
L 31.058865 14.153865 
" style="fill: none; stroke: #2e3440; stroke-width: 0.5; stroke-linejoin: miter; stroke-linecap: square"/>
   </g>
   <g id="patch_4">
    <path d="M 31.058865 78.353856 
L 106.32666 78.353856 
" style="fill: none; stroke: #2e3440; stroke-width: 0.5; stroke-linejoin: miter; stroke-linecap: square"/>
   </g>
   <g id="text_5">
    <text style="fill: #2e3440; font: 700 7.2px 'Arial'; text-anchor: middle" x="68.692763" y="8.153865" transform="rotate(-0 68.692763 8.153865)">AND</text>
   </g>
  </g>
  <g id="axes_2">
   <g id="patch_5">
    <path d="M 117.12714 78.353856 
L 192.394935 78.353856 
L 192.394935 14.153865 
L 117.12714 14.153865 
z
" style="fill: #eceff4"/>
   </g>
   <g id="matplotlib.axis_3">
    <g id="xtick_4">
     <g id="line2d_9">
      <g>
       <use xlink:href="#mb9620b24b7" x="117.12714" y="78.353856" style="fill: #2e3440; stroke: #2e3440"/>
      </g>
     </g>
    </g>
    <g id="xtick_5">
     <g id="line2d_10">
      <g>
       <use xlink:href="#mb9620b24b7" x="145.637668" y="78.353856" style="fill: #2e3440; stroke: #2e3440"/>
      </g>
     </g>
    </g>
    <g id="xtick_6">
     <g id="line2d_11">
      <g>
       <use xlink:href="#mb9620b24b7" x="174.148197" y="78.353856" style="fill: #2e3440; stroke: #2e3440"/>
      </g>
     </g>
    </g>
   </g>
   <g id="matplotlib.axis_4">
    <g id="ytick_4">
     <g id="line2d_12">
      <g>
       <use xlink:href="#m1fb5ec9d98" x="117.12714" y="78.353856" style="fill: #2e3440; stroke: #2e3440"/>
      </g>
     </g>
    </g>
    <g id="ytick_5">
     <g id="line2d_13">
      <g>
       <use xlink:href="#m1fb5ec9d98" x="117.12714" y="49.172042" style="fill: #2e3440; stroke: #2e3440"/>
      </g>
     </g>
    </g>
    <g id="ytick_6">
     <g id="line2d_14">
      <g>
       <use xlink:href="#m1fb5ec9d98" x="117.12714" y="19.990228" style="fill: #2e3440; stroke: #2e3440"/>
      </g>
     </g>
    </g>
   </g>
   <g id="line2d_15">
    <path d="M 124.65392 54.93277 
M 126.911953 54.049202 
M 128.417309 47.71985 
L 129.169987 50.920023 
L 129.922665 53.956842 
L 130.675343 49.463141 
L 131.428021 52.563832 
L 132.180699 58.533573 
L 132.933377 54.680978 
L 133.686055 50.010176 
L 134.438733 50.471973 
L 135.191411 49.054397 
L 135.944089 51.034244 
L 136.696767 57.368509 
L 137.449445 50.385023 
L 138.202123 48.643444 
L 138.954801 47.923229 
L 139.707478 44.908271 
L 140.460156 49.857145 
L 141.212834 50.873595 
L 141.965512 54.195111 
L 142.71819 50.077969 
L 143.470868 55.83892 
L 144.223546 47.478877 
L 144.976224 49.307405 
L 145.728902 45.557492 
L 146.48158 49.051692 
L 147.234258 46.682754 
L 147.986936 46.852733 
L 148.739614 50.35996 
L 149.492292 45.297362 
L 150.24497 45.972862 
L 150.997648 45.491411 
L 151.750326 46.120979 
L 152.503004 44.661888 
L 153.255682 44.983186 
L 154.00836 47.877794 
L 154.761037 48.277927 
L 155.513715 48.883921 
L 156.266393 42.697277 
L 157.019071 41.97535 
L 157.771749 49.591605 
L 158.524427 44.569529 
L 159.277105 44.268381 
L 160.029783 45.922017 
L 160.782461 40.192753 
L 161.535139 47.995935 
L 162.287817 48.429742 
L 163.040495 44.394637 
L 163.793173 43.923013 
L 164.545851 48.74563 
L 165.298529 45.20942 
L 166.051207 44.231779 
L 166.803885 40.221736 
L 167.556563 40.914184 
L 168.309241 45.963531 
L 169.061919 42.371563 
L 169.814596 42.553577 
L 170.567274 40.898229 
L 171.319952 45.848814 
L 172.07263 42.446974 
L 172.825308 44.134507 
L 173.577986 44.725265 
L 174.330664 46.352126 
L 175.083342 42.301561 
L 175.83602 44.411585 
L 176.588698 42.276498 
L 177.341376 40.601001 
L 178.094054 42.704399 
L 178.846732 47.290956 
L 179.59941 38.05717 
L 180.352088 43.263965 
L 181.104766 38.112929 
L 181.857444 43.837775 
L 182.610122 44.47717 
L 183.3628 38.815699 
L 184.115478 42.575438 
L 184.868155 43.475459 
L 185.620833 43.939961 
L 186.373511 44.518684 
L 187.126189 39.720633 
L 187.878867 38.210698 
L 188.631545 43.878793 
L 189.384223 38.704183 
" clip-path="url(#p8e09f9caec)" style="fill: none; stroke: #5e81ac; stroke-width: 1.2; stroke-linecap: round"/>
   </g>
   <g id="line2d_16">
    <path d="M 124.65392 19.990228 
L 125.406597 19.990228 
L 126.159275 19.990228 
L 126.911953 19.990228 
L 127.664631 19.990228 
L 128.417309 19.990228 
L 129.169987 19.990228 
L 129.922665 19.990228 
L 130.675343 19.990228 
L 131.428021 19.990228 
L 132.180699 19.990228 
L 132.933377 19.990228 
L 133.686055 19.990228 
L 134.438733 19.990228 
L 135.191411 19.990228 
L 135.944089 19.990228 
L 136.696767 19.990228 
L 137.449445 19.990228 
L 138.202123 19.990228 
L 138.954801 19.990228 
L 139.707478 19.990228 
L 140.460156 19.990228 
L 141.212834 19.990228 
L 141.965512 19.990228 
L 142.71819 19.990228 
L 143.470868 19.990228 
L 144.223546 19.990228 
L 144.976224 19.990228 
L 145.728902 19.990228 
L 146.48158 19.990228 
L 147.234258 19.990228 
L 147.986936 19.990228 
L 148.739614 19.990228 
L 149.492292 19.990228 
L 150.24497 19.990228 
L 150.997648 19.990228 
L 151.750326 19.990228 
L 152.503004 19.990228 
L 153.255682 19.990228 
L 154.00836 19.990228 
L 154.761037 19.990228 
L 155.513715 19.990228 
L 156.266393 19.990228 
L 157.019071 19.990228 
L 157.771749 19.990228 
L 158.524427 19.990228 
L 159.277105 19.990228 
L 160.029783 19.990228 
L 160.782461 19.990228 
L 161.535139 19.990228 
L 162.287817 19.990228 
L 163.040495 19.990228 
L 163.793173 19.990228 
L 164.545851 19.990228 
L 165.298529 19.990228 
L 166.051207 19.990228 
L 166.803885 19.990228 
L 167.556563 19.990228 
L 168.309241 19.990228 
L 169.061919 19.990228 
L 169.814596 19.990228 
L 170.567274 19.990228 
L 171.319952 19.990228 
L 172.07263 19.990228 
L 172.825308 19.990228 
L 173.577986 19.990228 
L 174.330664 19.990228 
L 175.083342 19.990228 
L 175.83602 19.990228 
L 176.588698 19.990228 
L 177.341376 19.990228 
L 178.094054 19.990228 
L 178.846732 19.990228 
L 179.59941 19.990228 
L 180.352088 19.990228 
L 181.104766 19.990228 
L 181.857444 19.990228 
L 182.610122 19.990228 
L 183.3628 19.990228 
L 184.115478 19.990228 
L 184.868155 19.990228 
L 185.620833 19.990228 
L 186.373511 19.990228 
L 187.126189 19.990228 
L 187.878867 19.990228 
L 188.631545 19.990228 
L 189.384223 19.990228 
" clip-path="url(#p8e09f9caec)" style="fill: none; stroke: #bf616a; stroke-width: 1.2; stroke-linecap: round"/>
   </g>
   <g id="patch_6">
    <path d="M 117.12714 78.353856 
L 117.12714 14.153865 
" style="fill: none; stroke: #2e3440; stroke-width: 0.5; stroke-linejoin: miter; stroke-linecap: square"/>
   </g>
   <g id="patch_7">
    <path d="M 117.12714 78.353856 
L 192.394935 78.353856 
" style="fill: none; stroke: #2e3440; stroke-width: 0.5; stroke-linejoin: miter; stroke-linecap: square"/>
   </g>
   <g id="text_6">
    <text style="fill: #2e3440; font: 700 7.2px 'Arial'; text-anchor: middle" x="154.761037" y="8.153865" transform="rotate(-0 154.761037 8.153865)">OR</text>
   </g>
  </g>
  <g id="axes_3">
   <g id="patch_8">
    <path d="M 203.195415 78.353856 
L 278.46321 78.353856 
L 278.46321 14.153865 
L 203.195415 14.153865 
z
" style="fill: #eceff4"/>
   </g>
   <g id="matplotlib.axis_5">
    <g id="xtick_7">
     <g id="line2d_17">
      <g>
       <use xlink:href="#mb9620b24b7" x="203.195415" y="78.353856" style="fill: #2e3440; stroke: #2e3440"/>
      </g>
     </g>
    </g>
    <g id="xtick_8">
     <g id="line2d_18">
      <g>
       <use xlink:href="#mb9620b24b7" x="231.705943" y="78.353856" style="fill: #2e3440; stroke: #2e3440"/>
      </g>
     </g>
    </g>
    <g id="xtick_9">
     <g id="line2d_19">
      <g>
       <use xlink:href="#mb9620b24b7" x="260.216472" y="78.353856" style="fill: #2e3440; stroke: #2e3440"/>
      </g>
     </g>
    </g>
   </g>
   <g id="matplotlib.axis_6">
    <g id="ytick_7">
     <g id="line2d_20">
      <g>
       <use xlink:href="#m1fb5ec9d98" x="203.195415" y="78.353856" style="fill: #2e3440; stroke: #2e3440"/>
      </g>
     </g>
    </g>
    <g id="ytick_8">
     <g id="line2d_21">
      <g>
       <use xlink:href="#m1fb5ec9d98" x="203.195415" y="49.172042" style="fill: #2e3440; stroke: #2e3440"/>
      </g>
     </g>
    </g>
    <g id="ytick_9">
     <g id="line2d_22">
      <g>
       <use xlink:href="#m1fb5ec9d98" x="203.195415" y="19.990228" style="fill: #2e3440; stroke: #2e3440"/>
      </g>
     </g>
    </g>
   </g>
   <g id="line2d_23">
    <path d="M 210.722194 47.953205 
L 211.474872 46.805089 
L 212.22755 45.042145 
L 212.980228 47.984397 
L 213.732906 51.058314 
L 214.485584 50.06643 
L 215.238262 42.690652 
L 215.99094 43.442059 
L 216.743618 45.691366 
L 217.496296 43.654049 
L 218.248974 46.368355 
L 219.001652 44.480867 
L 219.75433 43.806583 
L 220.507008 49.487211 
L 221.259686 40.767059 
L 222.012364 47.133509 
L 222.765042 43.531714 
L 223.51772 41.090069 
L 224.270398 43.996712 
L 225.023076 38.726541 
L 225.775753 43.811497 
L 226.528431 37.897514 
L 227.281109 37.736865 
L 228.033787 43.572732 
L 228.786465 41.559484 
L 229.539143 40.64522 
L 230.291821 35.769053 
L 231.044499 42.415782 
L 231.797177 41.21903 
L 232.549855 40.569313 
L 233.302533 41.357817 
L 234.055211 40.929917 
L 234.807889 41.092774 
L 235.560567 37.917167 
L 236.313245 42.078032 
L 237.065923 38.553857 
L 237.818601 39.811777 
L 238.571279 37.06087 
L 239.323957 39.283402 
L 240.076635 42.009743 
L 240.829312 35.687017 
L 241.58199 35.679399 
L 242.334668 39.346778 
L 243.087346 36.032384 
L 243.840024 40.71351 
L 244.592702 40.035305 
L 245.34538 40.822817 
L 246.098058 39.432016 
L 246.850736 38.349485 
L 247.603414 37.277773 
L 248.356092 40.353898 
L 249.10877 36.844959 
L 249.861448 35.800741 
L 250.614126 40.280199 
L 251.366804 34.332817 
L 252.119482 37.180004 
L 252.87216 35.822603 
L 253.624838 37.413855 
L 254.377516 38.775177 
L 255.130194 36.995285 
L 255.882871 37.026477 
L 256.635549 36.282192 
L 257.388227 38.242882 
L 258.140905 33.872235 
L 258.893583 32.571585 
L 259.646261 36.781086 
L 260.398939 39.39812 
L 261.151617 40.452883 
L 261.904295 31.946434 
L 262.656973 33.801737 
L 263.409651 31.985244 
L 264.162329 35.635179 
L 264.915007 36.904638 
L 265.667685 35.341649 
L 266.420363 34.738359 
L 267.173041 34.110504 
L 267.925719 34.378748 
L 268.678397 32.754095 
L 269.431075 34.777169 
L 270.183753 35.75481 
L 270.93643 35.681607 
L 271.689108 34.312171 
L 272.441786 34.720915 
L 273.194464 33.447039 
L 273.947142 34.587041 
L 274.69982 33.057452 
L 275.452498 35.810568 
" clip-path="url(#pa1fecfd5ae)" style="fill: none; stroke: #5e81ac; stroke-width: 1.2; stroke-linecap: round"/>
   </g>
   <g id="line2d_24">
    <path d="M 210.722194 19.990228 
L 211.474872 19.990228 
L 212.22755 19.990228 
L 212.980228 19.990228 
L 213.732906 19.990228 
L 214.485584 19.990228 
L 215.238262 19.990228 
L 215.99094 19.990228 
L 216.743618 19.990228 
L 217.496296 19.990228 
L 218.248974 19.990228 
L 219.001652 19.990228 
L 219.75433 19.990228 
L 220.507008 19.990228 
L 221.259686 19.990228 
L 222.012364 19.990228 
L 222.765042 19.990228 
L 223.51772 19.990228 
L 224.270398 19.990228 
L 225.023076 19.990228 
L 225.775753 19.990228 
L 226.528431 19.990228 
L 227.281109 19.990228 
L 228.033787 19.990228 
L 228.786465 19.990228 
L 229.539143 19.990228 
L 230.291821 19.990228 
L 231.044499 19.990228 
L 231.797177 19.990228 
L 232.549855 19.990228 
L 233.302533 19.990228 
L 234.055211 19.990228 
L 234.807889 19.990228 
L 235.560567 19.990228 
L 236.313245 19.990228 
L 237.065923 19.990228 
L 237.818601 19.990228 
L 238.571279 19.990228 
L 239.323957 19.990228 
L 240.076635 19.990228 
L 240.829312 19.990228 
L 241.58199 19.990228 
L 242.334668 19.990228 
L 243.087346 19.990228 
L 243.840024 19.990228 
L 244.592702 19.990228 
L 245.34538 19.990228 
L 246.098058 19.990228 
L 246.850736 19.990228 
L 247.603414 19.990228 
L 248.356092 19.990228 
L 249.10877 19.990228 
L 249.861448 19.990228 
L 250.614126 19.990228 
L 251.366804 19.990228 
L 252.119482 19.990228 
L 252.87216 19.990228 
L 253.624838 19.990228 
L 254.377516 19.990228 
L 255.130194 19.990228 
L 255.882871 19.990228 
L 256.635549 19.990228 
L 257.388227 19.990228 
L 258.140905 19.990228 
L 258.893583 19.990228 
L 259.646261 19.990228 
L 260.398939 19.990228 
L 261.151617 19.990228 
L 261.904295 19.990228 
L 262.656973 19.990228 
L 263.409651 19.990228 
L 264.162329 19.990228 
L 264.915007 19.990228 
L 265.667685 19.990228 
L 266.420363 19.990228 
L 267.173041 19.990228 
L 267.925719 19.990228 
L 268.678397 19.990228 
L 269.431075 19.990228 
L 270.183753 19.990228 
L 270.93643 19.990228 
L 271.689108 19.990228 
L 272.441786 19.990228 
L 273.194464 19.990228 
L 273.947142 19.990228 
L 274.69982 19.990228 
L 275.452498 19.990228 
" clip-path="url(#pa1fecfd5ae)" style="fill: none; stroke: #bf616a; stroke-width: 1.2; stroke-linecap: round"/>
   </g>
   <g id="patch_9">
    <path d="M 203.195415 78.353856 
L 203.195415 14.153865 
" style="fill: none; stroke: #2e3440; stroke-width: 0.5; stroke-linejoin: miter; stroke-linecap: square"/>
   </g>
   <g id="patch_10">
    <path d="M 203.195415 78.353856 
L 278.46321 78.353856 
" style="fill: none; stroke: #2e3440; stroke-width: 0.5; stroke-linejoin: miter; stroke-linecap: square"/>
   </g>
   <g id="text_7">
    <text style="fill: #2e3440; font: 700 7.2px 'Arial'; text-anchor: middle" x="240.829312" y="8.153865" transform="rotate(-0 240.829312 8.153865)">Linear</text>
   </g>
  </g>
  <g id="axes_4">
   <g id="patch_11">
    <path d="M 289.26369 78.353856 
L 364.531485 78.353856 
L 364.531485 14.153865 
L 289.26369 14.153865 
z
" style="fill: #eceff4"/>
   </g>
   <g id="matplotlib.axis_7">
    <g id="xtick_10">
     <g id="line2d_25">
      <g>
       <use xlink:href="#mb9620b24b7" x="289.26369" y="78.353856" style="fill: #2e3440; stroke: #2e3440"/>
      </g>
     </g>
    </g>
    <g id="xtick_11">
     <g id="line2d_26">
      <g>
       <use xlink:href="#mb9620b24b7" x="317.774218" y="78.353856" style="fill: #2e3440; stroke: #2e3440"/>
      </g>
     </g>
    </g>
    <g id="xtick_12">
     <g id="line2d_27">
      <g>
       <use xlink:href="#mb9620b24b7" x="346.284747" y="78.353856" style="fill: #2e3440; stroke: #2e3440"/>
      </g>
     </g>
    </g>
   </g>
   <g id="matplotlib.axis_8">
    <g id="ytick_10">
     <g id="line2d_28">
      <g>
       <use xlink:href="#m1fb5ec9d98" x="289.26369" y="78.353856" style="fill: #2e3440; stroke: #2e3440"/>
      </g>
     </g>
    </g>
    <g id="ytick_11">
     <g id="line2d_29">
      <g>
       <use xlink:href="#m1fb5ec9d98" x="289.26369" y="49.172042" style="fill: #2e3440; stroke: #2e3440"/>
      </g>
     </g>
    </g>
    <g id="ytick_12">
     <g id="line2d_30">
      <g>
       <use xlink:href="#m1fb5ec9d98" x="289.26369" y="19.990228" style="fill: #2e3440; stroke: #2e3440"/>
      </g>
     </g>
    </g>
   </g>
   <g id="line2d_31">
    <path d="M 296.790469 40.619468 
L 297.543147 41.80586 
L 298.295825 44.995405 
L 299.048503 40.039489 
L 299.801181 36.655689 
L 300.553859 40.616431 
L 301.306537 35.230165 
L 302.059215 34.675534 
L 302.811893 35.639875 
L 303.564571 37.488943 
L 304.317249 37.812398 
L 305.069927 35.92887 
L 305.822605 36.744203 
L 306.575283 36.27935 
L 307.327961 34.933192 
L 308.080639 34.084497 
L 308.833317 33.11404 
L 309.585995 35.880143 
L 310.338673 32.410574 
L 311.091351 33.671755 
L 311.844028 37.834736 
L 312.596706 35.732006 
L 313.349384 34.216552 
L 314.102062 34.056616 
L 314.85474 34.585877 
L 315.607418 32.366999 
L 316.360096 33.042688 
L 317.112774 32.913337 
L 317.865452 33.465698 
L 318.61813 30.732249 
L 319.370808 29.17138 
L 320.123486 31.992264 
L 320.876164 33.070604 
L 321.628842 31.101303 
L 322.38152 33.49507 
L 323.134198 34.776352 
L 323.886876 31.866223 
L 324.639554 32.239547 
L 325.392232 32.268053 
L 326.14491 30.832573 
L 326.897587 31.308496 
L 327.650265 31.759003 
L 328.402943 32.635961 
L 329.155621 29.919374 
L 329.908299 30.309765 
L 330.660977 30.995444 
L 331.413655 28.615891 
L 332.166333 31.647977 
L 332.919011 31.108997 
L 333.671689 31.758401 
L 334.424367 30.055291 
L 335.177045 30.97464 
L 335.929723 28.901401 
L 336.682401 29.658725 
L 337.435079 29.64593 
L 338.187757 30.780717 
L 338.940435 28.048164 
L 339.693113 29.981332 
L 340.445791 27.984259 
L 341.198469 28.971617 
L 341.951146 28.586246 
L 342.703824 29.956561 
L 343.456502 29.026658 
L 344.20918 27.841491 
L 344.961858 28.551765 
L 345.714536 29.371892 
L 346.467214 29.370549 
L 347.219892 28.832413 
L 347.97257 28.795868 
L 348.725248 26.11866 
L 349.477926 27.578708 
L 350.230604 29.392059 
L 350.983282 29.722348 
L 351.73596 29.997947 
L 352.488638 29.784434 
L 353.241316 30.043391 
L 353.993994 30.622121 
L 354.746672 27.780565 
L 355.49935 28.06689 
L 356.252028 30.367112 
L 357.004705 27.747325 
L 357.757383 27.373461 
L 358.510061 29.800572 
L 359.262739 29.094884 
L 360.015417 28.559623 
L 360.768095 28.133192 
L 361.520773 31.097708 
" clip-path="url(#pee5dcb9844)" style="fill: none; stroke: #5e81ac; stroke-width: 1.2; stroke-linecap: round"/>
   </g>
   <g id="line2d_32">
    <path d="M 296.790469 19.990228 
L 297.543147 19.990228 
L 298.295825 19.990228 
L 299.048503 19.990228 
L 299.801181 19.990228 
L 300.553859 19.990228 
L 301.306537 19.990228 
L 302.059215 19.990228 
L 302.811893 19.990228 
L 303.564571 19.990228 
L 304.317249 19.990228 
L 305.069927 19.990228 
L 305.822605 19.990228 
L 306.575283 19.990228 
L 307.327961 19.990228 
L 308.080639 19.990228 
L 308.833317 19.990228 
L 309.585995 19.990228 
L 310.338673 19.990228 
L 311.091351 19.990228 
L 311.844028 19.990228 
L 312.596706 19.990228 
L 313.349384 19.990228 
L 314.102062 19.990228 
L 314.85474 19.990228 
L 315.607418 19.990228 
L 316.360096 19.990228 
L 317.112774 19.990228 
L 317.865452 19.990228 
L 318.61813 19.990228 
L 319.370808 19.990228 
L 320.123486 19.990228 
L 320.876164 19.990228 
L 321.628842 19.990228 
L 322.38152 19.990228 
L 323.134198 19.990228 
L 323.886876 19.990228 
L 324.639554 19.990228 
L 325.392232 19.990228 
L 326.14491 19.990228 
L 326.897587 19.990228 
L 327.650265 19.990228 
L 328.402943 19.990228 
L 329.155621 19.990228 
L 329.908299 19.990228 
L 330.660977 19.990228 
L 331.413655 19.990228 
L 332.166333 19.990228 
L 332.919011 19.990228 
L 333.671689 19.990228 
L 334.424367 19.990228 
L 335.177045 19.990228 
L 335.929723 19.990228 
L 336.682401 19.990228 
L 337.435079 19.990228 
L 338.187757 19.990228 
L 338.940435 19.990228 
L 339.693113 19.990228 
L 340.445791 19.990228 
L 341.198469 19.990228 
L 341.951146 19.990228 
L 342.703824 19.990228 
L 343.456502 19.990228 
L 344.20918 19.990228 
L 344.961858 19.990228 
L 345.714536 19.990228 
L 346.467214 19.990228 
L 347.219892 19.990228 
L 347.97257 19.990228 
L 348.725248 19.990228 
L 349.477926 19.990228 
L 350.230604 19.990228 
L 350.983282 19.990228 
L 351.73596 19.990228 
L 352.488638 19.990228 
L 353.241316 19.990228 
L 353.993994 19.990228 
L 354.746672 19.990228 
L 355.49935 19.990228 
L 356.252028 19.990228 
L 357.004705 19.990228 
L 357.757383 19.990228 
L 358.510061 19.990228 
L 359.262739 19.990228 
L 360.015417 19.990228 
L 360.768095 19.990228 
L 361.520773 19.990228 
" clip-path="url(#pee5dcb9844)" style="fill: none; stroke: #bf616a; stroke-width: 1.2; stroke-linecap: round"/>
   </g>
   <g id="patch_12">
    <path d="M 289.26369 78.353856 
L 289.26369 14.153865 
" style="fill: none; stroke: #2e3440; stroke-width: 0.5; stroke-linejoin: miter; stroke-linecap: square"/>
   </g>
   <g id="patch_13">
    <path d="M 289.26369 78.353856 
L 364.531485 78.353856 
" style="fill: none; stroke: #2e3440; stroke-width: 0.5; stroke-linejoin: miter; stroke-linecap: square"/>
   </g>
   <g id="text_8">
    <text style="fill: #2e3440; font: 700 7.2px 'Arial'; text-anchor: middle" x="326.897587" y="8.153865" transform="rotate(-0 326.897587 8.153865)">Triangle</text>
   </g>
  </g>
  <g id="axes_5">
   <g id="patch_14">
    <path d="M 375.331965 78.353856 
L 450.59976 78.353856 
L 450.59976 14.153865 
L 375.331965 14.153865 
z
" style="fill: #eceff4"/>
   </g>
   <g id="matplotlib.axis_9">
    <g id="xtick_13">
     <g id="line2d_33">
      <g>
       <use xlink:href="#mb9620b24b7" x="375.331965" y="78.353856" style="fill: #2e3440; stroke: #2e3440"/>
      </g>
     </g>
    </g>
    <g id="xtick_14">
     <g id="line2d_34">
      <g>
       <use xlink:href="#mb9620b24b7" x="403.842493" y="78.353856" style="fill: #2e3440; stroke: #2e3440"/>
      </g>
     </g>
    </g>
    <g id="xtick_15">
     <g id="line2d_35">
      <g>
       <use xlink:href="#mb9620b24b7" x="432.353022" y="78.353856" style="fill: #2e3440; stroke: #2e3440"/>
      </g>
     </g>
    </g>
   </g>
   <g id="matplotlib.axis_10">
    <g id="ytick_13">
     <g id="line2d_36">
      <g>
       <use xlink:href="#m1fb5ec9d98" x="375.331965" y="78.353856" style="fill: #2e3440; stroke: #2e3440"/>
      </g>
     </g>
    </g>
    <g id="ytick_14">
     <g id="line2d_37">
      <g>
       <use xlink:href="#m1fb5ec9d98" x="375.331965" y="49.172042" style="fill: #2e3440; stroke: #2e3440"/>
      </g>
     </g>
    </g>
    <g id="ytick_15">
     <g id="line2d_38">
      <g>
       <use xlink:href="#m1fb5ec9d98" x="375.331965" y="19.990228" style="fill: #2e3440; stroke: #2e3440"/>
      </g>
     </g>
    </g>
   </g>
   <g id="line2d_39">
    <path d="M 382.858744 66.115435 
L 383.611422 66.235066 
L 384.3641 61.969806 
L 385.116778 60.558855 
L 385.869456 62.516841 
L 386.622134 58.799113 
L 387.374812 61.388378 
L 388.12749 58.023139 
L 388.880168 60.264829 
L 389.632846 53.826169 
L 390.385524 60.505802 
L 391.138202 57.215974 
L 391.89088 49.993724 
L 392.643558 56.646582 
L 393.396236 53.343726 
L 394.148914 56.671148 
L 394.901592 54.334394 
L 395.65427 53.224592 
L 396.406948 49.682252 
L 397.159626 50.987816 
L 397.912303 48.710022 
L 398.664981 48.814416 
L 399.417659 50.173033 
L 400.170337 47.765781 
L 400.923015 44.09128 
L 401.675693 48.789353 
L 402.428371 48.18656 
L 403.181049 50.10524 
L 403.933727 47.595802 
L 404.686405 43.191755 
L 405.439083 48.361453 
L 406.191761 46.610544 
L 406.944439 45.304484 
L 407.697117 47.739007 
L 408.449795 46.323639 
L 409.202473 43.719137 
L 409.955151 43.733381 
L 410.707829 42.209202 
L 411.460507 46.277707 
L 412.213185 44.577643 
L 412.965862 45.643226 
L 413.71854 49.859353 
L 414.471218 44.251929 
L 415.223896 37.681107 
L 415.976574 44.467839 
L 416.729252 43.944874 
L 417.48193 44.181431 
L 418.234608 43.512557 
L 418.987286 42.904851 
L 419.739964 46.36024 
L 420.492642 41.669289 
L 421.24532 45.820327 
L 421.997998 44.095697 
L 422.750676 43.016863 
L 423.503354 41.399332 
L 424.256032 40.360524 
L 425.00871 42.870458 
L 425.761388 38.113921 
L 426.514066 39.563185 
L 427.266744 39.110718 
L 428.019421 43.26667 
L 428.772099 43.656257 
L 429.524777 41.591173 
L 430.277455 40.351194 
L 431.030133 43.318011 
L 431.782811 40.750111 
L 432.535489 38.192037 
L 433.288167 40.421692 
L 434.040845 36.554853 
L 434.793523 41.688445 
L 435.546201 38.069702 
L 436.298879 40.455588 
L 437.051557 40.229355 
L 437.804235 40.285609 
L 438.556913 35.847666 
L 439.309591 41.591173 
L 440.062269 40.188336 
L 440.814947 37.963099 
L 441.567625 39.697059 
L 442.320303 42.541542 
L 443.07298 42.29836 
L 443.825658 39.028185 
L 444.578336 39.04022 
L 445.331014 34.674983 
L 446.083692 36.645004 
L 446.83637 35.068987 
L 447.589048 34.312667 
" clip-path="url(#pc542e8dc3f)" style="fill: none; stroke: #5e81ac; stroke-width: 1.2; stroke-linecap: round"/>
   </g>
   <g id="line2d_40">
    <path d="M 382.858744 19.990228 
L 383.611422 19.990228 
L 384.3641 19.990228 
L 385.116778 19.990228 
L 385.869456 19.990228 
L 386.622134 19.990228 
L 387.374812 19.990228 
L 388.12749 19.990228 
L 388.880168 19.990228 
L 389.632846 19.990228 
L 390.385524 19.990228 
L 391.138202 19.990228 
L 391.89088 19.990228 
L 392.643558 19.990228 
L 393.396236 19.990228 
L 394.148914 19.990228 
L 394.901592 19.990228 
L 395.65427 19.990228 
L 396.406948 19.990228 
L 397.159626 19.990228 
L 397.912303 19.990228 
L 398.664981 19.990228 
L 399.417659 19.990228 
L 400.170337 19.990228 
L 400.923015 19.990228 
L 401.675693 19.990228 
L 402.428371 19.990228 
L 403.181049 19.990228 
L 403.933727 19.990228 
L 404.686405 19.990228 
L 405.439083 19.990228 
L 406.191761 19.990228 
L 406.944439 19.990228 
L 407.697117 19.990228 
L 408.449795 19.990228 
L 409.202473 19.990228 
L 409.955151 19.990228 
L 410.707829 19.990228 
L 411.460507 19.990228 
L 412.213185 19.990228 
L 412.965862 19.990228 
L 413.71854 19.990228 
L 414.471218 19.990228 
L 415.223896 19.990228 
L 415.976574 19.990228 
L 416.729252 19.990228 
L 417.48193 19.990228 
L 418.234608 19.990228 
L 418.987286 19.990228 
L 419.739964 19.990228 
L 420.492642 19.990228 
L 421.24532 19.990228 
L 421.997998 19.990228 
L 422.750676 19.990228 
L 423.503354 19.990228 
L 424.256032 19.990228 
L 425.00871 19.990228 
L 425.761388 19.990228 
L 426.514066 19.990228 
L 427.266744 19.990228 
L 428.019421 19.990228 
L 428.772099 19.990228 
L 429.524777 19.990228 
L 430.277455 19.990228 
L 431.030133 19.990228 
L 431.782811 19.990228 
L 432.535489 19.990228 
L 433.288167 19.990228 
L 434.040845 19.990228 
L 434.793523 19.990228 
L 435.546201 19.990228 
L 436.298879 19.990228 
L 437.051557 19.990228 
L 437.804235 19.990228 
L 438.556913 19.990228 
L 439.309591 19.990228 
L 440.062269 19.990228 
L 440.814947 19.990228 
L 441.567625 19.990228 
L 442.320303 19.990228 
L 443.07298 19.990228 
L 443.825658 19.990228 
L 444.578336 19.990228 
L 445.331014 19.990228 
L 446.083692 19.990228 
L 446.83637 19.990228 
L 447.589048 19.990228 
" clip-path="url(#pc542e8dc3f)" style="fill: none; stroke: #bf616a; stroke-width: 1.2; stroke-linecap: round"/>
   </g>
   <g id="patch_15">
    <path d="M 375.331965 78.353856 
L 375.331965 14.153865 
" style="fill: none; stroke: #2e3440; stroke-width: 0.5; stroke-linejoin: miter; stroke-linecap: square"/>
   </g>
   <g id="patch_16">
    <path d="M 375.331965 78.353856 
L 450.59976 78.353856 
" style="fill: none; stroke: #2e3440; stroke-width: 0.5; stroke-linejoin: miter; stroke-linecap: square"/>
   </g>
   <g id="text_9">
    <text style="fill: #2e3440; font: 700 7.2px 'Arial'; text-anchor: middle" x="412.965862" y="8.153865" transform="rotate(-0 412.965862 8.153865)">XOR</text>
   </g>
  </g>
  <g id="axes_6">
   <g id="patch_17">
    <path d="M 31.058865 164.507952 
L 106.32666 164.507952 
L 106.32666 100.307961 
L 31.058865 100.307961 
z
" style="fill: #eceff4"/>
   </g>
   <g id="matplotlib.axis_11">
    <g id="xtick_16">
     <g id="line2d_41">
      <g>
       <use xlink:href="#mb9620b24b7" x="31.058865" y="164.507952" style="fill: #2e3440; stroke: #2e3440"/>
      </g>
     </g>
     <g id="text_10">
      <text style="fill: #2e3440; font: 6.6px 'Arial'; text-anchor: middle" x="31.058865" y="177.532108" transform="rotate(-0 31.058865 177.532108)">0</text>
     </g>
    </g>
    <g id="xtick_17">
     <g id="line2d_42">
      <g>
       <use xlink:href="#mb9620b24b7" x="59.569393" y="164.507952" style="fill: #2e3440; stroke: #2e3440"/>
      </g>
     </g>
     <g id="text_11">
      <text style="fill: #2e3440; font: 6.6px 'Arial'; text-anchor: middle" x="59.569393" y="177.532108" transform="rotate(-0 59.569393 177.532108)">50</text>
     </g>
    </g>
    <g id="xtick_18">
     <g id="line2d_43">
      <g>
       <use xlink:href="#mb9620b24b7" x="88.079922" y="164.507952" style="fill: #2e3440; stroke: #2e3440"/>
      </g>
     </g>
     <g id="text_12">
      <text style="fill: #2e3440; font: 6.6px 'Arial'; text-anchor: middle" x="88.079922" y="177.532108" transform="rotate(-0 88.079922 177.532108)">100</text>
     </g>
    </g>
   </g>
   <g id="matplotlib.axis_12">
    <g id="ytick_16">
     <g id="line2d_44">
      <g>
       <use xlink:href="#m1fb5ec9d98" x="31.058865" y="164.507952" style="fill: #2e3440; stroke: #2e3440"/>
      </g>
     </g>
     <g id="text_13">
      <text style="fill: #2e3440; font: 6.6px 'Arial'; text-anchor: end" x="22.758865" y="166.87003" transform="rotate(-0 22.758865 166.87003)">0.0</text>
     </g>
    </g>
    <g id="ytick_17">
     <g id="line2d_45">
      <g>
       <use xlink:href="#m1fb5ec9d98" x="31.058865" y="135.326138" style="fill: #2e3440; stroke: #2e3440"/>
      </g>
     </g>
     <g id="text_14">
      <text style="fill: #2e3440; font: 6.6px 'Arial'; text-anchor: end" x="22.758865" y="137.688216" transform="rotate(-0 22.758865 137.688216)">0.5</text>
     </g>
    </g>
    <g id="ytick_18">
     <g id="line2d_46">
      <g>
       <use xlink:href="#m1fb5ec9d98" x="31.058865" y="106.144324" style="fill: #2e3440; stroke: #2e3440"/>
      </g>
     </g>
     <g id="text_15">
      <text style="fill: #2e3440; font: 6.6px 'Arial'; text-anchor: end" x="22.758865" y="108.506402" transform="rotate(-0 22.758865 108.506402)">1.0</text>
     </g>
    </g>
    <g id="text_16">
     <!-- $\Phi$ score -->
     <g style="fill: #2e3440" transform="translate(8.153865 145.079956) rotate(-90)">
      <text>
       <tspan style="font: 7.2px 'DejaVu Sans'" x="0" y="-0.765625">Φ</tspan>
       <tspan style="font: 7.2px 'Arial'" x="5.657349 7.654266 11.248016 14.841766 18.839111 21.232605" y="-0.765625"> score</tspan>
      </text>
     </g>
    </g>
   </g>
   <g id="line2d_47">
    <path d="M 38.585645 164.913991 
M 40.091 160.461308 
L 40.843678 164.670809 
L 41.596356 163.355419 
L 42.349034 156.294314 
L 43.101712 164.047867 
L 43.85439 167.496135 
L 44.607068 157.757821 
L 45.359746 157.915269 
L 46.112424 167.005354 
L 46.865102 159.367734 
L 47.61778 158.21741 
L 48.370458 159.149119 
L 49.123136 159.442153 
L 49.875814 163.143926 
L 50.628492 157.400419 
L 51.38117 164.087173 
L 52.133848 155.607995 
L 52.886526 159.522974 
L 53.639204 161.529099 
L 54.391881 157.142497 
L 55.144559 159.498904 
L 55.897237 159.76886 
L 56.649915 155.664249 
L 57.402593 156.996588 
L 58.155271 162.122562 
L 58.907949 155.015029 
L 59.660627 154.701349 
L 60.413305 158.497193 
L 61.165983 155.355483 
L 61.918661 154.8249 
L 62.671339 157.305851 
L 63.424017 156.828817 
L 64.176695 158.015743 
L 64.929373 157.111305 
L 65.682051 154.777256 
L 66.434729 155.729834 
L 67.187407 154.76202 
L 67.940085 155.887778 
L 68.692763 154.0057 
L 69.44544 154.973514 
L 70.198118 158.480245 
L 70.950796 153.957064 
L 71.703474 154.737454 
L 72.456152 159.049141 
L 73.20883 154.664251 
L 73.961508 159.394013 
L 74.714186 156.534791 
L 75.466864 152.496261 
L 76.219542 150.813641 
L 76.97222 152.940117 
L 77.724898 153.344444 
L 78.477576 149.22018 
L 79.230254 154.849466 
L 79.982932 148.833794 
L 80.73561 152.320872 
L 81.488288 149.424552 
L 82.240966 149.176457 
L 82.993644 148.486218 
L 83.746322 149.480807 
L 84.498999 153.066869 
L 85.251677 150.55572 
L 86.004355 150.730612 
L 86.757033 148.770418 
L 87.509711 151.268317 
L 88.262389 152.016523 
L 89.015067 149.213059 
L 89.767745 153.454248 
L 90.520423 147.688383 
L 91.273101 153.159725 
L 92.025779 150.125114 
L 92.778457 152.291393 
L 93.531135 153.694725 
L 94.283813 151.314249 
L 95.036491 146.358253 
L 95.789169 146.654985 
L 96.541847 151.286977 
L 97.294525 146.759876 
L 98.047203 145.315028 
L 98.799881 148.152885 
L 99.552558 147.641955 
L 100.305236 142.779312 
L 101.057914 147.296588 
L 101.810592 148.206435 
L 102.56327 143.950506 
L 103.315948 149.22018 
" clip-path="url(#peb228becef)" style="fill: none; stroke: #5e81ac; stroke-width: 1.2; stroke-linecap: round"/>
   </g>
   <g id="line2d_48">
    <path d="M 38.585645 110.123662 
L 39.338322 110.123662 
L 40.091 110.123662 
L 40.843678 110.123662 
L 41.596356 110.123662 
L 42.349034 110.123662 
L 43.101712 110.123662 
L 43.85439 110.123662 
L 44.607068 110.123662 
L 45.359746 110.123662 
L 46.112424 110.123662 
L 46.865102 110.123662 
L 47.61778 110.123662 
L 48.370458 110.123662 
L 49.123136 110.123662 
L 49.875814 110.123662 
L 50.628492 110.123662 
L 51.38117 110.123662 
L 52.133848 110.123662 
L 52.886526 110.123662 
L 53.639204 110.123662 
L 54.391881 110.123662 
L 55.144559 110.123662 
L 55.897237 110.123662 
L 56.649915 110.123662 
L 57.402593 110.123662 
L 58.155271 110.123662 
L 58.907949 110.123662 
L 59.660627 110.123662 
L 60.413305 110.123662 
L 61.165983 110.123662 
L 61.918661 110.123662 
L 62.671339 110.123662 
L 63.424017 110.123662 
L 64.176695 110.123662 
L 64.929373 110.123662 
L 65.682051 110.123662 
L 66.434729 110.123662 
L 67.187407 110.123662 
L 67.940085 110.123662 
L 68.692763 110.123662 
L 69.44544 110.123662 
L 70.198118 110.123662 
L 70.950796 110.123662 
L 71.703474 110.123662 
L 72.456152 110.123662 
L 73.20883 110.123662 
L 73.961508 110.123662 
L 74.714186 110.123662 
L 75.466864 110.123662 
L 76.219542 110.123662 
L 76.97222 110.123662 
L 77.724898 110.123662 
L 78.477576 110.123662 
L 79.230254 110.123662 
L 79.982932 110.123662 
L 80.73561 110.123662 
L 81.488288 110.123662 
L 82.240966 110.123662 
L 82.993644 110.123662 
L 83.746322 110.123662 
L 84.498999 110.123662 
L 85.251677 110.123662 
L 86.004355 110.123662 
L 86.757033 110.123662 
L 87.509711 110.123662 
L 88.262389 110.123662 
L 89.015067 110.123662 
L 89.767745 110.123662 
L 90.520423 110.123662 
L 91.273101 110.123662 
L 92.025779 110.123662 
L 92.778457 110.123662 
L 93.531135 110.123662 
L 94.283813 110.123662 
L 95.036491 110.123662 
L 95.789169 110.123662 
L 96.541847 110.123662 
L 97.294525 110.123662 
L 98.047203 110.123662 
L 98.799881 110.123662 
L 99.552558 110.123662 
L 100.305236 110.123662 
L 101.057914 110.123662 
L 101.810592 110.123662 
L 102.56327 110.123662 
L 103.315948 110.123662 
" clip-path="url(#peb228becef)" style="fill: none; stroke: #bf616a; stroke-width: 1.2; stroke-linecap: round"/>
   </g>
   <g id="patch_18">
    <path d="M 31.058865 164.507952 
L 31.058865 100.307961 
" style="fill: none; stroke: #2e3440; stroke-width: 0.5; stroke-linejoin: miter; stroke-linecap: square"/>
   </g>
   <g id="patch_19">
    <path d="M 31.058865 164.507952 
L 106.32666 164.507952 
" style="fill: none; stroke: #2e3440; stroke-width: 0.5; stroke-linejoin: miter; stroke-linecap: square"/>
   </g>
   <g id="text_17">
    <text style="fill: #2e3440; font: 700 7.2px 'Arial'; text-anchor: middle" x="68.692763" y="94.307961" transform="rotate(-0 68.692763 94.307961)">Checkers</text>
   </g>
  </g>
  <g id="axes_7">
   <g id="patch_20">
    <path d="M 117.12714 164.507952 
L 192.394935 164.507952 
L 192.394935 100.307961 
L 117.12714 100.307961 
z
" style="fill: #eceff4"/>
   </g>
   <g id="matplotlib.axis_13">
    <g id="xtick_19">
     <g id="line2d_49">
      <g>
       <use xlink:href="#mb9620b24b7" x="117.12714" y="164.507952" style="fill: #2e3440; stroke: #2e3440"/>
      </g>
     </g>
     <g id="text_18">
      <text style="fill: #2e3440; font: 6.6px 'Arial'; text-anchor: middle" x="117.12714" y="177.532108" transform="rotate(-0 117.12714 177.532108)">0</text>
     </g>
    </g>
    <g id="xtick_20">
     <g id="line2d_50">
      <g>
       <use xlink:href="#mb9620b24b7" x="145.637668" y="164.507952" style="fill: #2e3440; stroke: #2e3440"/>
      </g>
     </g>
     <g id="text_19">
      <text style="fill: #2e3440; font: 6.6px 'Arial'; text-anchor: middle" x="145.637668" y="177.532108" transform="rotate(-0 145.637668 177.532108)">50</text>
     </g>
    </g>
    <g id="xtick_21">
     <g id="line2d_51">
      <g>
       <use xlink:href="#mb9620b24b7" x="174.148197" y="164.507952" style="fill: #2e3440; stroke: #2e3440"/>
      </g>
     </g>
     <g id="text_20">
      <text style="fill: #2e3440; font: 6.6px 'Arial'; text-anchor: middle" x="174.148197" y="177.532108" transform="rotate(-0 174.148197 177.532108)">100</text>
     </g>
    </g>
   </g>
   <g id="matplotlib.axis_14">
    <g id="ytick_19">
     <g id="line2d_52">
      <g>
       <use xlink:href="#m1fb5ec9d98" x="117.12714" y="164.507952" style="fill: #2e3440; stroke: #2e3440"/>
      </g>
     </g>
    </g>
    <g id="ytick_20">
     <g id="line2d_53">
      <g>
       <use xlink:href="#m1fb5ec9d98" x="117.12714" y="135.326138" style="fill: #2e3440; stroke: #2e3440"/>
      </g>
     </g>
    </g>
    <g id="ytick_21">
     <g id="line2d_54">
      <g>
       <use xlink:href="#m1fb5ec9d98" x="117.12714" y="106.144324" style="fill: #2e3440; stroke: #2e3440"/>
      </g>
     </g>
    </g>
   </g>
   <g id="line2d_55">
    <path d="M 124.65392 146.92715 
L 125.406597 141.100614 
L 126.159275 145.145049 
L 126.911953 139.364941 
L 127.664631 141.516479 
L 128.417309 140.74862 
L 129.169987 146.428255 
L 129.922665 140.769986 
L 130.675343 139.666586 
L 131.428021 144.257064 
L 132.180699 138.053471 
L 132.933377 141.947581 
L 133.686055 137.535916 
L 134.438733 140.804379 
L 135.191411 136.658253 
L 135.944089 137.387302 
L 136.696767 136.847885 
L 137.449445 134.85109 
L 138.202123 140.013665 
L 138.954801 136.137993 
L 139.707478 134.37897 
L 140.460156 135.318297 
L 141.212834 134.26795 
L 141.965512 138.645222 
L 142.71819 131.989163 
L 143.470868 135.298644 
L 144.223546 135.277278 
L 144.976224 132.193535 
L 145.728902 132.470117 
L 146.48158 132.888687 
L 147.234258 132.066783 
L 147.986936 135.750614 
L 148.739614 128.730031 
L 149.492292 128.679682 
L 150.24497 134.846673 
L 150.997648 131.787496 
L 151.750326 132.808859 
L 152.503004 132.307756 
L 153.255682 134.982259 
L 154.00836 130.289595 
L 154.761037 130.855787 
L 155.513715 129.53057 
L 156.266393 126.435288 
L 157.019071 129.425679 
L 157.771749 128.170464 
L 158.524427 133.869529 
L 159.277105 126.220593 
L 160.029783 129.649208 
L 160.782461 129.314163 
L 161.535139 127.186199 
L 162.287817 129.902713 
L 163.040495 127.776957 
L 163.793173 130.06557 
L 164.545851 128.253494 
L 165.298529 127.236547 
L 166.051207 125.425463 
L 166.803885 125.7917 
L 167.556563 132.003406 
L 168.309241 126.641372 
L 169.061919 127.011306 
L 169.814596 122.356459 
L 170.567274 130.578709 
L 171.319952 127.178581 
L 172.07263 128.844748 
L 172.825308 124.970788 
L 173.577986 125.805224 
L 174.330664 123.776244 
L 175.083342 122.509987 
L 175.83602 127.969294 
L 176.588698 121.986525 
L 177.341376 121.930767 
L 178.094054 123.779445 
L 178.846732 125.369705 
L 179.59941 126.772541 
L 180.352088 125.462065 
L 181.104766 125.935897 
L 181.857444 124.588819 
L 182.610122 121.49845 
L 183.3628 125.186698 
L 184.115478 121.089706 
L 184.868155 128.268233 
L 185.620833 125.006893 
L 186.373511 126.719488 
L 187.126189 125.254988 
L 187.878867 125.244665 
L 188.631545 131.713797 
L 189.384223 126.884554 
" clip-path="url(#pf3a4c3a150)" style="fill: none; stroke: #5e81ac; stroke-width: 1.2; stroke-linecap: round"/>
   </g>
   <g id="line2d_56">
    <path d="M 124.65392 106.144324 
L 125.406597 106.144324 
L 126.159275 106.144324 
L 126.911953 106.144324 
L 127.664631 106.144324 
L 128.417309 106.144324 
L 129.169987 106.144324 
L 129.922665 106.144324 
L 130.675343 106.144324 
L 131.428021 106.144324 
L 132.180699 106.144324 
L 132.933377 106.144324 
L 133.686055 106.144324 
L 134.438733 106.144324 
L 135.191411 106.144324 
L 135.944089 106.144324 
L 136.696767 106.144324 
L 137.449445 106.144324 
L 138.202123 106.144324 
L 138.954801 106.144324 
L 139.707478 106.144324 
L 140.460156 106.144324 
L 141.212834 106.144324 
L 141.965512 106.144324 
L 142.71819 106.144324 
L 143.470868 106.144324 
L 144.223546 106.144324 
L 144.976224 106.144324 
L 145.728902 106.144324 
L 146.48158 106.144324 
L 147.234258 106.144324 
L 147.986936 106.144324 
L 148.739614 106.144324 
L 149.492292 106.144324 
L 150.24497 106.144324 
L 150.997648 106.144324 
L 151.750326 106.144324 
L 152.503004 106.144324 
L 153.255682 106.144324 
L 154.00836 106.144324 
L 154.761037 106.144324 
L 155.513715 106.144324 
L 156.266393 106.144324 
L 157.019071 106.144324 
L 157.771749 106.144324 
L 158.524427 106.144324 
L 159.277105 106.144324 
L 160.029783 106.144324 
L 160.782461 106.144324 
L 161.535139 106.144324 
L 162.287817 106.144324 
L 163.040495 106.144324 
L 163.793173 106.144324 
L 164.545851 106.144324 
L 165.298529 106.144324 
L 166.051207 106.144324 
L 166.803885 106.144324 
L 167.556563 106.144324 
L 168.309241 106.144324 
L 169.061919 106.144324 
L 169.814596 106.144324 
L 170.567274 106.144324 
L 171.319952 106.144324 
L 172.07263 106.144324 
L 172.825308 106.144324 
L 173.577986 106.144324 
L 174.330664 106.144324 
L 175.083342 106.144324 
L 175.83602 106.144324 
L 176.588698 106.144324 
L 177.341376 106.144324 
L 178.094054 106.144324 
L 178.846732 106.144324 
L 179.59941 106.144324 
L 180.352088 106.144324 
L 181.104766 106.144324 
L 181.857444 106.144324 
L 182.610122 106.144324 
L 183.3628 106.144324 
L 184.115478 106.144324 
L 184.868155 106.144324 
L 185.620833 106.144324 
L 186.373511 106.144324 
L 187.126189 106.144324 
L 187.878867 106.144324 
L 188.631545 106.144324 
L 189.384223 106.144324 
" clip-path="url(#pf3a4c3a150)" style="fill: none; stroke: #bf616a; stroke-width: 1.2; stroke-linecap: round"/>
   </g>
   <g id="patch_21">
    <path d="M 117.12714 164.507952 
L 117.12714 100.307961 
" style="fill: none; stroke: #2e3440; stroke-width: 0.5; stroke-linejoin: miter; stroke-linecap: square"/>
   </g>
   <g id="patch_22">
    <path d="M 117.12714 164.507952 
L 192.394935 164.507952 
" style="fill: none; stroke: #2e3440; stroke-width: 0.5; stroke-linejoin: miter; stroke-linecap: square"/>
   </g>
   <g id="text_21">
    <text style="fill: #2e3440; font: 700 7.2px 'Arial'; text-anchor: middle" x="154.761037" y="94.307961" transform="rotate(-0 154.761037 94.307961)">Circle</text>
   </g>
  </g>
  <g id="axes_8">
   <g id="patch_23">
    <path d="M 203.195415 164.507952 
L 278.46321 164.507952 
L 278.46321 100.307961 
L 203.195415 100.307961 
z
" style="fill: #eceff4"/>
   </g>
   <g id="matplotlib.axis_15">
    <g id="xtick_22">
     <g id="line2d_57">
      <g>
       <use xlink:href="#mb9620b24b7" x="203.195415" y="164.507952" style="fill: #2e3440; stroke: #2e3440"/>
      </g>
     </g>
     <g id="text_22">
      <text style="fill: #2e3440; font: 6.6px 'Arial'; text-anchor: middle" x="203.195415" y="177.532108" transform="rotate(-0 203.195415 177.532108)">0</text>
     </g>
    </g>
    <g id="xtick_23">
     <g id="line2d_58">
      <g>
       <use xlink:href="#mb9620b24b7" x="231.705943" y="164.507952" style="fill: #2e3440; stroke: #2e3440"/>
      </g>
     </g>
     <g id="text_23">
      <text style="fill: #2e3440; font: 6.6px 'Arial'; text-anchor: middle" x="231.705943" y="177.532108" transform="rotate(-0 231.705943 177.532108)">50</text>
     </g>
    </g>
    <g id="xtick_24">
     <g id="line2d_59">
      <g>
       <use xlink:href="#mb9620b24b7" x="260.216472" y="164.507952" style="fill: #2e3440; stroke: #2e3440"/>
      </g>
     </g>
     <g id="text_24">
      <text style="fill: #2e3440; font: 6.6px 'Arial'; text-anchor: middle" x="260.216472" y="177.532108" transform="rotate(-0 260.216472 177.532108)">100</text>
     </g>
    </g>
    <g id="text_25">
     <text style="fill: #2e3440; font: 7.2px 'Arial'; text-anchor: middle" x="240.829312" y="187.997483" transform="rotate(-0 240.829312 187.997483)">Dataset size</text>
    </g>
   </g>
   <g id="matplotlib.axis_16">
    <g id="ytick_22">
     <g id="line2d_60">
      <g>
       <use xlink:href="#m1fb5ec9d98" x="203.195415" y="164.507952" style="fill: #2e3440; stroke: #2e3440"/>
      </g>
     </g>
    </g>
    <g id="ytick_23">
     <g id="line2d_61">
      <g>
       <use xlink:href="#m1fb5ec9d98" x="203.195415" y="135.326138" style="fill: #2e3440; stroke: #2e3440"/>
      </g>
     </g>
    </g>
    <g id="ytick_24">
     <g id="line2d_62">
      <g>
       <use xlink:href="#m1fb5ec9d98" x="203.195415" y="106.144324" style="fill: #2e3440; stroke: #2e3440"/>
      </g>
     </g>
    </g>
   </g>
   <g id="line2d_63">
    <path d="M 210.722194 143.421412 
L 211.474872 139.97756 
L 212.22755 144.882214 
L 212.980228 139.882496 
L 213.732906 141.387518 
L 214.485584 140.665591 
L 215.238262 141.512062 
L 215.99094 136.19596 
L 216.743618 136.117844 
L 217.496296 137.941955 
L 218.248974 135.38609 
L 219.001652 133.02477 
L 219.75433 137.091067 
L 220.507008 138.576436 
L 221.259686 137.426608 
L 222.012364 134.751609 
L 222.765042 133.353189 
L 223.51772 136.273579 
L 224.270398 131.90663 
L 225.023076 134.88057 
L 225.775753 131.638882 
L 226.528431 131.61702 
L 227.281109 131.947152 
L 228.033787 135.702474 
L 228.786465 137.282908 
L 229.539143 134.090849 
L 230.291821 138.386804 
L 231.044499 130.386868 
L 231.797177 135.335245 
L 232.549855 135.738579 
L 233.302533 132.135072 
L 234.055211 133.428601 
L 234.807889 130.566674 
L 235.560567 131.697345 
L 236.313245 132.638384 
L 237.065923 130.469401 
L 237.818601 130.311457 
L 238.571279 129.38687 
L 239.323957 134.321003 
L 240.076635 130.503297 
L 240.829312 132.794119 
L 241.58199 129.238256 
L 242.334668 124.978406 
L 243.087346 128.431091 
L 243.840024 128.392777 
L 244.592702 129.367713 
L 245.34538 128.846956 
L 246.098058 131.18912 
L 246.850736 134.123753 
L 247.603414 128.090636 
L 248.356092 130.941521 
L 249.10877 125.440203 
L 249.861448 128.173666 
L 250.614126 129.20756 
L 251.366804 127.045203 
L 252.119482 130.63938 
L 252.87216 129.798318 
L 253.624838 128.922864 
L 254.377516 124.136848 
L 255.130194 125.559834 
L 255.882871 127.769835 
L 256.635549 127.278558 
L 257.388227 123.537976 
L 258.140905 125.865895 
L 258.893583 123.480009 
L 259.646261 130.422973 
L 260.398939 127.614596 
L 261.151617 128.436004 
L 261.904295 128.000982 
L 262.656973 129.822388 
L 263.409651 130.37925 
L 264.162329 127.320073 
L 264.915007 120.218668 
L 265.667685 125.451742 
L 266.420363 121.397976 
L 267.173041 127.021133 
L 267.925719 123.861978 
L 268.678397 129.562258 
L 269.431075 125.691003 
L 270.183753 123.431373 
L 270.93643 126.744054 
L 271.689108 123.749966 
L 272.441786 128.827303 
L 273.194464 127.402606 
L 273.947142 120.497955 
L 274.69982 123.68118 
L 275.452498 123.852152 
" clip-path="url(#p7db7a84f5f)" style="fill: none; stroke: #5e81ac; stroke-width: 1.2; stroke-linecap: round"/>
   </g>
   <g id="line2d_64">
    <path d="M 210.722194 106.144324 
L 211.474872 106.144324 
L 212.22755 106.144324 
L 212.980228 106.144324 
L 213.732906 106.144324 
L 214.485584 106.144324 
L 215.238262 106.144324 
L 215.99094 106.144324 
L 216.743618 106.144324 
L 217.496296 106.144324 
L 218.248974 106.144324 
L 219.001652 106.144324 
L 219.75433 106.144324 
L 220.507008 106.144324 
L 221.259686 106.144324 
L 222.012364 106.144324 
L 222.765042 106.144324 
L 223.51772 106.144324 
L 224.270398 106.144324 
L 225.023076 106.144324 
L 225.775753 106.144324 
L 226.528431 106.144324 
L 227.281109 106.144324 
L 228.033787 106.144324 
L 228.786465 106.144324 
L 229.539143 106.144324 
L 230.291821 106.144324 
L 231.044499 106.144324 
L 231.797177 106.144324 
L 232.549855 106.144324 
L 233.302533 106.144324 
L 234.055211 106.144324 
L 234.807889 106.144324 
L 235.560567 106.144324 
L 236.313245 106.144324 
L 237.065923 106.144324 
L 237.818601 106.144324 
L 238.571279 106.144324 
L 239.323957 106.144324 
L 240.076635 106.144324 
L 240.829312 106.144324 
L 241.58199 106.144324 
L 242.334668 106.144324 
L 243.087346 106.144324 
L 243.840024 106.144324 
L 244.592702 106.144324 
L 245.34538 106.144324 
L 246.098058 106.144324 
L 246.850736 106.144324 
L 247.603414 106.144324 
L 248.356092 106.144324 
L 249.10877 106.144324 
L 249.861448 106.144324 
L 250.614126 106.144324 
L 251.366804 106.144324 
L 252.119482 106.144324 
L 252.87216 106.144324 
L 253.624838 106.144324 
L 254.377516 106.144324 
L 255.130194 106.144324 
L 255.882871 106.144324 
L 256.635549 106.144324 
L 257.388227 106.144324 
L 258.140905 106.144324 
L 258.893583 106.144324 
L 259.646261 106.144324 
L 260.398939 106.144324 
L 261.151617 106.144324 
L 261.904295 106.144324 
L 262.656973 106.144324 
L 263.409651 106.144324 
L 264.162329 106.144324 
L 264.915007 106.144324 
L 265.667685 106.144324 
L 266.420363 106.144324 
L 267.173041 106.144324 
L 267.925719 106.144324 
L 268.678397 106.144324 
L 269.431075 106.144324 
L 270.183753 106.144324 
L 270.93643 106.144324 
L 271.689108 106.144324 
L 272.441786 106.144324 
L 273.194464 106.144324 
L 273.947142 106.144324 
L 274.69982 106.144324 
L 275.452498 106.144324 
" clip-path="url(#p7db7a84f5f)" style="fill: none; stroke: #bf616a; stroke-width: 1.2; stroke-linecap: round"/>
   </g>
   <g id="patch_24">
    <path d="M 203.195415 164.507952 
L 203.195415 100.307961 
" style="fill: none; stroke: #2e3440; stroke-width: 0.5; stroke-linejoin: miter; stroke-linecap: square"/>
   </g>
   <g id="patch_25">
    <path d="M 203.195415 164.507952 
L 278.46321 164.507952 
" style="fill: none; stroke: #2e3440; stroke-width: 0.5; stroke-linejoin: miter; stroke-linecap: square"/>
   </g>
   <g id="text_26">
    <text style="fill: #2e3440; font: 700 7.2px 'Arial'; text-anchor: middle" x="240.829312" y="94.307961" transform="rotate(-0 240.829312 94.307961)">Sine</text>
   </g>
   <g id="legend_1">
    <g id="patch_26">
     <path d="M 212.239453 214.139761 
L 269.419172 214.139761 
Q 270.739172 214.139761 270.739172 212.819761 
L 270.739172 194.807948 
Q 270.739172 193.487948 269.419172 193.487948 
L 212.239453 193.487948 
Q 210.919453 193.487948 210.919453 194.807948 
L 210.919453 212.819761 
Q 210.919453 214.139761 212.239453 214.139761 
z
" style="fill: #eceff4; opacity: 0.8; stroke: #cccccc; stroke-width: 0.8; stroke-linejoin: miter"/>
    </g>
    <g id="line2d_65">
     <path d="M 213.559453 198.542105 
L 220.159453 198.542105 
L 226.759453 198.542105 
" style="fill: none; stroke: #bf616a; stroke-linecap: round"/>
    </g>
    <g id="text_27">
     <text style="fill: #2e3440; font: 6.6px 'Arial'; text-anchor: start" x="232.039453" y="200.852105" transform="rotate(-0 232.039453 200.852105)">Train scores</text>
    </g>
    <g id="line2d_66">
     <path d="M 213.559453 207.878011 
L 220.159453 207.878011 
L 226.759453 207.878011 
" style="fill: none; stroke: #5e81ac; stroke-linecap: round"/>
    </g>
    <g id="text_28">
     <text style="fill: #2e3440; font: 6.6px 'Arial'; text-anchor: start" x="232.039453" y="210.188011" transform="rotate(-0 232.039453 210.188011)">Test scores</text>
    </g>
   </g>
  </g>
  <g id="axes_9">
   <g id="patch_27">
    <path d="M 289.26369 164.507952 
L 364.531485 164.507952 
L 364.531485 100.307961 
L 289.26369 100.307961 
z
" style="fill: #eceff4"/>
   </g>
   <g id="matplotlib.axis_17">
    <g id="xtick_25">
     <g id="line2d_67">
      <g>
       <use xlink:href="#mb9620b24b7" x="289.26369" y="164.507952" style="fill: #2e3440; stroke: #2e3440"/>
      </g>
     </g>
     <g id="text_29">
      <text style="fill: #2e3440; font: 6.6px 'Arial'; text-anchor: middle" x="289.26369" y="177.532108" transform="rotate(-0 289.26369 177.532108)">0</text>
     </g>
    </g>
    <g id="xtick_26">
     <g id="line2d_68">
      <g>
       <use xlink:href="#mb9620b24b7" x="317.774218" y="164.507952" style="fill: #2e3440; stroke: #2e3440"/>
      </g>
     </g>
     <g id="text_30">
      <text style="fill: #2e3440; font: 6.6px 'Arial'; text-anchor: middle" x="317.774218" y="177.532108" transform="rotate(-0 317.774218 177.532108)">50</text>
     </g>
    </g>
    <g id="xtick_27">
     <g id="line2d_69">
      <g>
       <use xlink:href="#mb9620b24b7" x="346.284747" y="164.507952" style="fill: #2e3440; stroke: #2e3440"/>
      </g>
     </g>
     <g id="text_31">
      <text style="fill: #2e3440; font: 6.6px 'Arial'; text-anchor: middle" x="346.284747" y="177.532108" transform="rotate(-0 346.284747 177.532108)">100</text>
     </g>
    </g>
   </g>
   <g id="matplotlib.axis_18">
    <g id="ytick_25">
     <g id="line2d_70">
      <g>
       <use xlink:href="#m1fb5ec9d98" x="289.26369" y="164.507952" style="fill: #2e3440; stroke: #2e3440"/>
      </g>
     </g>
    </g>
    <g id="ytick_26">
     <g id="line2d_71">
      <g>
       <use xlink:href="#m1fb5ec9d98" x="289.26369" y="135.326138" style="fill: #2e3440; stroke: #2e3440"/>
      </g>
     </g>
    </g>
    <g id="ytick_27">
     <g id="line2d_72">
      <g>
       <use xlink:href="#m1fb5ec9d98" x="289.26369" y="106.144324" style="fill: #2e3440; stroke: #2e3440"/>
      </g>
     </g>
    </g>
   </g>
   <g id="line2d_73">
    <path d="M 296.790469 153.173969 
L 297.543147 153.057043 
L 298.295825 156.731545 
L 299.048503 159.727346 
L 299.801181 158.096067 
L 300.553859 153.293103 
L 301.306537 160.230657 
L 302.059215 157.816781 
L 302.811893 153.064661 
L 303.564571 158.122346 
L 304.317249 158.827821 
L 305.069927 152.31375 
L 305.822605 155.911848 
L 306.575283 152.437798 
L 307.327961 152.447128 
L 308.080639 159.455181 
L 308.833317 154.03518 
L 309.585995 157.480743 
L 310.338673 155.751696 
L 311.091351 152.914335 
L 311.844028 154.703557 
L 312.596706 154.917756 
L 313.349384 157.539206 
L 314.102062 152.427475 
L 314.85474 156.311758 
L 315.607418 149.869898 
L 316.360096 150.244249 
L 317.112774 152.016523 
L 317.865452 147.379617 
L 318.61813 144.014378 
L 319.370808 154.341241 
L 320.123486 151.102258 
L 320.876164 146.248946 
L 321.628842 150.915331 
L 322.38152 151.06124 
L 323.134198 148.437085 
L 323.886876 151.403903 
L 324.639554 145.407884 
L 325.392232 144.415008 
L 326.14491 147.496046 
L 326.897587 147.844615 
L 327.650265 150.424054 
L 328.402943 150.457951 
L 329.155621 148.573664 
L 329.908299 152.233426 
L 330.660977 152.721998 
L 331.413655 143.282128 
L 332.166333 148.646867 
L 332.919011 145.266888 
L 333.671689 150.769422 
L 334.424367 144.023212 
L 335.177045 145.743425 
L 335.929723 147.566544 
L 336.682401 144.619876 
L 337.435079 144.99522 
L 338.187757 145.709032 
L 338.940435 144.004552 
L 339.693113 146.926654 
L 340.445791 144.610546 
L 341.198469 141.060092 
L 341.951146 147.729898 
L 342.703824 142.94609 
L 343.456502 140.456306 
L 344.20918 142.275008 
L 344.961858 140.529509 
L 345.714536 143.027407 
L 346.467214 142.611045 
L 347.219892 145.57295 
L 347.97257 144.357537 
L 348.725248 144.133016 
L 349.477926 136.612322 
L 350.230604 145.694293 
L 350.983282 144.818838 
L 351.73596 142.681543 
L 352.488638 140.626781 
L 353.241316 136.502021 
L 353.993994 138.703189 
L 354.746672 141.923015 
L 355.49935 137.754532 
L 356.252028 142.304488 
L 357.004705 142.649855 
L 357.757383 135.988883 
L 358.510061 140.408166 
L 359.262739 139.879791 
L 360.015417 136.682323 
L 360.768095 139.656263 
L 361.520773 139.233275 
" clip-path="url(#p3d5e0770f2)" style="fill: none; stroke: #5e81ac; stroke-width: 1.2; stroke-linecap: round"/>
   </g>
   <g id="line2d_74">
    <path d="M 296.790469 108.355067 
L 297.543147 108.355067 
L 298.295825 108.355067 
L 299.048503 108.355067 
L 299.801181 108.355067 
L 300.553859 108.355067 
L 301.306537 108.355067 
L 302.059215 108.355067 
L 302.811893 108.355067 
L 303.564571 108.355067 
L 304.317249 108.355067 
L 305.069927 108.355067 
L 305.822605 108.355067 
L 306.575283 108.355067 
L 307.327961 108.355067 
L 308.080639 108.355067 
L 308.833317 108.355067 
L 309.585995 108.355067 
L 310.338673 108.355067 
L 311.091351 108.355067 
L 311.844028 108.355067 
L 312.596706 108.355067 
L 313.349384 108.355067 
L 314.102062 108.355067 
L 314.85474 108.355067 
L 315.607418 108.355067 
L 316.360096 108.355067 
L 317.112774 108.355067 
L 317.865452 108.355067 
L 318.61813 108.355067 
L 319.370808 108.355067 
L 320.123486 108.355067 
L 320.876164 108.355067 
L 321.628842 108.355067 
L 322.38152 108.355067 
L 323.134198 108.355067 
L 323.886876 108.355067 
L 324.639554 108.355067 
L 325.392232 108.355067 
L 326.14491 108.355067 
L 326.897587 108.355067 
L 327.650265 108.355067 
L 328.402943 108.355067 
L 329.155621 108.355067 
L 329.908299 108.355067 
L 330.660977 108.355067 
L 331.413655 108.355067 
L 332.166333 108.355067 
L 332.919011 108.355067 
L 333.671689 108.355067 
L 334.424367 108.355067 
L 335.177045 108.355067 
L 335.929723 108.355067 
L 336.682401 108.355067 
L 337.435079 108.355067 
L 338.187757 108.355067 
L 338.940435 108.355067 
L 339.693113 108.355067 
L 340.445791 108.355067 
L 341.198469 108.355067 
L 341.951146 108.355067 
L 342.703824 108.355067 
L 343.456502 108.355067 
L 344.20918 108.355067 
L 344.961858 108.355067 
L 345.714536 108.355067 
L 346.467214 108.355067 
L 347.219892 108.355067 
L 347.97257 108.355067 
L 348.725248 108.355067 
L 349.477926 108.355067 
L 350.230604 108.355067 
L 350.983282 108.355067 
L 351.73596 108.355067 
L 352.488638 108.355067 
L 353.241316 108.355067 
L 353.993994 108.355067 
L 354.746672 108.355067 
L 355.49935 108.355067 
L 356.252028 108.355067 
L 357.004705 108.355067 
L 357.757383 108.355067 
L 358.510061 108.355067 
L 359.262739 108.355067 
L 360.015417 108.355067 
L 360.768095 108.355067 
L 361.520773 108.355067 
" clip-path="url(#p3d5e0770f2)" style="fill: none; stroke: #bf616a; stroke-width: 1.2; stroke-linecap: round"/>
   </g>
   <g id="patch_28">
    <path d="M 289.26369 164.507952 
L 289.26369 100.307961 
" style="fill: none; stroke: #2e3440; stroke-width: 0.5; stroke-linejoin: miter; stroke-linecap: square"/>
   </g>
   <g id="patch_29">
    <path d="M 289.26369 164.507952 
L 364.531485 164.507952 
" style="fill: none; stroke: #2e3440; stroke-width: 0.5; stroke-linejoin: miter; stroke-linecap: square"/>
   </g>
   <g id="text_32">
    <text style="fill: #2e3440; font: 700 7.2px 'Arial'; text-anchor: middle" x="326.897587" y="94.307961" transform="rotate(-0 326.897587 94.307961)">Concentric</text>
   </g>
  </g>
  <g id="axes_10">
   <g id="patch_30">
    <path d="M 375.331965 164.507952 
L 450.59976 164.507952 
L 450.59976 100.307961 
L 375.331965 100.307961 
z
" style="fill: #eceff4"/>
   </g>
   <g id="matplotlib.axis_19">
    <g id="xtick_28">
     <g id="line2d_75">
      <g>
       <use xlink:href="#mb9620b24b7" x="375.331965" y="164.507952" style="fill: #2e3440; stroke: #2e3440"/>
      </g>
     </g>
     <g id="text_33">
      <text style="fill: #2e3440; font: 6.6px 'Arial'; text-anchor: middle" x="375.331965" y="177.532108" transform="rotate(-0 375.331965 177.532108)">0</text>
     </g>
    </g>
    <g id="xtick_29">
     <g id="line2d_76">
      <g>
       <use xlink:href="#mb9620b24b7" x="403.842493" y="164.507952" style="fill: #2e3440; stroke: #2e3440"/>
      </g>
     </g>
     <g id="text_34">
      <text style="fill: #2e3440; font: 6.6px 'Arial'; text-anchor: middle" x="403.842493" y="177.532108" transform="rotate(-0 403.842493 177.532108)">50</text>
     </g>
    </g>
    <g id="xtick_30">
     <g id="line2d_77">
      <g>
       <use xlink:href="#mb9620b24b7" x="432.353022" y="164.507952" style="fill: #2e3440; stroke: #2e3440"/>
      </g>
     </g>
     <g id="text_35">
      <text style="fill: #2e3440; font: 6.6px 'Arial'; text-anchor: middle" x="432.353022" y="177.532108" transform="rotate(-0 432.353022 177.532108)">100</text>
     </g>
    </g>
   </g>
   <g id="matplotlib.axis_20">
    <g id="ytick_28">
     <g id="line2d_78">
      <g>
       <use xlink:href="#m1fb5ec9d98" x="375.331965" y="164.507952" style="fill: #2e3440; stroke: #2e3440"/>
      </g>
     </g>
    </g>
    <g id="ytick_29">
     <g id="line2d_79">
      <g>
       <use xlink:href="#m1fb5ec9d98" x="375.331965" y="135.326138" style="fill: #2e3440; stroke: #2e3440"/>
      </g>
     </g>
    </g>
    <g id="ytick_30">
     <g id="line2d_80">
      <g>
       <use xlink:href="#m1fb5ec9d98" x="375.331965" y="106.144324" style="fill: #2e3440; stroke: #2e3440"/>
      </g>
     </g>
    </g>
   </g>
   <g id="line2d_81">
    <path d="M 382.858744 161.059684 
L 383.611422 156.02927 
L 384.3641 156.938621 
L 385.116778 154.698644 
L 385.869456 153.495266 
L 386.622134 156.527669 
L 387.374812 159.720224 
L 388.12749 155.270245 
L 388.880168 154.105678 
L 389.632846 154.659834 
L 390.385524 149.475893 
L 391.138202 146.526024 
L 391.89088 149.723989 
L 392.643558 145.178946 
L 393.396236 146.65769 
L 394.148914 148.35284 
L 394.901592 152.967388 
L 395.65427 149.53386 
L 396.406948 149.32728 
L 397.159626 147.662105 
L 397.912303 141.915397 
L 398.664981 142.995223 
L 399.417659 149.108168 
L 400.170337 145.867473 
L 400.923015 142.40717 
L 401.675693 146.83479 
L 402.428371 146.136933 
L 403.181049 147.768708 
L 403.933727 142.255851 
L 404.686405 143.708316 
L 405.439083 140.687949 
L 406.191761 142.277713 
L 406.944439 143.859139 
L 407.697117 140.214836 
L 408.449795 141.748122 
L 409.202473 141.40005 
L 409.955151 139.721847 
L 410.707829 137.286109 
L 411.460507 143.6302 
L 412.213185 139.690159 
L 412.965862 144.376694 
L 413.71854 142.317019 
L 414.471218 143.000136 
L 415.223896 141.70832 
L 415.976574 142.68204 
L 416.729252 139.743709 
L 417.48193 137.426608 
L 418.234608 142.832366 
L 418.987286 139.345288 
L 419.739964 143.542754 
L 420.492642 138.377474 
L 421.24532 141.100614 
L 421.997998 140.911478 
L 422.750676 137.409164 
L 423.503354 140.055676 
L 424.256032 136.981759 
L 425.00871 138.198165 
L 425.761388 136.621652 
L 426.514066 139.525093 
L 427.266744 137.759445 
L 428.019421 136.223231 
L 428.772099 134.459294 
L 429.524777 133.672279 
L 430.277455 138.688449 
L 431.030133 136.753317 
L 431.782811 136.787214 
L 432.535489 135.507929 
L 433.288167 140.094486 
L 434.040845 137.027195 
L 434.793523 134.82702 
L 435.546201 132.840051 
L 436.298879 136.339164 
L 437.051557 132.579921 
L 437.804235 130.099467 
L 438.556913 134.459791 
L 439.309591 136.198664 
L 440.062269 130.683599 
L 440.814947 140.115851 
L 441.567625 132.737865 
L 442.320303 131.202867 
L 443.07298 134.058665 
L 443.825658 132.876652 
L 444.578336 132.954768 
L 445.331014 134.034098 
L 446.083692 130.357388 
L 446.83637 132.288103 
L 447.589048 129.954054 
" clip-path="url(#pf0e2c80893)" style="fill: none; stroke: #5e81ac; stroke-width: 1.2; stroke-linecap: round"/>
   </g>
   <g id="line2d_82">
    <path d="M 382.858744 107.47077 
L 383.611422 107.47077 
L 384.3641 107.47077 
L 385.116778 107.47077 
L 385.869456 107.47077 
L 386.622134 107.47077 
L 387.374812 107.47077 
L 388.12749 107.47077 
L 388.880168 107.47077 
L 389.632846 107.47077 
L 390.385524 107.47077 
L 391.138202 107.47077 
L 391.89088 107.47077 
L 392.643558 107.47077 
L 393.396236 107.47077 
L 394.148914 107.47077 
L 394.901592 107.47077 
L 395.65427 107.47077 
L 396.406948 107.47077 
L 397.159626 107.47077 
L 397.912303 107.47077 
L 398.664981 107.47077 
L 399.417659 107.47077 
L 400.170337 107.47077 
L 400.923015 107.47077 
L 401.675693 107.47077 
L 402.428371 107.47077 
L 403.181049 107.47077 
L 403.933727 107.47077 
L 404.686405 107.47077 
L 405.439083 107.47077 
L 406.191761 107.47077 
L 406.944439 107.47077 
L 407.697117 107.47077 
L 408.449795 107.47077 
L 409.202473 107.47077 
L 409.955151 107.47077 
L 410.707829 107.47077 
L 411.460507 107.47077 
L 412.213185 107.47077 
L 412.965862 107.47077 
L 413.71854 107.47077 
L 414.471218 107.47077 
L 415.223896 107.47077 
L 415.976574 107.47077 
L 416.729252 107.47077 
L 417.48193 107.47077 
L 418.234608 107.47077 
L 418.987286 107.47077 
L 419.739964 107.47077 
L 420.492642 107.47077 
L 421.24532 107.47077 
L 421.997998 107.47077 
L 422.750676 107.47077 
L 423.503354 107.47077 
L 424.256032 107.47077 
L 425.00871 107.47077 
L 425.761388 107.47077 
L 426.514066 107.47077 
L 427.266744 107.47077 
L 428.019421 107.47077 
L 428.772099 107.47077 
L 429.524777 107.47077 
L 430.277455 107.47077 
L 431.030133 107.47077 
L 431.782811 107.47077 
L 432.535489 107.47077 
L 433.288167 107.47077 
L 434.040845 107.47077 
L 434.793523 107.47077 
L 435.546201 107.47077 
L 436.298879 107.47077 
L 437.051557 107.47077 
L 437.804235 107.47077 
L 438.556913 107.47077 
L 439.309591 107.47077 
L 440.062269 107.47077 
L 440.814947 107.47077 
L 441.567625 107.47077 
L 442.320303 107.47077 
L 443.07298 107.47077 
L 443.825658 107.47077 
L 444.578336 107.47077 
L 445.331014 107.47077 
L 446.083692 107.47077 
L 446.83637 107.47077 
L 447.589048 107.47077 
" clip-path="url(#pf0e2c80893)" style="fill: none; stroke: #bf616a; stroke-width: 1.2; stroke-linecap: round"/>
   </g>
   <g id="patch_31">
    <path d="M 375.331965 164.507952 
L 375.331965 100.307961 
" style="fill: none; stroke: #2e3440; stroke-width: 0.5; stroke-linejoin: miter; stroke-linecap: square"/>
   </g>
   <g id="patch_32">
    <path d="M 375.331965 164.507952 
L 450.59976 164.507952 
" style="fill: none; stroke: #2e3440; stroke-width: 0.5; stroke-linejoin: miter; stroke-linecap: square"/>
   </g>
   <g id="text_36">
    <text style="fill: #2e3440; font: 700 7.2px 'Arial'; text-anchor: middle" x="412.965862" y="94.307961" transform="rotate(-0 412.965862 94.307961)">Dots</text>
   </g>
  </g>
 </g>
 <defs>
  <clipPath id="p6b9ce19d2c">
   <rect x="31.058865" y="14.153865" width="75.267795" height="64.199991"/>
  </clipPath>
  <clipPath id="p8e09f9caec">
   <rect x="117.12714" y="14.153865" width="75.267795" height="64.199991"/>
  </clipPath>
  <clipPath id="pa1fecfd5ae">
   <rect x="203.195415" y="14.153865" width="75.267795" height="64.199991"/>
  </clipPath>
  <clipPath id="pee5dcb9844">
   <rect x="289.26369" y="14.153865" width="75.267795" height="64.199991"/>
  </clipPath>
  <clipPath id="pc542e8dc3f">
   <rect x="375.331965" y="14.153865" width="75.267795" height="64.199991"/>
  </clipPath>
  <clipPath id="peb228becef">
   <rect x="31.058865" y="100.307961" width="75.267795" height="64.199991"/>
  </clipPath>
  <clipPath id="pf3a4c3a150">
   <rect x="117.12714" y="100.307961" width="75.267795" height="64.199991"/>
  </clipPath>
  <clipPath id="p7db7a84f5f">
   <rect x="203.195415" y="100.307961" width="75.267795" height="64.199991"/>
  </clipPath>
  <clipPath id="p3d5e0770f2">
   <rect x="289.26369" y="100.307961" width="75.267795" height="64.199991"/>
  </clipPath>
  <clipPath id="pf0e2c80893">
   <rect x="375.331965" y="100.307961" width="75.267795" height="64.199991"/>
  </clipPath>
 </defs>
</svg>
